<svg width="295" height="60" viewBox="0 0 295 60" fill="none" xmlns="http://www.w3.org/2000/svg">
<path d="M15.2194 18C14.6012 18 14.0558 17.9091 13.583 17.7273C13.1176 17.5455 12.6958 17.28 12.3176 16.9309C12.1212 17.1782 11.9139 17.3782 11.6958 17.5309C11.4776 17.6764 11.2594 17.7927 11.0412 17.88C10.823 17.96 10.6121 18.0109 10.4085 18.0327C10.2121 18.0618 10.0412 18.0764 9.89575 18.0764C9.77212 18.0764 9.61212 18.0582 9.41575 18.0218C9.21939 17.9855 8.95393 17.9091 8.61939 17.7927C8.28484 17.6764 7.86303 17.5091 7.35393 17.2909C6.84484 17.0727 6.21575 16.7782 5.46666 16.4073C4.96484 16.16 4.49212 15.9236 4.04848 15.6982C3.61212 15.4655 3.25575 15.2727 2.97939 15.12V25.2H0.92848V13.8982L2.91393 12.7418C3.12484 12.8582 3.34303 12.9782 3.56848 13.1018C3.75757 13.2036 3.96121 13.3164 4.17939 13.44C4.40484 13.5636 4.62303 13.6764 4.83393 13.7782C4.94303 13.1236 5.06666 12.5345 5.20484 12.0109C5.3503 11.48 5.52848 11.0036 5.73939 10.5818C6.44484 9.16364 7.55757 8.45455 9.07757 8.45455C9.75393 8.45455 10.3503 8.59273 10.8667 8.86909C11.3903 9.13818 11.8267 9.49818 12.1758 9.94909C12.5321 10.4 12.8012 10.9236 12.983 11.52C13.1648 12.1164 13.2558 12.7345 13.2558 13.3745C13.2558 13.4982 13.2521 13.6182 13.2448 13.7345C13.2448 13.8436 13.2412 13.9491 13.2339 14.0509C13.2339 14.4509 13.3139 14.7745 13.4739 15.0218C13.6412 15.2691 13.8339 15.4618 14.0521 15.6C14.2703 15.7309 14.4885 15.8218 14.7067 15.8727C14.9321 15.9164 15.103 15.9382 15.2194 15.9382H15.5794V18H15.2194ZM6.65575 14.64C7.27393 14.9455 7.78666 15.1891 8.19393 15.3709C8.60848 15.5455 8.93939 15.6836 9.18666 15.7855C9.43393 15.88 9.60848 15.9418 9.7103 15.9709C9.81939 16 9.88121 16.0145 9.89575 16.0145C9.97575 16.0145 10.0921 16 10.2448 15.9709C10.4048 15.9418 10.5612 15.8473 10.7139 15.6873C10.8739 15.52 11.0121 15.2582 11.1285 14.9018C11.2448 14.5455 11.303 14.0364 11.303 13.3745C11.303 13.2945 11.2921 13.1673 11.2703 12.9927C11.2558 12.8182 11.223 12.6255 11.1721 12.4145C11.1212 12.2036 11.0448 11.9855 10.943 11.76C10.8485 11.5345 10.7176 11.3309 10.5503 11.1491C10.383 10.96 10.1794 10.8073 9.93939 10.6909C9.69939 10.5673 9.41212 10.5055 9.07757 10.5055C8.79393 10.5055 8.53212 10.5527 8.29212 10.6473C8.05939 10.7345 7.84484 10.9236 7.64848 11.2145C7.45212 11.5055 7.2703 11.9236 7.10303 12.4691C6.94303 13.0145 6.79393 13.7382 6.65575 14.64ZM27.0656 15.9382V18H25.1565C24.4947 18 23.9093 17.9055 23.4002 17.7164C22.8984 17.5273 22.4947 17.2436 22.1893 16.8655C21.4329 17.6218 20.3129 18 18.8293 18H15.1202V15.9382H18.8293C19.3529 15.9382 19.7675 15.8873 20.0729 15.7855C20.3784 15.6764 20.6075 15.5455 20.7602 15.3927C20.9202 15.2327 21.022 15.0582 21.0656 14.8691C21.1165 14.6727 21.142 14.4873 21.142 14.3127V10.6255H23.1929V14.2364C23.1929 14.5055 23.2329 14.7345 23.3129 14.9236C23.4002 15.1127 23.5056 15.2727 23.6293 15.4036C23.7529 15.5273 23.8911 15.6255 24.0438 15.6982C24.2038 15.7709 24.3565 15.8255 24.502 15.8618C24.6475 15.8982 24.7784 15.92 24.8947 15.9273C25.0111 15.9345 25.0984 15.9382 25.1565 15.9382H27.0656ZM24.0547 22.2218L22.2875 23.9891L20.5856 22.2218L22.3093 20.4764L24.0547 22.2218ZM19.8765 22.2436L18.1093 24.0109L16.4075 22.2436L18.1311 20.4982L19.8765 22.2436ZM33.6704 15.1855C33.9395 15.0691 34.1868 14.9236 34.4122 14.7491C34.645 14.5745 34.845 14.3782 35.0122 14.16C35.1868 13.9345 35.3213 13.6909 35.4159 13.4291C35.5104 13.1673 35.5577 12.8836 35.5577 12.5782C35.5577 12.2145 35.4813 11.9091 35.3286 11.6618C35.1759 11.4073 34.994 11.2036 34.7831 11.0509C34.5722 10.8909 34.3504 10.7782 34.1177 10.7127C33.8922 10.64 33.6995 10.6036 33.5395 10.6036C33.2413 10.6036 32.965 10.6509 32.7104 10.7455C32.4631 10.8327 32.245 10.9564 32.0559 11.1164C31.874 11.2764 31.7286 11.4691 31.6195 11.6945C31.5177 11.92 31.4668 12.1636 31.4668 12.4255C31.4668 12.7382 31.5068 13.0218 31.5868 13.2764C31.674 13.5236 31.805 13.7564 31.9795 13.9745C32.1613 14.1855 32.3904 14.3891 32.6668 14.5855C32.9431 14.7818 33.2777 14.9818 33.6704 15.1855ZM36.4522 6.52364C37.2522 7.36 37.9904 8.14182 38.6668 8.86909C38.9577 9.18182 39.2486 9.49818 39.5395 9.81818C39.8304 10.1309 40.0995 10.4327 40.3468 10.7236C40.6013 11.0073 40.8231 11.2691 41.0122 11.5091C41.2086 11.7418 41.354 11.9309 41.4486 12.0764C41.645 12.3964 41.805 12.7055 41.9286 13.0036C42.0595 13.3018 42.1504 13.6036 42.2013 13.9091C42.2304 14.0909 42.245 14.2764 42.245 14.4655C42.245 14.5891 42.234 14.7636 42.2122 14.9891C42.1904 15.2145 42.125 15.5127 42.0159 15.8836C41.8995 16.3055 41.714 16.6909 41.4595 17.04C41.2122 17.3818 40.9104 17.6764 40.554 17.9236C40.1977 18.1709 39.794 18.36 39.3431 18.4909C38.8922 18.6291 38.405 18.6982 37.8813 18.6982C37.3868 18.6982 36.874 18.6327 36.3431 18.5018C35.8122 18.3709 35.2631 18.1673 34.6959 17.8909C34.5359 17.8255 34.3868 17.76 34.2486 17.6945C34.125 17.6364 33.9977 17.5782 33.8668 17.52C33.7431 17.4618 33.6413 17.4109 33.5613 17.3673C32.8777 17.5782 32.0777 17.7382 31.1613 17.8473C30.245 17.9491 29.2559 18 28.194 18H26.5904V15.9382H28.194C28.6668 15.9382 29.154 15.9309 29.6559 15.9164C30.165 15.9018 30.6159 15.8691 31.0086 15.8182C30.485 15.36 30.1031 14.8582 29.8631 14.3127C29.6231 13.76 29.5031 13.1309 29.5031 12.4255C29.5031 11.8727 29.605 11.3636 29.8086 10.8982C30.0122 10.4255 30.2922 10.0182 30.6486 9.67636C31.0122 9.33455 31.4377 9.06909 31.925 8.88C32.4195 8.68364 32.9577 8.58545 33.5395 8.58545C33.9759 8.58545 34.3759 8.64727 34.7395 8.77091C35.1031 8.89455 35.434 9.06182 35.7322 9.27273C36.0304 9.47636 36.2886 9.71636 36.5068 9.99273C36.7322 10.2618 36.9213 10.5455 37.074 10.8436C37.2268 11.1345 37.3395 11.4327 37.4122 11.7382C37.4922 12.0364 37.5322 12.3164 37.5322 12.5782C37.5322 13.3273 37.3904 14.0036 37.1068 14.6073C36.8304 15.2036 36.4195 15.7309 35.874 16.1891C36.1795 16.3127 36.5031 16.4145 36.845 16.4945C37.194 16.5745 37.5395 16.6145 37.8813 16.6145C38.0995 16.6145 38.314 16.6 38.525 16.5709C38.7431 16.5418 38.9468 16.4836 39.1359 16.3964C39.3322 16.3091 39.5104 16.1927 39.6704 16.0473C39.8304 15.8945 39.9686 15.6982 40.085 15.4582C40.1795 15.2618 40.2268 15.0473 40.2268 14.8145C40.2268 14.7055 40.2013 14.5309 40.1504 14.2909C40.1068 14.0509 39.9686 13.7273 39.7359 13.32C39.5031 12.9127 39.2086 12.4909 38.8522 12.0545C38.4959 11.6109 38.1031 11.16 37.674 10.7018C37.245 10.2436 36.7977 9.78545 36.3322 9.32727C35.8668 8.86909 35.4122 8.41455 34.9686 7.96364L36.4522 6.52364ZM49.0447 18.1636C48.6738 18.1636 48.2993 18.1455 47.9211 18.1091C47.5429 18.08 47.172 18.0327 46.8084 17.9673C46.452 17.8945 46.1065 17.8036 45.772 17.6945C45.4447 17.5782 45.1465 17.44 44.8775 17.28L43.972 16.7673L44.9975 14.9673L45.9029 15.48C46.1575 15.6255 46.4702 15.7455 46.8411 15.84C47.212 15.9273 47.6047 15.9891 48.0193 16.0255C48.3756 16.0618 48.732 16.08 49.0884 16.08C49.1538 16.08 49.3065 16.08 49.5465 16.08C49.7865 16.0727 50.0847 16.0436 50.4411 15.9927C50.8629 15.9273 51.2084 15.8364 51.4775 15.72C51.7538 15.5964 51.9284 15.4582 52.0011 15.3055C52.0302 15.2327 52.0447 15.1527 52.0447 15.0655C52.0447 14.9418 52.0084 14.7709 51.9356 14.5527C51.8629 14.3273 51.7102 14.04 51.4775 13.6909L47.5284 7.72364L49.2738 6.58909C49.3684 6.73455 49.4665 6.88727 49.5684 7.04727C49.6702 7.2 49.7902 7.38182 49.9284 7.59273C50.0665 7.79636 50.2265 8.04 50.4084 8.32364C50.5902 8.6 50.812 8.93455 51.0738 9.32727C51.3356 9.72 51.6411 10.1782 51.9902 10.7018C52.3393 11.2255 52.7465 11.8364 53.212 12.5345C53.3938 12.8109 53.5575 13.1018 53.7029 13.4073C53.8484 13.7055 53.9575 14.0073 54.0302 14.3127C54.0956 14.5891 54.1284 14.8655 54.1284 15.1418C54.1284 15.1709 54.1247 15.2727 54.1175 15.4473C54.1102 15.6145 54.0375 15.8473 53.8993 16.1455C53.4411 17.1709 52.3865 17.8036 50.7356 18.0436C50.4811 18.08 50.212 18.1091 49.9284 18.1309C49.6447 18.1527 49.3502 18.1636 49.0447 18.1636ZM79.0203 18C79.3257 18.5964 79.493 19.16 79.5221 19.6909L79.533 19.8436C79.533 20.3164 79.4385 20.7636 79.2494 21.1855C79.0603 21.6073 78.7657 21.9964 78.3657 22.3527C77.9657 22.7091 77.493 23.0073 76.9475 23.2473C76.4021 23.4945 75.7948 23.6836 75.1257 23.8145C74.4566 23.9527 73.7512 24.0218 73.0094 24.0218H69.9003C68.7512 24.0218 67.7185 23.7709 66.8021 23.2691C65.8857 22.7673 65.1366 22.0727 64.5548 21.1855C64.1621 20.56 63.8821 19.8655 63.7148 19.1018C63.5839 18.5127 63.5185 17.8945 63.5185 17.2473C63.5185 17.0582 63.533 16.7018 63.5621 16.1782C63.5912 15.6473 63.7403 14.9055 64.0094 13.9527C64.2857 13 64.6712 12.0145 65.1657 10.9964L66.9985 11.8909C66.1839 13.6073 65.7221 15.16 65.613 16.5491C65.5985 16.7818 65.5912 17.0073 65.5912 17.2255C65.5912 18.3309 65.8348 19.28 66.3221 20.0727C66.693 20.6764 67.1875 21.1382 67.8057 21.4582C68.4312 21.7782 69.1294 21.9382 69.9003 21.9382H73.0094C73.4166 21.9382 73.8166 21.9055 74.2094 21.84C74.6021 21.7818 74.9694 21.6982 75.3112 21.5891C75.653 21.48 75.9621 21.3491 76.2385 21.1964C76.5148 21.0509 76.7439 20.8873 76.9257 20.7055C77.1148 20.5236 77.2457 20.3273 77.3185 20.1164C77.3621 20.0073 77.3839 19.8982 77.3839 19.7891C77.3839 19.6873 77.3657 19.5855 77.3294 19.4836C77.2421 19.2 77.0385 18.96 76.7185 18.7636C76.3985 18.5745 76.013 18.4218 75.5621 18.3055C75.1112 18.1964 74.6239 18.1164 74.1003 18.0655C73.5766 18.0218 73.0712 18 72.5839 18L72.6603 15.9382H82.0639V18H79.0203ZM89.5542 16.4618C89.6051 16.4618 89.6742 16.4582 89.7615 16.4509C89.856 16.4436 89.9542 16.4145 90.056 16.3636C90.1651 16.3127 90.2706 16.2364 90.3724 16.1345C90.4815 16.0255 90.576 15.8764 90.656 15.6873C90.7433 15.4909 90.8124 15.2436 90.8633 14.9455C90.9215 14.64 90.9506 14.2691 90.9506 13.8327C90.9506 13.7527 90.9433 13.6255 90.9287 13.4509C90.9142 13.2764 90.8815 13.0836 90.8306 12.8727C90.7796 12.6545 90.7033 12.4327 90.6015 12.2073C90.5069 11.9818 90.376 11.7745 90.2087 11.5855C90.0415 11.3964 89.8378 11.2436 89.5978 11.1273C89.3578 11.0036 89.0669 10.9418 88.7251 10.9418C88.4051 10.9418 88.1324 11 87.9069 11.1164C87.6887 11.2255 87.5033 11.3782 87.3506 11.5745C87.1978 11.7709 87.0706 12.0036 86.9687 12.2727C86.8669 12.5345 86.7724 12.8218 86.6851 13.1345C86.5978 13.44 86.5106 13.7636 86.4233 14.1055C86.336 14.44 86.2342 14.7745 86.1178 15.1091C86.496 15.2982 86.8451 15.4764 87.1651 15.6436C87.4851 15.8109 87.7833 15.9564 88.0596 16.08C88.336 16.1964 88.5942 16.2909 88.8342 16.3636C89.0815 16.4291 89.3215 16.4618 89.5542 16.4618ZM88.7251 8.89091C89.4378 8.89091 90.056 9.02909 90.5796 9.30545C91.1106 9.57455 91.5506 9.93818 91.8996 10.3964C92.2487 10.8545 92.5069 11.3818 92.6742 11.9782C92.8487 12.5745 92.936 13.1927 92.936 13.8327C92.936 14.5382 92.8742 15.1455 92.7506 15.6545C92.6342 16.1636 92.4778 16.5927 92.2815 16.9418C92.0851 17.2836 91.8633 17.56 91.616 17.7709C91.376 17.9818 91.1287 18.1418 90.8742 18.2509C90.6269 18.36 90.3869 18.4327 90.1542 18.4691C89.9215 18.5055 89.7215 18.5236 89.5542 18.5236C89.1978 18.5236 88.856 18.4873 88.5287 18.4145C88.2015 18.3418 87.8669 18.2364 87.5251 18.0982C87.1833 17.9673 86.8233 17.8036 86.4451 17.6073C86.0742 17.4109 85.6633 17.1891 85.2124 16.9418C84.616 17.6473 83.8487 18 82.9106 18H81.656V15.9382H82.9106C83.1869 15.9382 83.4124 15.8364 83.5869 15.6327C83.7687 15.4291 83.9251 15.1636 84.056 14.8364C84.1869 14.5091 84.3069 14.1345 84.416 13.7127C84.5251 13.2909 84.6487 12.8582 84.7869 12.4145C84.9324 11.9709 85.1033 11.5382 85.2996 11.1164C85.496 10.6945 85.7433 10.32 86.0415 9.99273C86.3469 9.66545 86.7142 9.4 87.1433 9.19636C87.5796 8.99273 88.1069 8.89091 88.7251 8.89091ZM126.9 18C126.18 18 125.547 17.8945 125.002 17.6836C124.464 17.4727 124.013 17.1673 123.649 16.7673C123.453 17 123.231 17.1964 122.984 17.3564C122.744 17.5091 122.493 17.6364 122.231 17.7382C121.976 17.8327 121.714 17.9018 121.445 17.9455C121.184 17.9818 120.929 18 120.682 18C119.773 18 118.987 17.7964 118.325 17.3891V18.3055C118.325 20.2109 117.816 21.64 116.798 22.5927C115.78 23.5455 114.256 24.0218 112.227 24.0218H109.664C108.536 24.0218 107.514 23.7782 106.598 23.2909C105.682 22.8036 104.94 22.1091 104.373 21.2073C103.98 20.5891 103.7 19.9018 103.533 19.1455C103.394 18.5564 103.325 17.9382 103.325 17.2909C103.325 17.1018 103.34 16.7418 103.369 16.2109C103.405 15.68 103.558 14.9382 103.827 13.9855C104.096 13.0327 104.471 12.0509 104.951 11.04L106.805 11.9455C106.398 12.7891 106.074 13.6 105.834 14.3782C105.602 15.1564 105.456 15.8909 105.398 16.5818C105.376 16.8145 105.365 17.04 105.365 17.2582C105.365 17.7018 105.413 18.1709 105.507 18.6655C105.609 19.16 105.809 19.64 106.107 20.1055C106.485 20.6945 106.98 21.1491 107.591 21.4691C108.202 21.7964 108.893 21.96 109.664 21.96H112.227C113.064 21.96 113.744 21.8727 114.267 21.6982C114.798 21.5236 115.209 21.2764 115.5 20.9564C115.798 20.6364 115.998 20.2509 116.1 19.8C116.209 19.3564 116.264 18.8582 116.264 18.3055V10.6255H118.325V12.7527C118.325 13.4509 118.391 14.0109 118.522 14.4327C118.66 14.8473 118.838 15.1673 119.056 15.3927C119.282 15.6182 119.533 15.7673 119.809 15.84C120.093 15.9127 120.384 15.9491 120.682 15.9491C120.864 15.9491 121.071 15.9164 121.304 15.8509C121.536 15.7855 121.754 15.6764 121.958 15.5236C122.162 15.3636 122.333 15.1527 122.471 14.8909C122.616 14.6291 122.689 14.3018 122.689 13.9091V10.6255H124.74V14.0182C124.754 14.68 124.929 15.1673 125.264 15.48C125.605 15.7927 126.147 15.9491 126.889 15.9491C127.013 15.9418 127.173 15.9164 127.369 15.8727C127.573 15.8218 127.765 15.7273 127.947 15.5891C128.136 15.4436 128.296 15.24 128.427 14.9782C128.565 14.7091 128.634 14.3527 128.634 13.9091C128.634 13.7491 128.62 13.5491 128.591 13.3091C128.569 13.0691 128.54 12.8145 128.504 12.5455C128.467 12.2691 128.424 11.9891 128.373 11.7055C128.322 11.4145 128.271 11.1418 128.22 10.8873C128.176 10.6327 128.133 10.4073 128.089 10.2109C128.045 10.0073 128.009 9.85455 127.98 9.75273L129.944 9.15273C129.958 9.18909 129.984 9.30182 130.02 9.49091C130.064 9.67273 130.114 9.90182 130.173 10.1782C130.231 10.4473 130.289 10.7491 130.347 11.0836C130.413 11.4182 130.471 11.7564 130.522 12.0982C130.573 12.4327 130.613 12.76 130.642 13.08C130.678 13.3927 130.696 13.6691 130.696 13.9091C130.696 14.6 130.584 15.2 130.358 15.7091C130.14 16.2109 129.849 16.6327 129.485 16.9745C129.129 17.3091 128.722 17.5636 128.264 17.7382C127.813 17.9055 127.358 17.9927 126.9 18ZM124.871 2.81455L123.322 4.33091L121.794 2.81455L123.365 1.25455L124.871 2.81455ZM125.405 7.74545L123.682 6L125.384 4.23273L127.151 6L125.405 7.74545ZM121.227 7.72364L119.504 5.97818L121.205 4.21091L122.973 5.97818L121.227 7.72364ZM129.746 24.0545V21.9927H131.252C132.001 21.9927 132.648 21.9018 133.193 21.72C133.746 21.5455 134.201 21.2727 134.557 20.9018C134.921 20.5309 135.186 20.0582 135.353 19.4836C135.528 18.9091 135.615 18.2255 135.615 17.4327V10.6255H137.677V17.4327C137.677 18.4727 137.539 19.4 137.262 20.2145C136.993 21.0364 136.59 21.7309 136.052 22.2982C135.513 22.8655 134.841 23.2982 134.033 23.5964C133.233 23.9018 132.306 24.0545 131.252 24.0545H129.746ZM134.688 5.90182L136.542 4.02545L138.441 5.92364L136.564 7.8L134.688 5.90182ZM141.511 21.96C142.609 21.96 143.532 21.8764 144.282 21.7091C145.031 21.5418 145.623 21.2836 146.06 20.9345C146.438 20.6291 146.714 20.24 146.889 19.7673C147.071 19.2945 147.162 18.7055 147.162 18H145.154C144.645 18 144.129 17.9236 143.605 17.7709C143.082 17.6182 142.605 17.3673 142.176 17.0182C141.754 16.6691 141.409 16.2145 141.14 15.6545C140.871 15.0873 140.736 14.3964 140.736 13.5818C140.736 13.1018 140.776 12.6691 140.856 12.2836C140.943 11.8909 141.049 11.5418 141.172 11.2364C141.303 10.9309 141.445 10.6655 141.598 10.44C141.751 10.2145 141.9 10.0218 142.045 9.86182C142.445 9.46182 142.903 9.15273 143.42 8.93455C143.936 8.71636 144.489 8.60727 145.078 8.60727C145.594 8.60727 146.078 8.68727 146.529 8.84727C146.98 9.00727 147.383 9.24727 147.74 9.56727C148.722 10.4836 149.212 11.92 149.212 13.8764V15.9382H150.849V18H149.212C149.212 19.0327 149.06 19.92 148.754 20.6618C148.456 21.4109 147.991 22.0364 147.358 22.5382C146.718 23.04 145.922 23.4109 144.969 23.6509C144.023 23.8982 142.871 24.0218 141.511 24.0218V21.96ZM144.969 10.6691C144.249 10.6691 143.689 10.9236 143.289 11.4327C142.889 11.9418 142.689 12.6582 142.689 13.5818C142.689 14.52 142.972 15.1709 143.54 15.5345C143.678 15.6218 143.82 15.6945 143.965 15.7527C144.111 15.8036 144.252 15.8436 144.391 15.8727C144.529 15.8945 144.652 15.9127 144.762 15.9273C144.878 15.9345 144.972 15.9382 145.045 15.9382H147.052V13.8764C147.052 13.3455 147.012 12.8982 146.932 12.5345C146.852 12.1636 146.751 11.8582 146.627 11.6182C146.503 11.3782 146.362 11.1964 146.202 11.0727C146.049 10.9418 145.896 10.8473 145.743 10.7891C145.591 10.7309 145.445 10.6982 145.307 10.6909C145.169 10.6764 145.056 10.6691 144.969 10.6691ZM158.32 16.4618C158.371 16.4618 158.44 16.4582 158.527 16.4509C158.622 16.4436 158.72 16.4145 158.822 16.3636C158.931 16.3127 159.036 16.2364 159.138 16.1345C159.247 16.0255 159.342 15.8764 159.422 15.6873C159.509 15.4909 159.578 15.2436 159.629 14.9455C159.687 14.64 159.716 14.2691 159.716 13.8327C159.716 13.7527 159.709 13.6255 159.694 13.4509C159.68 13.2764 159.647 13.0836 159.596 12.8727C159.545 12.6545 159.469 12.4327 159.367 12.2073C159.273 11.9818 159.142 11.7745 158.974 11.5855C158.807 11.3964 158.603 11.2436 158.363 11.1273C158.123 11.0036 157.833 10.9418 157.491 10.9418C157.171 10.9418 156.898 11 156.673 11.1164C156.454 11.2255 156.269 11.3782 156.116 11.5745C155.963 11.7709 155.836 12.0036 155.734 12.2727C155.633 12.5345 155.538 12.8218 155.451 13.1345C155.363 13.44 155.276 13.7636 155.189 14.1055C155.102 14.44 155 14.7745 154.883 15.1091C155.262 15.2982 155.611 15.4764 155.931 15.6436C156.251 15.8109 156.549 15.9564 156.825 16.08C157.102 16.1964 157.36 16.2909 157.6 16.3636C157.847 16.4291 158.087 16.4618 158.32 16.4618ZM157.491 8.89091C158.203 8.89091 158.822 9.02909 159.345 9.30545C159.876 9.57455 160.316 9.93818 160.665 10.3964C161.014 10.8545 161.273 11.3818 161.44 11.9782C161.614 12.5745 161.702 13.1927 161.702 13.8327C161.702 14.5382 161.64 15.1455 161.516 15.6545C161.4 16.1636 161.243 16.5927 161.047 16.9418C160.851 17.2836 160.629 17.56 160.382 17.7709C160.142 17.9818 159.894 18.1418 159.64 18.2509C159.393 18.36 159.153 18.4327 158.92 18.4691C158.687 18.5055 158.487 18.5236 158.32 18.5236C157.963 18.5236 157.622 18.4873 157.294 18.4145C156.967 18.3418 156.633 18.2364 156.291 18.0982C155.949 17.9673 155.589 17.8036 155.211 17.6073C154.84 17.4109 154.429 17.1891 153.978 16.9418C153.382 17.6473 152.614 18 151.676 18H150.422V15.9382H151.676C151.953 15.9382 152.178 15.8364 152.353 15.6327C152.534 15.4291 152.691 15.1636 152.822 14.8364C152.953 14.5091 153.073 14.1345 153.182 13.7127C153.291 13.2909 153.414 12.8582 153.553 12.4145C153.698 11.9709 153.869 11.5382 154.065 11.1164C154.262 10.6945 154.509 10.32 154.807 9.99273C155.113 9.66545 155.48 9.4 155.909 9.19636C156.345 8.99273 156.873 8.89091 157.491 8.89091ZM169.395 18H167.334V4.06909H169.395V18ZM172.963 2.31273H167.694C167.235 2.31273 166.85 2.33091 166.537 2.36727C166.225 2.40364 165.959 2.47636 165.741 2.58545C165.53 2.69455 165.355 2.85091 165.217 3.05455C165.086 3.25818 164.97 3.52727 164.868 3.86182L163.145 3.34909C163.479 2.17818 164.086 1.37455 164.966 0.938182C165.337 0.749091 165.748 0.62909 166.199 0.578181C166.65 0.52 167.148 0.490909 167.694 0.490909H172.963V2.31273ZM184.802 17.9891H182.74V2.43273H184.802V17.9891ZM184.262 24.0545V21.9927H185.767C186.516 21.9927 187.164 21.9018 187.709 21.72C188.262 21.5455 188.716 21.2727 189.073 20.9018C189.436 20.5309 189.702 20.0582 189.869 19.4836C190.044 18.9091 190.131 18.2255 190.131 17.4327V10.6255H192.193V17.4327C192.193 18.4727 192.054 19.4 191.778 20.2145C191.509 21.0364 191.105 21.7309 190.567 22.2982C190.029 22.8655 189.356 23.2982 188.549 23.5964C187.749 23.9018 186.822 24.0545 185.767 24.0545H184.262ZM208.285 24.0436C207.157 24.0436 206.135 23.7964 205.219 23.3018C204.303 22.8145 203.561 22.1164 202.994 21.2073C202.601 20.5891 202.321 19.9018 202.154 19.1455C202.023 18.5636 201.957 17.9527 201.957 17.3127C201.957 17.1236 201.972 16.7673 202.001 16.2436C202.03 15.7127 202.179 14.9782 202.448 14.04C202.717 13.0945 203.092 12.12 203.572 11.1164L205.426 12C205.019 12.8436 204.695 13.6545 204.455 14.4327C204.223 15.2036 204.077 15.9345 204.019 16.6255C204.005 16.8582 203.997 17.0836 203.997 17.3018C203.997 17.7382 204.045 18.2 204.139 18.6873C204.234 19.1818 204.43 19.6618 204.728 20.1273C205.106 20.7164 205.601 21.1709 206.212 21.4909C206.823 21.8182 207.514 21.9818 208.285 21.9818H210.848C211.685 21.9818 212.365 21.8909 212.888 21.7091C213.419 21.5345 213.83 21.2873 214.121 20.9673C214.419 20.6473 214.619 20.2582 214.721 19.8C214.83 19.3491 214.885 18.8473 214.885 18.2945V10.6255H216.946V14.0182C216.954 14.3091 217.005 14.5745 217.099 14.8145C217.201 15.0473 217.335 15.2473 217.503 15.4145C217.67 15.5818 217.87 15.7127 218.103 15.8073C218.343 15.8945 218.608 15.9382 218.899 15.9382H219.325V18H218.899C218.186 18 217.535 17.8436 216.946 17.5309V18.2945C216.946 20.2145 216.437 21.6509 215.419 22.6036C214.401 23.5636 212.877 24.0436 210.848 24.0436H208.285ZM208.361 9.80727L210.215 7.93091L212.114 9.82909L210.237 11.7055L208.361 9.80727ZM230.808 15.9382V18H228.899C228.237 18 227.651 17.9055 227.142 17.7164C226.641 17.5273 226.237 17.2436 225.931 16.8655C225.175 17.6218 224.055 18 222.571 18H218.862V15.9382H222.571C223.095 15.9382 223.51 15.8873 223.815 15.7855C224.121 15.6764 224.35 15.5455 224.502 15.3927C224.662 15.2327 224.764 15.0582 224.808 14.8691C224.859 14.6727 224.884 14.4873 224.884 14.3127V10.6255H226.935V14.2364C226.935 14.5055 226.975 14.7345 227.055 14.9236C227.142 15.1127 227.248 15.2727 227.371 15.4036C227.495 15.5273 227.633 15.6255 227.786 15.6982C227.946 15.7709 228.099 15.8255 228.244 15.8618C228.39 15.8982 228.521 15.92 228.637 15.9273C228.753 15.9345 228.841 15.9382 228.899 15.9382H230.808ZM227.797 22.2218L226.03 23.9891L224.328 22.2218L226.051 20.4764L227.797 22.2218ZM223.619 22.2436L221.851 24.0109L220.15 22.2436L221.873 20.4982L223.619 22.2436ZM238.842 17.9782C238.158 17.9782 237.551 17.88 237.02 17.6836C236.489 17.48 236.042 17.1891 235.678 16.8109C235.3 17.2182 234.86 17.52 234.358 17.7164C233.856 17.9055 233.351 18 232.842 18H230.333V15.9382H232.842C232.951 15.9382 233.107 15.9236 233.311 15.8945C233.514 15.8582 233.714 15.7745 233.911 15.6436C234.107 15.5055 234.278 15.3018 234.424 15.0327C234.576 14.7636 234.653 14.3964 234.653 13.9309V10.6255H236.714V13.8873C236.714 14.5927 236.878 15.1091 237.205 15.4364C237.54 15.7636 238.085 15.9273 238.842 15.9273C238.951 15.9273 239.104 15.9091 239.3 15.8727C239.504 15.8291 239.704 15.7382 239.9 15.6C240.104 15.4618 240.278 15.2582 240.424 14.9891C240.576 14.72 240.653 14.3527 240.653 13.8873V10.6255H242.704V13.8873C242.704 14.5927 242.874 15.1127 243.216 15.4473C243.558 15.7818 244.107 15.9491 244.864 15.9491C244.98 15.9491 245.136 15.9273 245.333 15.8836C245.529 15.8327 245.722 15.7345 245.911 15.5891C246.107 15.4436 246.274 15.2364 246.413 14.9673C246.551 14.6982 246.62 14.3382 246.62 13.8873C246.62 13.7273 246.605 13.5273 246.576 13.2873C246.554 13.0473 246.522 12.7891 246.478 12.5127C246.442 12.2364 246.398 11.9564 246.347 11.6727C246.296 11.3818 246.245 11.1127 246.194 10.8655C246.144 10.6109 246.096 10.3855 246.053 10.1891C246.009 9.98545 245.973 9.83636 245.944 9.74182L247.896 9.12C247.911 9.16364 247.94 9.28 247.984 9.46909C248.027 9.65091 248.078 9.88 248.136 10.1564C248.194 10.4255 248.253 10.7273 248.311 11.0618C248.376 11.3964 248.434 11.7345 248.485 12.0764C248.544 12.4109 248.591 12.7382 248.627 13.0582C248.664 13.3709 248.682 13.6473 248.682 13.8873C248.682 14.5782 248.569 15.1818 248.344 15.6982C248.118 16.2073 247.824 16.6327 247.46 16.9745C247.104 17.3091 246.696 17.5636 246.238 17.7382C245.78 17.9055 245.322 17.9927 244.864 18C244.165 18 243.547 17.8982 243.009 17.6945C242.478 17.4836 242.027 17.1818 241.656 16.7891C241.278 17.1891 240.838 17.4873 240.336 17.6836C239.842 17.88 239.344 17.9782 238.842 17.9782ZM243.325 2.71636L241.776 4.23273L240.249 2.71636L241.82 1.15636L243.325 2.71636ZM243.86 7.64727L242.136 5.90182L243.838 4.13455L245.605 5.90182L243.86 7.64727ZM239.682 7.62545L237.958 5.88L239.66 4.11273L241.427 5.88L239.682 7.62545ZM256.895 18C256.132 17.9927 255.499 17.9418 254.997 17.8473C254.502 17.7455 254.081 17.6036 253.732 17.4218C253.39 17.2327 253.113 17 252.902 16.7236C252.699 16.44 252.539 16.1127 252.422 15.7418C252.306 15.3636 252.23 14.9418 252.193 14.4764C252.157 14.0109 252.139 13.4945 252.139 12.9273V2.43273H254.201V12.9273C254.201 13.56 254.219 14.0727 254.255 14.4655C254.299 14.8582 254.404 15.1636 254.572 15.3818C254.746 15.5927 255.004 15.7382 255.346 15.8182C255.695 15.8909 256.212 15.9309 256.895 15.9382V18ZM264.375 16.4618C264.425 16.4618 264.495 16.4582 264.582 16.4509C264.676 16.4436 264.775 16.4145 264.876 16.3636C264.985 16.3127 265.091 16.2364 265.193 16.1345C265.302 16.0255 265.396 15.8764 265.476 15.6873C265.564 15.4909 265.633 15.2436 265.684 14.9455C265.742 14.64 265.771 14.2691 265.771 13.8327C265.771 13.7527 265.764 13.6255 265.749 13.4509C265.735 13.2764 265.702 13.0836 265.651 12.8727C265.6 12.6545 265.524 12.4327 265.422 12.2073C265.327 11.9818 265.196 11.7745 265.029 11.5855C264.862 11.3964 264.658 11.2436 264.418 11.1273C264.178 11.0036 263.887 10.9418 263.545 10.9418C263.225 10.9418 262.953 11 262.727 11.1164C262.509 11.2255 262.324 11.3782 262.171 11.5745C262.018 11.7709 261.891 12.0036 261.789 12.2727C261.687 12.5345 261.593 12.8218 261.505 13.1345C261.418 13.44 261.331 13.7636 261.244 14.1055C261.156 14.44 261.055 14.7745 260.938 15.1091C261.316 15.2982 261.665 15.4764 261.985 15.6436C262.305 15.8109 262.604 15.9564 262.88 16.08C263.156 16.1964 263.415 16.2909 263.655 16.3636C263.902 16.4291 264.142 16.4618 264.375 16.4618ZM263.545 8.89091C264.258 8.89091 264.876 9.02909 265.4 9.30545C265.931 9.57455 266.371 9.93818 266.72 10.3964C267.069 10.8545 267.327 11.3818 267.495 11.9782C267.669 12.5745 267.756 13.1927 267.756 13.8327C267.756 14.5382 267.695 15.1455 267.571 15.6545C267.455 16.1636 267.298 16.5927 267.102 16.9418C266.905 17.2836 266.684 17.56 266.436 17.7709C266.196 17.9818 265.949 18.1418 265.695 18.2509C265.447 18.36 265.207 18.4327 264.975 18.4691C264.742 18.5055 264.542 18.5236 264.375 18.5236C264.018 18.5236 263.676 18.4873 263.349 18.4145C263.022 18.3418 262.687 18.2364 262.345 18.0982C262.004 17.9673 261.644 17.8036 261.265 17.6073C260.895 17.4109 260.484 17.1891 260.033 16.9418C259.436 17.6473 258.669 18 257.731 18H256.476V15.9382H257.731C258.007 15.9382 258.233 15.8364 258.407 15.6327C258.589 15.4291 258.745 15.1636 258.876 14.8364C259.007 14.5091 259.127 14.1345 259.236 13.7127C259.345 13.2909 259.469 12.8582 259.607 12.4145C259.753 11.9709 259.924 11.5382 260.12 11.1164C260.316 10.6945 260.564 10.32 260.862 9.99273C261.167 9.66545 261.535 9.4 261.964 9.19636C262.4 8.99273 262.927 8.89091 263.545 8.89091ZM283.731 18C282.968 17.9927 282.335 17.9418 281.833 17.8473C281.338 17.7455 280.917 17.6036 280.568 17.4218C280.226 17.2327 279.949 17 279.738 16.7236C279.535 16.44 279.375 16.1127 279.258 15.7418C279.142 15.3636 279.066 14.9418 279.029 14.4764C278.993 14.0109 278.975 13.4945 278.975 12.9273V2.43273H281.037V12.9273C281.037 13.56 281.055 14.0727 281.091 14.4655C281.135 14.8582 281.24 15.1636 281.408 15.3818C281.582 15.5927 281.84 15.7382 282.182 15.8182C282.531 15.8909 283.048 15.9309 283.731 15.9382V18ZM291.21 16.4618C291.261 16.4618 291.33 16.4582 291.418 16.4509C291.512 16.4436 291.61 16.4145 291.712 16.3636C291.821 16.3127 291.927 16.2364 292.029 16.1345C292.138 16.0255 292.232 15.8764 292.312 15.6873C292.4 15.4909 292.469 15.2436 292.52 14.9455C292.578 14.64 292.607 14.2691 292.607 13.8327C292.607 13.7527 292.6 13.6255 292.585 13.4509C292.57 13.2764 292.538 13.0836 292.487 12.8727C292.436 12.6545 292.36 12.4327 292.258 12.2073C292.163 11.9818 292.032 11.7745 291.865 11.5855C291.698 11.3964 291.494 11.2436 291.254 11.1273C291.014 11.0036 290.723 10.9418 290.381 10.9418C290.061 10.9418 289.789 11 289.563 11.1164C289.345 11.2255 289.16 11.3782 289.007 11.5745C288.854 11.7709 288.727 12.0036 288.625 12.2727C288.523 12.5345 288.429 12.8218 288.341 13.1345C288.254 13.44 288.167 13.7636 288.08 14.1055C287.992 14.44 287.89 14.7745 287.774 15.1091C288.152 15.2982 288.501 15.4764 288.821 15.6436C289.141 15.8109 289.44 15.9564 289.716 16.08C289.992 16.1964 290.25 16.2909 290.49 16.3636C290.738 16.4291 290.978 16.4618 291.21 16.4618ZM290.381 8.89091C291.094 8.89091 291.712 9.02909 292.236 9.30545C292.767 9.57455 293.207 9.93818 293.556 10.3964C293.905 10.8545 294.163 11.3818 294.33 11.9782C294.505 12.5745 294.592 13.1927 294.592 13.8327C294.592 14.5382 294.53 15.1455 294.407 15.6545C294.29 16.1636 294.134 16.5927 293.938 16.9418C293.741 17.2836 293.52 17.56 293.272 17.7709C293.032 17.9818 292.785 18.1418 292.53 18.2509C292.283 18.36 292.043 18.4327 291.81 18.4691C291.578 18.5055 291.378 18.5236 291.21 18.5236C290.854 18.5236 290.512 18.4873 290.185 18.4145C289.858 18.3418 289.523 18.2364 289.181 18.0982C288.84 17.9673 288.48 17.8036 288.101 17.6073C287.73 17.4109 287.32 17.1891 286.869 16.9418C286.272 17.6473 285.505 18 284.567 18H283.312V15.9382H284.567C284.843 15.9382 285.069 15.8364 285.243 15.6327C285.425 15.4291 285.581 15.1636 285.712 14.8364C285.843 14.5091 285.963 14.1345 286.072 13.7127C286.181 13.2909 286.305 12.8582 286.443 12.4145C286.589 11.9709 286.76 11.5382 286.956 11.1164C287.152 10.6945 287.4 10.32 287.698 9.99273C288.003 9.66545 288.37 9.4 288.8 9.19636C289.236 8.99273 289.763 8.89091 290.381 8.89091ZM49.9016 50.9382V53H49.4979C48.4143 53 47.4143 52.5491 46.4979 51.6473C45.9525 52.3818 44.9961 52.8473 43.6288 53.0436C43.3743 53.08 43.1052 53.1091 42.8216 53.1309C42.5379 53.1527 42.2434 53.1636 41.9379 53.1636C41.567 53.1636 41.1925 53.1455 40.8143 53.1091C40.4361 53.08 40.0652 53.0327 39.7016 52.9673C39.3452 52.8945 38.9997 52.8036 38.6652 52.6945C38.3307 52.5782 38.0288 52.4436 37.7597 52.2909L36.8652 51.7673L37.8907 49.9673L38.7961 50.4909C39.0507 50.6364 39.3597 50.7564 39.7234 50.8509C40.0943 50.9382 40.487 51 40.9016 51.0364C41.2143 51.0655 41.527 51.08 41.8397 51.08C41.9488 51.08 42.1343 51.08 42.3961 51.08C42.6579 51.0727 42.9707 51.0436 43.3343 50.9927C43.7561 50.9273 44.1016 50.8364 44.3707 50.72C44.647 50.5964 44.8216 50.4582 44.8943 50.3055C44.9597 50.2327 44.9925 50.1418 44.9925 50.0327C44.9925 49.96 44.967 49.8436 44.9161 49.6836C44.8652 49.5164 44.7525 49.2982 44.5779 49.0291L40.487 42.8L42.2216 41.6655L46.4543 48.1236C46.6725 48.4364 46.8907 48.76 47.1088 49.0945C47.3343 49.4218 47.5707 49.7236 47.8179 50C48.0652 50.2691 48.3234 50.4945 48.5925 50.6764C48.8688 50.8509 49.1707 50.9382 49.4979 50.9382H49.9016ZM58.7264 50.9382V53H57.8755C57.2137 53 56.6282 52.9055 56.1191 52.7164C55.6173 52.5273 55.2137 52.2436 54.9082 51.8655C54.1519 52.6218 53.0319 53 51.5482 53H49.4537V50.9382H51.5482C52.0719 50.9382 52.4864 50.8873 52.7919 50.7855C53.0973 50.6764 53.3264 50.5455 53.4791 50.3927C53.6391 50.2327 53.741 50.0582 53.7846 49.8691C53.8355 49.6727 53.861 49.4873 53.861 49.3127V45.6255H55.9119V49.2364C55.9119 49.5055 55.9519 49.7345 56.0319 49.9236C56.1119 50.1127 56.2137 50.2727 56.3373 50.4036C56.4682 50.5273 56.6101 50.6255 56.7628 50.6982C56.9228 50.7709 57.0755 50.8255 57.221 50.8618C57.3664 50.8982 57.4973 50.92 57.6137 50.9273C57.7301 50.9345 57.8173 50.9382 57.8755 50.9382H58.7264ZM52.2355 40.5964L54.0901 38.72L55.9882 40.6182L54.1119 42.4945L52.2355 40.5964ZM58.2569 53V50.9382H64.6496C65.1733 50.9382 65.606 50.88 65.9478 50.7636C66.2969 50.64 66.5224 50.4727 66.6242 50.2618C66.6751 50.1527 66.7005 50.0291 66.7005 49.8909C66.7005 49.7673 66.6642 49.5927 66.5914 49.3673C66.526 49.1345 66.3805 48.8327 66.1551 48.4618C65.9296 48.0836 65.6533 47.6873 65.326 47.2727C64.9987 46.8582 64.646 46.4436 64.2678 46.0291C63.8896 45.6145 63.5005 45.2109 63.1005 44.8182C62.7005 44.4182 62.3151 44.0509 61.9442 43.7164C61.5733 43.3745 61.2351 43.0764 60.9296 42.8218C60.6242 42.56 60.3733 42.36 60.1769 42.2218L60.3842 39.8982L70.366 35.5127L71.1951 37.3891L62.4569 41.2073C62.6751 41.4255 62.9551 41.7018 63.2969 42.0364C63.6387 42.3636 64.0096 42.7309 64.4096 43.1382C64.8096 43.5382 65.2169 43.9673 65.6314 44.4255C66.046 44.8764 66.4387 45.3309 66.8096 45.7891C67.1805 46.2473 67.5078 46.6982 67.7914 47.1418C68.0824 47.5782 68.2969 47.9818 68.4351 48.3527C68.5587 48.6727 68.646 48.9709 68.6969 49.2473C68.7333 49.4873 68.7514 49.7055 68.7514 49.9018C68.7514 49.9382 68.7478 50.0218 68.7405 50.1527C68.7405 50.2836 68.7151 50.44 68.6642 50.6218C68.6205 50.8036 68.5696 50.96 68.5114 51.0909C68.4314 51.2727 68.3078 51.4764 68.1405 51.7018C67.9733 51.92 67.7369 52.1273 67.4314 52.3236C67.1333 52.5127 66.7587 52.6727 66.3078 52.8036C65.8569 52.9345 65.3042 53 64.6496 53H58.2569ZM89.1122 53H88.6431C87.9449 53 87.3013 52.8618 86.7122 52.5855C86.7122 53.6036 86.5703 54.5127 86.2867 55.3127C86.0031 56.1127 85.5885 56.7891 85.0431 57.3418C84.4976 57.9018 83.8249 58.3273 83.0249 58.6182C82.2322 58.9091 81.3194 59.0545 80.2867 59.0545H78.7812V56.9927H80.2867C81.0358 56.9927 81.6831 56.9018 82.2285 56.72C82.7812 56.5455 83.2358 56.2727 83.5922 55.9018C83.9558 55.5309 84.2212 55.0582 84.3885 54.4836C84.5631 53.9091 84.6503 53.2255 84.6503 52.4327V45.6255H86.7122V49.2364C86.7122 49.6436 86.7958 49.9636 86.9631 50.1964C87.1376 50.4218 87.3376 50.5891 87.5631 50.6982C87.7885 50.8073 88.0031 50.8764 88.2067 50.9055C88.4176 50.9273 88.5631 50.9382 88.6431 50.9382H89.1122V53ZM102.606 53H102.443C101.796 53 101.217 52.9382 100.708 52.8145C100.206 52.6909 99.7483 52.5164 99.3337 52.2909C98.9192 52.0582 98.5374 51.7818 98.1883 51.4618C97.8392 51.1345 97.4974 50.7709 97.1628 50.3709C97.1483 50.4073 97.1337 50.44 97.1192 50.4691C97.1046 50.4982 97.0901 50.5309 97.0755 50.5673C96.8719 50.9673 96.5846 51.3273 96.2137 51.6473C95.8501 51.9673 95.4174 52.2327 94.9155 52.4436C94.4864 52.6327 94.0101 52.7745 93.4864 52.8691C92.9628 52.9564 92.4174 53 91.8501 53H88.6428V50.9382H91.8501C92.2719 50.9382 92.6646 50.9091 93.0283 50.8509C93.3992 50.7855 93.7301 50.6982 94.021 50.5891C94.3192 50.4727 94.5701 50.3345 94.7737 50.1745C94.9846 50.0145 95.141 49.8364 95.2428 49.64C95.3374 49.4436 95.3846 49.2218 95.3846 48.9745C95.3846 48.7782 95.3337 48.4982 95.2319 48.1345C95.1301 47.7636 94.8501 47.2691 94.3919 46.6509C93.7446 45.7418 93.1955 44.9709 92.7446 44.3382C92.2937 43.7055 91.9264 43.1891 91.6428 42.7891C91.3083 42.3236 91.0355 41.9418 90.8246 41.6436L91.2283 40.1164L101.243 35.4909L102.094 37.3782L93.1592 41.4691L97.4901 47.48C97.9337 48.0764 98.3301 48.5927 98.6792 49.0291C99.0283 49.4582 99.381 49.8145 99.7374 50.0982C100.101 50.3818 100.494 50.5927 100.916 50.7309C101.345 50.8691 101.854 50.9382 102.443 50.9382H102.606V53ZM102.143 53V50.9382H106.986C107.801 50.9382 108.456 50.88 108.95 50.7636C109.452 50.6473 109.841 50.5018 110.117 50.3273C110.394 50.1527 110.579 49.9636 110.674 49.76C110.776 49.5491 110.837 49.3491 110.859 49.16H109.201C109.012 49.16 108.801 49.1527 108.568 49.1382C108.336 49.1236 108.092 49.0982 107.837 49.0618C107.59 49.0182 107.339 48.9564 107.085 48.8764C106.83 48.7964 106.583 48.6909 106.343 48.56C106.146 48.4436 105.946 48.2982 105.743 48.1236C105.539 47.9491 105.354 47.7345 105.186 47.48C105.026 47.2182 104.892 46.9127 104.783 46.5636C104.681 46.2073 104.63 45.7927 104.63 45.32C104.63 44.7309 104.732 44.1745 104.936 43.6509C105.139 43.12 105.43 42.6655 105.808 42.2873C106.186 41.9091 106.619 41.6218 107.106 41.4255C107.594 41.2291 108.114 41.1309 108.666 41.1309C109.299 41.1309 109.881 41.2655 110.412 41.5345C110.943 41.8036 111.39 42.1891 111.754 42.6909C112.146 43.2145 112.437 43.8618 112.626 44.6327C112.816 45.4036 112.91 46.2873 112.91 47.2836V48.7891C112.91 49.5091 112.765 50.1491 112.474 50.7091C112.19 51.2691 111.757 51.7236 111.176 52.0727C110.208 52.6909 108.812 53 106.986 53H102.143ZM108.666 43.1927C108.426 43.1927 108.179 43.2364 107.925 43.3236C107.677 43.4036 107.452 43.5309 107.248 43.7055C107.052 43.8727 106.888 44.0909 106.757 44.36C106.634 44.6291 106.572 44.9491 106.572 45.32C106.572 45.56 106.597 45.7636 106.648 45.9309C106.699 46.0909 106.765 46.2255 106.845 46.3345C106.925 46.4364 107.008 46.52 107.096 46.5855C107.183 46.6509 107.266 46.7055 107.346 46.7491C107.557 46.8727 107.816 46.9636 108.121 47.0218C108.426 47.0727 108.786 47.0982 109.201 47.0982H110.881C110.866 46.3782 110.79 45.7491 110.652 45.2109C110.521 44.6727 110.339 44.2327 110.106 43.8909C109.757 43.4255 109.277 43.1927 108.666 43.1927ZM106.997 36.7673L108.852 34.8909L110.75 36.7891L108.874 38.6655L106.997 36.7673ZM128.713 59.0436C127.586 59.0436 126.564 58.7964 125.648 58.3018C124.732 57.8145 123.99 57.1164 123.423 56.2073C123.03 55.5891 122.75 54.9018 122.583 54.1455C122.444 53.5636 122.375 52.9527 122.375 52.3127C122.375 52.1236 122.39 51.7673 122.419 51.2436C122.455 50.7127 122.608 49.9782 122.877 49.04C123.146 48.0945 123.521 47.12 124.001 46.1164L125.855 47C125.448 47.8436 125.124 48.6545 124.884 49.4327C124.652 50.2036 124.506 50.9345 124.448 51.6255C124.426 51.8582 124.415 52.0836 124.415 52.3018C124.415 52.7382 124.463 53.2 124.557 53.6873C124.659 54.1818 124.859 54.6618 125.157 55.1273C125.535 55.7164 126.03 56.1709 126.641 56.4909C127.252 56.8182 127.943 56.9818 128.713 56.9818H131.277C132.113 56.9818 132.793 56.8909 133.317 56.7091C133.848 56.5345 134.259 56.2873 134.55 55.9673C134.848 55.6473 135.048 55.2582 135.15 54.8C135.259 54.3491 135.313 53.8473 135.313 53.2945V45.6255H137.375V53.2945C137.375 55.2145 136.866 56.6509 135.848 57.6036C134.83 58.5636 133.306 59.0436 131.277 59.0436H128.713ZM128.801 44.7636L130.655 42.8873L132.553 44.7855L130.677 46.6618L128.801 44.7636ZM145.673 53C144.909 52.9927 144.276 52.9418 143.774 52.8473C143.28 52.7455 142.858 52.6036 142.509 52.4218C142.167 52.2327 141.891 52 141.68 51.7236C141.476 51.44 141.316 51.1127 141.2 50.7418C141.083 50.3636 141.007 49.9418 140.971 49.4764C140.934 49.0109 140.916 48.4945 140.916 47.9273V37.4327H142.978V47.9273C142.978 48.56 142.996 49.0727 143.033 49.4655C143.076 49.8582 143.182 50.1636 143.349 50.3818C143.523 50.5927 143.782 50.7382 144.123 50.8182C144.473 50.8909 144.989 50.9309 145.673 50.9382V53ZM164.41 53C163.712 53 163.094 52.9018 162.555 52.7055C162.017 52.5018 161.566 52.2 161.203 51.8H161.192L161.028 51.9745C160.672 52.3164 160.268 52.5745 159.817 52.7491C159.366 52.9164 158.883 53 158.366 53C157.006 53 155.952 52.6073 155.203 51.8218C154.839 52.2073 154.421 52.4982 153.948 52.6945C153.475 52.8836 152.995 52.9855 152.508 53H152.366C151.079 52.9782 150.075 52.6 149.355 51.8655C149.312 51.9236 149.261 51.9745 149.203 52.0182C148.468 52.6727 147.432 53 146.094 53H145.243V50.9382H146.094C146.559 50.9382 146.934 50.8945 147.217 50.8073C147.508 50.72 147.734 50.5927 147.894 50.4255C148.054 50.2509 148.159 50.0436 148.21 49.8036C148.268 49.5564 148.297 49.2764 148.297 48.9636V45.6364H150.359V48.9091C150.359 49.6145 150.53 50.1273 150.872 50.4473C151.214 50.7673 151.748 50.9309 152.475 50.9382C152.606 50.9309 152.766 50.9055 152.955 50.8618C153.152 50.8182 153.337 50.7273 153.512 50.5891C153.694 50.4509 153.85 50.2545 153.981 50C154.112 49.7382 154.177 49.3927 154.177 48.9636V45.6364H156.228V48.9091C156.228 49.6145 156.395 50.1309 156.73 50.4582C157.072 50.7782 157.617 50.9382 158.366 50.9382C158.577 50.9382 158.788 50.9055 158.999 50.84C159.21 50.7745 159.399 50.6655 159.566 50.5127C159.734 50.36 159.872 50.1636 159.981 49.9236C160.09 49.6764 160.152 49.3745 160.166 49.0182V45.6364H162.228V49.0182C162.243 49.6873 162.428 50.1745 162.785 50.48C163.141 50.7855 163.683 50.9382 164.41 50.9382H165.075V53H164.41ZM170.518 44.12C170.533 44.1636 170.562 44.28 170.605 44.4691C170.649 44.6582 170.696 44.8945 170.747 45.1782C170.805 45.4545 170.867 45.7636 170.933 46.1055C170.998 46.44 171.056 46.7818 171.107 47.1309C171.158 47.4727 171.202 47.8036 171.238 48.1236C171.274 48.4436 171.293 48.7236 171.293 48.9636C171.293 49.6618 171.176 50.2655 170.944 50.7745C170.718 51.2764 170.42 51.6945 170.049 52.0291C169.685 52.3564 169.274 52.6 168.816 52.76C168.358 52.92 167.896 53 167.431 53H164.649V50.9382H167.431C167.54 50.9382 167.693 50.9236 167.889 50.8945C168.093 50.8582 168.293 50.7745 168.489 50.6436C168.693 50.5127 168.867 50.3164 169.013 50.0545C169.165 49.7927 169.242 49.4291 169.242 48.9636C169.242 48.8036 169.227 48.6036 169.198 48.3636C169.176 48.1164 169.144 47.8545 169.1 47.5782C169.064 47.2945 169.02 47.0073 168.969 46.7164C168.918 46.4182 168.867 46.1382 168.816 45.8764C168.765 45.6145 168.718 45.3818 168.674 45.1782C168.631 44.9745 168.594 44.8218 168.565 44.72L170.518 44.12ZM166.918 39.6145L168.773 37.7382L170.671 39.6364L168.794 41.5127L166.918 39.6145ZM176.376 52.9891H174.315V37.4327H176.376V52.9891ZM199.948 50.9382V53H199.545C198.461 53 197.461 52.5491 196.545 51.6473C195.999 52.3818 195.043 52.8473 193.676 53.0436C193.421 53.08 193.152 53.1091 192.868 53.1309C192.585 53.1527 192.29 53.1636 191.985 53.1636C191.614 53.1636 191.239 53.1455 190.861 53.1091C190.483 53.08 190.112 53.0327 189.748 52.9673C189.392 52.8945 189.047 52.8036 188.712 52.6945C188.378 52.5782 188.076 52.4436 187.807 52.2909L186.912 51.7673L187.938 49.9673L188.843 50.4909C189.098 50.6364 189.407 50.7564 189.77 50.8509C190.141 50.9382 190.534 51 190.948 51.0364C191.261 51.0655 191.574 51.08 191.887 51.08C191.996 51.08 192.181 51.08 192.443 51.08C192.705 51.0727 193.018 51.0436 193.381 50.9927C193.803 50.9273 194.148 50.8364 194.418 50.72C194.694 50.5964 194.868 50.4582 194.941 50.3055C195.007 50.2327 195.039 50.1418 195.039 50.0327C195.039 49.96 195.014 49.8436 194.963 49.6836C194.912 49.5164 194.799 49.2982 194.625 49.0291L190.534 42.8L192.268 41.6655L196.501 48.1236C196.719 48.4364 196.938 48.76 197.156 49.0945C197.381 49.4218 197.618 49.7236 197.865 50C198.112 50.2691 198.37 50.4945 198.639 50.6764C198.916 50.8509 199.218 50.9382 199.545 50.9382H199.948ZM208.773 50.9382V53H207.922C207.261 53 206.675 52.9055 206.166 52.7164C205.664 52.5273 205.261 52.2436 204.955 51.8655C204.199 52.6218 203.079 53 201.595 53H199.501V50.9382H201.595C202.119 50.9382 202.533 50.8873 202.839 50.7855C203.144 50.6764 203.373 50.5455 203.526 50.3927C203.686 50.2327 203.788 50.0582 203.831 49.8691C203.882 49.6727 203.908 49.4873 203.908 49.3127V45.6255H205.959V49.2364C205.959 49.5055 205.999 49.7345 206.079 49.9236C206.159 50.1127 206.261 50.2727 206.384 50.4036C206.515 50.5273 206.657 50.6255 206.81 50.6982C206.97 50.7709 207.122 50.8255 207.268 50.8618C207.413 50.8982 207.544 50.92 207.661 50.9273C207.777 50.9345 207.864 50.9382 207.922 50.9382H208.773ZM202.282 40.5964L204.137 38.72L206.035 40.6182L204.159 42.4945L202.282 40.5964ZM214.206 44.12C214.22 44.1636 214.249 44.28 214.293 44.4691C214.337 44.6582 214.384 44.8945 214.435 45.1782C214.493 45.4545 214.555 45.7636 214.62 46.1055C214.686 46.44 214.744 46.7818 214.795 47.1309C214.846 47.4727 214.889 47.8036 214.926 48.1236C214.962 48.4436 214.98 48.7236 214.98 48.9636C214.98 49.6618 214.864 50.2655 214.631 50.7745C214.406 51.2764 214.107 51.6945 213.737 52.0291C213.373 52.3564 212.962 52.6 212.504 52.76C212.046 52.92 211.584 53 211.118 53H208.337V50.9382H211.118C211.227 50.9382 211.38 50.9236 211.577 50.8945C211.78 50.8582 211.98 50.7745 212.177 50.6436C212.38 50.5127 212.555 50.3164 212.7 50.0545C212.853 49.7927 212.929 49.4291 212.929 48.9636C212.929 48.8036 212.915 48.6036 212.886 48.3636C212.864 48.1164 212.831 47.8545 212.787 47.5782C212.751 47.2945 212.707 47.0073 212.657 46.7164C212.606 46.4182 212.555 46.1382 212.504 45.8764C212.453 45.6145 212.406 45.3818 212.362 45.1782C212.318 44.9745 212.282 44.8218 212.253 44.72L214.206 44.12ZM210.606 39.6145L212.46 37.7382L214.358 39.6364L212.482 41.5127L210.606 39.6145ZM222.758 53C221.995 52.9927 221.362 52.9418 220.86 52.8473C220.366 52.7455 219.944 52.6036 219.595 52.4218C219.253 52.2327 218.977 52 218.766 51.7236C218.562 51.44 218.402 51.1127 218.286 50.7418C218.169 50.3636 218.093 49.9418 218.057 49.4764C218.02 49.0109 218.002 48.4945 218.002 47.9273V37.4327H220.064V47.9273C220.064 48.56 220.082 49.0727 220.118 49.4655C220.162 49.8582 220.268 50.1636 220.435 50.3818C220.609 50.5927 220.868 50.7382 221.209 50.8182C221.558 50.8909 222.075 50.9309 222.758 50.9382V53ZM230.238 51.4618C230.289 51.4618 230.358 51.4582 230.445 51.4509C230.54 51.4436 230.638 51.4145 230.74 51.3636C230.849 51.3127 230.954 51.2364 231.056 51.1345C231.165 51.0255 231.26 50.8764 231.34 50.6873C231.427 50.4909 231.496 50.2436 231.547 49.9455C231.605 49.64 231.634 49.2691 231.634 48.8327C231.634 48.7527 231.627 48.6255 231.612 48.4509C231.598 48.2764 231.565 48.0836 231.514 47.8727C231.463 47.6545 231.387 47.4327 231.285 47.2073C231.191 46.9818 231.06 46.7745 230.892 46.5855C230.725 46.3964 230.521 46.2436 230.281 46.1273C230.041 46.0036 229.751 45.9418 229.409 45.9418C229.089 45.9418 228.816 46 228.591 46.1164C228.372 46.2255 228.187 46.3782 228.034 46.5745C227.881 46.7709 227.754 47.0036 227.652 47.2727C227.551 47.5345 227.456 47.8218 227.369 48.1345C227.281 48.44 227.194 48.7636 227.107 49.1055C227.02 49.44 226.918 49.7745 226.801 50.1091C227.18 50.2982 227.529 50.4764 227.849 50.6436C228.169 50.8109 228.467 50.9564 228.743 51.08C229.02 51.1964 229.278 51.2909 229.518 51.3636C229.765 51.4291 230.005 51.4618 230.238 51.4618ZM229.409 43.8909C230.121 43.8909 230.74 44.0291 231.263 44.3055C231.794 44.5745 232.234 44.9382 232.583 45.3964C232.932 45.8545 233.191 46.3818 233.358 46.9782C233.532 47.5745 233.62 48.1927 233.62 48.8327C233.62 49.5382 233.558 50.1455 233.434 50.6545C233.318 51.1636 233.161 51.5927 232.965 51.9418C232.769 52.2836 232.547 52.56 232.3 52.7709C232.06 52.9818 231.812 53.1418 231.558 53.2509C231.311 53.36 231.071 53.4327 230.838 53.4691C230.605 53.5055 230.405 53.5236 230.238 53.5236C229.881 53.5236 229.54 53.4873 229.212 53.4145C228.885 53.3418 228.551 53.2364 228.209 53.0982C227.867 52.9673 227.507 52.8036 227.129 52.6073C226.758 52.4109 226.347 52.1891 225.896 51.9418C225.3 52.6473 224.532 53 223.594 53H222.34V50.9382H223.594C223.871 50.9382 224.096 50.8364 224.271 50.6327C224.452 50.4291 224.609 50.1636 224.74 49.8364C224.871 49.5091 224.991 49.1345 225.1 48.7127C225.209 48.2909 225.332 47.8582 225.471 47.4145C225.616 46.9709 225.787 46.5382 225.983 46.1164C226.18 45.6945 226.427 45.32 226.725 44.9927C227.031 44.6655 227.398 44.4 227.827 44.1964C228.263 43.9927 228.791 43.8909 229.409 43.8909ZM249.594 53C248.831 52.9927 248.198 52.9418 247.696 52.8473C247.202 52.7455 246.78 52.6036 246.431 52.4218C246.089 52.2327 245.813 52 245.602 51.7236C245.398 51.44 245.238 51.1127 245.122 50.7418C245.005 50.3636 244.929 49.9418 244.893 49.4764C244.856 49.0109 244.838 48.4945 244.838 47.9273V37.4327H246.9V47.9273C246.9 48.56 246.918 49.0727 246.954 49.4655C246.998 49.8582 247.104 50.1636 247.271 50.3818C247.445 50.5927 247.704 50.7382 248.045 50.8182C248.394 50.8909 248.911 50.9309 249.594 50.9382V53ZM256.746 44.12C256.761 44.1636 256.79 44.28 256.834 44.4691C256.877 44.6582 256.925 44.8945 256.976 45.1782C257.034 45.4545 257.096 45.7636 257.161 46.1055C257.226 46.44 257.285 46.7818 257.336 47.1309C257.386 47.4727 257.43 47.8036 257.466 48.1236C257.503 48.4436 257.521 48.7236 257.521 48.9636C257.521 49.6618 257.405 50.2655 257.172 50.7745C256.946 51.2764 256.648 51.6945 256.277 52.0291C255.914 52.3564 255.503 52.6 255.045 52.76C254.586 52.92 254.125 53 253.659 53H249.143V50.9382H253.659C253.768 50.9382 253.921 50.9236 254.117 50.8945C254.321 50.8582 254.521 50.7745 254.717 50.6436C254.921 50.5127 255.096 50.3164 255.241 50.0545C255.394 49.7927 255.47 49.4291 255.47 48.9636C255.47 48.8036 255.456 48.6036 255.426 48.3636C255.405 48.1164 255.372 47.8545 255.328 47.5782C255.292 47.2945 255.248 47.0073 255.197 46.7164C255.146 46.4182 255.096 46.1382 255.045 45.8764C254.994 45.6145 254.946 45.3818 254.903 45.1782C254.859 44.9745 254.823 44.8218 254.794 44.72L256.746 44.12ZM256.55 41.8073L254.826 40.0618L256.528 38.2945L258.296 40.0618L256.55 41.8073ZM252.372 41.7855L250.648 40.04L252.35 38.2727L254.117 40.04L252.372 41.7855Z" fill="white"/>
</svg>
