<svg width="197" height="43" viewBox="0 0 197 43" fill="none" xmlns="http://www.w3.org/2000/svg">
<path d="M10.3442 12C9.93205 12 9.56842 11.9394 9.25327 11.8182C8.94296 11.697 8.66175 11.52 8.40963 11.2873C8.27872 11.4521 8.14054 11.5855 7.99509 11.6873C7.84963 11.7842 7.70418 11.8618 7.55872 11.92C7.41327 11.9733 7.27266 12.0073 7.1369 12.0218C7.00599 12.0412 6.89206 12.0509 6.79509 12.0509C6.71266 12.0509 6.60599 12.0388 6.47509 12.0145C6.34418 11.9903 6.16721 11.9394 5.94418 11.8618C5.72115 11.7842 5.43993 11.6727 5.10054 11.5273C4.76115 11.3818 4.34175 11.1855 3.84236 10.9382C3.50781 10.7733 3.19266 10.6158 2.8969 10.4655C2.60599 10.3103 2.36842 10.1818 2.18418 10.08V16.8H0.816903V9.26545L2.14054 8.49455C2.28115 8.57212 2.4266 8.65212 2.5769 8.73455C2.70296 8.80242 2.83872 8.87758 2.98418 8.96C3.13448 9.04242 3.27993 9.11758 3.42054 9.18545C3.49327 8.74909 3.57569 8.35636 3.66781 8.00727C3.76478 7.65333 3.88357 7.33576 4.02418 7.05455C4.49448 6.10909 5.2363 5.63636 6.24963 5.63636C6.70054 5.63636 7.09812 5.72848 7.44236 5.91273C7.79145 6.09212 8.08236 6.33212 8.31509 6.63273C8.55266 6.93333 8.73205 7.28242 8.85327 7.68C8.97448 8.07758 9.03509 8.4897 9.03509 8.91636C9.03509 8.99879 9.03266 9.07879 9.02781 9.15636C9.02781 9.22909 9.02539 9.29939 9.02054 9.36727C9.02054 9.63394 9.07387 9.8497 9.18054 10.0145C9.29206 10.1794 9.42054 10.3079 9.56599 10.4C9.71145 10.4873 9.8569 10.5479 10.0024 10.5818C10.1527 10.6109 10.2666 10.6255 10.3442 10.6255H10.5842V12H10.3442ZM4.63509 9.76C5.04721 9.96364 5.38902 10.1261 5.66054 10.2473C5.9369 10.3636 6.15751 10.4558 6.32236 10.5236C6.48721 10.5867 6.60357 10.6279 6.67145 10.6473C6.74418 10.6667 6.78539 10.6764 6.79509 10.6764C6.84842 10.6764 6.92599 10.6667 7.02781 10.6473C7.13448 10.6279 7.23872 10.5648 7.34054 10.4582C7.44721 10.3467 7.53933 10.1721 7.6169 9.93455C7.69448 9.69697 7.73327 9.35758 7.73327 8.91636C7.73327 8.86303 7.72599 8.77818 7.71145 8.66182C7.70175 8.54545 7.67993 8.41697 7.64599 8.27636C7.61205 8.13576 7.56115 7.9903 7.49327 7.84C7.43024 7.6897 7.34296 7.55394 7.23145 7.43273C7.11993 7.30667 6.98418 7.20485 6.82418 7.12727C6.66418 7.04485 6.47266 7.00364 6.24963 7.00364C6.06054 7.00364 5.88599 7.03515 5.72599 7.09818C5.57084 7.15636 5.42781 7.28242 5.2969 7.47636C5.16599 7.6703 5.04478 7.94909 4.93327 8.31273C4.8266 8.67636 4.72721 9.15879 4.63509 9.76ZM18.2417 10.6255V12H16.9689C16.5277 12 16.1374 11.937 15.798 11.8109C15.4635 11.6848 15.1944 11.4958 14.9908 11.2436C14.4865 11.7479 13.7399 12 12.7508 12H10.278V10.6255H12.7508C13.0999 10.6255 13.3762 10.5915 13.5799 10.5236C13.7835 10.4509 13.9362 10.3636 14.038 10.2618C14.1447 10.1552 14.2126 10.0388 14.2417 9.91273C14.2756 9.78182 14.2926 9.65818 14.2926 9.54182V7.08364H15.6599V9.49091C15.6599 9.6703 15.6865 9.82303 15.7399 9.94909C15.798 10.0752 15.8683 10.1818 15.9508 10.2691C16.0332 10.3515 16.1253 10.417 16.2271 10.4655C16.3338 10.5139 16.4356 10.5503 16.5326 10.5745C16.6296 10.5988 16.7168 10.6133 16.7944 10.6182C16.872 10.623 16.9302 10.6255 16.9689 10.6255H18.2417ZM16.2344 14.8145L15.0562 15.9927L13.9217 14.8145L15.0708 13.6509L16.2344 14.8145ZM13.4489 14.8291L12.2708 16.0073L11.1362 14.8291L12.2853 13.6655L13.4489 14.8291ZM22.6449 10.1236C22.8243 10.0461 22.9891 9.94909 23.1394 9.83273C23.2946 9.71636 23.4279 9.58545 23.5394 9.44C23.6558 9.2897 23.7455 9.12727 23.8085 8.95273C23.8715 8.77818 23.903 8.58909 23.903 8.38545C23.903 8.14303 23.8521 7.93939 23.7503 7.77455C23.6485 7.60485 23.5273 7.46909 23.3867 7.36727C23.2461 7.26061 23.0982 7.18545 22.943 7.14182C22.7927 7.09333 22.6643 7.06909 22.5576 7.06909C22.3588 7.06909 22.1746 7.10061 22.0049 7.16364C21.84 7.22182 21.6946 7.30424 21.5685 7.41091C21.4473 7.51758 21.3503 7.64606 21.2776 7.79636C21.2097 7.94667 21.1758 8.10909 21.1758 8.28364C21.1758 8.49212 21.2024 8.68121 21.2558 8.85091C21.3139 9.01576 21.4012 9.17091 21.5176 9.31636C21.6388 9.45697 21.7915 9.59273 21.9758 9.72364C22.16 9.85455 22.383 9.98788 22.6449 10.1236ZM24.4994 4.34909C25.0327 4.90667 25.5249 5.42788 25.9758 5.91273C26.1697 6.12121 26.3636 6.33212 26.5576 6.54545C26.7515 6.75394 26.9309 6.95515 27.0958 7.14909C27.2655 7.33818 27.4133 7.51273 27.5394 7.67273C27.6703 7.82788 27.7673 7.95394 27.8303 8.05091C27.9612 8.26424 28.0679 8.4703 28.1503 8.66909C28.2376 8.86788 28.2982 9.06909 28.3321 9.27273C28.3515 9.39394 28.3612 9.51758 28.3612 9.64364C28.3612 9.72606 28.3539 9.84242 28.3394 9.99273C28.3249 10.143 28.2812 10.3418 28.2085 10.5891C28.1309 10.8703 28.0073 11.1273 27.8376 11.36C27.6727 11.5879 27.4715 11.7842 27.2339 11.9491C26.9964 12.1139 26.7273 12.24 26.4267 12.3273C26.1261 12.4194 25.8012 12.4655 25.4521 12.4655C25.1224 12.4655 24.7806 12.4218 24.4267 12.3345C24.0727 12.2473 23.7067 12.1115 23.3285 11.9273C23.2218 11.8836 23.1224 11.84 23.0303 11.7964C22.9479 11.7576 22.863 11.7188 22.7758 11.68C22.6933 11.6412 22.6255 11.6073 22.5721 11.5782C22.1164 11.7188 21.583 11.8255 20.9721 11.8982C20.3612 11.9661 19.7018 12 18.9939 12H17.9249V10.6255H18.9939C19.3091 10.6255 19.6339 10.6206 19.9685 10.6109C20.3079 10.6012 20.6085 10.5794 20.8703 10.5455C20.5212 10.24 20.2667 9.90545 20.1067 9.54182C19.9467 9.17333 19.8667 8.75394 19.8667 8.28364C19.8667 7.91515 19.9346 7.57576 20.0703 7.26545C20.2061 6.9503 20.3927 6.67879 20.6303 6.45091C20.8727 6.22303 21.1564 6.04606 21.4812 5.92C21.8109 5.78909 22.1697 5.72364 22.5576 5.72364C22.8485 5.72364 23.1152 5.76485 23.3576 5.84727C23.6 5.9297 23.8206 6.04121 24.0194 6.18182C24.2182 6.31758 24.3903 6.47758 24.5358 6.66182C24.6861 6.84121 24.8121 7.0303 24.9139 7.22909C25.0158 7.42303 25.0909 7.62182 25.1394 7.82545C25.1927 8.02424 25.2194 8.21091 25.2194 8.38545C25.2194 8.88485 25.1249 9.33576 24.9358 9.73818C24.7515 10.1358 24.4776 10.4873 24.1139 10.7927C24.3176 10.8752 24.5333 10.943 24.7612 10.9964C24.9939 11.0497 25.2243 11.0764 25.4521 11.0764C25.5976 11.0764 25.7406 11.0667 25.8812 11.0473C26.0267 11.0279 26.1624 10.9891 26.2885 10.9309C26.4194 10.8727 26.5382 10.7952 26.6449 10.6982C26.7515 10.5964 26.8436 10.4655 26.9212 10.3055C26.9843 10.1745 27.0158 10.0315 27.0158 9.87636C27.0158 9.80364 26.9988 9.68727 26.9649 9.52727C26.9358 9.36727 26.8436 9.15152 26.6885 8.88C26.5333 8.60848 26.337 8.32727 26.0994 8.03636C25.8618 7.74061 25.6 7.44 25.3139 7.13455C25.0279 6.82909 24.7297 6.52364 24.4194 6.21818C24.1091 5.91273 23.8061 5.6097 23.5103 5.30909L24.4994 4.34909ZM32.8944 12.1091C32.6471 12.1091 32.3974 12.097 32.1453 12.0727C31.8932 12.0533 31.6459 12.0218 31.4035 11.9782C31.1659 11.9297 30.9356 11.8691 30.7126 11.7964C30.4944 11.7188 30.2956 11.6267 30.1162 11.52L29.5126 11.1782L30.1962 9.97818L30.7999 10.32C30.9696 10.417 31.178 10.497 31.4253 10.56C31.6726 10.6182 31.9344 10.6594 32.2108 10.6836C32.4483 10.7079 32.6859 10.72 32.9235 10.72C32.9671 10.72 33.0689 10.72 33.2289 10.72C33.3889 10.7152 33.5877 10.6958 33.8253 10.6618C34.1065 10.6182 34.3368 10.5576 34.5162 10.48C34.7005 10.3976 34.8168 10.3055 34.8653 10.2036C34.8847 10.1552 34.8944 10.1018 34.8944 10.0436C34.8944 9.96121 34.8702 9.84727 34.8217 9.70182C34.7732 9.55152 34.6714 9.36 34.5162 9.12727L31.8835 5.14909L33.0471 4.39273C33.1102 4.4897 33.1756 4.59152 33.2435 4.69818C33.3114 4.8 33.3914 4.92121 33.4835 5.06182C33.5756 5.19758 33.6823 5.36 33.8035 5.54909C33.9247 5.73333 34.0726 5.95636 34.2471 6.21818C34.4217 6.48 34.6253 6.78545 34.858 7.13455C35.0908 7.48364 35.3623 7.89091 35.6726 8.35636C35.7938 8.54061 35.9029 8.73455 35.9999 8.93818C36.0968 9.13697 36.1696 9.33818 36.218 9.54182C36.2617 9.72606 36.2835 9.9103 36.2835 10.0945C36.2835 10.1139 36.2811 10.1818 36.2762 10.2982C36.2714 10.4097 36.2229 10.5648 36.1308 10.7636C35.8253 11.4473 35.1223 11.8691 34.0217 12.0291C33.852 12.0533 33.6726 12.0727 33.4835 12.0873C33.2944 12.1018 33.098 12.1091 32.8944 12.1091ZM52.8781 12C53.0817 12.3976 53.1932 12.7733 53.2126 13.1273L53.2199 13.2291C53.2199 13.5442 53.1569 13.8424 53.0308 14.1236C52.9048 14.4048 52.7084 14.6642 52.4417 14.9018C52.1751 15.1394 51.8599 15.3382 51.4963 15.4982C51.1326 15.663 50.7278 15.7891 50.2817 15.8764C49.8357 15.9685 49.3654 16.0145 48.8708 16.0145H46.7981C46.032 16.0145 45.3436 15.8473 44.7326 15.5127C44.1217 15.1782 43.6223 14.7152 43.2345 14.1236C42.9726 13.7067 42.786 13.2436 42.6745 12.7345C42.5872 12.3418 42.5436 11.9297 42.5436 11.4982C42.5436 11.3721 42.5532 11.1345 42.5726 10.7855C42.592 10.4315 42.6914 9.93697 42.8708 9.30182C43.0551 8.66667 43.312 8.0097 43.6417 7.33091L44.8636 7.92727C44.3205 9.07152 44.0126 10.1067 43.9399 11.0327C43.9302 11.1879 43.9254 11.3382 43.9254 11.4836C43.9254 12.2206 44.0878 12.8533 44.4126 13.3818C44.6599 13.7842 44.9896 14.0921 45.4017 14.3055C45.8187 14.5188 46.2842 14.6255 46.7981 14.6255H48.8708C49.1423 14.6255 49.409 14.6036 49.6708 14.56C49.9326 14.5212 50.1775 14.4655 50.4054 14.3927C50.6332 14.32 50.8393 14.2327 51.0236 14.1309C51.2078 14.0339 51.3605 13.9248 51.4817 13.8036C51.6078 13.6824 51.6951 13.5515 51.7436 13.4109C51.7726 13.3382 51.7872 13.2655 51.7872 13.1927C51.7872 13.1248 51.7751 13.057 51.7508 12.9891C51.6926 12.8 51.5569 12.64 51.3436 12.5091C51.1302 12.383 50.8732 12.2812 50.5726 12.2036C50.272 12.1309 49.9472 12.0776 49.5981 12.0436C49.249 12.0145 48.912 12 48.5872 12L48.6381 10.6255H54.9072V12H52.8781ZM59.9007 10.9745C59.9346 10.9745 59.9807 10.9721 60.0389 10.9673C60.1019 10.9624 60.1674 10.943 60.2353 10.9091C60.308 10.8752 60.3783 10.8242 60.4462 10.7564C60.5189 10.6836 60.5819 10.5842 60.6353 10.4582C60.6934 10.3273 60.7395 10.1624 60.7734 9.96364C60.8122 9.76 60.8316 9.51273 60.8316 9.22182C60.8316 9.16848 60.8268 9.08364 60.8171 8.96727C60.8074 8.85091 60.7856 8.72242 60.7516 8.58182C60.7177 8.43636 60.6668 8.28848 60.5989 8.13818C60.5359 7.98788 60.4486 7.8497 60.3371 7.72364C60.2256 7.59758 60.0898 7.49576 59.9298 7.41818C59.7698 7.33576 59.5759 7.29455 59.348 7.29455C59.1346 7.29455 58.9528 7.33333 58.8025 7.41091C58.6571 7.48364 58.5334 7.58545 58.4316 7.71636C58.3298 7.84727 58.245 8.00242 58.1771 8.18182C58.1092 8.35636 58.0462 8.54788 57.988 8.75636C57.9298 8.96 57.8716 9.17576 57.8134 9.40364C57.7553 9.62667 57.6874 9.8497 57.6098 10.0727C57.8619 10.1988 58.0946 10.3176 58.308 10.4291C58.5213 10.5406 58.7201 10.6376 58.9043 10.72C59.0886 10.7976 59.2607 10.8606 59.4207 10.9091C59.5856 10.9527 59.7456 10.9745 59.9007 10.9745ZM59.348 5.92727C59.8231 5.92727 60.2353 6.01939 60.5843 6.20364C60.9383 6.38303 61.2316 6.62545 61.4643 6.93091C61.6971 7.23636 61.8692 7.58788 61.9807 7.98545C62.0971 8.38303 62.1553 8.79515 62.1553 9.22182C62.1553 9.69212 62.114 10.097 62.0316 10.4364C61.954 10.7758 61.8498 11.0618 61.7189 11.2945C61.588 11.5224 61.4401 11.7067 61.2753 11.8473C61.1153 11.9879 60.9504 12.0945 60.7807 12.1673C60.6159 12.24 60.4559 12.2885 60.3007 12.3127C60.1456 12.337 60.0122 12.3491 59.9007 12.3491C59.6631 12.3491 59.4353 12.3248 59.2171 12.2764C58.9989 12.2279 58.7759 12.1576 58.548 12.0655C58.3201 11.9782 58.0801 11.8691 57.828 11.7382C57.5807 11.6073 57.3068 11.4594 57.0062 11.2945C56.6086 11.7648 56.0971 12 55.4716 12H54.6353V10.6255H55.4716C55.6559 10.6255 55.8062 10.5576 55.9225 10.4218C56.0437 10.2861 56.148 10.1091 56.2353 9.89091C56.3225 9.67273 56.4025 9.42303 56.4753 9.14182C56.548 8.86061 56.6304 8.57212 56.7225 8.27636C56.8195 7.98061 56.9334 7.69212 57.0643 7.41091C57.1953 7.1297 57.3601 6.88 57.5589 6.66182C57.7625 6.44364 58.0074 6.26667 58.2934 6.13091C58.5843 5.99515 58.9359 5.92727 59.348 5.92727ZM84.7979 12C84.3179 12 83.8961 11.9297 83.5324 11.7891C83.1736 11.6485 82.873 11.4448 82.6306 11.1782C82.4997 11.3333 82.3518 11.4642 82.187 11.5709C82.027 11.6727 81.8597 11.7576 81.6851 11.8255C81.5154 11.8885 81.3409 11.9345 81.1615 11.9636C80.987 11.9879 80.8173 12 80.6524 12C80.0464 12 79.5227 11.8642 79.0815 11.5927V12.2036C79.0815 13.4739 78.7421 14.4267 78.0633 15.0618C77.3845 15.697 76.3688 16.0145 75.0161 16.0145H73.307C72.5554 16.0145 71.8742 15.8521 71.2633 15.5273C70.6524 15.2024 70.1579 14.7394 69.7797 14.1382C69.5179 13.7261 69.3312 13.2679 69.2197 12.7636C69.1276 12.3709 69.0815 11.9588 69.0815 11.5273C69.0815 11.4012 69.0912 11.1612 69.1106 10.8073C69.1348 10.4533 69.2367 9.95879 69.4161 9.32364C69.5954 8.68848 69.8451 8.03394 70.1651 7.36L71.4015 7.96364C71.13 8.52606 70.9142 9.06667 70.7542 9.58545C70.5991 10.1042 70.5021 10.5939 70.4633 11.0545C70.4488 11.2097 70.4415 11.36 70.4415 11.5055C70.4415 11.8012 70.473 12.1139 70.5361 12.4436C70.6039 12.7733 70.7373 13.0933 70.9361 13.4036C71.1882 13.7964 71.5179 14.0994 71.9251 14.3127C72.3324 14.5309 72.793 14.64 73.307 14.64H75.0161C75.5736 14.64 76.027 14.5818 76.3761 14.4655C76.73 14.3491 77.0039 14.1842 77.1979 13.9709C77.3967 13.7576 77.53 13.5006 77.5979 13.2C77.6706 12.9042 77.707 12.5721 77.707 12.2036V7.08364H79.0815V8.50182C79.0815 8.96727 79.1251 9.34061 79.2124 9.62182C79.3045 9.89818 79.4233 10.1115 79.5688 10.2618C79.7191 10.4121 79.8864 10.5115 80.0706 10.56C80.2597 10.6085 80.4536 10.6327 80.6524 10.6327C80.7736 10.6327 80.9118 10.6109 81.067 10.5673C81.2221 10.5236 81.3676 10.4509 81.5033 10.3491C81.6391 10.2424 81.753 10.1018 81.8451 9.92727C81.9421 9.75273 81.9906 9.53455 81.9906 9.27273V7.08364H83.3579V9.34545C83.3676 9.78667 83.4839 10.1115 83.707 10.32C83.9348 10.5285 84.2961 10.6327 84.7906 10.6327C84.873 10.6279 84.9797 10.6109 85.1106 10.5818C85.2464 10.5479 85.3748 10.4848 85.4961 10.3927C85.6221 10.2958 85.7288 10.16 85.8161 9.98545C85.9082 9.80606 85.9542 9.56848 85.9542 9.27273C85.9542 9.16606 85.9445 9.03273 85.9251 8.87273C85.9106 8.71273 85.8912 8.54303 85.867 8.36364C85.8427 8.17939 85.8136 7.99273 85.7797 7.80364C85.7457 7.6097 85.7118 7.42788 85.6779 7.25818C85.6488 7.08848 85.6197 6.93818 85.5906 6.80727C85.5615 6.67152 85.5373 6.5697 85.5179 6.50182L86.827 6.10182C86.8367 6.12606 86.8536 6.20121 86.8779 6.32727C86.907 6.44848 86.9409 6.60121 86.9797 6.78545C87.0185 6.96485 87.0573 7.16606 87.0961 7.38909C87.1397 7.61212 87.1785 7.83758 87.2124 8.06545C87.2464 8.28848 87.273 8.50667 87.2924 8.72C87.3167 8.92848 87.3288 9.11273 87.3288 9.27273C87.3288 9.73333 87.2536 10.1333 87.1033 10.4727C86.9579 10.8073 86.7639 11.0885 86.5215 11.3164C86.2839 11.5394 86.0124 11.7091 85.707 11.8255C85.4064 11.937 85.1033 11.9952 84.7979 12ZM83.4451 1.87636L82.4124 2.88727L81.3942 1.87636L82.4415 0.836364L83.4451 1.87636ZM83.8015 5.16364L82.6524 4L83.787 2.82182L84.9651 4L83.8015 5.16364ZM81.0161 5.14909L79.867 3.98545L81.0015 2.80727L82.1797 3.98545L81.0161 5.14909ZM86.6953 16.0364V14.6618H87.6989C88.1983 14.6618 88.6299 14.6012 88.9935 14.48C89.362 14.3636 89.665 14.1818 89.9026 13.9345C90.145 13.6873 90.322 13.3721 90.4335 12.9891C90.5499 12.6061 90.608 12.1503 90.608 11.6218V7.08364H91.9826V11.6218C91.9826 12.3152 91.8905 12.9333 91.7062 13.4764C91.5268 14.0242 91.2577 14.4873 90.8989 14.8655C90.5402 15.2436 90.0917 15.5321 89.5535 15.7309C89.0202 15.9345 88.402 16.0364 87.6989 16.0364H86.6953ZM89.9899 3.93455L91.2262 2.68364L92.4917 3.94909L91.2408 5.2L89.9899 3.93455ZM94.5383 14.64C95.2704 14.64 95.8862 14.5842 96.3856 14.4727C96.885 14.3612 97.2801 14.1891 97.5711 13.9564C97.8232 13.7527 98.0074 13.4933 98.1238 13.1782C98.245 12.863 98.3056 12.4703 98.3056 12H96.9674C96.628 12 96.2838 11.9491 95.9347 11.8473C95.5856 11.7455 95.268 11.5782 94.982 11.3455C94.7007 11.1127 94.4704 10.8097 94.2911 10.4364C94.1117 10.0582 94.022 9.59758 94.022 9.05455C94.022 8.73455 94.0486 8.44606 94.102 8.18909C94.1601 7.92727 94.2304 7.69455 94.3129 7.49091C94.4001 7.28727 94.4947 7.1103 94.5965 6.96C94.6983 6.8097 94.7977 6.68121 94.8947 6.57455C95.1614 6.30788 95.4668 6.10182 95.8111 5.95636C96.1553 5.81091 96.5238 5.73818 96.9165 5.73818C97.2607 5.73818 97.5832 5.79152 97.8838 5.89818C98.1844 6.00485 98.4535 6.16485 98.6911 6.37818C99.3456 6.98909 99.6729 7.94667 99.6729 9.25091V10.6255H100.764V12H99.6729C99.6729 12.6885 99.5711 13.28 99.3674 13.7745C99.1686 14.2739 98.8583 14.6909 98.4365 15.0255C98.0098 15.36 97.4789 15.6073 96.8438 15.7673C96.2135 15.9321 95.445 16.0145 94.5383 16.0145V14.64ZM96.8438 7.11273C96.3638 7.11273 95.9904 7.28242 95.7238 7.62182C95.4571 7.96121 95.3238 8.43879 95.3238 9.05455C95.3238 9.68 95.5129 10.1139 95.8911 10.3564C95.9832 10.4145 96.0777 10.463 96.1747 10.5018C96.2717 10.5358 96.3662 10.5624 96.4583 10.5818C96.5504 10.5964 96.6329 10.6085 96.7056 10.6182C96.7832 10.623 96.8462 10.6255 96.8947 10.6255H98.2329V9.25091C98.2329 8.89697 98.2062 8.59879 98.1529 8.35636C98.0995 8.10909 98.0317 7.90545 97.9492 7.74545C97.8668 7.58545 97.7723 7.46424 97.6656 7.38182C97.5638 7.29455 97.462 7.23151 97.3601 7.19273C97.2583 7.15394 97.1614 7.13212 97.0692 7.12727C96.9771 7.11758 96.902 7.11273 96.8438 7.11273ZM105.744 10.9745C105.778 10.9745 105.824 10.9721 105.883 10.9673C105.946 10.9624 106.011 10.943 106.079 10.9091C106.152 10.8752 106.222 10.8242 106.29 10.7564C106.363 10.6836 106.426 10.5842 106.479 10.4582C106.537 10.3273 106.583 10.1624 106.617 9.96364C106.656 9.76 106.675 9.51273 106.675 9.22182C106.675 9.16848 106.671 9.08364 106.661 8.96727C106.651 8.85091 106.629 8.72242 106.595 8.58182C106.561 8.43636 106.511 8.28848 106.443 8.13818C106.38 7.98788 106.292 7.8497 106.181 7.72364C106.069 7.59758 105.934 7.49576 105.774 7.41818C105.614 7.33576 105.42 7.29455 105.192 7.29455C104.978 7.29455 104.797 7.33333 104.646 7.41091C104.501 7.48364 104.377 7.58545 104.275 7.71636C104.174 7.84727 104.089 8.00242 104.021 8.18182C103.953 8.35636 103.89 8.54788 103.832 8.75636C103.774 8.96 103.715 9.17576 103.657 9.40364C103.599 9.62667 103.531 9.8497 103.454 10.0727C103.706 10.1988 103.938 10.3176 104.152 10.4291C104.365 10.5406 104.564 10.6376 104.748 10.72C104.932 10.7976 105.104 10.8606 105.264 10.9091C105.429 10.9527 105.589 10.9745 105.744 10.9745ZM105.192 5.92727C105.667 5.92727 106.079 6.01939 106.428 6.20364C106.782 6.38303 107.075 6.62545 107.308 6.93091C107.541 7.23636 107.713 7.58788 107.824 7.98545C107.941 8.38303 107.999 8.79515 107.999 9.22182C107.999 9.69212 107.958 10.097 107.875 10.4364C107.798 10.7758 107.694 11.0618 107.563 11.2945C107.432 11.5224 107.284 11.7067 107.119 11.8473C106.959 11.9879 106.794 12.0945 106.624 12.1673C106.46 12.24 106.3 12.2885 106.144 12.3127C105.989 12.337 105.856 12.3491 105.744 12.3491C105.507 12.3491 105.279 12.3248 105.061 12.2764C104.843 12.2279 104.62 12.1576 104.392 12.0655C104.164 11.9782 103.924 11.8691 103.672 11.7382C103.424 11.6073 103.151 11.4594 102.85 11.2945C102.452 11.7648 101.941 12 101.315 12H100.479V10.6255H101.315C101.5 10.6255 101.65 10.5576 101.766 10.4218C101.887 10.2861 101.992 10.1091 102.079 9.89091C102.166 9.67273 102.246 9.42303 102.319 9.14182C102.392 8.86061 102.474 8.57212 102.566 8.27636C102.663 7.98061 102.777 7.69212 102.908 7.41091C103.039 7.1297 103.204 6.88 103.403 6.66182C103.606 6.44364 103.851 6.26667 104.137 6.13091C104.428 5.99515 104.78 5.92727 105.192 5.92727ZM113.128 12H111.754V2.71273H113.128V12ZM115.506 1.54182H111.994C111.688 1.54182 111.431 1.55394 111.223 1.57818C111.014 1.60242 110.837 1.65091 110.692 1.72364C110.551 1.79636 110.435 1.90061 110.343 2.03636C110.255 2.17212 110.178 2.35152 110.11 2.57455L108.961 2.23273C109.184 1.45212 109.589 0.916364 110.175 0.625455C110.423 0.499394 110.697 0.419394 110.997 0.385454C111.298 0.346666 111.63 0.327272 111.994 0.327272H115.506V1.54182ZM123.399 11.9927H122.025V1.62182H123.399V11.9927ZM123.039 16.0364V14.6618H124.043C124.542 14.6618 124.974 14.6012 125.337 14.48C125.706 14.3636 126.009 14.1818 126.246 13.9345C126.489 13.6873 126.666 13.3721 126.777 12.9891C126.894 12.6061 126.952 12.1503 126.952 11.6218V7.08364H128.326V11.6218C128.326 12.3152 128.234 12.9333 128.05 13.4764C127.871 14.0242 127.601 14.4873 127.243 14.8655C126.884 15.2436 126.435 15.5321 125.897 15.7309C125.364 15.9345 124.746 16.0364 124.043 16.0364H123.039ZM139.054 16.0291C138.303 16.0291 137.622 15.8642 137.011 15.5345C136.4 15.2097 135.905 14.7442 135.527 14.1382C135.265 13.7261 135.079 13.2679 134.967 12.7636C134.88 12.3758 134.836 11.9685 134.836 11.5418C134.836 11.4158 134.846 11.1782 134.865 10.8291C134.885 10.4752 134.984 9.98545 135.163 9.36C135.343 8.7297 135.592 8.08 135.912 7.41091L137.149 8C136.877 8.56242 136.662 9.10303 136.502 9.62182C136.346 10.1358 136.249 10.623 136.211 11.0836C136.201 11.2388 136.196 11.3891 136.196 11.5345C136.196 11.8255 136.228 12.1333 136.291 12.4582C136.354 12.7879 136.485 13.1079 136.683 13.4182C136.936 13.8109 137.265 14.1139 137.672 14.3273C138.08 14.5455 138.54 14.6545 139.054 14.6545H140.763C141.321 14.6545 141.774 14.5939 142.123 14.4727C142.477 14.3564 142.751 14.1915 142.945 13.9782C143.144 13.7648 143.277 13.5055 143.345 13.2C143.418 12.8994 143.454 12.5648 143.454 12.1964V7.08364H144.829V9.34545C144.834 9.53939 144.868 9.71636 144.931 9.87636C144.999 10.0315 145.088 10.1648 145.2 10.2764C145.311 10.3879 145.445 10.4752 145.6 10.5382C145.76 10.5964 145.937 10.6255 146.131 10.6255H146.414V12H146.131C145.656 12 145.222 11.8958 144.829 11.6873V12.1964C144.829 13.4764 144.489 14.4339 143.811 15.0691C143.132 15.7091 142.116 16.0291 140.763 16.0291H139.054ZM139.105 6.53818L140.342 5.28727L141.607 6.55273L140.356 7.80364L139.105 6.53818ZM154.07 10.6255V12H152.797C152.356 12 151.966 11.937 151.626 11.8109C151.292 11.6848 151.023 11.4958 150.819 11.2436C150.315 11.7479 149.568 12 148.579 12H146.106V10.6255H148.579C148.928 10.6255 149.204 10.5915 149.408 10.5236C149.612 10.4509 149.764 10.3636 149.866 10.2618C149.973 10.1552 150.041 10.0388 150.07 9.91273C150.104 9.78182 150.121 9.65818 150.121 9.54182V7.08364H151.488V9.49091C151.488 9.6703 151.515 9.82303 151.568 9.94909C151.626 10.0752 151.696 10.1818 151.779 10.2691C151.861 10.3515 151.953 10.417 152.055 10.4655C152.162 10.5139 152.264 10.5503 152.361 10.5745C152.458 10.5988 152.545 10.6133 152.623 10.6182C152.7 10.623 152.758 10.6255 152.797 10.6255H154.07ZM152.063 14.8145L150.884 15.9927L149.75 14.8145L150.899 13.6509L152.063 14.8145ZM149.277 14.8291L148.099 16.0073L146.964 14.8291L148.113 13.6655L149.277 14.8291ZM159.426 11.9855C158.97 11.9855 158.565 11.92 158.211 11.7891C157.857 11.6533 157.559 11.4594 157.317 11.2073C157.064 11.4788 156.771 11.68 156.437 11.8109C156.102 11.937 155.765 12 155.426 12H153.753V10.6255H155.426C155.498 10.6255 155.603 10.6158 155.738 10.5964C155.874 10.5721 156.008 10.5164 156.138 10.4291C156.269 10.337 156.383 10.2012 156.48 10.0218C156.582 9.84242 156.633 9.59758 156.633 9.28727V7.08364H158.008V9.25818C158.008 9.72848 158.117 10.0727 158.335 10.2909C158.558 10.5091 158.921 10.6182 159.426 10.6182C159.498 10.6182 159.6 10.6061 159.731 10.5818C159.867 10.5527 160 10.4921 160.131 10.4C160.267 10.3079 160.383 10.1721 160.48 9.99273C160.582 9.81333 160.633 9.56848 160.633 9.25818V7.08364H162V9.25818C162 9.72848 162.114 10.0752 162.342 10.2982C162.57 10.5212 162.936 10.6327 163.44 10.6327C163.518 10.6327 163.622 10.6182 163.753 10.5891C163.884 10.5552 164.012 10.4897 164.138 10.3927C164.269 10.2958 164.381 10.1576 164.473 9.97818C164.565 9.79879 164.611 9.55879 164.611 9.25818C164.611 9.15152 164.601 9.01818 164.582 8.85818C164.568 8.69818 164.546 8.52606 164.517 8.34182C164.492 8.15758 164.463 7.97091 164.429 7.78182C164.395 7.58788 164.361 7.40848 164.328 7.24364C164.294 7.07394 164.262 6.92364 164.233 6.79273C164.204 6.65697 164.18 6.55758 164.16 6.49455L165.462 6.08C165.472 6.10909 165.491 6.18667 165.52 6.31273C165.549 6.43394 165.583 6.58667 165.622 6.77091C165.661 6.9503 165.7 7.15152 165.738 7.37455C165.782 7.59758 165.821 7.82303 165.855 8.05091C165.894 8.27394 165.925 8.49212 165.949 8.70545C165.974 8.91394 165.986 9.09818 165.986 9.25818C165.986 9.71879 165.911 10.1212 165.76 10.4655C165.61 10.8048 165.414 11.0885 165.171 11.3164C164.934 11.5394 164.662 11.7091 164.357 11.8255C164.051 11.937 163.746 11.9952 163.44 12C162.975 12 162.563 11.9321 162.204 11.7964C161.85 11.6558 161.549 11.4545 161.302 11.1927C161.05 11.4594 160.757 11.6582 160.422 11.7891C160.092 11.92 159.76 11.9855 159.426 11.9855ZM162.415 1.81091L161.382 2.82182L160.364 1.81091L161.411 0.770909L162.415 1.81091ZM162.771 5.09818L161.622 3.93455L162.757 2.75636L163.935 3.93455L162.771 5.09818ZM159.986 5.08364L158.837 3.92L159.971 2.74182L161.149 3.92L159.986 5.08364ZM171.461 12C170.952 11.9952 170.53 11.9612 170.196 11.8982C169.866 11.8303 169.585 11.7358 169.352 11.6145C169.124 11.4885 168.94 11.3333 168.8 11.1491C168.664 10.96 168.557 10.7418 168.48 10.4945C168.402 10.2424 168.351 9.96121 168.327 9.65091C168.303 9.34061 168.29 8.99636 168.29 8.61818V1.62182H169.665V8.61818C169.665 9.04 169.677 9.38182 169.701 9.64364C169.73 9.90545 169.801 10.1091 169.912 10.2545C170.029 10.3952 170.201 10.4921 170.429 10.5455C170.661 10.5939 171.006 10.6206 171.461 10.6255V12ZM176.448 10.9745C176.482 10.9745 176.528 10.9721 176.586 10.9673C176.649 10.9624 176.714 10.943 176.782 10.9091C176.855 10.8752 176.925 10.8242 176.993 10.7564C177.066 10.6836 177.129 10.5842 177.182 10.4582C177.24 10.3273 177.286 10.1624 177.32 9.96364C177.359 9.76 177.378 9.51273 177.378 9.22182C177.378 9.16848 177.374 9.08364 177.364 8.96727C177.354 8.85091 177.332 8.72242 177.298 8.58182C177.265 8.43636 177.214 8.28848 177.146 8.13818C177.083 7.98788 176.995 7.8497 176.884 7.72364C176.772 7.59758 176.637 7.49576 176.477 7.41818C176.317 7.33576 176.123 7.29455 175.895 7.29455C175.682 7.29455 175.5 7.33333 175.349 7.41091C175.204 7.48364 175.08 7.58545 174.978 7.71636C174.877 7.84727 174.792 8.00242 174.724 8.18182C174.656 8.35636 174.593 8.54788 174.535 8.75636C174.477 8.96 174.418 9.17576 174.36 9.40364C174.302 9.62667 174.234 9.8497 174.157 10.0727C174.409 10.1988 174.642 10.3176 174.855 10.4291C175.068 10.5406 175.267 10.6376 175.451 10.72C175.635 10.7976 175.808 10.8606 175.968 10.9091C176.132 10.9527 176.292 10.9745 176.448 10.9745ZM175.895 5.92727C176.37 5.92727 176.782 6.01939 177.131 6.20364C177.485 6.38303 177.778 6.62545 178.011 6.93091C178.244 7.23636 178.416 7.58788 178.528 7.98545C178.644 8.38303 178.702 8.79515 178.702 9.22182C178.702 9.69212 178.661 10.097 178.578 10.4364C178.501 10.7758 178.397 11.0618 178.266 11.2945C178.135 11.5224 177.987 11.7067 177.822 11.8473C177.662 11.9879 177.497 12.0945 177.328 12.1673C177.163 12.24 177.003 12.2885 176.848 12.3127C176.692 12.337 176.559 12.3491 176.448 12.3491C176.21 12.3491 175.982 12.3248 175.764 12.2764C175.546 12.2279 175.323 12.1576 175.095 12.0655C174.867 11.9782 174.627 11.8691 174.375 11.7382C174.128 11.6073 173.854 11.4594 173.553 11.2945C173.155 11.7648 172.644 12 172.018 12H171.182V10.6255H172.018C172.203 10.6255 172.353 10.5576 172.469 10.4218C172.591 10.2861 172.695 10.1091 172.782 9.89091C172.869 9.67273 172.949 9.42303 173.022 9.14182C173.095 8.86061 173.177 8.57212 173.269 8.27636C173.366 7.98061 173.48 7.69212 173.611 7.41091C173.742 7.1297 173.907 6.88 174.106 6.66182C174.309 6.44364 174.554 6.26667 174.84 6.13091C175.131 5.99515 175.483 5.92727 175.895 5.92727ZM189.352 12C188.843 11.9952 188.421 11.9612 188.087 11.8982C187.757 11.8303 187.476 11.7358 187.243 11.6145C187.015 11.4885 186.831 11.3333 186.69 11.1491C186.554 10.96 186.448 10.7418 186.37 10.4945C186.293 10.2424 186.242 9.96121 186.217 9.65091C186.193 9.34061 186.181 8.99636 186.181 8.61818V1.62182H187.556V8.61818C187.556 9.04 187.568 9.38182 187.592 9.64364C187.621 9.90545 187.691 10.1091 187.803 10.2545C187.919 10.3952 188.091 10.4921 188.319 10.5455C188.552 10.5939 188.896 10.6206 189.352 10.6255V12ZM194.338 10.9745C194.372 10.9745 194.418 10.9721 194.476 10.9673C194.539 10.9624 194.605 10.943 194.673 10.9091C194.745 10.8752 194.816 10.8242 194.884 10.7564C194.956 10.6836 195.019 10.5842 195.073 10.4582C195.131 10.3273 195.177 10.1624 195.211 9.96364C195.25 9.76 195.269 9.51273 195.269 9.22182C195.269 9.16848 195.264 9.08364 195.255 8.96727C195.245 8.85091 195.223 8.72242 195.189 8.58182C195.155 8.43636 195.104 8.28848 195.036 8.13818C194.973 7.98788 194.886 7.8497 194.775 7.72364C194.663 7.59758 194.527 7.49576 194.367 7.41818C194.207 7.33576 194.013 7.29455 193.785 7.29455C193.572 7.29455 193.39 7.33333 193.24 7.41091C193.095 7.48364 192.971 7.58545 192.869 7.71636C192.767 7.84727 192.682 8.00242 192.615 8.18182C192.547 8.35636 192.484 8.54788 192.425 8.75636C192.367 8.96 192.309 9.17576 192.251 9.40364C192.193 9.62667 192.125 9.8497 192.047 10.0727C192.299 10.1988 192.532 10.3176 192.745 10.4291C192.959 10.5406 193.158 10.6376 193.342 10.72C193.526 10.7976 193.698 10.8606 193.858 10.9091C194.023 10.9527 194.183 10.9745 194.338 10.9745ZM193.785 5.92727C194.261 5.92727 194.673 6.01939 195.022 6.20364C195.376 6.38303 195.669 6.62545 195.902 6.93091C196.135 7.23636 196.307 7.58788 196.418 7.98545C196.535 8.38303 196.593 8.79515 196.593 9.22182C196.593 9.69212 196.552 10.097 196.469 10.4364C196.392 10.7758 196.287 11.0618 196.156 11.2945C196.025 11.5224 195.878 11.7067 195.713 11.8473C195.553 11.9879 195.388 12.0945 195.218 12.1673C195.053 12.24 194.893 12.2885 194.738 12.3127C194.583 12.337 194.45 12.3491 194.338 12.3491C194.101 12.3491 193.873 12.3248 193.655 12.2764C193.436 12.2279 193.213 12.1576 192.985 12.0655C192.758 11.9782 192.518 11.8691 192.265 11.7382C192.018 11.6073 191.744 11.4594 191.444 11.2945C191.046 11.7648 190.535 12 189.909 12H189.073V10.6255H189.909C190.093 10.6255 190.244 10.5576 190.36 10.4218C190.481 10.2861 190.585 10.1091 190.673 9.89091C190.76 9.67273 190.84 9.42303 190.913 9.14182C190.985 8.86061 191.068 8.57212 191.16 8.27636C191.257 7.98061 191.371 7.69212 191.502 7.41091C191.633 7.1297 191.798 6.88 191.996 6.66182C192.2 6.44364 192.445 6.26667 192.731 6.13091C193.022 5.99515 193.373 5.92727 193.785 5.92727ZM30.9344 36.6255V38H30.6653C29.9429 38 29.2762 37.6994 28.6653 37.0982C28.3016 37.5879 27.6641 37.8982 26.7526 38.0291C26.5829 38.0533 26.4035 38.0727 26.2144 38.0873C26.0253 38.1018 25.8289 38.1091 25.6253 38.1091C25.378 38.1091 25.1283 38.097 24.8762 38.0727C24.6241 38.0533 24.3768 38.0218 24.1344 37.9782C23.8968 37.9297 23.6665 37.8691 23.4435 37.7964C23.2204 37.7188 23.0192 37.6291 22.8398 37.5273L22.2435 37.1782L22.9271 35.9782L23.5307 36.3273C23.7004 36.4242 23.9065 36.5042 24.1489 36.5673C24.3962 36.6255 24.658 36.6667 24.9344 36.6909C25.1429 36.7103 25.3513 36.72 25.5598 36.72C25.6326 36.72 25.7562 36.72 25.9307 36.72C26.1053 36.7152 26.3138 36.6958 26.5562 36.6618C26.8374 36.6182 27.0677 36.5576 27.2471 36.48C27.4313 36.3976 27.5477 36.3055 27.5962 36.2036C27.6398 36.1552 27.6616 36.0945 27.6616 36.0218C27.6616 35.9733 27.6447 35.8958 27.6107 35.7891C27.5768 35.6776 27.5016 35.5321 27.3853 35.3527L24.658 31.2L25.8144 30.4436L28.6362 34.7491C28.7816 34.9576 28.9271 35.1733 29.0726 35.3964C29.2229 35.6145 29.3804 35.8158 29.5453 36C29.7101 36.1794 29.8823 36.3297 30.0616 36.4509C30.2459 36.5673 30.4471 36.6255 30.6653 36.6255H30.9344ZM36.8176 36.6255V38H36.2503C35.8091 38 35.4188 37.937 35.0794 37.8109C34.7449 37.6848 34.4758 37.4958 34.2722 37.2436C33.7679 37.7479 33.0213 38 32.0322 38H30.6358V36.6255H32.0322C32.3812 36.6255 32.6576 36.5915 32.8612 36.5236C33.0649 36.4509 33.2176 36.3636 33.3194 36.2618C33.4261 36.1552 33.494 36.0388 33.5231 35.9127C33.557 35.7818 33.574 35.6582 33.574 35.5418V33.0836H34.9412V35.4909C34.9412 35.6703 34.9679 35.823 35.0213 35.9491C35.0746 36.0752 35.1425 36.1818 35.2249 36.2691C35.3122 36.3515 35.4067 36.417 35.5085 36.4655C35.6152 36.5139 35.717 36.5503 35.814 36.5745C35.9109 36.5988 35.9982 36.6133 36.0758 36.6182C36.1534 36.623 36.2116 36.6255 36.2503 36.6255H36.8176ZM32.4903 29.7309L33.7267 28.48L34.9922 29.7455L33.7413 30.9964L32.4903 29.7309ZM36.5046 38V36.6255H40.7664C41.1155 36.6255 41.404 36.5867 41.6319 36.5091C41.8646 36.4267 42.0149 36.3152 42.0828 36.1745C42.1167 36.1018 42.1337 36.0194 42.1337 35.9273C42.1337 35.8448 42.1095 35.7285 42.061 35.5782C42.0173 35.423 41.9204 35.2218 41.7701 34.9745C41.6198 34.7224 41.4355 34.4582 41.2173 34.1818C40.9991 33.9055 40.764 33.6291 40.5119 33.3527C40.2598 33.0764 40.0004 32.8073 39.7337 32.5455C39.467 32.2788 39.2101 32.0339 38.9628 31.8109C38.7155 31.583 38.4901 31.3842 38.2864 31.2145C38.0828 31.04 37.9155 30.9067 37.7846 30.8145L37.9228 29.2655L44.5773 26.3418L45.1301 27.5927L39.3046 30.1382C39.4501 30.2836 39.6367 30.4679 39.8646 30.6909C40.0925 30.9091 40.3398 31.1539 40.6064 31.4255C40.8731 31.6921 41.1446 31.9782 41.421 32.2836C41.6973 32.5842 41.9591 32.8873 42.2064 33.1927C42.4537 33.4982 42.6719 33.7988 42.861 34.0945C43.0549 34.3855 43.1979 34.6545 43.2901 34.9018C43.3725 35.1152 43.4307 35.3139 43.4646 35.4982C43.4888 35.6582 43.501 35.8036 43.501 35.9345C43.501 35.9588 43.4985 36.0145 43.4937 36.1018C43.4937 36.1891 43.4767 36.2933 43.4428 36.4145C43.4137 36.5358 43.3798 36.64 43.341 36.7273C43.2876 36.8485 43.2052 36.9842 43.0937 37.1345C42.9822 37.28 42.8246 37.4182 42.621 37.5491C42.4222 37.6752 42.1725 37.7818 41.8719 37.8691C41.5713 37.9564 41.2028 38 40.7664 38H36.5046ZM57.0748 38H56.762C56.2966 38 55.8675 37.9079 55.4748 37.7236C55.4748 38.4024 55.3802 39.0085 55.1911 39.5418C55.002 40.0752 54.7257 40.5261 54.362 40.8945C53.9984 41.2679 53.5499 41.5515 53.0166 41.7455C52.4881 41.9394 51.8796 42.0364 51.1911 42.0364H50.1875V40.6618H51.1911C51.6905 40.6618 52.122 40.6012 52.4857 40.48C52.8542 40.3636 53.1572 40.1818 53.3948 39.9345C53.6372 39.6873 53.8142 39.3721 53.9257 38.9891C54.042 38.6061 54.1002 38.1503 54.1002 37.6218V33.0836H55.4748V35.4909C55.4748 35.7624 55.5305 35.9758 55.642 36.1309C55.7584 36.2812 55.8917 36.3927 56.042 36.4655C56.1923 36.5382 56.3354 36.5842 56.4711 36.6036C56.6117 36.6182 56.7087 36.6255 56.762 36.6255H57.0748V38ZM66.071 38H65.9619C65.5304 38 65.1449 37.9588 64.8055 37.8764C64.471 37.7939 64.1655 37.6776 63.8891 37.5273C63.6128 37.3721 63.3582 37.1879 63.1255 36.9745C62.8928 36.7564 62.6649 36.5139 62.4419 36.2473C62.4322 36.2715 62.4225 36.2933 62.4128 36.3127C62.4031 36.3321 62.3934 36.3539 62.3837 36.3782C62.2479 36.6448 62.0564 36.8848 61.8091 37.0982C61.5667 37.3115 61.2782 37.4885 60.9437 37.6291C60.6576 37.7552 60.3401 37.8497 59.991 37.9127C59.6419 37.9709 59.2782 38 58.9001 38H56.7619V36.6255H58.9001C59.1813 36.6255 59.4431 36.6061 59.6855 36.5673C59.9328 36.5236 60.1534 36.4655 60.3473 36.3927C60.5461 36.3152 60.7134 36.223 60.8491 36.1164C60.9898 36.0097 61.094 35.8909 61.1619 35.76C61.2249 35.6291 61.2564 35.4812 61.2564 35.3164C61.2564 35.1855 61.2225 34.9988 61.1546 34.7564C61.0867 34.5091 60.9001 34.1794 60.5946 33.7673C60.1631 33.1612 59.797 32.6473 59.4964 32.2255C59.1958 31.8036 58.951 31.4594 58.7619 31.1927C58.5388 30.8824 58.357 30.6279 58.2164 30.4291L58.4855 29.4109L65.1619 26.3273L65.7291 27.5855L59.7728 30.3127L62.6601 34.32C62.9558 34.7176 63.2201 35.0618 63.4528 35.3527C63.6855 35.6388 63.9207 35.8764 64.1582 36.0655C64.4007 36.2545 64.6625 36.3952 64.9437 36.4873C65.2298 36.5794 65.5691 36.6255 65.9619 36.6255H66.071V38ZM65.7619 38V36.6255H68.991C69.534 36.6255 69.9704 36.5867 70.3001 36.5091C70.6346 36.4315 70.894 36.3345 71.0782 36.2182C71.2625 36.1018 71.3861 35.9758 71.4491 35.84C71.517 35.6994 71.5582 35.5661 71.5728 35.44H70.4673C70.3413 35.44 70.2007 35.4352 70.0455 35.4255C69.8904 35.4158 69.7279 35.3988 69.5582 35.3745C69.3934 35.3455 69.2261 35.3042 69.0564 35.2509C68.8867 35.1976 68.7219 35.1273 68.5619 35.04C68.431 34.9624 68.2976 34.8655 68.1619 34.7491C68.0261 34.6327 67.9025 34.4897 67.791 34.32C67.6843 34.1455 67.5946 33.9418 67.5219 33.7091C67.454 33.4715 67.4201 33.1952 67.4201 32.88C67.4201 32.4873 67.4879 32.1164 67.6237 31.7673C67.7595 31.4133 67.9534 31.1103 68.2055 30.8582C68.4576 30.6061 68.7461 30.4145 69.071 30.2836C69.3958 30.1527 69.7425 30.0873 70.111 30.0873C70.5328 30.0873 70.9207 30.177 71.2746 30.3564C71.6285 30.5358 71.9267 30.7927 72.1691 31.1273C72.431 31.4764 72.6249 31.9079 72.751 32.4218C72.877 32.9358 72.9401 33.5248 72.9401 34.1891V35.1927C72.9401 35.6727 72.8431 36.0994 72.6491 36.4727C72.4601 36.8461 72.1716 37.1491 71.7837 37.3818C71.1388 37.7939 70.2079 38 68.991 38H65.7619ZM70.111 31.4618C69.951 31.4618 69.7861 31.4909 69.6164 31.5491C69.4516 31.6024 69.3013 31.6873 69.1655 31.8036C69.0346 31.9152 68.9255 32.0606 68.8382 32.24C68.7558 32.4194 68.7146 32.6327 68.7146 32.88C68.7146 33.04 68.7316 33.1758 68.7655 33.2873C68.7995 33.3939 68.8431 33.4836 68.8964 33.5564C68.9498 33.6242 69.0055 33.68 69.0637 33.7236C69.1219 33.7673 69.1776 33.8036 69.231 33.8327C69.3716 33.9152 69.5437 33.9758 69.7473 34.0145C69.951 34.0485 70.191 34.0655 70.4673 34.0655H71.5873C71.5776 33.5855 71.5267 33.1661 71.4346 32.8073C71.3473 32.4485 71.2261 32.1552 71.071 31.9273C70.8382 31.617 70.5182 31.4618 70.111 31.4618ZM68.9982 27.1782L70.2346 25.9273L71.5001 27.1927L70.2491 28.4436L68.9982 27.1782ZM83.4756 42.0291C82.7241 42.0291 82.0429 41.8642 81.432 41.5345C80.8211 41.2097 80.3265 40.7442 79.9484 40.1382C79.6865 39.7261 79.4999 39.2679 79.3884 38.7636C79.2962 38.3758 79.2502 37.9685 79.2502 37.5418C79.2502 37.4158 79.2599 37.1782 79.2793 36.8291C79.3035 36.4752 79.4053 35.9855 79.5847 35.36C79.7641 34.7297 80.0138 34.08 80.3338 33.4109L81.5702 34C81.2987 34.5624 81.0829 35.103 80.9229 35.6218C80.7677 36.1358 80.6708 36.623 80.632 37.0836C80.6174 37.2388 80.6102 37.3891 80.6102 37.5345C80.6102 37.8255 80.6417 38.1333 80.7047 38.4582C80.7726 38.7879 80.9059 39.1079 81.1047 39.4182C81.3568 39.8109 81.6865 40.1139 82.0938 40.3273C82.5011 40.5455 82.9617 40.6545 83.4756 40.6545H85.1847C85.7423 40.6545 86.1956 40.5939 86.5447 40.4727C86.8987 40.3564 87.1726 40.1915 87.3665 39.9782C87.5653 39.7648 87.6987 39.5055 87.7665 39.2C87.8393 38.8994 87.8756 38.5648 87.8756 38.1964V33.0836H89.2502V38.1964C89.2502 39.4764 88.9108 40.4339 88.232 41.0691C87.5532 41.7091 86.5374 42.0291 85.1847 42.0291H83.4756ZM83.5338 32.5091L84.7702 31.2582L86.0356 32.5236L84.7847 33.7745L83.5338 32.5091ZM94.7817 38C94.2726 37.9952 93.8508 37.9612 93.5163 37.8982C93.1866 37.8303 92.9053 37.7358 92.6726 37.6145C92.4447 37.4885 92.2605 37.3333 92.1199 37.1491C91.9841 36.96 91.8775 36.7418 91.7999 36.4945C91.7223 36.2424 91.6714 35.9612 91.6472 35.6509C91.6229 35.3406 91.6108 34.9964 91.6108 34.6182V27.6218H92.9853V34.6182C92.9853 35.04 92.9975 35.3818 93.0217 35.6436C93.0508 35.9055 93.1211 36.1091 93.2326 36.2545C93.349 36.3952 93.5211 36.4921 93.749 36.5455C93.9817 36.5939 94.3259 36.6206 94.7817 36.6255V38ZM107.273 38C106.808 38 106.396 37.9345 106.037 37.8036C105.678 37.6679 105.378 37.4667 105.135 37.2H105.128L105.019 37.3164C104.781 37.5442 104.512 37.7164 104.212 37.8327C103.911 37.9442 103.589 38 103.244 38C102.338 38 101.635 37.7382 101.135 37.2145C100.893 37.4715 100.614 37.6655 100.299 37.7964C99.9837 37.9224 99.6637 37.9903 99.3388 38H99.2443C98.3861 37.9855 97.717 37.7333 97.237 37.2436C97.2079 37.2824 97.174 37.3164 97.1352 37.3455C96.6455 37.7818 95.9546 38 95.0624 38H94.4952V36.6255H95.0624C95.3727 36.6255 95.6224 36.5964 95.8115 36.5382C96.0055 36.48 96.1558 36.3952 96.2624 36.2836C96.3691 36.1673 96.4394 36.0291 96.4734 35.8691C96.5121 35.7042 96.5315 35.5176 96.5315 35.3091V33.0909H97.9061V35.2727C97.9061 35.743 98.02 36.0848 98.2479 36.2982C98.4758 36.5115 98.8321 36.6206 99.317 36.6255C99.4043 36.6206 99.5109 36.6036 99.637 36.5745C99.7679 36.5455 99.8915 36.4848 100.008 36.3927C100.129 36.3006 100.233 36.1697 100.321 36C100.408 35.8255 100.452 35.5952 100.452 35.3091V33.0909H101.819V35.2727C101.819 35.743 101.93 36.0873 102.153 36.3055C102.381 36.5188 102.745 36.6255 103.244 36.6255C103.385 36.6255 103.525 36.6036 103.666 36.56C103.807 36.5164 103.933 36.4436 104.044 36.3418C104.156 36.24 104.248 36.1091 104.321 35.9491C104.393 35.7842 104.435 35.583 104.444 35.3455V33.0909H105.819V35.3455C105.829 35.7915 105.952 36.1164 106.19 36.32C106.427 36.5236 106.789 36.6255 107.273 36.6255H107.717V38H107.273ZM111.345 32.08C111.355 32.1091 111.374 32.1867 111.404 32.3127C111.433 32.4388 111.464 32.5964 111.498 32.7855C111.537 32.9697 111.578 33.1758 111.622 33.4036C111.665 33.6267 111.704 33.8545 111.738 34.0873C111.772 34.3152 111.801 34.5358 111.825 34.7491C111.85 34.9624 111.862 35.1491 111.862 35.3091C111.862 35.7745 111.784 36.177 111.629 36.5164C111.479 36.8509 111.28 37.1297 111.033 37.3527C110.79 37.5709 110.516 37.7333 110.211 37.84C109.905 37.9467 109.598 38 109.287 38H107.433V36.6255H109.287C109.36 36.6255 109.462 36.6158 109.593 36.5964C109.728 36.5721 109.862 36.5164 109.993 36.4291C110.128 36.3418 110.245 36.2109 110.342 36.0364C110.444 35.8618 110.494 35.6194 110.494 35.3091C110.494 35.2024 110.485 35.0691 110.465 34.9091C110.451 34.7442 110.429 34.5697 110.4 34.3855C110.376 34.1964 110.347 34.0048 110.313 33.8109C110.279 33.6121 110.245 33.4255 110.211 33.2509C110.177 33.0764 110.145 32.9212 110.116 32.7855C110.087 32.6497 110.063 32.5479 110.044 32.48L111.345 32.08ZM108.945 29.0764L110.182 27.8255L111.447 29.0909L110.196 30.3418L108.945 29.0764ZM115.251 37.9927H113.876V27.6218H115.251V37.9927ZM130.966 36.6255V38H130.697C129.974 38 129.307 37.6994 128.697 37.0982C128.333 37.5879 127.695 37.8982 126.784 38.0291C126.614 38.0533 126.435 38.0727 126.246 38.0873C126.057 38.1018 125.86 38.1091 125.657 38.1091C125.409 38.1091 125.16 38.097 124.907 38.0727C124.655 38.0533 124.408 38.0218 124.166 37.9782C123.928 37.9297 123.698 37.8691 123.475 37.7964C123.252 37.7188 123.05 37.6291 122.871 37.5273L122.275 37.1782L122.958 35.9782L123.562 36.3273C123.732 36.4242 123.938 36.5042 124.18 36.5673C124.427 36.6255 124.689 36.6667 124.966 36.6909C125.174 36.7103 125.383 36.72 125.591 36.72C125.664 36.72 125.787 36.72 125.962 36.72C126.137 36.7152 126.345 36.6958 126.587 36.6618C126.869 36.6182 127.099 36.5576 127.278 36.48C127.463 36.3976 127.579 36.3055 127.627 36.2036C127.671 36.1552 127.693 36.0945 127.693 36.0218C127.693 35.9733 127.676 35.8958 127.642 35.7891C127.608 35.6776 127.533 35.5321 127.417 35.3527L124.689 31.2L125.846 30.4436L128.667 34.7491C128.813 34.9576 128.958 35.1733 129.104 35.3964C129.254 35.6145 129.412 35.8158 129.577 36C129.741 36.1794 129.914 36.3297 130.093 36.4509C130.277 36.5673 130.478 36.6255 130.697 36.6255H130.966ZM136.849 36.6255V38H136.282C135.84 38 135.45 37.937 135.111 37.8109C134.776 37.6848 134.507 37.4958 134.303 37.2436C133.799 37.7479 133.053 38 132.063 38H130.667V36.6255H132.063C132.412 36.6255 132.689 36.5915 132.892 36.5236C133.096 36.4509 133.249 36.3636 133.351 36.2618C133.457 36.1552 133.525 36.0388 133.554 35.9127C133.588 35.7818 133.605 35.6582 133.605 35.5418V33.0836H134.972V35.4909C134.972 35.6703 134.999 35.823 135.053 35.9491C135.106 36.0752 135.174 36.1818 135.256 36.2691C135.343 36.3515 135.438 36.417 135.54 36.4655C135.646 36.5139 135.748 36.5503 135.845 36.5745C135.942 36.5988 136.029 36.6133 136.107 36.6182C136.185 36.623 136.243 36.6255 136.282 36.6255H136.849ZM132.522 29.7309L133.758 28.48L135.023 29.7455L133.773 30.9964L132.522 29.7309ZM140.47 32.08C140.48 32.1091 140.499 32.1867 140.529 32.3127C140.558 32.4388 140.589 32.5964 140.623 32.7855C140.662 32.9697 140.703 33.1758 140.747 33.4036C140.79 33.6267 140.829 33.8545 140.863 34.0873C140.897 34.3152 140.926 34.5358 140.95 34.7491C140.975 34.9624 140.987 35.1491 140.987 35.3091C140.987 35.7745 140.909 36.177 140.754 36.5164C140.604 36.8509 140.405 37.1297 140.158 37.3527C139.915 37.5709 139.641 37.7333 139.336 37.84C139.03 37.9467 138.723 38 138.412 38H136.558V36.6255H138.412C138.485 36.6255 138.587 36.6158 138.718 36.5964C138.853 36.5721 138.987 36.5164 139.118 36.4291C139.253 36.3418 139.37 36.2109 139.467 36.0364C139.569 35.8618 139.619 35.6194 139.619 35.3091C139.619 35.2024 139.61 35.0691 139.59 34.9091C139.576 34.7442 139.554 34.5697 139.525 34.3855C139.501 34.1964 139.472 34.0048 139.438 33.8109C139.404 33.6121 139.37 33.4255 139.336 33.2509C139.302 33.0764 139.27 32.9212 139.241 32.7855C139.212 32.6497 139.188 32.5479 139.169 32.48L140.47 32.08ZM138.07 29.0764L139.307 27.8255L140.572 29.0909L139.321 30.3418L138.07 29.0764ZM146.172 38C145.663 37.9952 145.241 37.9612 144.907 37.8982C144.577 37.8303 144.296 37.7358 144.063 37.6145C143.835 37.4885 143.651 37.3333 143.511 37.1491C143.375 36.96 143.268 36.7418 143.191 36.4945C143.113 36.2424 143.062 35.9612 143.038 35.6509C143.014 35.3406 143.001 34.9964 143.001 34.6182V27.6218H144.376V34.6182C144.376 35.04 144.388 35.3818 144.412 35.6436C144.441 35.9055 144.512 36.1091 144.623 36.2545C144.74 36.3952 144.912 36.4921 145.14 36.5455C145.372 36.5939 145.717 36.6206 146.172 36.6255V38ZM151.159 36.9745C151.192 36.9745 151.239 36.9721 151.297 36.9673C151.36 36.9624 151.425 36.943 151.493 36.9091C151.566 36.8752 151.636 36.8242 151.704 36.7564C151.777 36.6836 151.84 36.5842 151.893 36.4582C151.951 36.3273 151.997 36.1624 152.031 35.9636C152.07 35.76 152.089 35.5127 152.089 35.2218C152.089 35.1685 152.085 35.0836 152.075 34.9673C152.065 34.8509 152.043 34.7224 152.009 34.5818C151.975 34.4364 151.925 34.2885 151.857 34.1382C151.794 33.9879 151.706 33.8497 151.595 33.7236C151.483 33.5976 151.348 33.4958 151.188 33.4182C151.028 33.3358 150.834 33.2945 150.606 33.2945C150.392 33.2945 150.211 33.3333 150.06 33.4109C149.915 33.4836 149.791 33.5855 149.689 33.7164C149.588 33.8473 149.503 34.0024 149.435 34.1818C149.367 34.3564 149.304 34.5479 149.246 34.7564C149.188 34.96 149.129 35.1758 149.071 35.4036C149.013 35.6267 148.945 35.8497 148.868 36.0727C149.12 36.1988 149.352 36.3176 149.566 36.4291C149.779 36.5406 149.978 36.6376 150.162 36.72C150.346 36.7976 150.519 36.8606 150.679 36.9091C150.843 36.9527 151.003 36.9745 151.159 36.9745ZM150.606 31.9273C151.081 31.9273 151.493 32.0194 151.842 32.2036C152.196 32.383 152.489 32.6255 152.722 32.9309C152.955 33.2364 153.127 33.5879 153.239 33.9855C153.355 34.383 153.413 34.7952 153.413 35.2218C153.413 35.6921 153.372 36.097 153.289 36.4364C153.212 36.7758 153.108 37.0618 152.977 37.2945C152.846 37.5224 152.698 37.7067 152.533 37.8473C152.373 37.9879 152.208 38.0945 152.039 38.1673C151.874 38.24 151.714 38.2885 151.559 38.3127C151.403 38.337 151.27 38.3491 151.159 38.3491C150.921 38.3491 150.693 38.3248 150.475 38.2764C150.257 38.2279 150.034 38.1576 149.806 38.0655C149.578 37.9782 149.338 37.8691 149.086 37.7382C148.839 37.6073 148.565 37.4594 148.264 37.2945C147.866 37.7648 147.355 38 146.729 38H145.893V36.6255H146.729C146.914 36.6255 147.064 36.5576 147.18 36.4218C147.302 36.2861 147.406 36.1091 147.493 35.8909C147.58 35.6727 147.66 35.423 147.733 35.1418C147.806 34.8606 147.888 34.5721 147.98 34.2764C148.077 33.9806 148.191 33.6921 148.322 33.4109C148.453 33.1297 148.618 32.88 148.817 32.6618C149.02 32.4436 149.265 32.2667 149.551 32.1309C149.842 31.9952 150.194 31.9273 150.606 31.9273ZM164.063 38C163.554 37.9952 163.132 37.9612 162.798 37.8982C162.468 37.8303 162.187 37.7358 161.954 37.6145C161.726 37.4885 161.542 37.3333 161.401 37.1491C161.265 36.96 161.159 36.7418 161.081 36.4945C161.004 36.2424 160.953 35.9612 160.928 35.6509C160.904 35.3406 160.892 34.9964 160.892 34.6182V27.6218H162.267V34.6182C162.267 35.04 162.279 35.3818 162.303 35.6436C162.332 35.9055 162.402 36.1091 162.514 36.2545C162.63 36.3952 162.802 36.4921 163.03 36.5455C163.263 36.5939 163.607 36.6206 164.063 36.6255V38ZM168.831 32.08C168.841 32.1091 168.86 32.1867 168.889 32.3127C168.918 32.4388 168.95 32.5964 168.984 32.7855C169.022 32.9697 169.064 33.1758 169.107 33.4036C169.151 33.6267 169.19 33.8545 169.224 34.0873C169.258 34.3152 169.287 34.5358 169.311 34.7491C169.335 34.9624 169.347 35.1491 169.347 35.3091C169.347 35.7745 169.27 36.177 169.115 36.5164C168.964 36.8509 168.766 37.1297 168.518 37.3527C168.276 37.5709 168.002 37.7333 167.696 37.84C167.391 37.9467 167.083 38 166.773 38H163.762V36.6255H166.773C166.846 36.6255 166.947 36.6158 167.078 36.5964C167.214 36.5721 167.347 36.5164 167.478 36.4291C167.614 36.3418 167.73 36.2109 167.827 36.0364C167.929 35.8618 167.98 35.6194 167.98 35.3091C167.98 35.2024 167.97 35.0691 167.951 34.9091C167.936 34.7442 167.915 34.5697 167.886 34.3855C167.861 34.1964 167.832 34.0048 167.798 33.8109C167.764 33.6121 167.73 33.4255 167.696 33.2509C167.662 33.0764 167.631 32.9212 167.602 32.7855C167.573 32.6497 167.549 32.5479 167.529 32.48L168.831 32.08ZM168.7 30.5382L167.551 29.3745L168.686 28.1964L169.864 29.3745L168.7 30.5382ZM165.915 30.5236L164.766 29.36L165.9 28.1818L167.078 29.36L165.915 30.5236Z" fill="white"/>
</svg>
