<svg width="72" height="15" viewBox="0 0 72 15" fill="none" xmlns="http://www.w3.org/2000/svg">
<path d="M3.14884 11C2.70338 10.9958 2.33429 10.9661 2.04156 10.9109C1.75308 10.8515 1.50702 10.7688 1.30338 10.6627C1.10399 10.5524 0.942775 10.4167 0.819744 10.2555C0.700956 10.09 0.607623 9.89909 0.539744 9.68273C0.471866 9.46212 0.42732 9.21606 0.406108 8.94455C0.384896 8.67303 0.37429 8.37182 0.37429 8.04091V1.91909H1.57702V8.04091C1.57702 8.41 1.58762 8.70909 1.60884 8.93818C1.63429 9.16727 1.6958 9.34545 1.79338 9.47273C1.8952 9.59576 2.0458 9.68061 2.2452 9.72727C2.44884 9.7697 2.75005 9.79303 3.14884 9.79727V11ZM7.51175 10.1027C7.54145 10.1027 7.58175 10.1006 7.63266 10.0964C7.68782 10.0921 7.74509 10.0752 7.80448 10.0455C7.86812 10.0158 7.92963 9.97121 7.98903 9.91182C8.05266 9.84818 8.10782 9.76121 8.15448 9.65091C8.20539 9.53636 8.24569 9.39212 8.27539 9.21818C8.30933 9.04 8.3263 8.82364 8.3263 8.56909C8.3263 8.52242 8.32206 8.44818 8.31357 8.34636C8.30509 8.24455 8.286 8.13212 8.2563 8.00909C8.2266 7.88182 8.18206 7.75242 8.12266 7.62091C8.06751 7.48939 7.99115 7.36848 7.89357 7.25818C7.796 7.14788 7.67721 7.05879 7.53721 6.99091C7.39721 6.91879 7.22751 6.88273 7.02812 6.88273C6.84145 6.88273 6.68236 6.91667 6.55085 6.98455C6.42357 7.04818 6.31539 7.13727 6.2263 7.25182C6.13721 7.36636 6.06297 7.50212 6.00357 7.65909C5.94418 7.81182 5.88903 7.97939 5.83812 8.16182C5.78721 8.34 5.7363 8.52879 5.68539 8.72818C5.63448 8.92333 5.57509 9.11848 5.50721 9.31364C5.72781 9.42394 5.93145 9.52788 6.11812 9.62545C6.30478 9.72303 6.47872 9.80788 6.63994 9.88C6.80115 9.94788 6.95175 10.003 7.09175 10.0455C7.236 10.0836 7.376 10.1027 7.51175 10.1027ZM7.02812 5.68636C7.44388 5.68636 7.80448 5.76697 8.10994 5.92818C8.41963 6.08515 8.6763 6.29727 8.87994 6.56455C9.08357 6.83182 9.23418 7.13939 9.33175 7.48727C9.43357 7.83515 9.48448 8.19576 9.48448 8.56909C9.48448 8.98061 9.44842 9.33485 9.3763 9.63182C9.30842 9.92879 9.21721 10.1791 9.10266 10.3827C8.98812 10.5821 8.85872 10.7433 8.71448 10.8664C8.57448 10.9894 8.43024 11.0827 8.28175 11.1464C8.13751 11.21 7.99751 11.2524 7.86175 11.2736C7.726 11.2948 7.60933 11.3055 7.51175 11.3055C7.30388 11.3055 7.10448 11.2842 6.91357 11.2418C6.72266 11.1994 6.52751 11.1379 6.32812 11.0573C6.12872 10.9809 5.91872 10.8855 5.69812 10.7709C5.48175 10.6564 5.24206 10.527 4.97903 10.3827C4.63115 10.7942 4.18357 11 3.6363 11H2.90448V9.79727H3.6363C3.79751 9.79727 3.92903 9.73788 4.03085 9.61909C4.13691 9.5003 4.22812 9.34545 4.30448 9.15455C4.38085 8.96364 4.45085 8.74515 4.51448 8.49909C4.57812 8.25303 4.65024 8.00061 4.73085 7.74182C4.81569 7.48303 4.91539 7.23061 5.02994 6.98455C5.14448 6.73848 5.28872 6.52 5.46266 6.32909C5.64085 6.13818 5.85509 5.98333 6.10539 5.86455C6.35994 5.74576 6.66751 5.68636 7.02812 5.68636ZM18.8031 11C18.3577 10.9958 17.9886 10.9661 17.6959 10.9109C17.4074 10.8515 17.1613 10.7688 16.9577 10.6627C16.7583 10.5524 16.5971 10.4167 16.474 10.2555C16.3553 10.09 16.2619 9.89909 16.194 9.68273C16.1262 9.46212 16.0816 9.21606 16.0604 8.94455C16.0392 8.67303 16.0286 8.37182 16.0286 8.04091V1.91909H17.2313V8.04091C17.2313 8.41 17.2419 8.70909 17.2631 8.93818C17.2886 9.16727 17.3501 9.34545 17.4477 9.47273C17.5495 9.59576 17.7001 9.68061 17.8995 9.72727C18.1031 9.7697 18.4043 9.79303 18.8031 9.79727V11ZM21.9761 5.82C21.9845 5.84545 22.0015 5.91333 22.027 6.02364C22.0524 6.13394 22.08 6.27182 22.1097 6.43727C22.1436 6.59848 22.1797 6.77879 22.2179 6.97818C22.2561 7.17333 22.29 7.37273 22.3197 7.57636C22.3494 7.77576 22.3748 7.96879 22.3961 8.15545C22.4173 8.34212 22.4279 8.50545 22.4279 8.64545C22.4279 9.05273 22.36 9.40485 22.2242 9.70182C22.0927 9.99455 21.9188 10.2385 21.7024 10.4336C21.4903 10.6245 21.2506 10.7667 20.9833 10.86C20.7161 10.9533 20.4467 11 20.1751 11H18.5524V9.79727H20.1751C20.2388 9.79727 20.3279 9.78879 20.4424 9.77182C20.5612 9.75061 20.6779 9.70182 20.7924 9.62545C20.9112 9.54909 21.013 9.43455 21.0979 9.28182C21.187 9.12909 21.2315 8.91697 21.2315 8.64545C21.2315 8.55212 21.223 8.43545 21.2061 8.29545C21.1933 8.15121 21.1742 7.99848 21.1488 7.83727C21.1276 7.67182 21.1021 7.50424 21.0724 7.33455C21.0427 7.16061 21.013 6.99727 20.9833 6.84455C20.9536 6.69182 20.9261 6.55606 20.9006 6.43727C20.8751 6.31848 20.8539 6.22939 20.837 6.17L21.9761 5.82ZM19.7742 13.31L20.8561 12.2155L21.9633 13.3227L20.8688 14.4173L19.7742 13.31ZM33.2849 13.2973C33.7092 13.2973 34.0761 13.2591 34.3858 13.1827C34.6998 13.1106 34.9586 12.9939 35.1622 12.8327C35.3658 12.6715 35.5164 12.4615 35.614 12.2027C35.7116 11.9439 35.7604 11.63 35.7604 11.2609C35.3531 11.1548 34.9543 11.0488 34.564 10.9427C34.3986 10.9003 34.2246 10.8558 34.0422 10.8091C33.8598 10.7582 33.6774 10.7094 33.4949 10.6627C33.3167 10.6118 33.1407 10.5652 32.9667 10.5227C32.7971 10.4803 32.6401 10.44 32.4958 10.4018C32.3092 9.94788 32.2158 9.5003 32.2158 9.05909C32.2158 9.03364 32.218 8.89788 32.2222 8.65182C32.2307 8.40576 32.3219 8.08121 32.4958 7.67818C32.6698 7.27515 32.9158 6.91455 33.234 6.59636C33.5522 6.27394 33.9192 6.01727 34.3349 5.82636C34.7507 5.63545 35.2046 5.51879 35.6967 5.47636C35.7943 5.46788 35.894 5.46364 35.9958 5.46364C36.3946 5.46364 36.804 5.52515 37.224 5.64818L36.9249 6.8C36.6364 6.71091 36.3437 6.66848 36.0467 6.67273C35.7498 6.67273 35.4634 6.71515 35.1877 6.8C34.9161 6.88061 34.6637 6.99939 34.4304 7.15636C34.1971 7.31333 33.9977 7.50212 33.8322 7.72273C33.671 7.93909 33.5543 8.18303 33.4822 8.45455C33.4313 8.63273 33.4058 8.81727 33.4058 9.00818C33.4058 9.11848 33.4143 9.22879 33.4313 9.33909L35.8686 9.94364C36.208 10.037 36.4625 10.1897 36.6322 10.4018C36.8019 10.6139 36.8867 10.8727 36.8867 11.1782C36.8867 11.7339 36.821 12.2197 36.6895 12.6355C36.558 13.0555 36.348 13.4033 36.0595 13.6791C35.771 13.9548 35.3977 14.1627 34.9395 14.3027C34.4855 14.4427 33.934 14.5127 33.2849 14.5127H31.8786C31.5561 14.5127 31.2443 14.4724 30.9431 14.3918C30.6419 14.3112 30.3577 14.1988 30.0904 14.0545C29.8231 13.9103 29.5771 13.7364 29.3522 13.5327C29.1274 13.3291 28.9301 13.1042 28.7604 12.8582C28.561 12.5358 28.4104 12.1815 28.3086 11.7955C28.2067 11.4094 28.1558 11.0021 28.1558 10.5736C28.1558 10.0433 28.2386 9.47273 28.404 8.86182C28.5737 8.24667 28.8198 7.59758 29.1422 6.91455C29.3331 7.00364 29.5113 7.09061 29.6767 7.17545C29.8422 7.25606 30.0161 7.34091 30.1986 7.43C29.6386 8.62636 29.3586 9.66364 29.3586 10.5418C29.3586 10.8558 29.3967 11.1548 29.4731 11.4391C29.5495 11.7233 29.6555 11.98 29.7913 12.2091C30.0077 12.5485 30.3004 12.8136 30.6695 13.0045C31.0386 13.1997 31.4416 13.2973 31.8786 13.2973H33.2849ZM37.9844 14.5318V13.3291H38.8626C39.2995 13.3291 39.6771 13.2761 39.9953 13.17C40.3177 13.0682 40.5829 12.9091 40.7907 12.6927C41.0029 12.4764 41.1577 12.2006 41.2553 11.8655C41.3571 11.5303 41.408 11.1315 41.408 10.6691V6.69818H42.6107V10.6691C42.6107 11.2758 42.5301 11.8167 42.3689 12.2918C42.212 12.7712 41.9765 13.1764 41.6626 13.5073C41.3486 13.8382 40.9562 14.0906 40.4853 14.2645C40.0186 14.4427 39.4777 14.5318 38.8626 14.5318H37.9844ZM47.2816 11C46.8362 10.9958 46.4671 10.9661 46.1744 10.9109C45.8859 10.8515 45.6398 10.7688 45.4362 10.6627C45.2368 10.5524 45.0756 10.4167 44.9526 10.2555C44.8338 10.09 44.7404 9.89909 44.6726 9.68273C44.6047 9.46212 44.5601 9.21606 44.5389 8.94455C44.5177 8.67303 44.5071 8.37182 44.5071 8.04091V1.91909H45.7098V8.04091C45.7098 8.41 45.7204 8.70909 45.7416 8.93818C45.7671 9.16727 45.8286 9.34545 45.9262 9.47273C46.028 9.59576 46.1786 9.68061 46.378 9.72727C46.5816 9.7697 46.8829 9.79303 47.2816 9.79727V11ZM55.1637 11H55.0682C54.6906 11 54.3534 10.9639 54.0564 10.8918C53.7637 10.8197 53.4964 10.7179 53.2546 10.5864C53.0127 10.4506 52.79 10.2894 52.5864 10.1027C52.3827 9.91182 52.1834 9.6997 51.9882 9.46636C51.9797 9.48758 51.9712 9.50667 51.9627 9.52364C51.9543 9.54061 51.9458 9.5597 51.9373 9.58091C51.8185 9.81424 51.6509 10.0242 51.4346 10.2109C51.2224 10.3976 50.97 10.5524 50.6773 10.6755C50.427 10.7858 50.1491 10.8685 49.8437 10.9236C49.5382 10.9745 49.22 11 48.8891 11H47.0182V9.79727H48.8891C49.1352 9.79727 49.3643 9.7803 49.5764 9.74636C49.7927 9.70818 49.9858 9.65727 50.1555 9.59364C50.3294 9.52576 50.4758 9.44515 50.5946 9.35182C50.7176 9.25848 50.8088 9.15455 50.8682 9.04C50.9234 8.92545 50.9509 8.79606 50.9509 8.65182C50.9509 8.53727 50.9212 8.37394 50.8618 8.16182C50.8024 7.94545 50.6391 7.65697 50.3718 7.29636C49.9943 6.76606 49.674 6.31636 49.4109 5.94727C49.1479 5.57818 48.9337 5.27697 48.7682 5.04364C48.5731 4.77212 48.414 4.54939 48.2909 4.37545L48.5264 3.48455L54.3682 0.786363L54.8646 1.88727L49.6527 4.27364L52.1791 7.78C52.4379 8.12788 52.6691 8.42909 52.8727 8.68364C53.0764 8.93394 53.2821 9.14182 53.49 9.30727C53.7021 9.47273 53.9312 9.59576 54.1773 9.67636C54.4276 9.75697 54.7246 9.79727 55.0682 9.79727H55.1637V11ZM62.3832 11C62.0777 11 61.7914 10.9555 61.5241 10.8664C61.2568 10.7773 61.015 10.65 60.7987 10.4845C60.6841 10.6627 60.5568 10.807 60.4168 10.9173C60.2811 11.0233 60.1432 11.1039 60.0032 11.1591C59.8674 11.2185 59.7359 11.2567 59.6087 11.2736C59.4814 11.2948 59.3711 11.3055 59.2777 11.3055C59.0699 11.3055 58.8705 11.2842 58.6796 11.2418C58.4887 11.1994 58.2935 11.1379 58.0941 11.0573C57.8947 10.9809 57.6847 10.8855 57.4641 10.7709C57.2477 10.6564 57.0081 10.527 56.745 10.3827C56.3971 10.7942 55.9496 11 55.4023 11H54.9059V9.79727H55.4023C55.5635 9.79727 55.695 9.73788 55.7968 9.61909C55.9029 9.5003 55.9941 9.34545 56.0705 9.15455C56.1468 8.96364 56.2168 8.74515 56.2805 8.49909C56.3441 8.25303 56.4162 8.00061 56.4968 7.74182C56.5817 7.48303 56.6814 7.23061 56.7959 6.98455C56.9105 6.73848 57.0547 6.52 57.2287 6.32909C57.4068 6.13818 57.6211 5.98333 57.8714 5.86455C58.1259 5.74576 58.4335 5.68636 58.7941 5.68636C59.2099 5.68636 59.5705 5.76697 59.8759 5.92818C60.1856 6.08515 60.4423 6.29727 60.6459 6.56455C60.8496 6.83182 61.0002 7.13939 61.0977 7.48727C61.1996 7.83515 61.2505 8.19576 61.2505 8.56909C61.2505 8.84909 61.2993 9.07182 61.3968 9.23727C61.4987 9.39848 61.6132 9.52152 61.7405 9.60636C61.872 9.68697 61.9993 9.74 62.1223 9.76545C62.2496 9.78667 62.3365 9.79727 62.3832 9.79727H62.6059V11H62.3832ZM59.2777 10.1027C59.3117 10.1027 59.3541 10.1006 59.405 10.0964C59.4559 10.0921 59.5111 10.0752 59.5705 10.0455C59.6341 10.0158 59.6956 9.97121 59.755 9.91182C59.8187 9.84818 59.8738 9.76121 59.9205 9.65091C59.9714 9.53636 60.0117 9.39212 60.0414 9.21818C60.0753 9.04 60.0923 8.82364 60.0923 8.56909C60.0923 8.52242 60.0881 8.44818 60.0796 8.34636C60.0711 8.24455 60.052 8.13212 60.0223 8.00909C59.9926 7.88182 59.9481 7.75242 59.8887 7.62091C59.8335 7.48939 59.7571 7.36848 59.6596 7.25818C59.562 7.14788 59.4432 7.05879 59.3032 6.99091C59.1632 6.91879 58.9935 6.88273 58.7941 6.88273C58.6074 6.88273 58.4484 6.91667 58.3168 6.98455C58.1896 7.04818 58.0814 7.13727 57.9923 7.25182C57.9032 7.36636 57.829 7.50212 57.7696 7.65909C57.7102 7.81182 57.655 7.97939 57.6041 8.16182C57.5532 8.34 57.5023 8.52879 57.4514 8.72818C57.4005 8.92333 57.3411 9.11848 57.2732 9.31364C57.4938 9.42394 57.6974 9.52788 57.8841 9.62545C58.0708 9.72303 58.2447 9.80788 58.4059 9.88C58.5671 9.94788 58.7177 10.003 58.8577 10.0455C59.002 10.0836 59.142 10.1027 59.2777 10.1027ZM66.4871 9.35818C66.6441 9.2903 66.7883 9.20545 66.9198 9.10364C67.0556 9.00182 67.1723 8.88727 67.2698 8.76C67.3716 8.62848 67.4501 8.48636 67.5053 8.33364C67.5604 8.18091 67.588 8.01545 67.588 7.83727C67.588 7.62515 67.5435 7.44697 67.4544 7.30273C67.3653 7.15424 67.2592 7.03545 67.1362 6.94636C67.0132 6.85303 66.8838 6.78727 66.748 6.74909C66.6165 6.70667 66.5041 6.68545 66.4107 6.68545C66.2368 6.68545 66.0756 6.71303 65.9271 6.76818C65.7829 6.81909 65.6556 6.89121 65.5453 6.98455C65.4392 7.07788 65.3544 7.1903 65.2907 7.32182C65.2313 7.45333 65.2016 7.59545 65.2016 7.74818C65.2016 7.93061 65.225 8.09606 65.2716 8.24455C65.3226 8.38879 65.3989 8.52455 65.5007 8.65182C65.6068 8.77485 65.7404 8.89364 65.9016 9.00818C66.0629 9.12273 66.258 9.23939 66.4871 9.35818ZM68.1098 4.30545C68.5765 4.79333 69.0071 5.24939 69.4016 5.67364C69.5713 5.85606 69.741 6.04061 69.9107 6.22727C70.0804 6.4097 70.2374 6.58576 70.3816 6.75545C70.5301 6.92091 70.6595 7.07364 70.7698 7.21364C70.8844 7.34939 70.9692 7.4597 71.0244 7.54455C71.1389 7.73121 71.2323 7.91152 71.3044 8.08545C71.3807 8.25939 71.4338 8.43545 71.4635 8.61364C71.4804 8.7197 71.4889 8.82788 71.4889 8.93818C71.4889 9.0103 71.4826 9.11212 71.4698 9.24364C71.4571 9.37515 71.4189 9.54909 71.3553 9.76545C71.2874 10.0115 71.1792 10.2364 71.0307 10.44C70.8865 10.6394 70.7104 10.8112 70.5026 10.9555C70.2947 11.0997 70.0592 11.21 69.7962 11.2864C69.5332 11.367 69.2489 11.4073 68.9435 11.4073C68.655 11.4073 68.3559 11.3691 68.0462 11.2927C67.7365 11.2164 67.4162 11.0976 67.0853 10.9364C66.992 10.8982 66.905 10.86 66.8244 10.8218C66.7523 10.7879 66.678 10.7539 66.6016 10.72C66.5295 10.6861 66.4701 10.6564 66.4235 10.6309C66.0247 10.7539 65.558 10.8473 65.0235 10.9109C64.4889 10.9703 63.912 11 63.2926 11H62.3571V9.79727H63.2926C63.5683 9.79727 63.8526 9.79303 64.1453 9.78455C64.4423 9.77606 64.7053 9.75697 64.9344 9.72727C64.6289 9.46 64.4062 9.16727 64.2662 8.84909C64.1262 8.52667 64.0562 8.1597 64.0562 7.74818C64.0562 7.42576 64.1156 7.12879 64.2344 6.85727C64.3532 6.58152 64.5165 6.34394 64.7244 6.14455C64.9365 5.94515 65.1847 5.7903 65.4689 5.68C65.7574 5.56545 66.0713 5.50818 66.4107 5.50818C66.6653 5.50818 66.8986 5.54424 67.1107 5.61636C67.3229 5.68848 67.5159 5.78606 67.6898 5.90909C67.8638 6.02788 68.0144 6.16788 68.1416 6.32909C68.2732 6.48606 68.3835 6.65152 68.4726 6.82545C68.5616 6.99515 68.6274 7.16909 68.6698 7.34727C68.7165 7.52121 68.7398 7.68455 68.7398 7.83727C68.7398 8.27424 68.6571 8.66879 68.4916 9.02091C68.3304 9.36879 68.0907 9.67636 67.7726 9.94364C67.9507 10.0158 68.1395 10.0752 68.3389 10.1218C68.5426 10.1685 68.7441 10.1918 68.9435 10.1918C69.0707 10.1918 69.1959 10.1833 69.3189 10.1664C69.4462 10.1494 69.565 10.1155 69.6753 10.0645C69.7898 10.0136 69.8938 9.94576 69.9871 9.86091C70.0804 9.77182 70.161 9.65727 70.2289 9.51727C70.2841 9.40273 70.3116 9.27758 70.3116 9.14182C70.3116 9.07818 70.2968 8.97636 70.2671 8.83636C70.2416 8.69636 70.161 8.50758 70.0253 8.27C69.8895 8.03242 69.7177 7.78636 69.5098 7.53182C69.302 7.27303 69.0729 7.01 68.8226 6.74273C68.5723 6.47545 68.3113 6.20818 68.0398 5.94091C67.7683 5.67364 67.5032 5.40848 67.2444 5.14545L68.1098 4.30545Z" fill="white"/>
</svg>
