<svg width="200" height="47" viewBox="0 0 200 47" fill="none" xmlns="http://www.w3.org/2000/svg">
<path d="M3.79037 8.18L3.74673 8.23455C3.72128 8.27091 3.68673 8.32182 3.6431 8.38727C3.59946 8.44909 3.55037 8.52545 3.49582 8.61636C3.44128 8.70727 3.38673 8.81091 3.33219 8.92727C3.28128 9.02909 3.22855 9.14545 3.17401 9.27636C3.11946 9.40727 3.07037 9.55091 3.02673 9.70727C2.98673 9.86364 2.95219 10.0291 2.9231 10.2036C2.89764 10.3782 2.88491 10.5582 2.88491 10.7436C2.88491 10.9327 2.89764 11.1145 2.9231 11.2891C2.95219 11.4636 2.98673 11.6273 3.02673 11.78C3.07037 11.9327 3.11946 12.0764 3.17401 12.2109C3.22855 12.3418 3.28128 12.4582 3.33219 12.56C3.38673 12.6764 3.44128 12.78 3.49582 12.8709C3.55037 12.9582 3.59946 13.0327 3.6431 13.0945C3.69037 13.1709 3.73764 13.2382 3.78491 13.2964L3.23946 13.7491C3.22855 13.7345 3.16673 13.6509 3.05401 13.4982C2.94491 13.3455 2.8231 13.1364 2.68855 12.8709C2.55764 12.6055 2.43946 12.2927 2.33401 11.9327C2.22855 11.5727 2.17582 11.1764 2.17582 10.7436C2.17582 10.46 2.20128 10.1891 2.25219 9.93091C2.3031 9.67273 2.36673 9.43455 2.4431 9.21636C2.51946 8.99818 2.60128 8.79818 2.68855 8.61636C2.77946 8.43455 2.86491 8.28 2.94491 8.15273C3.02855 8.02545 3.09582 7.92545 3.14673 7.85273C3.20128 7.78 3.23219 7.74 3.23946 7.73273L3.79037 8.18ZM5.25764 8.74727L5.14855 8.90545C5.07219 9.00727 4.99037 9.14909 4.9031 9.33091C4.81582 9.50909 4.73582 9.72 4.6631 9.96364C4.59037 10.2036 4.55401 10.4636 4.55401 10.7436C4.55401 11.0273 4.59037 11.2909 4.6631 11.5345C4.73582 11.7745 4.81582 11.9836 4.9031 12.1618C4.99037 12.3364 5.07037 12.4745 5.1431 12.5764C5.21946 12.6745 5.25764 12.7273 5.25764 12.7345L4.71764 13.1873C4.70673 13.1727 4.65582 13.1036 4.56491 12.98C4.47401 12.8527 4.37401 12.6818 4.26491 12.4673C4.15946 12.2527 4.0631 11.9982 3.97582 11.7036C3.88855 11.4091 3.84491 11.0891 3.84491 10.7436C3.84491 10.3945 3.88855 10.0745 3.97582 9.78364C4.0631 9.48909 4.15946 9.23273 4.26491 9.01455C4.37401 8.79636 4.47401 8.62545 4.56491 8.50182C4.65582 8.37455 4.70673 8.30545 4.71764 8.29455L5.25764 8.74727ZM15.4536 9.10727C15.3299 9.10727 15.2081 9.12909 15.0881 9.17273C14.9717 9.21273 14.8663 9.27818 14.7717 9.36909C14.6808 9.45636 14.6063 9.56909 14.5481 9.70727C14.4899 9.84182 14.4608 10.0018 14.4608 10.1873C14.4608 10.3255 14.4772 10.4491 14.5099 10.5582C14.5426 10.6673 14.6045 10.76 14.6954 10.8364C14.7899 10.9127 14.919 10.9709 15.0826 11.0109C15.2463 11.0509 15.459 11.0709 15.7208 11.0709H16.5499C16.5317 10.8382 16.5081 10.6055 16.479 10.3727C16.4536 10.14 16.4045 9.93091 16.3317 9.74545C16.2626 9.55636 16.159 9.40364 16.0208 9.28727C15.8826 9.16727 15.6936 9.10727 15.4536 9.10727ZM14.6136 14.0164H9.25719C9.00264 14.0127 8.76082 13.9691 8.53173 13.8855C8.30264 13.7982 8.10082 13.6727 7.92628 13.5091C7.85355 13.4436 7.78082 13.3636 7.7081 13.2691C7.63537 13.1745 7.56991 13.0636 7.51173 12.9364C7.45355 12.8055 7.40446 12.66 7.36446 12.5C7.3281 12.3364 7.30991 12.1527 7.30991 11.9491C7.30991 11.7673 7.3281 11.5673 7.36446 11.3491C7.40082 11.1309 7.44264 10.9255 7.48991 10.7327C7.53719 10.5364 7.58082 10.3673 7.62082 10.2255C7.66082 10.08 7.68628 9.99091 7.69719 9.95818L8.67901 10.2691C8.65719 10.3455 8.62628 10.4545 8.58628 10.5964C8.54628 10.7345 8.5081 10.8836 8.47173 11.0436C8.43537 11.2036 8.40264 11.3655 8.37355 11.5291C8.3481 11.6891 8.33537 11.8291 8.33537 11.9491C8.33537 12.1891 8.37355 12.3782 8.44991 12.5164C8.52628 12.6545 8.61537 12.7582 8.71719 12.8273C8.82264 12.8964 8.92628 12.94 9.0281 12.9582C9.13355 12.9764 9.21355 12.9855 9.2681 12.9855H14.6136C14.8863 12.9855 15.1208 12.9727 15.3172 12.9473C15.5172 12.9182 15.6881 12.8818 15.8299 12.8382C15.9717 12.7945 16.0863 12.7436 16.1736 12.6855C16.2645 12.6236 16.3354 12.56 16.3863 12.4945C16.4408 12.4291 16.479 12.3636 16.5008 12.2982C16.5226 12.2291 16.5372 12.1636 16.5445 12.1018C16.4281 12.1018 16.299 12.1018 16.1572 12.1018C16.0154 12.0982 15.8699 12.0964 15.7208 12.0964C15.4481 12.0964 15.1754 12.0709 14.9026 12.02C14.6336 11.9691 14.3899 11.8727 14.1717 11.7309C13.9536 11.5891 13.7754 11.3945 13.6372 11.1473C13.5026 10.9 13.4354 10.58 13.4354 10.1873C13.4354 9.89273 13.4845 9.61818 13.5826 9.36364C13.6845 9.10909 13.8245 8.88727 14.0026 8.69818C14.1808 8.50545 14.3936 8.35455 14.6408 8.24545C14.8881 8.13636 15.159 8.08182 15.4536 8.08182C15.8572 8.08182 16.1954 8.17091 16.4681 8.34909C16.7408 8.52364 16.959 8.75636 17.1226 9.04727C17.2899 9.33455 17.4081 9.66364 17.4772 10.0345C17.5463 10.4018 17.5808 10.7782 17.5808 11.1636V11.9109C17.5808 12.3255 17.499 12.6691 17.3354 12.9418C17.1717 13.2109 16.9517 13.4255 16.6754 13.5855C16.4026 13.7455 16.0863 13.8582 15.7263 13.9236C15.3699 13.9855 14.999 14.0164 14.6136 14.0164ZM14.4281 5.98182L15.3554 5.04364L16.3045 5.99273L15.3663 6.93091L14.4281 5.98182ZM17.1875 17.0273V15.9964H17.9402C18.3148 15.9964 18.6384 15.9509 18.9111 15.86C19.1875 15.7727 19.4148 15.6364 19.593 15.4509C19.7748 15.2655 19.9075 15.0291 19.9911 14.7418C20.0784 14.4545 20.122 14.1127 20.122 13.7164V10.3127H21.153V13.7164C21.153 14.2364 21.0839 14.7 20.9457 15.1073C20.8111 15.5182 20.6093 15.8655 20.3402 16.1491C20.0711 16.4327 19.7348 16.6491 19.3311 16.7982C18.9311 16.9509 18.4675 17.0273 17.9402 17.0273H17.1875ZM22.2383 17.0273V15.9964H22.991C23.3656 15.9964 23.6892 15.9509 23.9619 15.86C24.2383 15.7727 24.4656 15.6364 24.6437 15.4509C24.8256 15.2655 24.9583 15.0291 25.0419 14.7418C25.1292 14.4545 25.1728 14.1127 25.1728 13.7164V10.3127H26.2037V13.7164C26.2037 14.2364 26.1346 14.7 25.9965 15.1073C25.8619 15.5182 25.6601 15.8655 25.391 16.1491C25.1219 16.4327 24.7856 16.6491 24.3819 16.7982C23.9819 16.9509 23.5183 17.0273 22.991 17.0273H22.2383ZM26.2474 6.57636L25.4728 7.33455L24.7092 6.57636L25.4946 5.79636L26.2474 6.57636ZM26.5146 9.04182L25.6528 8.16909L26.5037 7.28545L27.3874 8.16909L26.5146 9.04182ZM24.4256 9.03091L23.5637 8.15818L24.4146 7.27455L25.2983 8.15818L24.4256 9.03091ZM43.6785 14C43.3185 14 43.0021 13.9473 42.7294 13.8418C42.4603 13.7364 42.2348 13.5836 42.053 13.3836C41.9548 13.5 41.8439 13.5982 41.7203 13.6782C41.6003 13.7545 41.4748 13.8182 41.3439 13.8691C41.2167 13.9164 41.0858 13.9509 40.9512 13.9727C40.8203 13.9909 40.693 14 40.5694 14C40.1148 14 39.7221 13.8982 39.3912 13.6945V14.1527C39.3912 15.1055 39.1367 15.82 38.6276 16.2964C38.1185 16.7727 37.3567 17.0109 36.3421 17.0109H35.0603C34.4967 17.0109 33.9858 16.8891 33.5276 16.6455C33.0694 16.4018 32.6985 16.0545 32.4148 15.6036C32.2185 15.2945 32.0785 14.9509 31.9948 14.5727C31.9258 14.2782 31.8912 13.9691 31.8912 13.6455C31.8912 13.5509 31.8985 13.3709 31.913 13.1055C31.9312 12.84 32.0076 12.4691 32.1421 11.9927C32.2767 11.5164 32.4639 11.0255 32.7039 10.52L33.6312 10.9727C33.4276 11.3945 33.2658 11.8 33.1458 12.1891C33.0294 12.5782 32.9567 12.9455 32.9276 13.2909C32.9167 13.4073 32.9112 13.52 32.9112 13.6291C32.9112 13.8509 32.9348 14.0855 32.9821 14.3327C33.033 14.58 33.133 14.82 33.2821 15.0527C33.4712 15.3473 33.7185 15.5745 34.0239 15.7345C34.3294 15.8982 34.6748 15.98 35.0603 15.98H36.3421C36.7603 15.98 37.1003 15.9364 37.3621 15.8491C37.6276 15.7618 37.833 15.6382 37.9785 15.4782C38.1276 15.3182 38.2276 15.1255 38.2785 14.9C38.333 14.6782 38.3603 14.4291 38.3603 14.1527V10.3127H39.3912V11.3764C39.3912 11.7255 39.4239 12.0055 39.4894 12.2164C39.5585 12.4236 39.6476 12.5836 39.7567 12.6964C39.8694 12.8091 39.9948 12.8836 40.133 12.92C40.2748 12.9564 40.4203 12.9745 40.5694 12.9745C40.6603 12.9745 40.7639 12.9582 40.8803 12.9255C40.9967 12.8927 41.1058 12.8382 41.2076 12.7618C41.3094 12.6818 41.3948 12.5764 41.4639 12.4455C41.5367 12.3145 41.573 12.1509 41.573 11.9545V10.3127H42.5985V12.0091C42.6058 12.34 42.693 12.5836 42.8603 12.74C43.0312 12.8964 43.3021 12.9745 43.673 12.9745C43.7348 12.9709 43.8148 12.9582 43.913 12.9364C44.0148 12.9109 44.1112 12.8636 44.2021 12.7945C44.2967 12.7218 44.3767 12.62 44.4421 12.4891C44.5112 12.3545 44.5458 12.1764 44.5458 11.9545C44.5458 11.8745 44.5385 11.7745 44.5239 11.6545C44.513 11.5345 44.4985 11.4073 44.4803 11.2727C44.4621 11.1345 44.4403 10.9945 44.4148 10.8527C44.3894 10.7073 44.3639 10.5709 44.3385 10.4436C44.3167 10.3164 44.2948 10.2036 44.273 10.1055C44.2512 10.0036 44.233 9.92727 44.2185 9.87636L45.2003 9.57636C45.2076 9.59455 45.2203 9.65091 45.2385 9.74545C45.2603 9.83636 45.2858 9.95091 45.3148 10.0891C45.3439 10.2236 45.373 10.3745 45.4021 10.5418C45.4348 10.7091 45.4639 10.8782 45.4894 11.0491C45.5148 11.2164 45.5348 11.38 45.5494 11.54C45.5676 11.6964 45.5767 11.8345 45.5767 11.9545C45.5767 12.3 45.5203 12.6 45.4076 12.8545C45.2985 13.1055 45.153 13.3164 44.9712 13.4873C44.793 13.6545 44.5894 13.7818 44.3603 13.8691C44.1348 13.9527 43.9076 13.9964 43.6785 14ZM42.6639 6.40727L41.8894 7.16545L41.1258 6.40727L41.9112 5.62727L42.6639 6.40727ZM42.9312 8.87273L42.0694 8L42.9203 7.11636L43.8039 8L42.9312 8.87273ZM40.8421 8.86182L39.9803 7.98909L40.8312 7.10545L41.7148 7.98909L40.8421 8.86182ZM45.1016 17.0273V15.9964H45.8543C46.2288 15.9964 46.5525 15.9509 46.8252 15.86C47.1016 15.7727 47.3288 15.6364 47.507 15.4509C47.6888 15.2655 47.8216 15.0291 47.9052 14.7418C47.9925 14.4545 48.0361 14.1127 48.0361 13.7164V10.3127H49.067V13.7164C49.067 14.2364 48.9979 14.7 48.8597 15.1073C48.7252 15.5182 48.5234 15.8655 48.2543 16.1491C47.9852 16.4327 47.6488 16.6491 47.2452 16.7982C46.8452 16.9509 46.3816 17.0273 45.8543 17.0273H45.1016ZM47.5725 7.95091L48.4997 7.01273L49.4488 7.96182L48.5107 8.9L47.5725 7.95091ZM51.7234 13.9945H50.6925V6.21636H51.7234V13.9945ZM55.7743 14.0818C55.5889 14.0818 55.4016 14.0727 55.2125 14.0545C55.0234 14.04 54.838 14.0164 54.6561 13.9836C54.478 13.9473 54.3052 13.9018 54.138 13.8473C53.9743 13.7891 53.8252 13.72 53.6907 13.64L53.238 13.3836L53.7507 12.4836L54.2034 12.74C54.3307 12.8127 54.487 12.8727 54.6725 12.92C54.858 12.9636 55.0543 12.9945 55.2616 13.0127C55.4398 13.0309 55.618 13.04 55.7961 13.04C55.8289 13.04 55.9052 13.04 56.0252 13.04C56.1452 13.0364 56.2943 13.0218 56.4725 12.9964C56.6834 12.9636 56.8561 12.9182 56.9907 12.86C57.1289 12.7982 57.2161 12.7291 57.2525 12.6527C57.267 12.6164 57.2743 12.5764 57.2743 12.5327C57.2743 12.4709 57.2561 12.3855 57.2198 12.2764C57.1834 12.1636 57.107 12.02 56.9907 11.8455L55.0161 8.86182L55.8889 8.29455C55.9361 8.36727 55.9852 8.44364 56.0361 8.52364C56.087 8.6 56.147 8.69091 56.2161 8.79636C56.2852 8.89818 56.3652 9.02 56.4561 9.16182C56.547 9.3 56.658 9.46727 56.7889 9.66364C56.9198 9.86 57.0725 10.0891 57.247 10.3509C57.4216 10.6127 57.6252 10.9182 57.858 11.2673C57.9489 11.4055 58.0307 11.5509 58.1034 11.7036C58.1761 11.8527 58.2307 12.0036 58.267 12.1564C58.2998 12.2945 58.3161 12.4327 58.3161 12.5709C58.3161 12.5855 58.3143 12.6364 58.3107 12.7236C58.307 12.8073 58.2707 12.9236 58.2016 13.0727C57.9725 13.5855 57.4452 13.9018 56.6198 14.0218C56.4925 14.04 56.358 14.0545 56.2161 14.0655C56.0743 14.0764 55.927 14.0818 55.7743 14.0818ZM62.8412 14H62.6067C62.2576 14 61.9358 13.9309 61.6412 13.7927C61.6412 14.3018 61.5703 14.7564 61.4285 15.1564C61.2867 15.5564 61.0794 15.8945 60.8067 16.1709C60.534 16.4509 60.1976 16.6636 59.7976 16.8091C59.4012 16.9545 58.9449 17.0273 58.4285 17.0273H57.6758V15.9964H58.4285C58.8031 15.9964 59.1267 15.9509 59.3994 15.86C59.6758 15.7727 59.9031 15.6364 60.0812 15.4509C60.2631 15.2655 60.3958 15.0291 60.4794 14.7418C60.5667 14.4545 60.6103 14.1127 60.6103 13.7164V10.3127H61.6412V12.1182C61.6412 12.3218 61.6831 12.4818 61.7667 12.5982C61.854 12.7109 61.954 12.7945 62.0667 12.8491C62.1794 12.9036 62.2867 12.9382 62.3885 12.9527C62.494 12.9636 62.5667 12.9691 62.6067 12.9691H62.8412V14ZM66.4084 9.56C66.4157 9.58182 66.4302 9.64 66.452 9.73455C66.4738 9.82909 66.4975 9.94727 66.5229 10.0891C66.552 10.2273 66.5829 10.3818 66.6157 10.5527C66.6484 10.72 66.6775 10.8909 66.7029 11.0655C66.7284 11.2364 66.7502 11.4018 66.7684 11.5618C66.7866 11.7218 66.7957 11.8618 66.7957 11.9818C66.7957 12.3309 66.7375 12.6327 66.6211 12.8873C66.5084 13.1382 66.3593 13.3473 66.1738 13.5145C65.992 13.6782 65.7866 13.8 65.5575 13.88C65.3284 13.96 65.0975 14 64.8647 14H62.6066V12.9691H64.8647C64.9193 12.9691 64.9957 12.9618 65.0938 12.9473C65.1957 12.9291 65.2957 12.8873 65.3938 12.8218C65.4957 12.7564 65.5829 12.6582 65.6557 12.5273C65.732 12.3964 65.7702 12.2145 65.7702 11.9818C65.7702 11.9018 65.7629 11.8018 65.7484 11.6818C65.7375 11.5582 65.7211 11.4273 65.6993 11.2891C65.6811 11.1473 65.6593 11.0036 65.6338 10.8582C65.6084 10.7091 65.5829 10.5691 65.5575 10.4382C65.532 10.3073 65.5084 10.1909 65.4866 10.0891C65.4647 9.98727 65.4466 9.91091 65.432 9.86L66.4084 9.56ZM65.2193 18.3036L64.4338 17.5236L65.1975 16.7655L65.972 17.5236L65.2193 18.3036ZM67.112 15.9309L66.2284 16.8145L65.3775 15.9309L66.2393 15.0582L67.112 15.9309ZM65.0229 15.9418L64.1393 16.8255L63.2884 15.9418L64.1502 15.0691L65.0229 15.9418ZM71.2812 17.0273V15.9964H72.034C72.4085 15.9964 72.7322 15.9509 73.0049 15.86C73.2812 15.7727 73.5085 15.6364 73.6867 15.4509C73.8685 15.2655 74.0012 15.0291 74.0849 14.7418C74.1722 14.4545 74.2158 14.1127 74.2158 13.7164V10.3127H75.2467V13.7164C75.2467 14.2364 75.1776 14.7 75.0394 15.1073C74.9049 15.5182 74.7031 15.8655 74.434 16.1491C74.1649 16.4327 73.8285 16.6491 73.4249 16.7982C73.0249 16.9509 72.5612 17.0273 72.034 17.0273H71.2812ZM79.2503 14C78.8685 13.9964 78.5522 13.9709 78.3013 13.9236C78.054 13.8727 77.8431 13.8018 77.6685 13.7109C77.4976 13.6164 77.3594 13.5 77.254 13.3618C77.1522 13.22 77.0722 13.0564 77.014 12.8709C76.9558 12.6818 76.9176 12.4709 76.8994 12.2382C76.8813 12.0055 76.8722 11.7473 76.8722 11.4636V6.21636H77.9031V11.4636C77.9031 11.78 77.9122 12.0364 77.9303 12.2327C77.9522 12.4291 78.0049 12.5818 78.0885 12.6909C78.1758 12.7964 78.3049 12.8691 78.4758 12.9091C78.6503 12.9455 78.9085 12.9655 79.2503 12.9691V14ZM86.0063 14H85.9245C85.6009 14 85.3118 13.9691 85.0573 13.9073C84.8063 13.8455 84.5773 13.7582 84.37 13.6455C84.1627 13.5291 83.9718 13.3909 83.7973 13.2309C83.6227 13.0673 83.4518 12.8855 83.2845 12.6855C83.2773 12.7036 83.27 12.72 83.2627 12.7345C83.2554 12.7491 83.2482 12.7655 83.2409 12.7836C83.1391 12.9836 82.9954 13.1636 82.81 13.3236C82.6282 13.4836 82.4118 13.6164 82.1609 13.7218C81.9463 13.8164 81.7082 13.8873 81.4463 13.9345C81.1845 13.9782 80.9118 14 80.6282 14H79.0245V12.9691H80.6282C80.8391 12.9691 81.0354 12.9545 81.2173 12.9255C81.4027 12.8927 81.5682 12.8491 81.7136 12.7945C81.8627 12.7364 81.9882 12.6673 82.09 12.5873C82.1954 12.5073 82.2736 12.4182 82.3245 12.32C82.3718 12.2218 82.3954 12.1109 82.3954 11.9873C82.3954 11.8891 82.37 11.7491 82.3191 11.5673C82.2682 11.3818 82.1282 11.1345 81.8991 10.8255C81.5754 10.3709 81.3009 9.98545 81.0754 9.66909C80.85 9.35273 80.6663 9.09455 80.5245 8.89455C80.3573 8.66182 80.2209 8.47091 80.1154 8.32182L80.3173 7.55818L85.3245 5.24545L85.75 6.18909L81.2827 8.23455L83.4482 11.24C83.67 11.5382 83.8682 11.7964 84.0427 12.0145C84.2173 12.2291 84.3936 12.4073 84.5718 12.5491C84.7536 12.6909 84.95 12.7964 85.1609 12.8655C85.3754 12.9345 85.63 12.9691 85.9245 12.9691H86.0063V14ZM89.3254 12.5927C89.46 12.5345 89.5836 12.4618 89.6963 12.3745C89.8127 12.2873 89.9127 12.1891 89.9963 12.08C90.0836 11.9673 90.1509 11.8455 90.1982 11.7145C90.2454 11.5836 90.2691 11.4418 90.2691 11.2891C90.2691 11.1073 90.2309 10.9545 90.1545 10.8309C90.0782 10.7036 89.9873 10.6018 89.8818 10.5255C89.7763 10.4455 89.6654 10.3891 89.5491 10.3564C89.4363 10.32 89.34 10.3018 89.26 10.3018C89.1109 10.3018 88.9727 10.3255 88.8454 10.3727C88.7218 10.4164 88.6127 10.4782 88.5182 10.5582C88.4273 10.6382 88.3545 10.7345 88.3 10.8473C88.2491 10.96 88.2236 11.0818 88.2236 11.2127C88.2236 11.3691 88.2436 11.5109 88.2836 11.6382C88.3273 11.7618 88.3927 11.8782 88.48 11.9873C88.5709 12.0927 88.6854 12.1945 88.8236 12.2927C88.9618 12.3909 89.1291 12.4909 89.3254 12.5927ZM90.7163 8.26182C91.1163 8.68 91.4854 9.07091 91.8236 9.43455C91.9691 9.59091 92.1145 9.74909 92.26 9.90909C92.4054 10.0655 92.54 10.2164 92.6636 10.3618C92.7909 10.5036 92.9018 10.6345 92.9963 10.7545C93.0945 10.8709 93.1673 10.9655 93.2145 11.0382C93.3127 11.1982 93.3927 11.3527 93.4545 11.5018C93.52 11.6509 93.5654 11.8018 93.5909 11.9545C93.6054 12.0455 93.6127 12.1382 93.6127 12.2327C93.6127 12.2945 93.6073 12.3818 93.5963 12.4945C93.5854 12.6073 93.5527 12.7564 93.4982 12.9418C93.44 13.1527 93.3473 13.3455 93.22 13.52C93.0963 13.6909 92.9454 13.8382 92.7673 13.9618C92.5891 14.0855 92.3873 14.18 92.1618 14.2455C91.9363 14.3145 91.6927 14.3491 91.4309 14.3491C91.1836 14.3491 90.9273 14.3164 90.6618 14.2509C90.3963 14.1855 90.1218 14.0836 89.8382 13.9455C89.7582 13.9127 89.6836 13.88 89.6145 13.8473C89.5527 13.8182 89.4891 13.7891 89.4236 13.76C89.3618 13.7309 89.3109 13.7055 89.2709 13.6836C88.9291 13.7891 88.5291 13.8691 88.0709 13.9236C87.6127 13.9745 87.1182 14 86.5873 14H85.7854V12.9691H86.5873C86.8236 12.9691 87.0673 12.9655 87.3182 12.9582C87.5727 12.9509 87.7982 12.9345 87.9945 12.9091C87.7327 12.68 87.5418 12.4291 87.4218 12.1564C87.3018 11.88 87.2418 11.5655 87.2418 11.2127C87.2418 10.9364 87.2927 10.6818 87.3945 10.4491C87.4963 10.2127 87.6363 10.0091 87.8145 9.83818C87.9963 9.66727 88.2091 9.53455 88.4527 9.44C88.7 9.34182 88.9691 9.29273 89.26 9.29273C89.4782 9.29273 89.6782 9.32364 89.86 9.38545C90.0418 9.44727 90.2073 9.53091 90.3563 9.63636C90.5054 9.73818 90.6345 9.85818 90.7436 9.99636C90.8563 10.1309 90.9509 10.2727 91.0273 10.4218C91.1036 10.5673 91.16 10.7164 91.1963 10.8691C91.2363 11.0182 91.2563 11.1582 91.2563 11.2891C91.2563 11.6636 91.1854 12.0018 91.0436 12.3036C90.9054 12.6018 90.7 12.8655 90.4273 13.0945C90.58 13.1564 90.7418 13.2073 90.9127 13.2473C91.0873 13.2873 91.26 13.3073 91.4309 13.3073C91.54 13.3073 91.6473 13.3 91.7527 13.2855C91.8618 13.2709 91.9636 13.2418 92.0582 13.1982C92.1563 13.1545 92.2454 13.0964 92.3254 13.0236C92.4054 12.9473 92.4745 12.8491 92.5327 12.7291C92.58 12.6309 92.6036 12.5236 92.6036 12.4073C92.6036 12.3527 92.5909 12.2655 92.5654 12.1455C92.5436 12.0255 92.4745 11.8636 92.3582 11.66C92.2418 11.4564 92.0945 11.2455 91.9163 11.0273C91.7382 10.8055 91.5418 10.58 91.3273 10.3509C91.1127 10.1218 90.8891 9.89273 90.6563 9.66364C90.4236 9.43455 90.1963 9.20727 89.9745 8.98182L90.7163 8.26182ZM96.1726 13.9945H95.1417V6.21636H96.1726V13.9945ZM95.9023 17.0273V15.9964H96.6551C97.0296 15.9964 97.3533 15.9509 97.626 15.86C97.9023 15.7727 98.1296 15.6364 98.3078 15.4509C98.4896 15.2655 98.6223 15.0291 98.706 14.7418C98.7933 14.4545 98.8369 14.1127 98.8369 13.7164V10.3127H99.8678V13.7164C99.8678 14.2364 99.7987 14.7 99.6605 15.1073C99.526 15.5182 99.3242 15.8655 99.0551 16.1491C98.786 16.4327 98.4496 16.6491 98.046 16.7982C97.646 16.9509 97.1823 17.0273 96.6551 17.0273H95.9023ZM103.326 8.18L103.877 7.73273C103.884 7.74 103.913 7.78 103.964 7.85273C104.019 7.92545 104.086 8.02545 104.166 8.15273C104.25 8.28 104.335 8.43455 104.422 8.61636C104.513 8.79818 104.597 8.99818 104.673 9.21636C104.75 9.43455 104.813 9.67273 104.864 9.93091C104.915 10.1891 104.941 10.46 104.941 10.7436C104.941 11.1764 104.888 11.5727 104.782 11.9327C104.677 12.2927 104.557 12.6055 104.422 12.8709C104.291 13.1364 104.17 13.3455 104.057 13.4982C103.948 13.6509 103.888 13.7345 103.877 13.7491L103.331 13.2964C103.379 13.2382 103.426 13.1709 103.473 13.0945C103.517 13.0327 103.566 12.9582 103.621 12.8709C103.675 12.78 103.73 12.6764 103.784 12.56C103.835 12.4582 103.888 12.3418 103.942 12.2109C103.997 12.0764 104.044 11.9327 104.084 11.78C104.128 11.6273 104.162 11.4636 104.188 11.2891C104.217 11.1145 104.231 10.9327 104.231 10.7436C104.231 10.5582 104.217 10.3782 104.188 10.2036C104.162 10.0291 104.128 9.86364 104.084 9.70727C104.044 9.55091 103.997 9.40727 103.942 9.27636C103.888 9.14545 103.835 9.02909 103.784 8.92727C103.73 8.81091 103.675 8.70727 103.621 8.61636C103.566 8.52545 103.517 8.44909 103.473 8.38727C103.43 8.32182 103.395 8.27091 103.37 8.23455L103.326 8.18ZM101.859 8.74727L102.399 8.29455C102.41 8.30545 102.461 8.37455 102.551 8.50182C102.642 8.62545 102.741 8.79636 102.846 9.01455C102.951 9.23273 103.048 9.48909 103.135 9.78364C103.222 10.0745 103.266 10.3945 103.266 10.7436C103.266 11.0891 103.222 11.4091 103.135 11.7036C103.048 11.9982 102.951 12.2527 102.846 12.4673C102.741 12.6818 102.642 12.8527 102.551 12.98C102.461 13.1036 102.41 13.1727 102.399 13.1873L101.859 12.7345C101.859 12.7273 101.895 12.6745 101.968 12.5764C102.044 12.4745 102.126 12.3364 102.213 12.1618C102.301 11.9836 102.379 11.7745 102.448 11.5345C102.521 11.2909 102.557 11.0273 102.557 10.7436C102.557 10.4636 102.521 10.2036 102.448 9.96364C102.379 9.72 102.301 9.50909 102.213 9.33091C102.126 9.14909 102.044 9.00727 101.968 8.90545L101.859 8.74727ZM113.544 17.0218C112.981 17.0218 112.47 16.8982 112.011 16.6509C111.553 16.4073 111.182 16.0582 110.899 15.6036C110.702 15.2945 110.562 14.9509 110.479 14.5727C110.41 14.2818 110.375 13.9764 110.375 13.6564C110.375 13.5618 110.382 13.3836 110.397 13.1218C110.415 12.8564 110.491 12.4891 110.626 12.02C110.761 11.5473 110.948 11.06 111.188 10.5582L112.115 11C111.911 11.4218 111.75 11.8273 111.63 12.2164C111.513 12.6018 111.441 12.9673 111.411 13.3127C111.401 13.4291 111.395 13.5418 111.395 13.6509C111.395 13.8691 111.419 14.1 111.466 14.3436C111.517 14.5909 111.617 14.8309 111.766 15.0636C111.955 15.3582 112.202 15.5855 112.508 15.7455C112.813 15.9091 113.159 15.9909 113.544 15.9909H114.826C115.244 15.9909 115.584 15.9455 115.846 15.8545C116.111 15.7673 116.317 15.6436 116.462 15.4836C116.611 15.3236 116.711 15.1291 116.762 14.9C116.817 14.6745 116.844 14.4236 116.844 14.1473V10.3127H117.875V14.1473C117.875 15.1073 117.621 15.8255 117.111 16.3018C116.602 16.7818 115.841 17.0218 114.826 17.0218H113.544ZM113.588 9.88182L114.515 8.94364L115.464 9.89273L114.526 10.8309L113.588 9.88182ZM122.024 14C121.642 13.9964 121.326 13.9709 121.075 13.9236C120.827 13.8727 120.617 13.8018 120.442 13.7109C120.271 13.6164 120.133 13.5 120.027 13.3618C119.926 13.22 119.846 13.0564 119.787 12.8709C119.729 12.6818 119.691 12.4709 119.673 12.2382C119.655 12.0055 119.646 11.7473 119.646 11.4636V6.21636H120.677V11.4636C120.677 11.78 120.686 12.0364 120.704 12.2327C120.726 12.4291 120.778 12.5818 120.862 12.6909C120.949 12.7964 121.078 12.8691 121.249 12.9091C121.424 12.9455 121.682 12.9655 122.024 12.9691V14ZM127.765 12.9691V14H126.811C126.48 14 126.187 13.9527 125.933 13.8582C125.682 13.7636 125.48 13.6218 125.327 13.4327C124.949 13.8109 124.389 14 123.647 14H121.793V12.9691H123.647C123.909 12.9691 124.116 12.9436 124.269 12.8927C124.422 12.8382 124.536 12.7727 124.613 12.6964C124.693 12.6164 124.743 12.5291 124.765 12.4345C124.791 12.3364 124.803 12.2436 124.803 12.1564V10.3127H125.829V12.1182C125.829 12.2527 125.849 12.3673 125.889 12.4618C125.933 12.5564 125.985 12.6364 126.047 12.7018C126.109 12.7636 126.178 12.8127 126.254 12.8491C126.334 12.8855 126.411 12.9127 126.483 12.9309C126.556 12.9491 126.622 12.96 126.68 12.9636C126.738 12.9673 126.782 12.9691 126.811 12.9691H127.765ZM126.26 16.1109L125.376 16.9945L124.525 16.1109L125.387 15.2382L126.26 16.1109ZM124.171 16.1218L123.287 17.0055L122.436 16.1218L123.298 15.2491L124.171 16.1218ZM132.164 12.9691V14H131.739C131.408 14 131.115 13.9527 130.86 13.8582C130.609 13.7636 130.408 13.6218 130.255 13.4327C129.877 13.8109 129.317 14 128.575 14H127.528V12.9691H128.575C128.837 12.9691 129.044 12.9436 129.197 12.8927C129.349 12.8382 129.464 12.7727 129.54 12.6964C129.62 12.6164 129.671 12.5291 129.693 12.4345C129.719 12.3364 129.731 12.2436 129.731 12.1564V10.3127H130.757V12.1182C130.757 12.2527 130.777 12.3673 130.817 12.4618C130.857 12.5564 130.908 12.6364 130.969 12.7018C131.035 12.7636 131.106 12.8127 131.182 12.8491C131.262 12.8855 131.339 12.9127 131.411 12.9309C131.484 12.9491 131.549 12.96 131.608 12.9636C131.666 12.9673 131.709 12.9691 131.739 12.9691H132.164ZM128.919 7.79818L129.846 6.86L130.795 7.80909L129.857 8.74727L128.919 7.79818ZM134.88 9.56C134.887 9.58182 134.902 9.64 134.924 9.73455C134.946 9.82909 134.969 9.94727 134.995 10.0891C135.024 10.2273 135.055 10.3818 135.087 10.5527C135.12 10.72 135.149 10.8909 135.175 11.0655C135.2 11.2364 135.222 11.4018 135.24 11.5618C135.258 11.7218 135.267 11.8618 135.267 11.9818C135.267 12.3309 135.209 12.6327 135.093 12.8873C134.98 13.1382 134.831 13.3473 134.646 13.5145C134.464 13.6782 134.258 13.8 134.029 13.88C133.8 13.96 133.569 14 133.337 14H131.946V12.9691H133.337C133.391 12.9691 133.467 12.9618 133.566 12.9473C133.667 12.9291 133.767 12.8873 133.866 12.8218C133.967 12.7564 134.055 12.6582 134.127 12.5273C134.204 12.3964 134.242 12.2145 134.242 11.9818C134.242 11.9018 134.235 11.8018 134.22 11.6818C134.209 11.5582 134.193 11.4273 134.171 11.2891C134.153 11.1473 134.131 11.0036 134.106 10.8582C134.08 10.7091 134.055 10.5691 134.029 10.4382C134.004 10.3073 133.98 10.1909 133.958 10.0891C133.937 9.98727 133.918 9.91091 133.904 9.86L134.88 9.56ZM132.993 15.98L133.92 15.0418L134.869 15.9909L133.931 16.9291L132.993 15.98ZM151.293 14C150.933 14 150.615 13.9473 150.338 13.8418C150.066 13.7364 149.838 13.5836 149.657 13.3836L149.526 13.5091C149.344 13.6618 149.135 13.7818 148.898 13.8691C148.662 13.9564 148.42 14 148.173 14C147.817 14 147.504 13.9473 147.235 13.8418C146.966 13.7364 146.74 13.5836 146.558 13.3836L146.427 13.5091C146.246 13.6618 146.037 13.7818 145.8 13.8691C145.564 13.9564 145.322 14 145.075 14C144.62 14 144.228 13.8982 143.897 13.6945V14.1527C143.897 15.1055 143.642 15.82 143.133 16.2964C142.624 16.7727 141.862 17.0109 140.848 17.0109H139.566C139.002 17.0109 138.491 16.8891 138.033 16.6455C137.575 16.4018 137.204 16.0545 136.92 15.6036C136.724 15.2945 136.584 14.9509 136.5 14.5727C136.435 14.2782 136.402 13.9691 136.402 13.6455C136.402 13.5509 136.409 13.3709 136.424 13.1055C136.438 12.84 136.513 12.4691 136.647 11.9927C136.782 11.5164 136.969 11.0255 137.209 10.52L138.137 10.9727C137.933 11.3945 137.771 11.8 137.651 12.1891C137.535 12.5782 137.462 12.9455 137.433 13.2909C137.426 13.4073 137.422 13.52 137.422 13.6291C137.422 13.8509 137.446 14.0855 137.493 14.3327C137.54 14.58 137.638 14.82 137.787 15.0527C137.977 15.3473 138.224 15.5745 138.529 15.7345C138.835 15.8982 139.18 15.98 139.566 15.98H140.848C141.266 15.98 141.606 15.9364 141.867 15.8491C142.133 15.7618 142.338 15.6382 142.484 15.4782C142.633 15.3182 142.733 15.1255 142.784 14.9C142.838 14.6782 142.866 14.4291 142.866 14.1527V10.3182H143.897V11.3764C143.897 11.7255 143.929 12.0055 143.995 12.2164C144.064 12.4236 144.153 12.5836 144.262 12.6964C144.375 12.8091 144.5 12.8836 144.638 12.92C144.78 12.9564 144.926 12.9745 145.075 12.9745C145.166 12.9745 145.269 12.9582 145.386 12.9255C145.502 12.8927 145.611 12.8382 145.713 12.7618C145.815 12.6818 145.9 12.5764 145.969 12.4455C146.042 12.3145 146.078 12.1509 146.078 11.9545V10.3182H147.104V12.0091C147.111 12.34 147.198 12.5836 147.366 12.74C147.537 12.8964 147.809 12.9745 148.184 12.9745C148.275 12.9745 148.377 12.9582 148.489 12.9255C148.606 12.8927 148.715 12.8382 148.817 12.7618C148.918 12.6818 149.004 12.5764 149.073 12.4455C149.142 12.3145 149.177 12.1509 149.177 11.9545V10.3182H150.202V12.0091C150.209 12.34 150.298 12.5836 150.469 12.74C150.644 12.8927 150.918 12.9691 151.293 12.9691H151.724V14H151.293ZM147.344 6.55455L146.569 7.31273L145.806 6.55455L146.591 5.77455L147.344 6.55455ZM147.611 9.02L146.749 8.14727L147.6 7.26364L148.484 8.14727L147.611 9.02ZM145.522 9.00909L144.66 8.13636L145.511 7.25273L146.395 8.13636L145.522 9.00909ZM154.45 9.56C154.458 9.58182 154.472 9.64 154.494 9.73455C154.516 9.82909 154.54 9.94727 154.565 10.0891C154.594 10.2273 154.625 10.3818 154.658 10.5527C154.69 10.72 154.72 10.8909 154.745 11.0655C154.77 11.2364 154.792 11.4018 154.81 11.5618C154.829 11.7218 154.838 11.8618 154.838 11.9818C154.838 12.3309 154.78 12.6327 154.663 12.8873C154.55 13.1382 154.401 13.3473 154.216 13.5145C154.034 13.6782 153.829 13.8 153.6 13.88C153.37 13.96 153.14 14 152.907 14H151.516V12.9691H152.907C152.961 12.9691 153.038 12.9618 153.136 12.9473C153.238 12.9291 153.338 12.8873 153.436 12.8218C153.538 12.7564 153.625 12.6582 153.698 12.5273C153.774 12.3964 153.812 12.2145 153.812 11.9818C153.812 11.9018 153.805 11.8018 153.79 11.6818C153.78 11.5582 153.763 11.4273 153.741 11.2891C153.723 11.1473 153.701 11.0036 153.676 10.8582C153.65 10.7091 153.625 10.5691 153.6 10.4382C153.574 10.3073 153.55 10.1909 153.529 10.0891C153.507 9.98727 153.489 9.91091 153.474 9.86L154.45 9.56ZM152.65 7.30727L153.578 6.36909L154.527 7.31818L153.589 8.25636L152.65 7.30727ZM157.38 13.9945H156.349V6.21636H157.38V13.9945ZM161.431 14.0818C161.245 14.0818 161.058 14.0727 160.869 14.0545C160.68 14.04 160.494 14.0164 160.312 13.9836C160.134 13.9473 159.961 13.9018 159.794 13.8473C159.631 13.7891 159.481 13.72 159.347 13.64L158.894 13.3836L159.407 12.4836L159.86 12.74C159.987 12.8127 160.143 12.8727 160.329 12.92C160.514 12.9636 160.711 12.9945 160.918 13.0127C161.096 13.0309 161.274 13.04 161.452 13.04C161.485 13.04 161.561 13.04 161.681 13.04C161.801 13.0364 161.951 13.0218 162.129 12.9964C162.34 12.9636 162.512 12.9182 162.647 12.86C162.785 12.7982 162.872 12.7291 162.909 12.6527C162.923 12.6164 162.931 12.5764 162.931 12.5327C162.931 12.4709 162.912 12.3855 162.876 12.2764C162.84 12.1636 162.763 12.02 162.647 11.8455L160.672 8.86182L161.545 8.29455C161.592 8.36727 161.641 8.44364 161.692 8.52364C161.743 8.6 161.803 8.69091 161.872 8.79636C161.941 8.89818 162.021 9.02 162.112 9.16182C162.203 9.3 162.314 9.46727 162.445 9.66364C162.576 9.86 162.729 10.0891 162.903 10.3509C163.078 10.6127 163.281 10.9182 163.514 11.2673C163.605 11.4055 163.687 11.5509 163.76 11.7036C163.832 11.8527 163.887 12.0036 163.923 12.1564C163.956 12.2945 163.972 12.4327 163.972 12.5709C163.972 12.5855 163.971 12.6364 163.967 12.7236C163.963 12.8073 163.927 12.9236 163.858 13.0727C163.629 13.5855 163.101 13.9018 162.276 14.0218C162.149 14.04 162.014 14.0545 161.872 14.0655C161.731 14.0764 161.583 14.0818 161.431 14.0818ZM180.427 12.9691V13.9945H180.264C179.998 13.9945 179.747 13.9564 179.511 13.88C179.275 13.8 179.064 13.6855 178.878 13.5364C178.857 13.5182 178.835 13.5 178.813 13.4818C178.791 13.46 178.769 13.4382 178.747 13.4164C178.362 13.7982 177.804 13.9909 177.073 13.9945H170.882C170.624 13.9945 170.38 13.9509 170.151 13.8636C169.926 13.7764 169.726 13.6509 169.551 13.4873C169.478 13.4218 169.406 13.3418 169.333 13.2473C169.26 13.1527 169.193 13.0418 169.131 12.9145C169.073 12.7873 169.024 12.6436 168.984 12.4836C168.947 12.32 168.929 12.1364 168.929 11.9327C168.929 11.7509 168.947 11.5509 168.984 11.3327C169.024 11.1145 169.066 10.9073 169.109 10.7109C169.157 10.5145 169.2 10.3455 169.24 10.2036C169.284 10.0618 169.311 9.97455 169.322 9.94182L170.304 10.2527C170.278 10.3291 170.246 10.4382 170.206 10.58C170.169 10.7182 170.131 10.8673 170.091 11.0273C170.055 11.1873 170.022 11.3491 169.993 11.5127C169.967 11.6727 169.955 11.8127 169.955 11.9327C169.955 12.1727 169.993 12.3618 170.069 12.5C170.146 12.6382 170.235 12.7418 170.337 12.8109C170.442 12.88 170.547 12.9236 170.653 12.9418C170.758 12.96 170.838 12.9691 170.893 12.9691H177.035C177.3 12.9691 177.511 12.9418 177.667 12.8873C177.827 12.8327 177.947 12.7636 178.027 12.68C178.111 12.5964 178.164 12.5055 178.186 12.4073C178.211 12.3055 178.224 12.2091 178.224 12.1182V10.2255H179.255V12.0909C179.255 12.2982 179.298 12.4618 179.386 12.5818C179.477 12.6982 179.58 12.7855 179.697 12.8436C179.813 12.9018 179.926 12.9382 180.035 12.9527C180.144 12.9636 180.22 12.9691 180.264 12.9691H180.427ZM175.071 9.82182L174.209 8.94909L175.06 8.06545L175.944 8.94909L175.071 9.82182ZM172.982 9.81091L172.12 8.93818L172.971 8.05455L173.855 8.93818L172.982 9.81091ZM180.14 14V12.9691H183.337C183.598 12.9691 183.815 12.94 183.986 12.8818C184.16 12.82 184.273 12.7364 184.324 12.6309C184.349 12.5764 184.362 12.5145 184.362 12.4455C184.362 12.3836 184.344 12.2964 184.307 12.1836C184.275 12.0673 184.202 11.9164 184.089 11.7309C183.977 11.5418 183.838 11.3436 183.675 11.1364C183.511 10.9291 183.335 10.7218 183.146 10.5145C182.957 10.3073 182.762 10.1055 182.562 9.90909C182.362 9.70909 182.169 9.52545 181.984 9.35818C181.798 9.18727 181.629 9.03818 181.477 8.91091C181.324 8.78 181.198 8.68 181.1 8.61091L181.204 7.44909L186.195 5.25636L186.609 6.19455L182.24 8.10364C182.349 8.21273 182.489 8.35091 182.66 8.51818C182.831 8.68182 183.017 8.86545 183.217 9.06909C183.417 9.26909 183.62 9.48364 183.827 9.71273C184.035 9.93818 184.231 10.1655 184.417 10.3945C184.602 10.6236 184.766 10.8491 184.907 11.0709C185.053 11.2891 185.16 11.4909 185.229 11.6764C185.291 11.8364 185.335 11.9855 185.36 12.1236C185.378 12.2436 185.387 12.3527 185.387 12.4509C185.387 12.4691 185.386 12.5109 185.382 12.5764C185.382 12.6418 185.369 12.72 185.344 12.8109C185.322 12.9018 185.297 12.98 185.267 13.0455C185.227 13.1364 185.166 13.2382 185.082 13.3509C184.998 13.46 184.88 13.5636 184.727 13.6618C184.578 13.7564 184.391 13.8364 184.166 13.9018C183.94 13.9673 183.664 14 183.337 14H180.14ZM190.412 14H190.177C189.828 14 189.506 13.9309 189.212 13.7927C189.212 14.3018 189.141 14.7564 188.999 15.1564C188.857 15.5564 188.65 15.8945 188.377 16.1709C188.104 16.4509 187.768 16.6636 187.368 16.8091C186.972 16.9545 186.515 17.0273 185.999 17.0273H185.246V15.9964H185.999C186.373 15.9964 186.697 15.9509 186.97 15.86C187.246 15.7727 187.473 15.6364 187.652 15.4509C187.833 15.2655 187.966 15.0291 188.05 14.7418C188.137 14.4545 188.181 14.1127 188.181 13.7164V10.3127H189.212V12.1182C189.212 12.3218 189.253 12.4818 189.337 12.5982C189.424 12.7109 189.524 12.7945 189.637 12.8491C189.75 12.9036 189.857 12.9382 189.959 12.9527C190.064 12.9636 190.137 12.9691 190.177 12.9691H190.412V14ZM194.442 13.9891C194.101 13.9891 193.797 13.94 193.531 13.8418C193.266 13.74 193.042 13.5945 192.861 13.4055C192.671 13.6091 192.451 13.76 192.201 13.8582C191.95 13.9527 191.697 14 191.442 14H190.188V12.9691H191.442C191.497 12.9691 191.575 12.9618 191.677 12.9473C191.779 12.9291 191.879 12.8873 191.977 12.8218C192.075 12.7527 192.161 12.6509 192.233 12.5164C192.31 12.3818 192.348 12.1982 192.348 11.9655V10.3127H193.379V11.9436C193.379 12.2964 193.461 12.5545 193.624 12.7182C193.791 12.8818 194.064 12.9636 194.442 12.9636C194.497 12.9636 194.573 12.9545 194.671 12.9364C194.773 12.9145 194.873 12.8691 194.971 12.8C195.073 12.7309 195.161 12.6291 195.233 12.4945C195.31 12.36 195.348 12.1764 195.348 11.9436V10.3127H196.373V11.9436C196.373 12.2964 196.459 12.5564 196.63 12.7236C196.801 12.8909 197.075 12.9745 197.453 12.9745C197.511 12.9745 197.59 12.9636 197.688 12.9418C197.786 12.9164 197.882 12.8673 197.977 12.7945C198.075 12.7218 198.159 12.6182 198.228 12.4836C198.297 12.3491 198.331 12.1691 198.331 11.9436C198.331 11.8636 198.324 11.7636 198.31 11.6436C198.299 11.5236 198.282 11.3945 198.261 11.2564C198.242 11.1182 198.221 10.9782 198.195 10.8364C198.17 10.6909 198.144 10.5564 198.119 10.4327C198.093 10.3055 198.07 10.1927 198.048 10.0945C198.026 9.99273 198.008 9.91818 197.993 9.87091L198.97 9.56C198.977 9.58182 198.991 9.64 199.013 9.73455C199.035 9.82545 199.061 9.94 199.09 10.0782C199.119 10.2127 199.148 10.3636 199.177 10.5309C199.21 10.6982 199.239 10.8673 199.264 11.0382C199.293 11.2055 199.317 11.3691 199.335 11.5291C199.353 11.6855 199.362 11.8236 199.362 11.9436C199.362 12.2891 199.306 12.5909 199.193 12.8491C199.081 13.1036 198.933 13.3164 198.751 13.4873C198.573 13.6545 198.37 13.7818 198.141 13.8691C197.911 13.9527 197.682 13.9964 197.453 14C197.104 14 196.795 13.9491 196.526 13.8473C196.261 13.7418 196.035 13.5909 195.85 13.3945C195.661 13.5945 195.441 13.7436 195.19 13.8418C194.942 13.94 194.693 13.9891 194.442 13.9891ZM196.684 6.35818L195.91 7.11636L195.146 6.35818L195.931 5.57818L196.684 6.35818ZM196.951 8.82364L196.09 7.95091L196.941 7.06727L197.824 7.95091L196.951 8.82364ZM194.862 8.81273L194.001 7.94L194.851 7.05636L195.735 7.94L194.862 8.81273Z" fill="white"/>
<path d="M101.339 38.32C101.339 38.0255 101.228 37.7982 101.006 37.6382C100.788 37.4745 100.404 37.3345 99.8554 37.2182C99.3063 37.1018 98.8699 36.9618 98.5463 36.7982C98.2263 36.6309 97.9881 36.4345 97.8318 36.2091C97.679 35.9836 97.6027 35.7145 97.6027 35.4018C97.6027 34.8818 97.8209 34.4418 98.2572 34.0818C98.6972 33.7218 99.259 33.5418 99.9427 33.5418C100.663 33.5418 101.246 33.7273 101.694 34.0982C102.141 34.4691 102.364 34.9436 102.364 35.5218H101.274C101.274 35.2273 101.148 34.9727 100.897 34.7582C100.646 34.54 100.328 34.4309 99.9427 34.4309C99.5499 34.4309 99.2427 34.5182 99.0209 34.6927C98.799 34.8636 98.6881 35.0873 98.6881 35.3636C98.6881 35.6255 98.7899 35.8236 98.9936 35.9582C99.2009 36.0891 99.5754 36.2164 100.117 36.34C100.659 36.46 101.097 36.6036 101.432 36.7709C101.77 36.9382 102.019 37.14 102.179 37.3764C102.343 37.6127 102.424 37.9018 102.424 38.2436C102.424 38.8073 102.197 39.26 101.743 39.6018C101.292 39.9436 100.704 40.1145 99.9809 40.1145C99.4718 40.1145 99.0209 40.0255 98.6281 39.8473C98.239 39.6691 97.9336 39.4182 97.7118 39.0945C97.4936 38.7709 97.3845 38.4218 97.3845 38.0473H98.4699C98.4881 38.4109 98.6318 38.7 98.9009 38.9145C99.1736 39.1255 99.5336 39.2309 99.9809 39.2309C100.392 39.2309 100.721 39.1491 100.968 38.9855C101.215 38.8182 101.339 38.5964 101.339 38.32ZM107.75 40C107.688 39.8764 107.637 39.6545 107.597 39.3345C107.092 39.8545 106.49 40.1145 105.792 40.1145C105.167 40.1145 104.654 39.9382 104.254 39.5855C103.854 39.2327 103.654 38.7855 103.654 38.2436C103.654 37.5818 103.905 37.0691 104.407 36.7055C104.908 36.3382 105.614 36.1545 106.523 36.1545H107.581V35.6582C107.581 35.28 107.467 34.9782 107.237 34.7527C107.012 34.5273 106.679 34.4145 106.239 34.4145C105.85 34.4145 105.525 34.5127 105.263 34.7091C105.005 34.9055 104.876 35.1418 104.876 35.4182H103.785C103.785 35.1018 103.896 34.7964 104.117 34.5018C104.343 34.2073 104.648 33.9745 105.034 33.8036C105.419 33.6291 105.843 33.5418 106.305 33.5418C107.036 33.5418 107.607 33.7255 108.017 34.0927C108.432 34.4564 108.648 34.9582 108.667 35.5982V38.5164C108.667 39.0982 108.739 39.5618 108.885 39.9073V40H107.75ZM105.95 39.1764C106.292 39.1764 106.614 39.0891 106.916 38.9145C107.221 38.7364 107.443 38.5073 107.581 38.2273V36.9236H106.73C105.403 36.9236 104.739 37.3127 104.739 38.0909C104.739 38.4291 104.852 38.6945 105.077 38.8873C105.303 39.08 105.594 39.1764 105.95 39.1764ZM111.539 40H110.459V31H111.539V40ZM117.195 40C117.134 39.8764 117.083 39.6545 117.043 39.3345C116.537 39.8545 115.935 40.1145 115.237 40.1145C114.612 40.1145 114.099 39.9382 113.699 39.5855C113.299 39.2327 113.099 38.7855 113.099 38.2436C113.099 37.5818 113.35 37.0691 113.852 36.7055C114.354 36.3382 115.059 36.1545 115.968 36.1545H117.026V35.6582C117.026 35.28 116.912 34.9782 116.683 34.7527C116.457 34.5273 116.125 34.4145 115.685 34.4145C115.295 34.4145 114.97 34.5127 114.708 34.7091C114.45 34.9055 114.321 35.1418 114.321 35.4182H113.23C113.23 35.1018 113.341 34.7964 113.563 34.5018C113.788 34.2073 114.094 33.9745 114.479 33.8036C114.865 33.6291 115.288 33.5418 115.75 33.5418C116.481 33.5418 117.052 33.7255 117.463 34.0927C117.877 34.4564 118.094 34.9582 118.112 35.5982V38.5164C118.112 39.0982 118.185 39.5618 118.33 39.9073V40H117.195ZM115.395 39.1764C115.737 39.1764 116.059 39.0891 116.361 38.9145C116.666 38.7364 116.888 38.5073 117.026 38.2273V36.9236H116.175C114.848 36.9236 114.185 37.3127 114.185 38.0909C114.185 38.4291 114.297 38.6945 114.523 38.8873C114.748 39.08 115.039 39.1764 115.395 39.1764ZM120.826 33.6618L120.859 34.3655C121.325 33.8164 121.952 33.5418 122.741 33.5418C123.625 33.5418 124.226 33.8818 124.546 34.5618C124.757 34.2564 125.032 34.0109 125.37 33.8255C125.708 33.6364 126.108 33.5418 126.57 33.5418C127.959 33.5418 128.666 34.2782 128.692 35.7509V40H127.606V35.8164C127.606 35.3618 127.503 35.0236 127.296 34.8018C127.088 34.5764 126.741 34.4636 126.254 34.4636C125.85 34.4636 125.516 34.5836 125.25 34.8236C124.985 35.0636 124.83 35.3873 124.786 35.7945V40H123.701V35.8436C123.701 34.9236 123.25 34.4636 122.348 34.4636C121.636 34.4636 121.148 34.7655 120.886 35.3691V40H119.801V33.6618H120.826ZM139.684 37.06C139.636 38.0055 139.402 38.7509 138.98 39.2964C138.558 39.8418 137.995 40.1145 137.289 40.1145C136.558 40.1145 136.089 39.7873 135.882 39.1327C135.671 39.4636 135.429 39.7109 135.156 39.8745C134.887 40.0345 134.607 40.1145 134.316 40.1145C133.76 40.1145 133.34 39.8873 133.056 39.4327C132.831 39.0727 132.718 38.6036 132.718 38.0255C132.718 37.8764 132.725 37.72 132.74 37.5564C132.798 36.9127 132.945 36.3382 133.182 35.8327C133.418 35.3273 133.722 34.9309 134.093 34.6436C134.467 34.3527 134.86 34.2073 135.271 34.2073C135.587 34.2073 135.871 34.2491 136.122 34.3327C136.373 34.4164 136.655 34.58 136.967 34.8236L136.662 38.0745C136.655 38.18 136.651 38.28 136.651 38.3745C136.651 39.0764 136.904 39.4273 137.409 39.4273C137.853 39.4273 138.211 39.2091 138.484 38.7727C138.756 38.3327 138.904 37.7618 138.925 37.06C138.933 36.8964 138.936 36.7382 138.936 36.5855C138.936 35.2982 138.635 34.2782 138.031 33.5255C137.427 32.7691 136.473 32.3909 135.167 32.3909C134.382 32.3909 133.684 32.5855 133.073 32.9745C132.465 33.36 131.985 33.92 131.633 34.6545C131.28 35.3891 131.084 36.2382 131.044 37.2018C131.036 37.34 131.033 37.4764 131.033 37.6109C131.033 38.4073 131.162 39.1364 131.42 39.7982C131.682 40.46 132.1 40.9782 132.675 41.3527C133.253 41.7309 133.951 41.92 134.769 41.92C135.118 41.92 135.469 41.8764 135.822 41.7891C136.178 41.7055 136.473 41.5945 136.705 41.4564L136.924 42.1327C136.68 42.2855 136.358 42.4109 135.958 42.5091C135.558 42.6073 135.153 42.6564 134.742 42.6564C133.767 42.6564 132.927 42.4364 132.222 41.9964C131.52 41.5564 130.995 40.9236 130.645 40.0982C130.336 39.3709 130.182 38.5345 130.182 37.5891C130.182 37.4618 130.185 37.3327 130.193 37.2018C130.24 36.1255 130.48 35.16 130.913 34.3055C131.345 33.4473 131.933 32.7855 132.675 32.32C133.416 31.8509 134.255 31.6164 135.189 31.6164C136.164 31.6164 136.998 31.8345 137.693 32.2709C138.387 32.7073 138.905 33.3382 139.247 34.1636C139.545 34.8873 139.695 35.72 139.695 36.6618C139.695 36.7927 139.691 36.9255 139.684 37.06ZM133.673 37.5564C133.658 37.6982 133.651 37.8309 133.651 37.9545C133.651 38.3218 133.72 38.6345 133.858 38.8927C133.996 39.1509 134.236 39.28 134.578 39.28C134.815 39.28 135.04 39.18 135.255 38.98C135.473 38.78 135.653 38.4945 135.795 38.1236L135.8 38.0745L136.067 35.1236C135.849 35.0109 135.615 34.9545 135.364 34.9545C134.909 34.9545 134.531 35.1873 134.229 35.6527C133.931 36.1182 133.745 36.7527 133.673 37.5564ZM144.153 34.6327C143.99 34.6036 143.811 34.5891 143.619 34.5891C142.91 34.5891 142.428 34.8927 142.173 35.5V40H141.088V33.6618H142.146L142.162 34.3927C142.519 33.8255 143.022 33.5418 143.673 33.5418C143.884 33.5418 144.044 33.5691 144.153 33.6236V34.6327ZM144.859 36.7709C144.859 36.1491 144.981 35.5909 145.224 35.0964C145.468 34.5982 145.808 34.2145 146.244 33.9455C146.681 33.6764 147.177 33.5418 147.733 33.5418C148.599 33.5418 149.297 33.8418 149.828 34.4418C150.362 35.0382 150.63 35.8327 150.63 36.8255V36.9018C150.63 37.5164 150.511 38.0691 150.275 38.56C150.039 39.0509 149.701 39.4327 149.261 39.7055C148.821 39.9782 148.315 40.1145 147.744 40.1145C146.886 40.1145 146.19 39.8164 145.655 39.22C145.124 38.6236 144.859 37.8327 144.859 36.8473V36.7709ZM145.95 36.9018C145.95 37.6036 146.111 38.1673 146.435 38.5927C146.762 39.0182 147.199 39.2309 147.744 39.2309C148.297 39.2309 148.735 39.0164 149.059 38.5873C149.382 38.1545 149.544 37.5491 149.544 36.7709C149.544 36.0764 149.379 35.5127 149.048 35.08C148.721 34.6473 148.282 34.4309 147.733 34.4309C147.199 34.4309 146.768 34.6455 146.441 35.0745C146.113 35.5 145.95 36.1091 145.95 36.9018ZM155.679 38.32C155.679 38.0255 155.568 37.7982 155.346 37.6382C155.128 37.4745 154.744 37.3345 154.195 37.2182C153.646 37.1018 153.21 36.9618 152.886 36.7982C152.566 36.6309 152.328 36.4345 152.172 36.2091C152.019 35.9836 151.943 35.7145 151.943 35.4018C151.943 34.8818 152.161 34.4418 152.597 34.0818C153.037 33.7218 153.599 33.5418 154.283 33.5418C155.003 33.5418 155.586 33.7273 156.033 34.0982C156.481 34.4691 156.704 34.9436 156.704 35.5218H155.613C155.613 35.2273 155.488 34.9727 155.237 34.7582C154.986 34.54 154.668 34.4309 154.283 34.4309C153.89 34.4309 153.583 34.5182 153.361 34.6927C153.139 34.8636 153.028 35.0873 153.028 35.3636C153.028 35.6255 153.13 35.8236 153.333 35.9582C153.541 36.0891 153.915 36.2164 154.457 36.34C154.999 36.46 155.437 36.6036 155.772 36.7709C156.11 36.9382 156.359 37.14 156.519 37.3764C156.683 37.6127 156.764 37.9018 156.764 38.2436C156.764 38.8073 156.537 39.26 156.083 39.6018C155.632 39.9436 155.044 40.1145 154.321 40.1145C153.812 40.1145 153.361 40.0255 152.968 39.8473C152.579 39.6691 152.273 39.4182 152.052 39.0945C151.833 38.7709 151.724 38.4218 151.724 38.0473H152.81C152.828 38.4109 152.972 38.7 153.241 38.9145C153.513 39.1255 153.873 39.2309 154.321 39.2309C154.732 39.2309 155.061 39.1491 155.308 38.9855C155.555 38.8182 155.679 38.5964 155.679 38.32ZM159.259 34.4255C159.739 33.8364 160.365 33.5418 161.135 33.5418C162.474 33.5418 163.15 34.2982 163.165 35.8109V40H162.079V35.8055C162.075 35.3473 161.97 35.0091 161.763 34.7909C161.559 34.5727 161.241 34.4636 160.808 34.4636C160.455 34.4636 160.146 34.5582 159.881 34.7473C159.615 34.9327 159.408 35.1782 159.259 35.4836V40H158.174V31H159.259V34.4255ZM168.699 40C168.638 39.8764 168.587 39.6545 168.547 39.3345C168.041 39.8545 167.439 40.1145 166.741 40.1145C166.116 40.1145 165.603 39.9382 165.203 39.5855C164.803 39.2327 164.603 38.7855 164.603 38.2436C164.603 37.5818 164.854 37.0691 165.356 36.7055C165.858 36.3382 166.563 36.1545 167.472 36.1545H168.53V35.6582C168.53 35.28 168.416 34.9782 168.187 34.7527C167.961 34.5273 167.628 34.4145 167.188 34.4145C166.799 34.4145 166.474 34.5127 166.212 34.7091C165.954 34.9055 165.825 35.1418 165.825 35.4182H164.734C164.734 35.1018 164.845 34.7964 165.067 34.5018C165.292 34.2073 165.598 33.9745 165.983 33.8036C166.368 33.6291 166.792 33.5418 167.254 33.5418C167.985 33.5418 168.556 33.7255 168.967 34.0927C169.381 34.4564 169.598 34.9582 169.616 35.5982V38.5164C169.616 39.0982 169.688 39.5618 169.834 39.9073V40H168.699ZM166.899 39.1764C167.241 39.1764 167.563 39.0891 167.865 38.9145C168.17 38.7364 168.392 38.5073 168.53 38.2273V36.9236H167.679C166.352 36.9236 165.688 37.3127 165.688 38.0909C165.688 38.4291 165.801 38.6945 166.027 38.8873C166.252 39.08 166.543 39.1764 166.899 39.1764ZM172.336 33.6618L172.374 34.4582C172.858 33.8473 173.49 33.5418 174.272 33.5418C175.61 33.5418 176.287 34.2982 176.301 35.8109V40H175.216V35.8055C175.212 35.3473 175.107 35.0091 174.899 34.7909C174.696 34.5727 174.378 34.4636 173.945 34.4636C173.592 34.4636 173.283 34.5582 173.018 34.7473C172.752 34.9327 172.545 35.1782 172.396 35.4836V40H171.31V33.6618H172.336ZM180.19 36.82H177.331V35.9309H180.19V36.82ZM185.164 40C185.102 39.8764 185.052 39.6545 185.012 39.3345C184.506 39.8545 183.904 40.1145 183.206 40.1145C182.581 40.1145 182.068 39.9382 181.668 39.5855C181.268 39.2327 181.068 38.7855 181.068 38.2436C181.068 37.5818 181.319 37.0691 181.821 36.7055C182.322 36.3382 183.028 36.1545 183.937 36.1545H184.995V35.6582C184.995 35.28 184.881 34.9782 184.652 34.7527C184.426 34.5273 184.093 34.4145 183.653 34.4145C183.264 34.4145 182.939 34.5127 182.677 34.7091C182.419 34.9055 182.29 35.1418 182.29 35.4182H181.199C181.199 35.1018 181.31 34.7964 181.532 34.5018C181.757 34.2073 182.062 33.9745 182.448 33.8036C182.833 33.6291 183.257 33.5418 183.719 33.5418C184.45 33.5418 185.021 33.7255 185.432 34.0927C185.846 34.4564 186.062 34.9582 186.081 35.5982V38.5164C186.081 39.0982 186.153 39.5618 186.299 39.9073V40H185.164ZM183.364 39.1764C183.706 39.1764 184.028 39.0891 184.33 38.9145C184.635 38.7364 184.857 38.5073 184.995 38.2273V36.9236H184.144C182.817 36.9236 182.153 37.3127 182.153 38.0909C182.153 38.4291 182.266 38.6945 182.492 38.8873C182.717 39.08 183.008 39.1764 183.364 39.1764ZM188.953 40H187.873V33.6618H188.953V40ZM187.781 31.9764C187.781 31.8018 187.835 31.6545 187.944 31.5345C188.053 31.4109 188.213 31.3491 188.424 31.3491C188.635 31.3491 188.795 31.4109 188.904 31.5345C189.013 31.6545 189.068 31.8018 189.068 31.9764C189.068 32.1545 189.013 32.3018 188.904 32.4182C188.795 32.5345 188.635 32.5927 188.424 32.5927C188.213 32.5927 188.053 32.5345 187.944 32.4182C187.835 32.3018 187.781 32.1545 187.781 31.9764ZM190.72 39.4327C190.72 39.2436 190.775 39.0873 190.884 38.9636C190.997 38.8364 191.164 38.7727 191.386 38.7727C191.608 38.7727 191.777 38.8364 191.893 38.9636C192.01 39.0873 192.068 39.2436 192.068 39.4327C192.068 39.6109 192.01 39.7618 191.893 39.8855C191.777 40.0055 191.608 40.0655 191.386 40.0655C191.164 40.0655 190.997 40.0055 190.884 39.8855C190.775 39.7618 190.72 39.6109 190.72 39.4327ZM195.024 40H193.944V33.6618H195.024V40ZM193.851 31.9764C193.851 31.8018 193.906 31.6545 194.015 31.5345C194.124 31.4109 194.284 31.3491 194.495 31.3491C194.706 31.3491 194.866 31.4109 194.975 31.5345C195.084 31.6545 195.138 31.8018 195.138 31.9764C195.138 32.1545 195.084 32.3018 194.975 32.4182C194.866 32.5345 194.706 32.5927 194.495 32.5927C194.284 32.5927 194.124 32.5345 194.015 32.4182C193.906 32.3018 193.851 32.1545 193.851 31.9764ZM199.829 34.6327C199.665 34.6036 199.487 34.5891 199.294 34.5891C198.585 34.5891 198.103 34.8927 197.849 35.5V40H196.763V33.6618H197.822L197.838 34.3927C198.194 33.8255 198.698 33.5418 199.349 33.5418C199.56 33.5418 199.72 33.5691 199.829 33.6236V34.6327Z" fill="white"/>
</svg>
