<svg width="360" height="640" viewBox="0 0 360 640" fill="none" xmlns="http://www.w3.org/2000/svg">
<rect width="360" height="640" fill="url(#paint0_linear)"/>
<path d="M245.453 57.0291C244.701 57.0291 244.02 56.8642 243.409 56.5345C242.798 56.2097 242.304 55.7442 241.925 55.1382C241.664 54.7261 241.477 54.2679 241.365 53.7636C241.278 53.3758 241.235 52.9685 241.235 52.5418C241.235 52.4158 241.244 52.1782 241.264 51.8291C241.283 51.4752 241.382 50.9855 241.562 50.36C241.741 49.7297 241.991 49.08 242.311 48.4109L243.547 49C243.276 49.5624 243.06 50.103 242.9 50.6218C242.745 51.1358 242.648 51.623 242.609 52.0836C242.599 52.2388 242.595 52.3891 242.595 52.5345C242.595 52.8255 242.626 53.1333 242.689 53.4582C242.752 53.7879 242.883 54.1079 243.082 54.4182C243.334 54.8109 243.664 55.1139 244.071 55.3273C244.478 55.5455 244.939 55.6545 245.453 55.6545H247.162C247.719 55.6545 248.173 55.5939 248.522 55.4727C248.876 55.3564 249.15 55.1915 249.344 54.9782C249.542 54.7648 249.676 54.5055 249.744 54.2C249.816 53.8994 249.853 53.5648 249.853 53.1964V48.0836H251.227V50.3455C251.232 50.5394 251.266 50.7164 251.329 50.8764C251.397 51.0315 251.487 51.1648 251.598 51.2764C251.71 51.3879 251.843 51.4752 251.998 51.5382C252.158 51.5964 252.335 51.6255 252.529 51.6255H252.813V53H252.529C252.054 53 251.62 52.8958 251.227 52.6873V53.1964C251.227 54.4764 250.888 55.4339 250.209 56.0691C249.53 56.7091 248.515 57.0291 247.162 57.0291H245.453ZM245.504 47.5382L246.74 46.2873L248.005 47.5527L246.755 48.8036L245.504 47.5382ZM255.712 51.6255C255.765 51.6255 255.792 51.6448 255.792 51.6836V52.9273C255.792 52.9758 255.765 53 255.712 53H252.599C252.551 53 252.526 52.9758 252.526 52.9273V51.6836C252.526 51.6448 252.551 51.6255 252.599 51.6255H255.712ZM258.681 51.6255C258.734 51.6255 258.761 51.6448 258.761 51.6836V52.9273C258.761 52.9758 258.734 53 258.681 53H255.568C255.519 53 255.495 52.9758 255.495 52.9273V51.6836C255.495 51.6448 255.519 51.6255 255.568 51.6255H258.681ZM264.137 52.9855C263.681 52.9855 263.276 52.92 262.922 52.7891C262.568 52.6533 262.27 52.4594 262.028 52.2073C261.775 52.4788 261.482 52.68 261.148 52.8109C260.813 52.937 260.476 53 260.137 53H258.464V51.6255H260.137C260.209 51.6255 260.314 51.6158 260.449 51.5964C260.585 51.5721 260.718 51.5164 260.849 51.4291C260.98 51.337 261.094 51.2012 261.191 51.0218C261.293 50.8424 261.344 50.5976 261.344 50.2873V48.0836H262.718V50.2582C262.718 50.7285 262.828 51.0727 263.046 51.2909C263.269 51.5091 263.632 51.6182 264.137 51.6182C264.209 51.6182 264.311 51.6061 264.442 51.5818C264.578 51.5527 264.711 51.4921 264.842 51.4C264.978 51.3079 265.094 51.1721 265.191 50.9927C265.293 50.8133 265.344 50.5685 265.344 50.2582V48.0836H266.711V50.2582C266.711 50.7285 266.825 51.0752 267.053 51.2982C267.281 51.5212 267.647 51.6327 268.151 51.6327C268.229 51.6327 268.333 51.6182 268.464 51.5891C268.595 51.5552 268.723 51.4897 268.849 51.3927C268.98 51.2958 269.092 51.1576 269.184 50.9782C269.276 50.7988 269.322 50.5588 269.322 50.2582C269.322 50.1515 269.312 50.0182 269.293 49.8582C269.278 49.6982 269.257 49.5261 269.228 49.3418C269.203 49.1576 269.174 48.9709 269.14 48.7818C269.106 48.5879 269.072 48.4085 269.038 48.2436C269.005 48.0739 268.973 47.9236 268.944 47.7927C268.915 47.657 268.891 47.5576 268.871 47.4945L270.173 47.08C270.183 47.1091 270.202 47.1867 270.231 47.3127C270.26 47.4339 270.294 47.5867 270.333 47.7709C270.372 47.9503 270.411 48.1515 270.449 48.3745C270.493 48.5976 270.532 48.823 270.566 49.0509C270.605 49.2739 270.636 49.4921 270.66 49.7055C270.685 49.9139 270.697 50.0982 270.697 50.2582C270.697 50.7188 270.621 51.1212 270.471 51.4655C270.321 51.8048 270.125 52.0885 269.882 52.3164C269.645 52.5394 269.373 52.7091 269.068 52.8255C268.762 52.937 268.457 52.9952 268.151 53C267.686 53 267.274 52.9321 266.915 52.7964C266.561 52.6558 266.26 52.4545 266.013 52.1927C265.761 52.4594 265.468 52.6582 265.133 52.7891C264.803 52.92 264.471 52.9855 264.137 52.9855ZM267.126 42.8109L266.093 43.8218L265.075 42.8109L266.122 41.7709L267.126 42.8109ZM267.482 46.0982L266.333 44.9345L267.468 43.7564L268.646 44.9345L267.482 46.0982ZM264.697 46.0836L263.548 44.92L264.682 43.7418L265.86 44.92L264.697 46.0836ZM272.951 55.64C273.683 55.64 274.298 55.5842 274.798 55.4727C275.297 55.3612 275.692 55.1891 275.983 54.9564C276.235 54.7527 276.42 54.4933 276.536 54.1782C276.657 53.863 276.718 53.4703 276.718 53H275.38C275.04 53 274.696 52.9491 274.347 52.8473C273.998 52.7455 273.68 52.5782 273.394 52.3455C273.113 52.1127 272.883 51.8097 272.703 51.4364C272.524 51.0582 272.434 50.5976 272.434 50.0545C272.434 49.7345 272.461 49.4461 272.514 49.1891C272.572 48.9273 272.643 48.6945 272.725 48.4909C272.812 48.2873 272.907 48.1103 273.009 47.96C273.111 47.8097 273.21 47.6812 273.307 47.5745C273.574 47.3079 273.879 47.1018 274.223 46.9564C274.567 46.8109 274.936 46.7382 275.329 46.7382C275.673 46.7382 275.995 46.7915 276.296 46.8982C276.597 47.0048 276.866 47.1648 277.103 47.3782C277.758 47.9891 278.085 48.9467 278.085 50.2509V53C278.085 53.6885 277.983 54.28 277.78 54.7745C277.581 55.2739 277.271 55.6909 276.849 56.0255C276.422 56.36 275.891 56.6073 275.256 56.7673C274.626 56.9321 273.857 57.0145 272.951 57.0145V55.64ZM275.329 48.1127C274.849 48.1127 274.475 48.2824 274.209 48.6218C273.942 48.9612 273.809 49.4388 273.809 50.0545C273.809 50.68 273.998 51.1139 274.376 51.3564C274.468 51.4145 274.563 51.463 274.66 51.5018C274.757 51.5358 274.851 51.5624 274.943 51.5818C275.035 51.5964 275.118 51.6085 275.191 51.6182C275.268 51.623 275.331 51.6255 275.38 51.6255H276.718V50.2509C276.718 49.897 276.691 49.5988 276.638 49.3564C276.584 49.1091 276.517 48.9055 276.434 48.7455C276.352 48.5855 276.257 48.4642 276.151 48.3818C276.049 48.2945 275.947 48.2315 275.845 48.1927C275.743 48.1539 275.646 48.1321 275.554 48.1273C275.462 48.1176 275.387 48.1127 275.329 48.1127ZM279 57.0364V55.6618H280.004C280.503 55.6618 280.935 55.6012 281.298 55.48C281.667 55.3636 281.97 55.1818 282.207 54.9345C282.45 54.6873 282.627 54.3721 282.738 53.9891C282.855 53.6061 282.913 53.1503 282.913 52.6218V48.0836H284.287V52.6218C284.287 53.3152 284.195 53.9333 284.011 54.4764C283.832 55.0242 283.562 55.4873 283.204 55.8655C282.845 56.2436 282.396 56.5321 281.858 56.7309C281.325 56.9345 280.707 57.0364 280.004 57.0364H279Z" fill="white"/>
<mask id="mask0" style="mask-type:alpha" maskUnits="userSpaceOnUse" x="300" y="35" width="26" height="29">
<path d="M300 35H325.2V64H300V35Z" fill="white"/>
</mask>
<g mask="url(#mask0)">
<path fill-rule="evenodd" clip-rule="evenodd" d="M314.452 35.2936C313.764 34.9021 312.917 34.9021 312.23 35.2936L301.111 41.6298C300.423 42.0213 300 42.7452 300 43.5287V56.2001C300 56.9836 300.423 57.7076 301.111 58.0995L311.119 63.8021C312.106 64.3647 313.341 63.661 313.341 62.5358V51.1307C313.341 50.3472 313.764 49.6228 314.452 49.2313L324.459 43.5287C325.447 42.9661 325.447 41.5592 324.459 40.9966L314.452 35.2936Z" fill="white"/>
</g>
<path fill-rule="evenodd" clip-rule="evenodd" d="M318.185 53.6592C318.185 52.9588 318.561 52.3123 319.17 51.9621L325.344 48.4198C326.22 47.9167 327.315 48.5454 327.315 49.5512V56.6358C327.315 57.3363 326.94 57.9827 326.33 58.3329L320.156 61.8753C319.28 62.378 318.185 61.7496 318.185 60.7439V53.6592Z" fill="#0077FF"/>
<path d="M40 44.5H58" stroke="white" stroke-linecap="round"/>
<path d="M40 51.5H58" stroke="white" stroke-linecap="round"/>
<defs>
<linearGradient id="paint0_linear" x1="-3.66885e-07" y1="267.756" x2="360" y2="267.756" gradientUnits="userSpaceOnUse">
<stop stop-color="#0A0A0A"/>
<stop offset="0.276042" stop-color="#08090B"/>
<stop offset="0.567708" stop-color="#0C1013"/>
<stop offset="1" stop-color="#1E252F"/>
</linearGradient>
</defs>
</svg>
