<svg width="35" height="35" viewBox="0 0 35 35" fill="none" xmlns="http://www.w3.org/2000/svg">
<mask id="mask0" style="mask-type:alpha" maskUnits="userSpaceOnUse" x="0" y="0" width="50" height="50">
<path d="M0 0H25.2V29H0V0Z" fill="white"/>
</mask>
<g mask="url(#mask0)">
<path fill-rule="evenodd" clip-rule="evenodd" d="M14.4517 0.293638C13.7642 -0.0978793 12.9172 -0.0978793 12.2297 0.293638L1.11076 6.62978C0.42325 7.0213 -0.000244141 7.74525 -0.000244141 8.52872V21.2001C-0.000244141 21.9836 0.42325 22.7076 1.11076 23.0995L11.1187 28.8021C12.1064 29.3647 13.3407 28.661 13.3407 27.5358V16.1307C13.3407 15.3472 13.7642 14.6228 14.4517 14.2313L24.4592 8.52872C25.4469 7.96614 25.4469 6.55923 24.4592 5.99665L14.4517 0.293638Z" fill="white"/>
</g>
<path fill-rule="evenodd" clip-rule="evenodd" d="M18.1848 18.6594C18.1848 17.959 18.5606 17.3125 19.1702 16.9623L25.3439 13.4199C26.2198 12.9169 27.3154 13.5456 27.3154 14.5513V21.636C27.3154 22.3365 26.9396 22.9829 26.3296 23.3331L20.1563 26.8755C19.28 27.3781 18.1848 26.7498 18.1848 25.7441V18.6594Z" fill="#0077FF"/>
</svg>
