<?xml version="1.0" encoding="UTF-8"?>
<svg fill="none" viewBox="0 0 204 236" xmlns="http://www.w3.org/2000/svg">
<path d="m113.19 182.49c-0.696 0.122-1.037 0.651-1.71 0.98-3.26 1.61-6.756 1.987-10.312 2.03-1.4615 0.015-3.0129-0.164-4.333 0.408-3.8971 1.695-7.9565 1.792-12.192 0.528-1.602-0.476-2.7529-0.065-3.8821 1.52-2.1131 2.958-5.1822 2.876-8.0968 2.928-4.3867 0.082-8.8034-0.102-13.208-0.173-0.0928-3e-3 -0.2016-0.054-0.2733-2e-3 -2.3131 1.744-4.9646 2.175-7.5518 2.914-2.1647 0.62-4.1299 2.267-6.3291 2.574-6.6351 0.923-13.345 1.405-20.467 2.104-1.01-4.776-1.9841-9.024-2.7995-13.297-3.5248-18.612-16.191-88.542-19.671-107.17-0.2502-1.3849-0.41779-2.7828-0.50117-4.182-0.16346-2.5905 0.74006-4.1907 2.2408-4.6436 5.1178-1.5606 10.228-3.1079 15.509-4.0175 3.3558-0.5761 6.826 0.9227 10.097-0.0882 4.4491-1.3881 9.1204-1.4575 13.86-0.9238 5.9936-0.8684 11.887-2.8317 17.972-2.6564 6.8219 0.1951 12.724-3.7113 19.434-3.8667 3.3138-0.0765 6.4374-1.4748 9.5035-3.0457l22.709 128.08z" fill="#FF6200"/>
<path d="m159.42 43.047 21.011-3.6907 3.715 20.984m15.082 85.206 3.714 20.984-21.011 3.69" stroke="#FF6200"/>
<path d="m81.639 1.0085 41.369 233.98" stroke="#FF6200" stroke-width="2"/>
<path d="m167.71 83.327 0.729-1.0405-1.055-0.7382-0.707 1.0473 1.033 0.7314zm-2.184 0.3884 0.724-1.0396-1.055-0.7383-0.702 1.0464 1.033 0.7315zm1.712 6.5604c0.375-0.0658 0.727-0.1642 1.055-0.2951s0.608-0.3107 0.842-0.5396c0.234-0.2288 0.406-0.515 0.517-0.8583 0.111-0.3434 0.138-0.7605 0.079-1.2513l-0.047-0.3889c-0.046-0.2389-0.105-0.4746-0.176-0.7072-0.072-0.2326-0.16-0.4526-0.263-0.66-0.103-0.2073-0.224-0.3963-0.364-0.5669-0.139-0.1706-0.301-0.3131-0.484-0.4277s-0.39-0.1965-0.619-0.2458-0.483-0.0548-0.763-0.0164l-0.105 0.0183c-0.274 0.0481-0.518 0.1392-0.731 0.2731-0.244 0.1574-0.446 0.3494-0.605 0.5758-0.158 0.2265-0.269 0.4785-0.331 0.7559-0.062 0.2775-0.067 0.562-0.015 0.8536 0.065 0.3679 0.19 0.6717 0.374 0.9114s0.419 0.416 0.704 0.5288 0.565 0.164 0.839 0.1535 0.505-0.0322 0.693-0.0651c0.222-0.039 0.457-0.0981 0.705-0.1773-0.016 0.0708-0.05 0.1438-0.101 0.219s-0.134 0.1496-0.248 0.2233-0.268 0.1444-0.46 0.2121c-0.192 0.0678-0.434 0.1272-0.726 0.1784l-2.128 0.3731 0.23 1.2963 2.128-0.373zm0.476-3.1328c-0.278 0.0488-0.516 0.0494-0.714 0.0019-0.344-0.0758-0.542-0.2647-0.595-0.5667-0.024-0.1353-0.019-0.2589 0.017-0.3708 0.036-0.1118 0.092-0.2102 0.168-0.2952 0.077-0.0849 0.164-0.1494 0.262-0.1934 0.098-0.0441 0.192-0.074 0.282-0.0898 0.031-0.0055 0.065-0.0096 0.1-0.0122 0.202-0.0139 0.369 0.0203 0.502 0.1025 0.133 0.0823 0.242 0.1912 0.327 0.3266s0.151 0.2849 0.198 0.4484c0.046 0.1636 0.087 0.3194 0.12 0.4674-0.243 0.0855-0.465 0.146-0.667 0.1813zm-2.395 3.4693-0.23-1.2964-1.126 0.1975c0.026-0.137 0.038-0.2824 0.038-0.4362s-0.016-0.3192-0.048-0.4962c-0.077-0.4374-0.206-0.7942-0.386-1.0704-0.179-0.2763-0.39-0.4881-0.631-0.6355-0.241-0.1473-0.501-0.2378-0.779-0.2713-0.279-0.0335-0.555-0.0262-0.83 0.022-0.194 0.0341-0.378 0.0922-0.549 0.1742-0.172 0.082-0.334 0.1819-0.485 0.2997s-0.292 0.2499-0.424 0.3965-0.255 0.3032-0.368 0.4699l-0.701-3.9516-1.293 0.2267 0.982 5.5396-0.319 0.7484-1.037 0.1819 0.229 1.2964 7.957-1.3952zm-3.416-0.7378-2.408 0.4225c0.114-0.2849 0.247-0.5625 0.4-0.8326 0.153-0.2702 0.319-0.5141 0.5-0.7317 0.18-0.2177 0.368-0.3992 0.564-0.5446 0.197-0.1454 0.396-0.2358 0.597-0.2711 0.146-0.0257 0.292-0.0324 0.437-0.0204 0.146 0.0121 0.28 0.0503 0.403 0.1147 0.122 0.0645 0.228 0.1577 0.318 0.2797 0.09 0.1221 0.152 0.2803 0.186 0.4747 0.024 0.1353 0.022 0.2556-6e-3 0.3607s-0.071 0.1977-0.131 0.2779c-0.059 0.0802-0.129 0.148-0.211 0.2035-0.081 0.0554-0.163 0.1019-0.244 0.1394s-0.158 0.0662-0.232 0.0863c-0.073 0.02-0.131 0.0337-0.173 0.041zm-4.332 2.0964-0.23-1.2963c-0.292 0.0512-0.523 0.0765-0.693 0.0759-0.171-5e-4 -0.305-0.0396-0.403-0.1173-0.098-0.0776-0.171-0.1981-0.22-0.3613-0.048-0.1633-0.097-0.3837-0.147-0.6614l-0.874-4.9304-1.298 0.2277 0.874 4.9304c0.052 0.2915 0.109 0.5562 0.171 0.7941 0.061 0.2379 0.139 0.4471 0.232 0.6276 0.093 0.1806 0.208 0.3321 0.346 0.4546 0.139 0.1225 0.31 0.2133 0.514 0.2723 0.204 0.0591 0.447 0.088 0.73 0.0867s0.616-0.0355 0.998-0.1026zm-6.585 4.0375c0.49-0.086 0.917-0.2359 1.281-0.45 0.363-0.214 0.658-0.4796 0.885-0.7968 0.227-0.3171 0.385-0.6812 0.473-1.0922 0.089-0.4109 0.101-0.8577 0.037-1.3404l-0.582-3.28-1.298 0.2277 0.562 3.1707c0.062 0.3505 0.077 0.6549 0.044 0.913s-0.115 0.4772-0.244 0.6574c-0.129 0.1801-0.309 0.3262-0.54 0.4383s-0.514 0.1974-0.848 0.2559l-0.646 0.1134 0.23 1.2964 0.646-0.1134zm-13.024-0.5987c0.247-0.0433 0.479-0.1253 0.698-0.2459 0.219-0.1207 0.408-0.2863 0.568-0.4969 0.43 0.2646 0.963 0.341 1.6 0.2295 0.243-0.0427 0.473-0.1233 0.69-0.2419 0.218-0.1187 0.406-0.2833 0.566-0.4938 0.436 0.2743 0.977 0.3548 1.623 0.2414 0.24-0.0455 0.47-0.1324 0.691-0.2606s0.409-0.2964 0.566-0.5046 0.27-0.4553 0.339-0.7413c0.069-0.2859 0.073-0.6059 0.01-0.9599-0.02-0.1146-0.053-0.2458-0.097-0.3937-0.044-0.148-0.093-0.2986-0.147-0.452-0.054-0.1533-0.111-0.3053-0.17-0.4561-0.059-0.1507-0.114-0.2876-0.167-0.4109-0.052-0.1232-0.096-0.2264-0.132-0.3095-0.037-0.0831-0.06-0.1362-0.072-0.1593l-1.154 0.6158c0.023 0.0496 0.054 0.1175 0.093 0.2038 0.038 0.0863 0.08 0.1828 0.124 0.2896s0.089 0.2197 0.135 0.3387c0.046 0.1189 0.089 0.2366 0.13 0.353 0.04 0.1164 0.076 0.2273 0.107 0.3328 0.031 0.1054 0.054 0.1963 0.067 0.2727 0.033 0.184 0.031 0.3346-6e-3 0.452-0.036 0.1173-0.087 0.2113-0.154 0.282-0.066 0.0707-0.137 0.1224-0.211 0.1552-0.075 0.0328-0.135 0.0532-0.181 0.0611-0.309 0.0543-0.544 0.0266-0.705-0.0829-0.161-0.1096-0.267-0.3067-0.317-0.5913l-0.262-1.4786-1.293 0.2268 0.262 1.4786c0.032 0.1839 0.029 0.3358-0.011 0.4555s-0.094 0.2141-0.162 0.2834c-0.068 0.0692-0.14 0.1185-0.216 0.1479-0.075 0.0293-0.134 0.0476-0.175 0.0549-0.306 0.0537-0.538 0.0271-0.695-0.0796-0.156-0.1066-0.26-0.3023-0.311-0.5869l-0.262-1.4786-1.298 0.2277 0.266 1.4994c0.033 0.1874 0.03 0.3392-0.011 0.4555-0.04 0.1162-0.095 0.2081-0.163 0.2756-0.069 0.0675-0.141 0.115-0.217 0.1426s-0.134 0.0451-0.176 0.0524l-1.173 0.2057 0.23 1.2964 1.173-0.2057zm-5.156 3.7869c0.361-0.0634 0.683-0.135 0.964-0.2148 0.282-0.0798 0.533-0.1713 0.755-0.2746s0.419-0.2174 0.59-0.3423 0.326-0.2639 0.464-0.4169c0.262-0.2966 0.442-0.6216 0.539-0.975 0.097-0.3533 0.11-0.769 0.04-1.247l0.891-0.1563-0.23-1.2964-0.886 0.1554-0.125-0.708c-0.066-0.3679-0.166-0.7019-0.302-1.002-0.135-0.3001-0.31-0.5496-0.522-0.7485-0.213-0.1989-0.465-0.3399-0.758-0.4228-0.292-0.0829-0.628-0.0911-1.007-0.0247-0.306 0.0536-0.581 0.16-0.825 0.3192-0.244 0.1591-0.452 0.3611-0.624 0.6059-0.058 0.0926-0.118 0.1989-0.18 0.3188-0.061 0.1198-0.111 0.2566-0.15 0.4102-0.039 0.1535-0.063 0.3268-0.072 0.5198-9e-3 0.1931 8e-3 0.4093 0.051 0.6488 0.049 0.2777 0.125 0.5185 0.227 0.7224 0.103 0.2039 0.223 0.3752 0.36 0.5139 0.138 0.1388 0.29 0.249 0.457 0.3307 0.166 0.0817 0.339 0.1417 0.518 0.1801 0.179 0.0385 0.361 0.0557 0.547 0.0518 0.185-0.0039 0.365-0.0211 0.539-0.0516l0.803-0.1408c0.033 0.2662 0.026 0.484-0.021 0.6533s-0.133 0.3257-0.258 0.4693c-0.08 0.0963-0.178 0.1842-0.295 0.2637s-0.256 0.1523-0.418 0.2183-0.35 0.1276-0.564 0.1848-0.46 0.1102-0.738 0.1589l0.23 1.2964zm1.834-4.5411-0.803 0.1408c-0.118 0.0207-0.239 0.0258-0.363 0.0153-0.123-0.0105-0.239-0.0412-0.347-0.0921-0.107-0.051-0.201-0.1249-0.281-0.2218s-0.133-0.2218-0.16-0.3745c-0.069-0.3887-0.033-0.6903 0.108-0.9047 0.141-0.2145 0.36-0.3476 0.655-0.3994 0.035-0.0061 0.081-0.0097 0.138-0.0108s0.118 7e-3 0.184 0.0241 0.136 0.0477 0.21 0.092 0.145 0.1088 0.212 0.1937 0.128 0.1949 0.185 0.3299c0.056 0.1351 0.101 0.3016 0.137 0.4994l0.125 0.7081zm-8.541-1.3259 0.73-1.0405-1.056-0.7383-0.707 1.0473 1.033 0.7315zm-2.184 0.3883 0.725-1.0396-1.056-0.7382-0.701 1.0463 1.032 0.7315zm4.881 3.2992c0.24-0.0421 0.471-0.1257 0.695-0.2507 0.223-0.1251 0.415-0.2894 0.576-0.493s0.277-0.4468 0.349-0.7296c0.072-0.2827 0.076-0.6029 0.013-0.9604-0.021-0.1145-0.052-0.2468-0.095-0.3968-0.043-0.1499-0.091-0.3033-0.146-0.4602-0.055-0.1568-0.111-0.3124-0.169-0.4669s-0.112-0.2952-0.163-0.4223c-6e-3 -0.0132-0.013-0.0282-0.019-0.045l-1.173 0.5386c0.014 0.0404 0.03 0.0823 0.049 0.1256 0.045 0.1137 0.092 0.2334 0.141 0.359 0.05 0.1255 0.096 0.249 0.139 0.3703s0.08 0.2355 0.112 0.3427c0.031 0.1072 0.054 0.199 0.067 0.2754 0.033 0.1839 0.029 0.334-0.011 0.4502-0.041 0.1163-0.095 0.2073-0.164 0.273-0.069 0.0658-0.142 0.1116-0.218 0.1375s-0.135 0.0425-0.177 0.0498l-6.214 1.0898c-0.091 0.0159-0.17 0.0227-0.239 0.0204-0.068-0.0023-0.141-0.0245-0.219-0.0664-0.077-0.0419-0.148-0.1099-0.213-0.2041-0.065-0.0941-0.112-0.2245-0.142-0.3911-0.017-0.0937-0.026-0.2066-0.028-0.3387s1e-3 -0.2694 8e-3 -0.412 0.016-0.282 0.028-0.4183c0.011-0.1362 0.025-0.254 0.039-0.3532l-0.649-0.0847-0.656-0.089c-5e-3 0.033-0.014 0.1189-0.029 0.2575s-0.028 0.3019-0.04 0.49c-0.011 0.1881-0.016 0.3867-0.015 0.5959 1e-3 0.2091 0.017 0.4005 0.048 0.574 0.036 0.2013 0.087 0.3793 0.154 0.534s0.141 0.2911 0.223 0.4092c0.082 0.118 0.168 0.2173 0.26 0.298 0.091 0.0806 0.177 0.1477 0.259 0.2015 0.206 0.1355 0.432 0.2265 0.677 0.2731 0.245 0.0465 0.496 0.0473 0.753 0.0021l6.189-1.0852zm-15.36 2.6935c0.333-0.0585 0.611-0.143 0.834-0.2536 0.222-0.1106 0.402-0.2297 0.539-0.3575 0.136-0.1278 0.238-0.2583 0.304-0.3915 0.066-0.1333 0.111-0.2504 0.136-0.3515 0.019-0.0783 0.032-0.1719 0.039-0.2806 8e-3 -0.1087-1e-3 -0.2324-0.025-0.3713-0.02-0.111-0.054-0.2321-0.102-0.3632-0.049-0.1311-0.115-0.2644-0.2-0.3998-0.096-0.155-0.219-0.3159-0.371-0.4826-0.151-0.1667-0.32-0.3348-0.506-0.5044s-0.382-0.3374-0.589-0.5033-0.413-0.3248-0.619-0.4765c-0.206-0.1518-0.406-0.2947-0.6-0.4289-0.195-0.1342-0.369-0.2539-0.524-0.3592l3.519-2.3509-0.676-1.0518-4.169 2.8676 0.105 1.1949c0.129 0.0632 0.304 0.1613 0.525 0.2944s0.459 0.289 0.714 0.4679c0.256 0.1788 0.516 0.3712 0.78 0.5772s0.506 0.4132 0.726 0.6216 0.405 0.4086 0.555 0.6005c0.151 0.1919 0.239 0.3625 0.266 0.5117 0.013 0.0764-0.01 0.1422-0.07 0.1975s-0.135 0.1024-0.225 0.1414-0.183 0.0697-0.279 0.092c-0.097 0.0222-0.173 0.0383-0.228 0.048l-3.051 0.5349 0.23 1.2965 2.962-0.5195zm-8.775-5.0695 0.687-0.9793-0.97-0.6782-0.686 0.9793 0.969 0.6782zm1.38 1.3255 0.719-1.0387-1.048-0.7287-0.738 1.0527 1.067 0.7147zm-2.241 0.4253 0.727-1.0509-1.043-0.7297-0.728 1.051 1.044 0.7296zm-2.539 5.4532c0.685-0.12 1.202-0.377 1.552-0.771 0.208 0.121 0.441 0.203 0.699 0.245 0.258 0.043 0.544 0.036 0.857-0.018l0.036-7e-3c0.229-0.044 0.448-0.128 0.657-0.255 0.209-0.126 0.389-0.284 0.542-0.476 0.222 0.144 0.463 0.234 0.722 0.271 0.26 0.037 0.553 0.026 0.879-0.031 0.247-0.043 0.482-0.128 0.705-0.255s0.409-0.287 0.557-0.481c0.223 0.143 0.473 0.231 0.751 0.262 0.278 0.032 0.596 0.017 0.954-0.046l0.511-0.09-0.23-1.2961-0.511 0.0896c-0.323 0.0567-0.574 0.0389-0.751-0.0534-0.178-0.0923-0.294-0.2715-0.348-0.5376l-0.273-1.541-1.299 0.2276 0.273 1.5359c0.018 0.1435 0.015 0.2675-0.01 0.372-0.024 0.1045-0.064 0.1929-0.119 0.2653-0.056 0.0723-0.122 0.1286-0.199 0.169-0.077 0.0403-0.157 0.0678-0.241 0.0825-0.305 0.0536-0.538 0.0281-0.696-0.0766-0.158-0.1046-0.263-0.2992-0.313-0.5839l-0.264-1.489-1.293 0.2268 0.268 1.515c0.031 0.1736 0.031 0.316-2e-3 0.4272-0.032 0.1112-0.079 0.2-0.141 0.2663-0.061 0.0663-0.128 0.1146-0.2 0.1451-0.071 0.0305-0.133 0.052-0.185 0.0643-0.292 0.048-0.518 0.02-0.676-0.0851-0.158-0.1046-0.262-0.2975-0.312-0.5787l-0.264-1.489-1.298 0.2277 0.268 1.515c0.022 0.125 0.03 0.2382 0.023 0.3396-7e-3 0.1015-0.04 0.1925-0.1 0.2725-0.059 0.08-0.149 0.149-0.27 0.206-0.12 0.057-0.283 0.103-0.488 0.139l-0.673 0.118 0.23 1.296 0.672-0.118zm-0.557 0.098c0.069-0.012 0.119-0.037 0.15-0.074 0.031-0.038 0.04-0.095 0.026-0.171l-0.157-0.891c-0.011-0.059-0.038-0.103-0.081-0.133s-0.099-0.039-0.168-0.027l-2.1797 0.382c-0.0764 0.014-0.1271 0.041-0.1519 0.083s-0.032 0.093-0.0215 0.152l0.1578 0.89c0.0135 0.076 0.0387 0.127 0.0756 0.153 0.0368 0.026 0.0934 0.032 0.1699 0.018l2.1798-0.382zm70.761 8.237c0.296-0.052 0.561-0.134 0.795-0.247 0.235-0.113 0.436-0.248 0.605-0.407 0.17-0.158 0.306-0.336 0.409-0.533s0.17-0.406 0.203-0.626c0.034-0.232 0.032-0.457-7e-3 -0.675-0.021-0.122-0.053-0.241-0.096-0.359-0.126-0.329-0.322-0.618-0.589-0.869-0.124-0.114-0.253-0.234-0.387-0.361-0.133-0.127-0.27-0.254-0.409-0.382s-0.276-0.253-0.411-0.376c-0.134-0.123-0.262-0.242-0.383-0.357-0.287-0.265-0.57-0.526-0.849-0.785l-0.85 0.906 0.662 0.576c0.318 0.277 0.61 0.533 0.878 0.767 0.267 0.234 0.494 0.451 0.682 0.651 0.188 0.199 0.322 0.367 0.404 0.503 0.081 0.136 0.13 0.251 0.147 0.345 9e-3 0.052 0.011 0.103 6e-3 0.154-0.018 0.143-0.06 0.263-0.127 0.361-0.067 0.097-0.149 0.179-0.247 0.244-0.098 0.066-0.204 0.117-0.32 0.153-0.115 0.036-0.227 0.064-0.334 0.083-0.108 0.019-0.222 0.024-0.342 0.014-0.12-9e-3 -0.237-0.022-0.351-0.038 0.089-0.126 0.167-0.252 0.234-0.379 0.067-0.126 0.12-0.256 0.157-0.39 0.037-0.133 0.06-0.272 0.068-0.417 9e-3 -0.145-2e-3 -0.3-0.031-0.467-0.037-0.205-0.122-0.417-0.256-0.637s-0.308-0.415-0.523-0.587-0.466-0.301-0.752-0.389-0.598-0.102-0.935-0.043c-0.299 0.053-0.569 0.149-0.811 0.29s-0.445 0.314-0.608 0.517c-0.162 0.204-0.277 0.436-0.344 0.694-0.067 0.259-0.076 0.531-0.025 0.815 0.026 0.15 0.064 0.283 0.111 0.402 0.048 0.119 0.107 0.228 0.177 0.329 0.07 0.1 0.149 0.194 0.238 0.28 0.089 0.087 0.188 0.174 0.296 0.262-0.081 0.025-0.156 0.046-0.223 0.061s-0.134 0.029-0.2 0.04c-0.069 0.012-0.141 0.024-0.216 0.036-0.075 0.011-0.162 0.025-0.259 0.042l-0.589 0.104 0.23 1.296 0.589-0.103c0.49-0.086 0.933-0.188 1.33-0.306s0.753-0.256 1.069-0.416c0.042 0.014 0.093 0.03 0.153 0.046s0.119 0.032 0.175 0.047c0.064 0.018 0.13 0.035 0.197 0.051 0.303 0.09 0.593 0.137 0.869 0.141 0.277 3e-3 0.54-0.017 0.79-0.061zm-2.346-1.532c-0.176-0.059-0.33-0.117-0.464-0.174s-0.249-0.12-0.345-0.189c-0.097-0.069-0.174-0.149-0.231-0.241-0.058-0.092-0.098-0.202-0.121-0.331-0.018-0.104-0.011-0.207 0.021-0.309s0.083-0.196 0.154-0.282 0.157-0.159 0.259-0.22c0.103-0.061 0.213-0.102 0.331-0.122 0.08-0.014 0.174-0.013 0.283 4e-3 0.109 0.016 0.214 0.053 0.318 0.11 0.103 0.057 0.196 0.136 0.278 0.236s0.136 0.223 0.162 0.369c0.022 0.121 0.019 0.236-8e-3 0.345-0.028 0.108-0.072 0.21-0.132 0.305-0.06 0.094-0.135 0.184-0.224 0.267-0.089 0.084-0.183 0.161-0.281 0.232zm-5.342 2.832c0.083-0.015 0.182-0.037 0.294-0.068 0.113-0.03 0.229-0.078 0.346-0.141 0.118-0.064 0.232-0.149 0.342-0.256s0.204-0.242 0.283-0.407c0.19 0.082 0.395 0.14 0.614 0.175 0.219 0.034 0.452 0.03 0.699-0.013l0.146-0.026-0.23-1.296-0.146 0.026c-0.034 6e-3 -0.1 0.011-0.196 0.015-0.096 5e-3 -0.197-0.011-0.304-0.046-0.106-0.035-0.207-0.1-0.303-0.196s-0.161-0.241-0.196-0.436c-0.063-0.314-0.166-0.608-0.309-0.879-0.143-0.272-0.324-0.502-0.544-0.689-0.219-0.187-0.474-0.321-0.762-0.403-0.289-0.082-0.612-0.091-0.97-0.028-0.365 0.064-0.659 0.187-0.88 0.371-0.222 0.184-0.395 0.4-0.518 0.647-0.122 0.247-0.209 0.511-0.259 0.794s-0.088 0.555-0.113 0.817c-0.017 0.15-0.035 0.286-0.054 0.409-0.02 0.124-0.045 0.23-0.078 0.32-0.032 0.09-0.073 0.162-0.123 0.217-0.049 0.056-0.112 0.09-0.188 0.103l-0.652 0.115 0.24 1.294 0.641-0.112c0.24-0.042 0.443-0.115 0.61-0.217 0.166-0.103 0.313-0.251 0.44-0.445 0.225 0.075 0.432 0.142 0.621 0.2 0.19 0.058 0.371 0.103 0.543 0.135 0.172 0.033 0.34 0.052 0.502 0.057 0.162 6e-3 0.33-7e-3 0.504-0.037zm-0.167-1.243c-0.093 0.016-0.205 0.016-0.336 0-0.13-0.017-0.27-0.042-0.419-0.077-0.15-0.035-0.303-0.077-0.461-0.126-0.157-0.049-0.307-0.099-0.448-0.15 0.035-0.163 0.064-0.343 0.085-0.538s0.056-0.379 0.106-0.553c0.05-0.173 0.123-0.323 0.218-0.451 0.096-0.128 0.234-0.208 0.415-0.239 0.208-0.037 0.39-0.019 0.544 0.052s0.284 0.167 0.389 0.286c0.106 0.119 0.187 0.246 0.245 0.381s0.095 0.247 0.111 0.338c0.042 0.236 0.048 0.423 0.017 0.563s-0.076 0.247-0.134 0.321c-0.059 0.075-0.121 0.124-0.186 0.148-0.066 0.025-0.114 0.039-0.146 0.045zm-3.496 1.627-0.23-1.296-0.146 0.026c-0.114 0.02-0.251 0.03-0.411 0.031-0.159 2e-3 -0.319-0.022-0.48-0.071s-0.316-0.131-0.465-0.246c-0.15-0.115-0.272-0.28-0.368-0.496l-1.603-3.52-1.219 0.52 0.214 0.478c-0.311 0.169-0.607 0.356-0.887 0.561-0.281 0.205-0.521 0.434-0.719 0.689-0.199 0.255-0.344 0.538-0.436 0.847-0.092 0.31-0.105 0.652-0.039 1.027 0.058 0.323 0.164 0.603 0.319 0.84 0.155 0.238 0.342 0.43 0.561 0.576 0.22 0.146 0.462 0.245 0.728 0.299 0.266 0.053 0.538 0.056 0.816 7e-3 0.149-0.026 0.303-0.07 0.46-0.132 0.158-0.061 0.307-0.138 0.448-0.231 0.142-0.093 0.269-0.2 0.382-0.322 0.112-0.122 0.199-0.254 0.26-0.397 0.143 0.2 0.311 0.366 0.504 0.496 0.194 0.131 0.406 0.229 0.636 0.294s0.475 0.101 0.734 0.108c0.259 6e-3 0.524-0.014 0.795-0.062l0.146-0.026zm-4.634-1.034c-0.073 0.013-0.148 0.016-0.225 8e-3 -0.119-8e-3 -0.231-0.037-0.335-0.087-0.104-0.049-0.193-0.119-0.268-0.21-0.076-0.091-0.125-0.2-0.147-0.329-0.059-0.329 0.035-0.631 0.282-0.905 0.248-0.275 0.633-0.549 1.158-0.824 0.074 0.152 0.142 0.289 0.205 0.41 0.062 0.122 0.116 0.236 0.16 0.343 0.044 0.106 0.074 0.19 0.09 0.249 0.016 0.06 0.026 0.102 0.03 0.127 0.014 0.076 0.018 0.152 0.014 0.228-4e-3 0.262-0.082 0.466-0.236 0.613-0.153 0.147-0.356 0.262-0.61 0.346-0.041 0.014-0.08 0.025-0.118 0.031zm-11.939-3.478 3.979-2.636-0.375-0.535-3.667 2.42 0.063 0.751zm3.148 6.867c0.333-0.059 0.611-0.143 0.834-0.254 0.222-0.11 0.402-0.23 0.538-0.357 0.137-0.128 0.239-0.259 0.305-0.392s0.111-0.25 0.136-0.351c0.019-0.079 0.032-0.172 0.039-0.281 8e-3 -0.109-1e-3 -0.232-0.025-0.371-0.02-0.111-0.054-0.232-0.102-0.363-0.049-0.132-0.115-0.265-0.2-0.4-0.096-0.155-0.219-0.316-0.371-0.483-0.151-0.167-0.32-0.335-0.506-0.504-0.186-0.17-0.382-0.338-0.589-0.504-0.207-0.165-0.413-0.324-0.619-0.476-0.207-0.152-0.407-0.295-0.601-0.429s-0.368-0.254-0.523-0.359l3.518-2.351-0.675-1.052-4.169 2.868 0.104 1.195c0.13 0.063 0.305 0.161 0.526 0.294 0.22 0.133 0.459 0.289 0.714 0.468 0.256 0.179 0.516 0.371 0.78 0.577s0.506 0.413 0.726 0.622c0.219 0.208 0.405 0.408 0.555 0.6 0.151 0.192 0.239 0.363 0.266 0.512 0.013 0.076-0.01 0.142-0.07 0.197-0.06 0.056-0.135 0.103-0.225 0.142s-0.183 0.07-0.28 0.092c-0.096 0.022-0.172 0.038-0.228 0.048l-3.05 0.535 0.23 1.296 2.962-0.519zm-6.945 4.1c0.362-0.063 0.683-0.135 0.965-0.214 0.281-0.08 0.533-0.172 0.755-0.275s0.418-0.218 0.59-0.342c0.171-0.125 0.325-0.264 0.463-0.417 0.263-0.297 0.443-0.622 0.54-0.975 0.096-0.354 0.11-0.769 0.039-1.247l0.892-0.157-0.23-1.296-0.886 0.155-0.126-0.708c-0.065-0.368-0.166-0.702-0.301-1.002-0.136-0.3-0.31-0.549-0.523-0.748-0.212-0.199-0.465-0.34-0.757-0.423-0.293-0.083-0.628-0.091-1.007-0.025-0.306 0.054-0.581 0.16-0.825 0.32-0.245 0.159-0.452 0.361-0.624 0.606-0.059 0.092-0.119 0.198-0.18 0.318s-0.111 0.257-0.151 0.41c-0.039 0.154-0.063 0.327-0.071 0.52-9e-3 0.193 8e-3 0.41 0.05 0.649 0.049 0.278 0.125 0.519 0.228 0.722 0.102 0.204 0.222 0.376 0.36 0.514 0.137 0.139 0.289 0.249 0.456 0.331s0.34 0.142 0.519 0.18c0.178 0.039 0.361 0.056 0.546 0.052 0.186-4e-3 0.366-0.021 0.54-0.052l0.802-0.14c0.033 0.266 0.026 0.484-0.021 0.653s-0.133 0.326-0.258 0.469c-0.08 0.097-0.178 0.184-0.295 0.264-0.116 0.079-0.256 0.152-0.418 0.218s-0.35 0.128-0.564 0.185-0.46 0.11-0.738 0.159l0.23 1.296zm1.835-4.541-0.803 0.141c-0.118 0.021-0.239 0.026-0.363 0.015-0.124-0.01-0.24-0.041-0.347-0.092-0.108-0.051-0.201-0.125-0.281-0.222s-0.134-0.221-0.161-0.374c-0.069-0.389-0.033-0.69 0.109-0.905 0.141-0.214 0.359-0.347 0.655-0.399 0.034-6e-3 0.08-0.01 0.137-0.011 0.058-1e-3 0.119 7e-3 0.185 0.024 0.065 0.017 0.135 0.048 0.21 0.092 0.074 0.044 0.144 0.109 0.211 0.194s0.129 0.195 0.185 0.33 0.102 0.301 0.137 0.499l0.126 0.708zm-8.597-3.914 0.687-0.979-0.97-0.679-0.687 0.98 0.97 0.678zm1.38 1.325 0.719-1.038-1.048-0.729-0.738 1.053 1.067 0.714zm-2.242 0.426 0.728-1.051-1.043-0.73-0.728 1.051 1.043 0.73zm-2.272 5.557c0.247-0.043 0.479-0.125 0.698-0.246s0.408-0.286 0.568-0.497c0.43 0.265 0.964 0.341 1.6 0.23 0.243-0.043 0.473-0.124 0.691-0.242 0.217-0.119 0.405-0.283 0.565-0.494 0.436 0.274 0.977 0.355 1.624 0.241 0.239-0.045 0.469-0.132 0.69-0.26s0.41-0.297 0.566-0.505c0.157-0.208 0.27-0.455 0.339-0.741 0.07-0.286 0.073-0.606 0.01-0.96-0.02-0.115-0.052-0.246-0.097-0.394-0.044-0.148-0.093-0.298-0.147-0.452-0.054-0.153-0.11-0.305-0.169-0.456-0.059-0.15-0.115-0.287-0.167-0.411-0.053-0.123-0.097-0.226-0.133-0.309s-0.06-0.136-0.071-0.159l-1.155 0.615c0.024 0.05 0.054 0.118 0.093 0.204s0.08 0.183 0.124 0.29 0.089 0.219 0.135 0.338 0.09 0.237 0.13 0.353c0.04 0.117 0.076 0.228 0.107 0.333 0.032 0.106 0.054 0.197 0.068 0.273 0.032 0.184 0.03 0.335-6e-3 0.452-0.037 0.117-0.088 0.211-0.155 0.282-0.066 0.071-0.137 0.122-0.211 0.155-0.075 0.033-0.135 0.053-0.18 0.061-0.31 0.055-0.545 0.027-0.706-0.083-0.161-0.109-0.267-0.306-0.317-0.591l-0.262-1.479-1.293 0.227 0.262 1.479c0.033 0.184 0.029 0.336-0.011 0.455-0.039 0.12-0.093 0.214-0.162 0.284-0.068 0.069-0.14 0.118-0.216 0.148-0.075 0.029-0.134 0.047-0.175 0.055-0.306 0.053-0.538 0.027-0.694-0.08-0.157-0.107-0.261-0.302-0.311-0.587l-0.263-1.479-1.298 0.228 0.266 1.5c0.033 0.187 0.03 0.339-0.011 0.455-0.04 0.116-0.094 0.208-0.163 0.276-0.069 0.067-0.141 0.115-0.217 0.142-0.075 0.028-0.134 0.045-0.176 0.053l-1.173 0.205 0.23 1.297 1.173-0.206zm-6.986-5.383 0.686-0.979-0.969-0.679-0.687 0.98 0.97 0.678zm1.38 1.325 0.719-1.038-1.049-0.729-0.738 1.053 1.068 0.714zm-2.242 0.426 0.728-1.051-1.044-0.73-0.727 1.051 1.043 0.73zm-2.538 5.453c0.685-0.12 1.202-0.377 1.551-0.771 0.208 0.121 0.441 0.203 0.7 0.245 0.258 0.043 0.544 0.036 0.856-0.019l0.037-6e-3c0.229-0.044 0.447-0.129 0.656-0.255s0.39-0.284 0.542-0.476c0.223 0.144 0.464 0.234 0.723 0.271s0.552 0.026 0.879-0.031c0.246-0.043 0.481-0.128 0.704-0.255s0.409-0.287 0.557-0.482c0.223 0.144 0.473 0.232 0.751 0.263 0.278 0.032 0.596 0.017 0.954-0.046l0.511-0.09-0.23-1.296-0.51 0.089c-0.324 0.057-0.574 0.039-0.752-0.053-0.177-0.092-0.293-0.272-0.348-0.538l-0.273-1.541-1.298 0.228 0.272 1.536c0.018 0.143 0.015 0.267-9e-3 0.372-0.025 0.104-0.065 0.193-0.12 0.265s-0.121 0.129-0.198 0.169c-0.077 0.041-0.158 0.068-0.241 0.083-0.306 0.053-0.538 0.028-0.696-0.077-0.159-0.105-0.263-0.299-0.314-0.584l-0.264-1.489-1.293 0.227 0.269 1.515c0.031 0.174 0.03 0.316-2e-3 0.427-0.033 0.111-0.08 0.2-0.141 0.266-0.062 0.067-0.129 0.115-0.2 0.146-0.072 0.03-0.134 0.052-0.185 0.064-0.293 0.048-0.518 0.019-0.676-0.085-0.159-0.105-0.263-0.298-0.313-0.579l-0.264-1.489-1.298 0.228 0.269 1.515c0.022 0.125 0.029 0.238 0.022 0.339-7e-3 0.102-0.04 0.193-0.099 0.273-0.06 0.08-0.15 0.149-0.27 0.206-0.121 0.057-0.284 0.103-0.489 0.139l-0.673 0.118 0.23 1.296 0.673-0.118zm-0.464 0.082-0.23-1.297c-0.292 0.052-0.523 0.077-0.693 0.076-0.171 0-0.305-0.039-0.403-0.117s-0.171-0.198-0.22-0.361c-0.049-0.164-0.097-0.384-0.147-0.662l-0.874-4.93-1.298 0.228 0.874 4.93c0.052 0.291 0.109 0.556 0.17 0.794 0.062 0.238 0.14 0.447 0.233 0.628 0.093 0.18 0.208 0.332 0.346 0.454 0.139 0.123 0.31 0.214 0.514 0.273s0.447 0.088 0.73 0.086c0.283-1e-3 0.616-0.035 0.998-0.102zm-7.887-1.763 0.781-1.114-1.13-0.79-0.77 1.113 1.119 0.791zm1.251 5.815c1.022-0.18 1.746-0.555 2.174-1.128 0.427-0.572 0.554-1.343 0.383-2.311l-0.621-3.504-1.299 0.228 0.622 3.504c0.042 0.239 0.057 0.462 0.045 0.668-0.011 0.206-0.069 0.391-0.173 0.554s-0.264 0.303-0.482 0.42c-0.217 0.117-0.51 0.208-0.879 0.272l-1.058 0.186c-0.331 0.058-0.645 0.037-0.944-0.063s-0.554-0.258-0.764-0.475c-0.136-0.155-0.252-0.336-0.349-0.543-0.098-0.206-0.168-0.428-0.209-0.664-0.032-0.18-0.052-0.355-0.058-0.524-7e-3 -0.169 0-0.347 0.02-0.535 0.021-0.188 0.055-0.39 0.103-0.606 0.047-0.216 0.111-0.461 0.191-0.736l-1.271-0.352c-0.091 0.32-0.163 0.612-0.219 0.876-0.055 0.264-0.093 0.514-0.114 0.75s-0.026 0.464-0.016 0.685c0.011 0.22 0.036 0.444 0.077 0.673 0.064 0.361 0.17 0.7 0.319 1.015 0.149 0.316 0.331 0.594 0.546 0.836 0.182 0.197 0.385 0.367 0.61 0.51 0.224 0.143 0.461 0.256 0.71 0.337 0.249 0.082 0.508 0.133 0.777 0.154s0.542 7e-3 0.821-0.042l1.058-0.185zm63.103 6.643c0.087-0.016 0.19-0.04 0.31-0.073 0.119-0.034 0.24-0.085 0.362-0.155s0.24-0.164 0.353-0.282c0.114-0.119 0.207-0.27 0.28-0.455 0.073-0.184 0.118-0.409 0.136-0.673s-5e-3 -0.577-0.069-0.938c-0.058-0.326-0.158-0.631-0.3-0.914-0.141-0.283-0.322-0.522-0.541-0.718s-0.477-0.338-0.774-0.425c-0.297-0.088-0.628-0.1-0.993-0.036s-0.658 0.188-0.88 0.372-0.394 0.399-0.517 0.646-0.21 0.512-0.26 0.795c-0.05 0.282-0.088 0.555-0.113 0.817-0.017 0.15-0.034 0.286-0.054 0.409-0.019 0.124-0.045 0.23-0.078 0.32-0.032 0.09-0.073 0.162-0.122 0.217-0.05 0.056-0.113 0.09-0.189 0.103l-0.652 0.115 0.241 1.294 0.641-0.112c0.24-0.042 0.443-0.115 0.609-0.217 0.167-0.103 0.313-0.251 0.44-0.445 0.225 0.075 0.432 0.141 0.621 0.2 0.19 0.058 0.371 0.103 0.543 0.135 0.173 0.033 0.34 0.052 0.502 0.057 0.163 6e-3 0.331-7e-3 0.504-0.037zm-0.166-1.243c-0.094 0.016-0.206 0.016-0.336 0-0.13-0.017-0.27-0.043-0.42-0.077-0.149-0.035-0.303-0.077-0.46-0.126-0.158-0.049-0.307-0.099-0.449-0.15 0.036-0.163 0.064-0.343 0.085-0.538s0.056-0.379 0.106-0.553c0.05-0.173 0.123-0.324 0.218-0.451 0.096-0.128 0.234-0.208 0.415-0.239 0.209-0.037 0.39-0.02 0.544 0.052 0.154 0.071 0.284 0.166 0.39 0.286 0.105 0.119 0.187 0.246 0.245 0.381s0.095 0.247 0.111 0.337c0.041 0.236 0.047 0.424 0.016 0.564-0.031 0.139-0.075 0.247-0.134 0.321-0.058 0.075-0.12 0.124-0.186 0.148s-0.114 0.039-0.145 0.045zm-8.517-0.616 0.78-1.114-1.129-0.79-0.77 1.112 1.119 0.792zm1.252 5.792c1.022-0.179 1.747-0.555 2.174-1.127s0.555-1.343 0.383-2.311l-7e-3 -0.042c0.126 0.025 0.26 0.037 0.401 0.037 0.142 0 0.279-0.011 0.411-0.034l0.417-0.074-0.23-1.296-0.417 0.073c-0.229 0.04-0.426 0.017-0.59-0.071-0.165-0.087-0.271-0.245-0.318-0.473l-0.288-1.624-1.298 0.228 0.621 3.503c0.042 0.24 0.058 0.463 0.046 0.669s-0.07 0.39-0.173 0.554c-0.104 0.163-0.265 0.303-0.482 0.42-0.218 0.116-0.511 0.207-0.88 0.272l-1.058 0.185c-0.33 0.058-0.645 0.037-0.944-0.062-0.299-0.1-0.554-0.258-0.764-0.475-0.135-0.156-0.251-0.337-0.349-0.543-0.098-0.207-0.167-0.428-0.209-0.664-0.032-0.181-0.051-0.355-0.058-0.524s0-0.347 0.021-0.535c0.02-0.188 0.054-0.39 0.102-0.606s0.112-0.461 0.192-0.737l-1.272-0.351c-0.09 0.32-0.163 0.612-0.218 0.876-0.056 0.263-0.094 0.513-0.115 0.75-0.021 0.236-0.026 0.464-0.015 0.684 0.01 0.22 0.035 0.445 0.076 0.674 0.064 0.361 0.171 0.699 0.32 1.015 0.149 0.315 0.331 0.594 0.546 0.836 0.182 0.197 0.385 0.367 0.609 0.51s0.461 0.256 0.71 0.337c0.249 0.082 0.509 0.133 0.777 0.154 0.269 0.021 0.543 7e-3 0.821-0.042l1.058-0.186zm-11.823-7.68 0.729-1.041-1.055-0.738-0.707 1.047 1.033 0.732zm-2.184 0.388 0.725-1.04-1.056-0.738-0.702 1.046 1.033 0.732zm1.712 6.56c0.375-0.066 0.727-0.164 1.055-0.295s0.609-0.311 0.842-0.539c0.234-0.229 0.406-0.515 0.517-0.859 0.112-0.343 0.138-0.76 0.08-1.251l-0.048-0.389c-0.046-0.239-0.105-0.475-0.176-0.707-0.072-0.233-0.159-0.453-0.262-0.66s-0.225-0.396-0.364-0.567c-0.14-0.171-0.301-0.313-0.485-0.428-0.183-0.114-0.389-0.196-0.619-0.245-0.229-0.05-0.483-0.055-0.763-0.017l-0.104 0.018c-0.275 0.049-0.519 0.14-0.731 0.274-0.245 0.157-0.447 0.349-0.605 0.575-0.159 0.227-0.269 0.479-0.331 0.756-0.062 0.278-0.067 0.562-0.016 0.854 0.066 0.368 0.19 0.672 0.374 0.911 0.184 0.24 0.419 0.416 0.704 0.529s0.565 0.164 0.839 0.154c0.274-0.011 0.505-0.033 0.693-0.066 0.222-0.039 0.457-0.098 0.705-0.177-0.016 0.071-0.05 0.144-0.101 0.219s-0.134 0.15-0.248 0.223c-0.114 0.074-0.267 0.145-0.46 0.213-0.192 0.067-0.434 0.127-0.726 0.178l-2.127 0.373 0.23 1.296 2.127-0.373zm0.477-3.132c-0.279 0.048-0.517 0.049-0.715 1e-3 -0.343-0.075-0.542-0.264-0.595-0.566-0.024-0.136-0.018-0.259 0.017-0.371 0.036-0.112 0.092-0.21 0.168-0.295 0.077-0.085 0.164-0.15 0.262-0.194s0.192-0.074 0.282-0.09c0.032-5e-3 0.065-9e-3 0.1-0.012 0.202-0.014 0.369 0.021 0.502 0.103s0.242 0.191 0.327 0.326c0.085 0.136 0.151 0.285 0.198 0.449 0.047 0.163 0.087 0.319 0.12 0.467-0.243 0.086-0.465 0.146-0.666 0.182zm-2.422 3.473-0.23-1.296-0.125 0.022c-0.255 0.016-0.466-0.047-0.633-0.19-0.167-0.142-0.271-0.328-0.311-0.557l-0.944-5.326-1.294 0.227 0.945 5.326c0.016 0.093 0.024 0.194 0.024 0.301-1e-3 0.108-0.038 0.213-0.111 0.315s-0.197 0.198-0.371 0.288-0.428 0.164-0.762 0.222l0.23 1.296c0.261-0.045 0.494-0.097 0.698-0.154 0.205-0.058 0.386-0.124 0.543-0.2s0.29-0.164 0.399-0.263c0.11-0.1 0.2-0.213 0.271-0.34 0.127 0.092 0.247 0.167 0.36 0.226 0.112 0.059 0.227 0.103 0.343 0.131s0.241 0.041 0.375 0.039 0.288-0.017 0.463-0.044l0.13-0.023zm-6.757 1.185c0.341-0.059 0.637-0.151 0.889-0.274 0.253-0.123 0.462-0.283 0.628-0.48 0.194 0.127 0.42 0.209 0.678 0.246 0.257 0.037 0.533 0.03 0.829-0.022l0.328-0.058-0.229-1.296-0.329 0.058c-0.031 5e-3 -0.091 0.011-0.18 0.018-0.088 6e-3 -0.18-4e-3 -0.277-0.032-0.096-0.028-0.187-0.08-0.272-0.156-0.085-0.077-0.142-0.193-0.169-0.349l-0.293-1.651-1.293 0.227 0.299 1.687c0.012 0.069 0.015 0.142 9e-3 0.218-6e-3 0.077-0.036 0.15-0.09 0.22-0.054 0.071-0.14 0.137-0.26 0.199s-0.286 0.112-0.498 0.149l-0.923 0.162 0.23 1.296 0.923-0.162zm1.638 2.628 0.781-1.114-1.13-0.79-0.77 1.112 1.119 0.792zm-7.852 1.924c-0.139-0.78-0.279-1.562-0.421-2.344s-0.283-1.565-0.422-2.35c0.09 0.024 0.175 0.047 0.254 0.071 0.08 0.024 0.158 0.047 0.236 0.071s0.157 0.049 0.239 0.074c0.081 0.025 0.17 0.052 0.265 0.082 0.254 0.081 0.507 0.16 0.759 0.238 0.252 0.077 0.492 0.142 0.718 0.196 0.226 0.053 0.437 0.091 0.633 0.114s0.367 0.022 0.513-4e-3c0.076-0.013 0.164-0.035 0.262-0.065 0.099-0.029 0.202-0.073 0.308-0.129 0.107-0.056 0.21-0.129 0.311-0.218s0.191-0.202 0.271-0.337c0.173 0.13 0.375 0.21 0.604 0.24 0.229 0.029 0.502 0.017 0.818-0.039l0.146-0.026-0.229-1.296-0.146 0.026c-0.049 8e-3 -0.121 0.01-0.215 5e-3s-0.19-0.026-0.29-0.062-0.192-0.093-0.278-0.171c-0.085-0.078-0.144-0.188-0.176-0.329-4e-3 -0.039-9e-3 -0.08-0.017-0.123l-0.023-0.133c-0.058-0.326-0.16-0.629-0.306-0.907-0.146-0.279-0.33-0.513-0.552-0.703s-0.479-0.327-0.769-0.41c-0.291-0.083-0.612-0.094-0.963-0.033l-0.057 0.01c-0.337 0.059-0.612 0.17-0.823 0.333-0.224 0.171-0.398 0.381-0.523 0.628s-0.21 0.521-0.258 0.821c-0.047 0.3-0.073 0.606-0.079 0.918l-0.919-0.273-1.089 0.953 0.961 5.393 1.257-0.221zm2.545-5.143c-0.077 0.013-0.174 0.014-0.293 0-0.119-0.013-0.248-0.036-0.389-0.068-0.14-0.033-0.287-0.072-0.442-0.116s-0.307-0.091-0.455-0.14c-5e-3 -0.268 4e-3 -0.497 0.026-0.687s0.053-0.349 0.093-0.478c0.04-0.128 0.087-0.232 0.141-0.312 0.054-0.079 0.112-0.141 0.174-0.186s0.125-0.076 0.19-0.095c0.065-0.018 0.128-0.033 0.191-0.044 0.139-0.024 0.263-0.022 0.372 7e-3s0.207 0.074 0.293 0.134c0.085 0.06 0.159 0.131 0.22 0.211 0.061 0.081 0.112 0.161 0.153 0.242 0.041 0.08 0.072 0.154 0.093 0.222s0.034 0.118 0.04 0.149c0.049 0.278 0.061 0.494 0.037 0.648-0.025 0.155-0.065 0.269-0.122 0.344-0.057 0.074-0.117 0.12-0.18 0.136-0.064 0.017-0.111 0.028-0.142 0.033zm-11.764 6.18c0.49-0.086 0.917-0.236 1.281-0.45 0.363-0.214 0.658-0.479 0.885-0.796 0.227-0.318 0.385-0.682 0.473-1.093 0.089-0.411 0.101-0.857 0.037-1.34l-0.582-3.28-1.298 0.228 0.562 3.17c0.062 0.351 0.077 0.655 0.044 0.913s-0.115 0.478-0.244 0.658-0.31 0.326-0.541 0.438-0.513 0.197-0.847 0.256l-0.646 0.113 0.23 1.297 0.646-0.114zm-2.107-2.513-1.331-7.507-1.298 0.227 1.331 7.508 1.298-0.228zm-7.149 1.173-0.295-1.666-1.714 0.3 0.295 1.667 1.714-0.301zm-3.825 0.671-0.296-1.667-1.714 0.301 0.296 1.667 1.714-0.301zm7.645-1.341-0.296-1.666-1.713 0.3 0.295 1.667 1.714-0.301z" fill="#FF6200"/>
<path d="m98.018 102.31c0.0794-0.014 0.1436-0.026 0.1926-0.036 0.1306-0.026 0.3699-0.081 0.7178-0.165 0.3479-0.083 0.6466-0.155 0.909-0.233l-0.1571-0.838c-0.3708 0.084-0.6793 0.149-0.9384 0.214s-0.49 0.119-0.6927 0.161-0.3308 0.066-0.3844 0.072c-0.0383 4e-3 -0.1213 0.017-0.2491 0.039l-0.1747 0.03c-0.229 0.041-0.5101 0.087-0.8435 0.139-0.3333 0.052-0.7462 0.101-1.2387 0.149l0.1421 0.802c0.3306-0.052 0.6921-0.091 1.0847-0.118 0.3925-0.026 0.7621-0.069 1.1089-0.126 0.13-0.022 0.2448-0.041 0.3445-0.058l0.179-0.032zm-2.6701 0.325-0.1555-0.877c-0.1355 0.037-0.2982 0.03-0.488-0.021s-0.3228-0.119-0.399-0.203c-0.0762-0.083-0.1493-0.195-0.2193-0.336-0.07-0.14-0.1233-0.304-0.1599-0.492s-0.0997-0.344-0.1894-0.467c-0.0897-0.124-0.213-0.164-0.3699-0.12-0.1568 0.043-0.2638 0.132-0.3209 0.265s-0.097 0.299-0.1199 0.498c-0.023 0.198-0.0507 0.388-0.0832 0.569-0.0325 0.18-0.1425 0.37-0.3301 0.568s-0.4208 0.312-0.6996 0.341l0.1539 0.868c0.4481-0.13 0.7453-0.247 0.8915-0.351 0.1463-0.103 0.278-0.225 0.3951-0.366 0.1171-0.14 0.1976-0.287 0.2414-0.441 0.0438-0.153 0.113-0.136 0.2076 0.052 0.0945 0.187 0.2642 0.334 0.509 0.44s0.6235 0.131 1.1362 0.073zm-3.6474 3.733c0.0313-6e-3 0.0652-0.015 0.1017-0.028 0.0364-0.013 0.0749-0.033 0.1154-0.059l0.1001-0.11c0.1978-0.208 0.3809-0.352 0.5494-0.432 0.2006-0.106 0.4128-0.184 0.6365-0.233s0.4383-0.095 0.6438-0.137c0.3686-0.143 0.5383-0.296 0.5093-0.459-0.02-0.113-0.1793-0.192-0.4777-0.237l-0.0928-0.014c-0.0657-6e-3 -0.1391-8e-3 -0.2203-4e-3 -0.1217 5e-3 -0.2577 0.02-0.408 0.047-0.6637 0.116-1.2226 0.386-1.6769 0.809-0.2049 0.192-0.2935 0.366-0.2656 0.523 0.0379 0.214 0.1996 0.325 0.4851 0.334zm-4.1301-1.941c-0.3614 0.692-0.1274 0.865 0.702 0.519 0.4215-0.171 0.773-0.538 1.0543-1.099 0.3318-0.532 0.5761-1.083 0.7329-1.656-0.0191 0.257 0.1284 0.524 0.4425 0.803s0.8437 0.353 1.5887 0.222l-0.1505-0.849c-0.5205 0.014-0.878-0.1-1.0725-0.342-0.1945-0.241-0.3117-0.511-0.3516-0.808-0.0398-0.298-0.0615-0.511-0.065-0.64-0.1092-0.325-0.2699-0.485-0.4821-0.48-0.2121 5e-3 -0.386 0.171-0.5214 0.5l-0.0551 0.126c-0.2645 0.948-0.493 1.652-0.6855 2.114s-0.5714 0.992-1.1367 1.59zm-6.915 3.216c1.0827-0.702 1.7766-1.276 2.0817-1.721 0.3051-0.446 0.5099-0.857 0.6145-1.231 0.1046-0.375 0.1994-0.742 0.2843-1.101 0.0838-0.364 0.1004-0.662 0.0497-0.893-0.0506-0.231-0.1221-0.462-0.2146-0.692-0.0924-0.23-0.252-0.384-0.4787-0.461-0.2266-0.077-0.4359-0.092-0.6278-0.045-0.1918 0.046-0.3295 0.126-0.4129 0.237-0.0835 0.112-0.1673 0.286-0.2515 0.521s-0.1631 0.546-0.2367 0.931c-0.0737 0.386 0.2536 0.648 0.9817 0.786-0.1627 0.794-0.4022 1.327-0.7186 1.6-0.3164 0.272-0.7843 0.719-1.4037 1.34-0.5792 0.665-0.4683 0.909 0.3326 0.729zm-6.5257-1.306c1.1755-0.252 1.8406-1.088 1.9954-2.509 0.0341-0.609-0.1163-1.02-0.4511-1.234-0.5276-0.063-0.7291 0.203-0.6044 0.797 0.2547 1.291-0.1082 1.993-1.0887 2.107l0.1488 0.839zm2.0447 2.821c0.0414-0.039 0.0712-0.09 0.0893-0.151 0.0181-0.062 0.0183-0.115 6e-4 -0.161-0.0178-0.045-0.0451-0.081-0.082-0.107-0.0368-0.026-0.0796-0.067-0.1283-0.123-0.0414-0.052-0.0541-0.114-0.0382-0.188s0.0327-0.144 0.0503-0.208c0.0175-0.065 0.0289-0.129 0.0339-0.191 0.0051-0.063-0.0073-0.124-0.0373-0.183-0.0299-0.06-0.0688-0.107-0.1168-0.14-0.0479-0.034-0.1146-0.064-0.2002-0.092-0.0855-0.027-0.1767-0.032-0.2738-0.015-0.097 0.017-0.1866 0.049-0.2687 0.096-0.082 0.047-0.1472 0.107-0.1956 0.18-0.0483 0.073-0.0891 0.162-0.1225 0.265s-0.0461 0.204-0.0382 0.303 0.0237 0.189 0.0476 0.269 0.0721 0.161 0.1446 0.242 0.1474 0.139 0.2246 0.175c0.0773 0.035 0.1777 0.064 0.3013 0.088 0.1236 0.023 0.2458 0.03 0.3664 0.018 0.1206-0.011 0.2016-0.037 0.243-0.077zm-5.7584 0.864c-0.5802 0.77-0.4172 0.997 0.489 0.683 1.2386-0.879 1.9551-1.625 2.1496-2.239 0.1945-0.615 0.3429-1.116 0.4453-1.503 0.1024-0.388 0.3322-0.593 0.6895-0.617l-0.1438-0.811c-0.2707 2e-3 -0.51 0.036-0.7179 0.101-0.2079 0.066-0.3755 0.194-0.5031 0.385-0.2183 0.298-0.3974 0.726-0.5371 1.286-0.1396 0.559-0.3719 1.015-0.6969 1.367-0.3249 0.352-0.7164 0.801-1.1746 1.348zm-1.92-2.746 0.3429-0.196c0.4388-0.401 0.7601-1.01 0.9639-1.827s0.1442-2.264-0.1788-4.34l-0.0518-0.293c-0.0803-0.452-0.3508-0.6675-0.8116-0.645l-0.1127 0.0198-0.1302 0.1392c0.1541 1.27 0.2484 2.148 0.2831 2.635 0.0744 0.966 0.0627 1.756-0.0351 2.369-0.058 0.62-0.2324 1.257-0.5231 1.91l0.0184 0.104 0.0288 0.054 0.2062 0.07zm-4.0614 0.523c0.3978 0.096 0.8257 0.051 1.2837-0.133 0.9978-0.525 1.4668-1.139 1.4068-1.841-0.1525-0.933-0.5189-1.525-1.0993-1.777s-0.9724-0.405-1.1758-0.46c-0.2694-0.063-0.4795 8e-3 -0.6304 0.213-0.1509 0.204-0.0589 0.469 0.2761 0.793-0.6396 1.162-0.9091 1.963-0.8086 2.402 0.1005 0.44 0.3496 0.707 0.7475 0.803zm0.6029-0.859c-0.288 0.05-0.4513-0.015-0.4899-0.197-0.0334-0.188 0.0543-0.503 0.2632-0.945 0.209-0.442 0.4795-0.728 0.8116-0.857 0.2692-0.048 0.4749 0.166 0.6171 0.64 0.1048 0.591-0.2959 1.044-1.202 1.359zm-7.4917 2.257 0.3429-0.197c0.4388-0.401 0.7601-1.01 0.9639-1.827s0.1442-2.263-0.1788-4.34l-0.0518-0.292c-0.0803-0.453-0.3508-0.668-0.8116-0.646l-0.1127 0.02-0.1302 0.14c0.1541 1.269 0.2484 2.147 0.2831 2.634 0.0744 0.966 0.0627 1.756-0.0351 2.369-0.058 0.62-0.2323 1.257-0.5231 1.911l0.0184 0.104 0.0288 0.053 0.2062 0.071zm-3.2336-7.179c0.1017-0.028 0.1732-0.061 0.2146-0.101 0.0413-0.04 0.0711-0.09 0.0892-0.152 0.0182-0.061 0.0279-0.107 0.0291-0.136 0.0013-0.03-0.0166-0.057-0.0534-0.083-0.0369-0.026-0.0677-0.073-0.0925-0.14-0.0186-0.068-0.0315-0.132-0.039-0.192-0.0075-0.061-0.0024-0.123 0.0152-0.188 0.0176-0.064 0.0289-0.128 0.034-0.19 5e-3 -0.063-0.0074-0.124-0.0374-0.183-0.0299-0.06-0.0688-0.107-0.1168-0.14-0.0479-0.034-0.1146-0.065-0.2001-0.092s-0.1768-0.032-0.2739-0.015c-0.097 0.017-0.1866 0.049-0.2686 0.096-0.0821 0.047-0.1504 0.107-0.205 0.182-0.0546 0.074-0.0955 0.162-0.1226 0.264s-0.0401 0.202-0.039 0.299c1e-3 0.097 0.0169 0.186 0.0476 0.269 0.0307 0.082 0.0823 0.163 0.1548 0.245 0.0726 0.081 0.1474 0.139 0.2247 0.174 0.0772 0.035 0.1776 0.065 0.3012 0.089 0.1237 0.023 0.2363 0.021 0.3379-6e-3zm-0.436 7.89c0.4154-0.06 0.8818-0.287 1.3991-0.683 0.5174-0.395 0.8195-0.803 0.9063-1.224 0.0869-0.42 0.0955-0.845 0.026-1.273-0.144-0.448-0.3164-0.747-0.5172-0.897-0.2008-0.149-0.4556-0.211-0.7642-0.186-0.3087 0.024-0.5541 0.17-0.7362 0.435-0.1822 0.265-0.2877 0.507-0.3167 0.727-0.0289 0.219-0.0066 0.49 0.067 0.814 0.0737 0.325 0.3534 0.564 0.8391 0.719-0.2405 0.282-0.4345 0.462-0.5821 0.539-0.1476 0.078-0.3085 0.136-0.4827 0.173l0.1616 0.856zm-4.0021-5.969c0.0376-7e-3 0.0762-0.017 0.1157-0.03 0.0396-0.014 0.0797-0.034 0.1201-0.06l0.1096-0.117c0.2159-0.222 0.4131-0.376 0.5913-0.463 0.2183-0.116 0.4487-0.2 0.6912-0.253 0.2425-0.052 0.4727-0.1 0.6908-0.145 0.4161-0.093 0.6091-0.224 0.579-0.393-0.0212-0.12-0.1909-0.204-0.5093-0.252l-0.1052-0.016c-0.0731-8e-3 -0.1524-0.01-0.2377-6e-3 -0.128 6e-3 -0.2734 0.024-0.4362 0.052-0.72 0.126-1.3242 0.414-1.8128 0.863-0.2214 0.207-0.3177 0.392-0.2887 0.556 0.0402 0.226 0.2042 0.314 0.4922 0.264zm4.0584 5.959-0.1555-0.877c-0.1355 0.037-0.2982 0.03-0.488-0.021s-0.3228-0.119-0.399-0.202c-0.0762-0.084-0.1493-0.196-0.2193-0.336s-0.1233-0.305-0.1599-0.493-0.0997-0.344-0.1894-0.467c-0.0897-0.124-0.213-0.164-0.3699-0.12-0.1568 0.044-0.2638 0.132-0.3209 0.265s-0.097 0.299-0.1199 0.498c-0.023 0.198-0.0507 0.388-0.0832 0.569-0.0325 0.18-0.1425 0.37-0.3301 0.568s-0.4208 0.312-0.6996 0.342l0.1539 0.867c0.4481-0.13 0.7453-0.247 0.8915-0.351 0.1463-0.103 0.278-0.225 0.3951-0.365 0.1171-0.141 0.1976-0.288 0.2414-0.441 0.0438-0.154 0.113-0.137 0.2076 0.051 0.0945 0.187 0.2642 0.334 0.509 0.44 0.2448 0.107 0.6235 0.131 1.1362 0.073zm-3.3245 0.583-0.1488-0.839c-0.2435 0.01-0.4093 4e-3 -0.4974-0.02-0.088-0.023-0.174-0.071-0.258-0.144-0.0839-0.073-0.145-0.163-0.1833-0.269-0.0383-0.107-0.0671-0.233-0.0865-0.379s-0.0361-0.477-0.0501-0.993c-0.0141-0.516-0.0277-0.921-0.0408-1.213-0.0132-0.293-0.0232-0.559-0.03-0.797-0.0068-0.239-0.0303-0.618-0.0705-1.136-0.0672-0.306-0.194-0.429-0.3805-0.371-0.1865 0.059-0.3097 0.21-0.3698 0.454-0.1554 0.507-0.2247 0.881-0.208 1.121 0.0168 0.24 0.0365 0.533 0.0591 0.88 0.0226 0.346 0.0378 0.677 0.0455 0.993 0.0076 0.317 0.0207 0.627 0.0392 0.932 0.0186 0.305 0.0496 0.562 0.0932 0.771 0.0436 0.21 0.1128 0.391 0.2075 0.543s0.2076 0.269 0.3387 0.353 0.2938 0.147 0.4882 0.187c0.1944 0.041 0.5452 0.016 1.0523-0.073zm-6.398 1.599c-0.3424 0.618-0.1796 0.826 0.4883 0.624 0.5631-0.319 1.0355-0.668 1.4171-1.046 0.3817-0.378 0.6834-0.797 0.9052-1.257 0.2218-0.461 0.3041-0.888 0.2469-1.284-0.0571-0.395-0.191-0.777-0.4015-1.145s-0.4665-0.655-0.7677-0.862l-0.2234-0.058c-0.2166-0.02-0.3589 0.069-0.4267 0.269l0.0251 0.142c0.05 0.173 0.1923 0.42 0.4269 0.742s0.3418 0.681 0.3216 1.076c-0.0202 0.396-0.2031 0.812-0.5485 1.249s-0.8332 0.953-1.4633 1.55zm-3.3569-4.352 0.1855-0.1c0.4758-0.084 0.5554-1.018 0.2388-2.804-0.1839-1.038-0.4259-1.956-0.7258-2.756-0.3-0.8-0.6342-1.22-1.0027-1.259-0.3633-0.046-0.51 0.255-0.4401 0.904 0.2117 0.43 0.5244 1.428 0.9379 2.996l0.4514 2.547c0.029 0.163 0.1473 0.321 0.355 0.472zm0.5784 4.246c0.1753-0.031 0.3275-0.119 0.4565-0.265 0.0898-0.113 0.152-0.253 0.1867-0.422 0.0348-0.168 0.0332-0.359-0.0047-0.572-0.0569-0.321-0.1657-0.516-0.3264-0.585-0.1386-0.054-0.2642-0.07-0.3769-0.051-0.4445 0.078-0.6774 0.385-0.6987 0.92-0.0061 0.112 3e-4 0.221 0.0193 0.328 0.0891 0.503 0.3372 0.718 0.7442 0.647zm56.527 12.504c-0.5801 0.77-0.4171 0.997 0.489 0.683 1.2386-0.879 1.9775-1.647 2.2155-2.304 0.239-0.658 0.421-1.165 0.549-1.521 0.127-0.357 0.18-0.669 0.158-0.937-0.083-0.252-0.209-0.377-0.377-0.377-0.167 0-0.332 0.109-0.494 0.325-0.218 0.298-0.419 0.748-0.603 1.351-0.1836 0.602-0.4379 1.08-0.7628 1.432-0.325 0.352-0.7165 0.801-1.1747 1.348zm-2.0179-1.386 0.3428-0.197c0.4389-0.401 0.7602-1.01 0.964-1.827 0.2037-0.817 0.1442-2.264-0.1788-4.34l-0.0518-0.292c-0.0803-0.453-0.3508-0.668-0.8116-0.646l-0.1127 0.02-0.1302 0.14c0.1541 1.269 0.2484 2.147 0.2831 2.634 0.0744 0.966 0.0627 1.756-0.0351 2.369-0.058 0.62-0.2324 1.257-0.5231 1.911l0.0184 0.103 0.0288 0.054 0.2062 0.071zm-7.2585-4.809c-0.0062 0.121 0.0384 0.163 0.1337 0.125 1.3577-1.913 2.6553-3.669 3.8927-5.269 1.2374-1.601 2.1051-2.748 2.6031-3.443 0.4981-0.695 0.904-1.305 1.218-1.831 0.3139-0.527 0.5628-0.944 0.7467-1.253 0.1839-0.31 0.3677-0.678 0.5514-1.105-0.0135-0.46-0.1726-0.511-0.4772-0.154-0.0396 0.051-0.0829 0.109-0.1301 0.171l-0.1526 0.204c-0.3554 0.479-0.8702 1.187-1.5446 2.125-0.8819 1.228-1.8194 2.463-2.8126 3.706s-1.9512 2.543-2.8742 3.901c-0.9231 1.358-1.3078 2.299-1.1543 2.823zm-0.0424-2.888c0.6631-0.913 1.2577-1.719 1.7839-2.417 0.5262-0.699 1.1628-1.542 1.9097-2.53 0.1611-0.533 0.0294-0.651-0.3951-0.352-0.6677 0.798-1.4102 1.706-2.2277 2.724-0.8174 1.019-1.3067 1.798-1.4678 2.337-0.3642 0.913-0.2319 0.992 0.397 0.238zm-0.4821 9.13c0.5008-0.088 0.8755-0.224 1.1238-0.407 0.2484-0.183 0.4414-0.387 0.579-0.612s0.2474-0.443 0.3292-0.656c0.0818-0.212 0.1447-0.43 0.1888-0.655 0.044-0.225 0.0715-0.535 0.0823-0.929s-0.0662-1.001-0.231-1.822c-0.1792-0.61-0.4207-0.752-0.7245-0.427-0.3038 0.326-0.3661 0.885-0.187 1.677 0.0849 0.588 0.1246 0.994 0.1193 1.219-0.0054 0.224-0.0574 0.459-0.1562 0.703-0.0987 0.244-0.2468 0.465-0.4443 0.661-0.1975 0.197-0.4719 0.342-0.8232 0.436l0.1438 0.812zm-3.6796 3.66c-0.5801 0.769-0.4171 0.997 0.489 0.682 1.2386-0.878 1.9552-1.625 2.1497-2.239 0.1945-0.615 0.3429-1.116 0.4453-1.503 0.1024-0.388 0.3322-0.593 0.6895-0.617l-0.1438-0.811c-0.2708 2e-3 -0.5101 0.036-0.7179 0.102-0.2079 0.065-0.3756 0.193-0.5031 0.384-0.2184 0.298-0.3974 0.726-0.5371 1.286-0.1397 0.559-0.372 1.015-0.6969 1.367s-0.7165 0.801-1.1747 1.349zm-2.1483-10.453c0.1016-0.027 0.1731-0.061 0.2145-0.1 0.0414-0.04 0.0711-0.091 0.0893-0.152 0.0181-0.062 0.0278-0.107 0.0291-0.137 0.0012-0.029-0.0166-0.057-0.0535-0.083s-0.0677-0.072-0.0925-0.139c-0.0185-0.068-0.0315-0.132-0.039-0.192-0.0074-0.061-0.0024-0.123 0.0152-0.188s0.0289-0.128 0.034-0.191c0.0051-0.062-0.0074-0.123-0.0373-0.183-0.0299-0.059-0.0689-0.106-0.1168-0.14-0.048-0.033-0.1147-0.064-0.2002-0.091s-0.1768-0.032-0.2738-0.015-0.1866 0.049-0.2687 0.096c-0.0821 0.046-0.1504 0.107-0.205 0.181-0.0546 0.075-0.0954 0.163-0.1225 0.265s-0.0402 0.201-0.0391 0.299c0.0011 0.097 0.017 0.186 0.0477 0.268 0.0307 0.083 0.0823 0.164 0.1548 0.246 0.0725 0.081 0.1474 0.139 0.2246 0.174s0.1777 0.065 0.3013 0.088c0.1236 0.024 0.2362 0.022 0.3379-6e-3zm-0.4361 7.891c0.4154-0.06 0.8818-0.287 1.3992-0.683 0.5173-0.395 0.8194-0.803 0.9063-1.224 0.0868-0.42 0.0955-0.845 0.0259-1.273-0.144-0.448-0.3164-0.747-0.5172-0.897-0.2008-0.149-0.4555-0.212-0.7642-0.187s-0.5541 0.17-0.7362 0.436c-0.1821 0.265-0.2877 0.507-0.3166 0.726-0.029 0.219-0.0066 0.491 0.067 0.815s0.3533 0.564 0.8391 0.719c-0.2405 0.282-0.4346 0.461-0.5822 0.539s-0.3085 0.135-0.4827 0.172l0.1616 0.857zm-4.002-5.969c0.0375-7e-3 0.0761-0.017 0.1157-0.031 0.0396-0.013 0.0796-0.033 0.1201-0.059l0.1095-0.117c0.216-0.222 0.4131-0.377 0.5914-0.463 0.2182-0.117 0.4486-0.201 0.6911-0.253s0.4728-0.101 0.6908-0.145c0.4161-0.093 0.6092-0.224 0.5791-0.394-0.0212-0.119-0.191-0.203-0.5094-0.251l-0.1051-0.016c-0.0732-9e-3 -0.1524-0.01-0.2378-6e-3 -0.128 6e-3 -0.2734 0.023-0.4361 0.052-0.72 0.126-1.3243 0.414-1.8128 0.862-0.2215 0.208-0.3177 0.393-0.2887 0.557 0.0401 0.226 0.2042 0.314 0.4922 0.264zm4.0584 5.959-0.1556-0.877c-0.1355 0.037-0.2981 0.03-0.4879-0.021s-0.3228-0.119-0.399-0.203-0.1493-0.196-0.2193-0.336c-0.0701-0.14-0.1234-0.304-0.1599-0.492-0.0366-0.188-0.0997-0.344-0.1895-0.468-0.0897-0.123-0.2129-0.163-0.3698-0.119-0.1569 0.043-0.2638 0.132-0.3209 0.265s-0.0971 0.299-0.12 0.497c-0.0229 0.199-0.0506 0.389-0.0831 0.569-0.0325 0.181-0.1426 0.371-0.3301 0.569-0.1876 0.198-0.4208 0.312-0.6996 0.341l0.1538 0.868c0.4481-0.13 0.7453-0.247 0.8916-0.351 0.1463-0.103 0.278-0.225 0.3951-0.366 0.1171-0.14 0.1975-0.287 0.2413-0.441 0.0438-0.153 0.113-0.136 0.2076 0.051 0.0946 0.188 0.2643 0.335 0.509 0.441 0.2448 0.106 0.6235 0.131 1.1363 0.073zm-6.0293-5.142c0.1016-0.028 0.1731-0.061 0.2145-0.101s0.0712-0.09 0.0893-0.152c0.0181-0.061 0.0278-0.107 0.0291-0.136 0.0012-0.03-0.0166-0.057-0.0535-0.083s-0.0677-0.073-0.0925-0.14c-0.0185-0.068-0.0315-0.132-0.0389-0.192-0.0075-0.06-0.0024-0.123 0.0151-0.188 0.0176-0.064 0.0289-0.128 0.034-0.19 0.0051-0.063-0.0074-0.124-0.0373-0.183-0.0299-0.06-0.0689-0.107-0.1168-0.14-0.0479-0.034-0.1147-0.065-0.2002-0.092s-0.1768-0.032-0.2738-0.015-0.1866 0.049-0.2687 0.096-0.1504 0.107-0.205 0.182c-0.0546 0.074-0.0954 0.162-0.1225 0.264s-0.0401 0.202-0.0391 0.299c0.0011 0.097 0.017 0.187 0.0477 0.269s0.0823 0.164 0.1548 0.245 0.1474 0.139 0.2246 0.174 0.1777 0.065 0.3013 0.089c0.1236 0.023 0.2363 0.021 0.3379-6e-3zm2.8456 5.701-0.1555-0.878c-0.1355 0.037-0.2982 0.03-0.4879-0.021-0.1898-0.051-0.3228-0.119-0.399-0.202-0.0762-0.084-0.1494-0.196-0.2194-0.336s-0.1233-0.305-0.1599-0.493c-0.0365-0.188-0.0997-0.344-0.1894-0.467-0.0897-0.124-0.213-0.164-0.3698-0.12-0.1569 0.044-0.2639 0.132-0.321 0.265-0.057 0.133-0.097 0.299-0.1199 0.498-0.0229 0.198-0.0506 0.388-0.0832 0.569-0.0325 0.18-0.1425 0.37-0.3301 0.568s-0.4207 0.312-0.6996 0.342l0.1539 0.867c0.4481-0.13 0.7453-0.247 0.8916-0.35 0.1462-0.104 0.2779-0.226 0.395-0.366 0.1172-0.141 0.1976-0.288 0.2414-0.441 0.0438-0.154 0.113-0.137 0.2076 0.051 0.0946 0.187 0.2642 0.334 0.509 0.44 0.2448 0.107 0.6235 0.131 1.1362 0.074zm-7.8338 1.801c-0.3615 0.693-0.1275 0.865 0.702 0.519 0.4215-0.171 0.7729-0.538 1.0543-1.099 0.3318-0.532 0.5761-1.083 0.7329-1.655-0.0191 0.256 0.1284 0.523 0.4425 0.802s0.8436 0.353 1.5887 0.222l-0.1505-0.849c-0.5205 0.014-0.878-0.1-1.0725-0.341-0.1945-0.242-0.3117-0.511-0.3516-0.809s-0.0616-0.511-0.0651-0.64c-0.1091-0.325-0.2698-0.485-0.482-0.48s-0.386 0.172-0.5214 0.5l-0.0551 0.126c-0.2645 0.948-0.493 1.653-0.6855 2.114-0.1926 0.462-0.5714 0.992-1.1367 1.59zm-3.5289-3.164c0.2202 0.059 0.4318 0.023 0.6347-0.106 0.203-0.13 0.3028-0.323 0.2995-0.578-0.0034-0.256-0.0748-0.431-0.2144-0.527-0.1396-0.095-0.2691-0.152-0.3885-0.17-0.1193-0.018-0.1953-0.055-0.2278-0.11-0.0325-0.056-0.0464-0.135-0.0418-0.236 0.0046-0.102 0.0409-0.207 0.1087-0.316s0.1364-0.213 0.2059-0.313c0.0694-0.1 0.0888-0.218 0.058-0.356-0.0123-0.069-0.0545-0.107-0.1267-0.114-0.2221 0.059-0.4227 0.211-0.6019 0.456-0.1792 0.246-0.3099 0.482-0.3921 0.711-0.0821 0.228-0.1071 0.451-0.0749 0.669s0.1121 0.423 0.2396 0.615c0.1276 0.191 0.3015 0.316 0.5217 0.375zm0.1893 2.952c0.3583 0.346 0.6862 0.412 0.9839 0.197l0.095-0.065c0.4391-0.472 0.5333-0.888 0.2826-1.246-0.4286-0.378-0.798-0.459-1.1083-0.243-0.4183 0.553-0.516 0.985-0.293 1.296l0.0398 0.061z" fill="#000" stroke="#000" stroke-width=".6"/>
</svg>
