<?xml version="1.0" encoding="UTF-8"?>
<svg width="454px" height="206px" viewBox="0 0 454 206" version="1.1" xmlns="http://www.w3.org/2000/svg" xmlns:xlink="http://www.w3.org/1999/xlink">
    <title>Combined Shape</title>
    <defs>
        <linearGradient x1="100%" y1="50%" x2="0%" y2="50%" id="linearGradient-1">
            <stop stop-color="#FE274C" offset="0%"></stop>
            <stop stop-color="#3E929A" offset="50.0865589%"></stop>
            <stop stop-color="#4AE788" offset="100%"></stop>
        </linearGradient>
    </defs>
    <g 
    id="Home" 
    stroke="none" 
    stroke-width="1" 
    fill="none" fill-rule="evenodd" 
    stroke-linecap="round" 
    stroke-linejoin="round">
        <g id="Homepage-Roshan--Copy-5" transform="translate(-1124.000000, -3060.000000)" stroke="url(#linearGradient-1)" stroke-width="4">
            <g id="Group-101" transform="translate(1126.000000, 3062.000000)">
                <path 
                d="M450,134.632322 C442.775183,128.030185 370.654902,133.180631 363.971155,133.012815 C357.287407,133.012815 353.476338,115.027201 348.428809,115.027201 C343.38128,115.027201 332.137388,139.419703 326.325108,138.434113 C318.788476,136.37871 318.788476,90.2239926 311.945025,90.2239926 C302.57988,89.4793151 304.703272,154.773071 296.907036,154.229547 C290.152173,154.229547 288.858041,38.5198061 280.427779,38.5198061 C267.936605,38.38713 270.099045,202.035101 255.57924,202 C240.68186,201.674606 256.056217,1.56794839 237.972406,0.05644721 C219.675444,-3.29103067 223.50622,143.373562 201.345658,140.146475 C183.738342,137.736709 177.43468,104.243255 166.999793,102.350598 C158.682628,101.030635 144.016645,128.693235 101.889341,133.012815 C81.4110331,135.112586 66.6747905,135.968307 0,135.579979 M7.95807864e-13,118.016304 L70.2439024,118.016304 M28.5392984,153.414386 L70.372099,153.146739" 
                id="Combined-Shape"></path>
            </g>
        </g>
    </g>
</svg>