<svg width="245" height="149" viewBox="0 0 245 149" fill="none" xmlns="http://www.w3.org/2000/svg">
<path d="M244 43H139V148H244V43Z" fill="#0077FF" fill-opacity="0.15" stroke="#0089FF"/>
<path d="M203.794 85.8892L206.736 82.9618L203.759 80L200.887 82.9618L203.794 85.8892ZM196.543 85.9064L199.467 82.979L196.491 80.0172L193.635 82.979L196.543 85.9064ZM200.021 103.712C200.817 103.712 201.611 103.574 202.401 103.299C203.191 103.023 203.904 102.604 204.538 102.041C205.173 101.479 205.686 100.764 206.079 99.8976C206.471 99.0309 206.667 98.0063 206.667 96.8238C206.667 96.445 206.641 96.003 206.589 95.4979C206.537 94.9928 206.468 94.4733 206.381 93.9395C206.295 93.4057 206.203 92.8747 206.104 92.3467C206.006 91.8186 205.911 91.3393 205.819 90.9088C205.727 90.4783 205.643 90.1138 205.568 89.8153C205.493 89.5169 205.444 89.3274 205.421 89.2471L201.354 90.4697C201.4 90.6419 201.463 90.8858 201.544 91.2015C201.625 91.5172 201.706 91.8674 201.787 92.252C201.867 92.6365 201.951 93.0441 202.037 93.4746C202.124 93.9051 202.202 94.327 202.271 94.7402C202.34 95.1535 202.395 95.541 202.436 95.9026C202.476 96.2642 202.496 96.5713 202.496 96.8238C202.496 97.4323 202.398 97.9116 202.202 98.2617C202.006 98.6118 201.778 98.873 201.518 99.0452C201.259 99.2174 200.999 99.3236 200.739 99.3638C200.48 99.404 200.281 99.424 200.142 99.424H192.562V103.712H200.021ZM177.696 112.959C178.896 112.959 179.972 112.91 180.924 112.813C181.876 112.715 182.738 112.563 183.511 112.356C184.284 112.15 184.982 111.894 185.605 111.59C186.228 111.286 186.805 110.927 187.336 110.514C188.351 109.71 189.115 108.769 189.629 107.69C190.142 106.61 190.422 105.285 190.468 103.712H193.428V99.424H190.485V97.0821C190.485 95.8653 190.353 94.7374 190.087 93.6984C189.822 92.6595 189.404 91.7612 188.833 91.0035C188.262 90.2458 187.529 89.6518 186.635 89.2213C185.741 88.7908 184.665 88.5755 183.407 88.5755C182.392 88.5755 181.446 88.7621 180.569 89.1352C179.692 89.5083 178.907 90.0392 178.215 90.728C177.973 90.992 177.719 91.2991 177.454 91.6493C177.188 91.9994 176.949 92.4098 176.736 92.8805C176.522 93.3512 176.346 93.8936 176.208 94.5078C176.069 95.1219 176 95.8251 176 96.6172C176 97.5356 176.107 98.3507 176.32 99.0624C176.534 99.7742 176.822 100.391 177.185 100.914C177.549 101.436 177.976 101.875 178.466 102.231C178.957 102.587 179.479 102.877 180.032 103.1C180.586 103.324 181.163 103.482 181.763 103.574C182.363 103.666 182.951 103.712 183.528 103.712H186.193C186.147 104.584 186 105.279 185.752 105.795C185.504 106.312 185.138 106.765 184.653 107.156C184.342 107.42 183.975 107.647 183.554 107.836C183.133 108.025 182.643 108.18 182.083 108.301C181.524 108.421 180.883 108.513 180.162 108.576C179.441 108.64 178.619 108.671 177.696 108.671V112.959ZM186.193 99.424H183.528C183.136 99.424 182.744 99.3724 182.351 99.2691C181.959 99.1657 181.604 99.0022 181.287 98.7783C180.97 98.5544 180.71 98.2646 180.508 97.9087C180.306 97.5528 180.205 97.1223 180.205 96.6172C180.205 95.3315 180.494 94.3844 181.071 93.7759C181.648 93.1675 182.426 92.8633 183.407 92.8633C183.523 92.8633 183.673 92.8776 183.857 92.9063C184.042 92.935 184.235 92.9953 184.437 93.0871C184.639 93.179 184.846 93.3167 185.06 93.5004C185.273 93.6841 185.464 93.9309 185.631 94.2409C185.798 94.5508 185.934 94.9383 186.038 95.4032C186.142 95.8681 186.193 96.4278 186.193 97.0821V99.424Z" fill="white"/>
<path d="M131 26H91V66H131V26Z" fill="#0077FF" fill-opacity="0.15" stroke="#0089FF"/>
<path d="M110.902 53.8392C111.559 53.8392 112.149 53.7413 112.671 53.5455C113.193 53.3497 113.639 53.0711 114.007 52.7098C114.375 52.3485 114.664 51.9103 114.874 51.3951C115.084 50.88 115.203 50.3007 115.231 49.6573V45.2518H113.49V49.5105C113.49 49.9814 113.438 50.3811 113.336 50.7098C113.233 51.0385 113.077 51.3054 112.867 51.5105C112.657 51.7156 112.389 51.8648 112.063 51.958C111.737 52.0513 111.35 52.0979 110.902 52.0979H110.035V53.8392H110.902ZM108.741 50.0839V40H107V50.0839H108.741Z" fill="white"/>
<path d="M83 1H18V66H83V1Z" fill="#0077FF" fill-opacity="0.15" stroke="#0089FF"/>
<path d="M61.0196 37.2853C61.1917 37.2853 61.3982 37.2732 61.6392 37.2491C61.8802 37.225 62.1297 37.1665 62.3879 37.0736C62.646 36.9806 62.9042 36.8395 63.1624 36.6502C63.4205 36.4609 63.6512 36.201 63.8542 35.8705C64.0573 35.5401 64.2208 35.1236 64.3448 34.621C64.4687 34.1184 64.5306 33.5092 64.5306 32.7932C64.5306 32.1461 64.4429 31.5265 64.2673 30.9344C64.0918 30.3424 63.8267 29.8209 63.4722 29.3699C63.1176 28.919 62.6701 28.5593 62.1297 28.2908C61.5893 28.0223 60.9576 27.8881 60.2348 27.8881C59.5119 27.8881 58.9061 28.0275 58.4173 28.3063C57.9285 28.5851 57.5241 28.9414 57.2039 29.3751C56.8838 29.8088 56.6274 30.289 56.4346 30.8157C56.2418 31.3423 56.0766 31.8535 55.9389 32.3492C55.8563 32.6314 55.7754 32.8879 55.6963 33.1185C55.6171 33.3491 55.531 33.5453 55.4381 33.7071C55.3451 33.8689 55.2419 33.9945 55.1283 34.084C55.0147 34.1735 54.8822 34.2183 54.7307 34.2183H53.4399L53.4606 36.7896H54.7307C55.2057 36.7896 55.6205 36.719 55.9751 36.5779C56.3296 36.4368 56.6618 36.201 56.9716 35.8705C57.3778 36.0908 57.753 36.2887 58.0972 36.4643C58.4414 36.6399 58.7736 36.7879 59.0937 36.9083C59.4138 37.0288 59.7288 37.1218 60.0386 37.1872C60.3484 37.2526 60.6754 37.2853 61.0196 37.2853ZM61.1229 34.8379C60.937 34.8379 60.7219 34.8 60.4775 34.7243C60.2331 34.6485 59.9732 34.5522 59.6978 34.4351C59.4224 34.3181 59.1419 34.1856 58.8562 34.0376C58.5705 33.8895 58.3003 33.7432 58.0455 33.5987C58.1695 33.2958 58.2848 32.9602 58.3915 32.5918C58.4982 32.2235 58.629 31.881 58.7839 31.5643C58.9388 31.2477 59.1298 30.9826 59.357 30.7692C59.5842 30.5558 59.8768 30.4491 60.2348 30.4491C60.6478 30.4491 60.9903 30.5437 61.2623 30.7331C61.5342 30.9224 61.7511 31.1496 61.9128 31.4146C62.0746 31.6797 62.1882 31.9516 62.2536 32.2304C62.319 32.5092 62.3517 32.7381 62.3517 32.9171C62.3517 33.3853 62.2984 33.7484 62.1917 34.0066C62.085 34.2647 61.9628 34.4558 61.8251 34.5797C61.6874 34.7036 61.5514 34.7776 61.4172 34.8017C61.2829 34.8258 61.1848 34.8379 61.1229 34.8379ZM44.9721 30.7795L46.8515 28.9001L44.9515 27L43.0927 28.8794L44.9721 30.7795ZM45.4058 42.3453C47.4298 42.3453 48.9496 41.8668 49.965 40.9099C50.9805 39.953 51.4882 38.5141 51.4882 36.5934V36.5108C51.7222 36.6003 51.9752 36.6691 52.2472 36.7173C52.5191 36.7655 52.7859 36.7896 53.0475 36.7896H53.8736V34.2183H53.0475C52.5931 34.2183 52.2231 34.1064 51.9374 33.8827C51.6517 33.6589 51.5019 33.3199 51.4882 32.8655V29.6436H48.9169V36.5934C48.9169 37.0684 48.8704 37.5021 48.7775 37.8945C48.6845 38.2869 48.5107 38.6226 48.256 38.9014C48.0012 39.1802 47.645 39.3953 47.1872 39.5468C46.7294 39.6982 46.1356 39.774 45.4058 39.774H43.3095C42.6555 39.774 42.0583 39.6277 41.5179 39.3351C40.9774 39.0425 40.542 38.6518 40.2116 38.163C40.005 37.8188 39.8432 37.4316 39.7262 37.0013C39.6092 36.571 39.5507 36.1218 39.5507 35.6537C39.5507 35.2957 39.573 34.9532 39.6178 34.6262C39.6625 34.2992 39.7365 33.9584 39.8398 33.6038C39.9431 33.2493 40.0773 32.8724 40.2425 32.4731C40.4078 32.0738 40.6143 31.6229 40.8621 31.1203L38.5387 30.0154C38.2564 30.6005 38.0172 31.1375 37.821 31.6263C37.6248 32.1151 37.4664 32.5832 37.3459 33.0307C37.2255 33.4782 37.1377 33.9154 37.0826 34.3422C37.0275 34.769 37 35.2096 37 35.664C37 36.38 37.0895 37.0667 37.2685 37.7241C37.4475 38.3816 37.7022 38.9788 38.0327 39.5158C38.3149 39.9564 38.6471 40.3523 39.0292 40.7034C39.4113 41.0545 39.8278 41.3505 40.2787 41.5914C40.7296 41.8324 41.2098 42.0183 41.7192 42.1491C42.2287 42.2799 42.7588 42.3453 43.3095 42.3453H45.4058Z" fill="white"/>
<path d="M131 74H1V129H131V74Z" fill="#0077FF" fill-opacity="0.15" stroke="#0089FF"/>
<path d="M103.153 105.114C103.778 105.114 104.4 105.046 105.02 104.91C105.64 104.773 106.234 104.602 106.801 104.397C107.369 104.191 107.897 103.968 108.388 103.729C108.878 103.49 109.306 103.264 109.671 103.051C110.037 102.838 110.33 102.658 110.551 102.51C110.772 102.361 110.897 102.278 110.926 102.258L110.717 100.809C110.669 100.795 110.558 100.756 110.385 100.694C110.212 100.632 109.998 100.554 109.743 100.461C109.489 100.368 109.203 100.264 108.885 100.149C108.568 100.034 108.241 99.917 107.905 99.7974C107.568 99.6778 107.233 99.563 106.899 99.453C106.565 99.343 106.251 99.2449 105.958 99.1588C105.664 99.0727 105.402 99.0033 105.172 98.9507C104.941 98.8981 104.763 98.8718 104.638 98.8718C104.316 98.8718 104.03 98.9256 103.78 99.0332C103.53 99.1409 103.31 99.2879 103.12 99.4745C102.93 99.661 102.769 99.8799 102.637 100.131C102.505 100.382 102.393 100.651 102.302 100.938L103.953 101.433C104.015 101.299 104.076 101.185 104.133 101.089C104.191 100.993 104.253 100.915 104.321 100.856C104.388 100.796 104.464 100.753 104.548 100.727C104.632 100.7 104.729 100.687 104.84 100.687C104.946 100.687 105.09 100.704 105.273 100.737C105.455 100.771 105.662 100.816 105.893 100.874C106.123 100.931 106.371 100.997 106.635 101.071C106.9 101.145 107.167 101.222 107.436 101.301C107.705 101.379 107.968 101.458 108.226 101.537C108.483 101.616 108.722 101.689 108.943 101.756C108.597 101.938 108.189 102.122 107.721 102.309C107.252 102.495 106.758 102.664 106.239 102.814C105.72 102.965 105.193 103.088 104.66 103.184C104.126 103.28 103.624 103.327 103.153 103.327H100.968V105.114H103.153ZM104.566 108.78L105.792 107.561L104.566 106.327L103.34 107.546L104.566 108.78ZM107.587 108.795L108.813 107.575L107.587 106.341L106.347 107.561L107.587 108.795ZM106.066 110.718L107.205 109.584L106.051 108.436L104.912 109.57L106.066 110.718ZM94.4994 96.2816L95.6531 95.1336L94.5138 94L93.36 95.148L94.4994 96.2816ZM96.0353 98.3767L97.2468 97.157L96.0137 95.9372L94.7734 97.1713L96.0353 98.3767ZM92.9274 98.4198L94.1532 97.1857L92.9274 95.9659L91.7015 97.2L92.9274 98.4198ZM88.2258 105.114C89.1728 105.114 89.9276 104.892 90.4901 104.447C90.74 104.657 91.0333 104.821 91.3698 104.938C91.7063 105.055 92.0909 105.114 92.5236 105.114H92.574C92.8913 105.109 93.205 105.047 93.5151 104.927C93.8251 104.808 94.1052 104.638 94.3552 104.418C94.6196 104.662 94.9212 104.839 95.2601 104.949C95.5991 105.059 95.9945 105.114 96.4464 105.114C96.7877 105.114 97.123 105.055 97.4523 104.938C97.7816 104.821 98.0688 104.65 98.314 104.425C98.5784 104.669 98.8933 104.845 99.2586 104.953C99.624 105.06 100.054 105.114 100.549 105.114H101.256V103.327H100.549C100.102 103.327 99.7706 103.245 99.5543 103.08C99.338 102.915 99.225 102.648 99.2154 102.28V100.156H97.4198V102.273C97.4102 102.469 97.3766 102.634 97.3189 102.768C97.2612 102.902 97.1867 103.011 97.0953 103.094C97.004 103.178 96.9018 103.238 96.7889 103.274C96.6759 103.31 96.5617 103.327 96.4464 103.327C96.0233 103.327 95.718 103.239 95.5305 103.062C95.3431 102.885 95.2493 102.6 95.2493 102.208V100.156H93.461V102.244C93.461 102.483 93.4261 102.673 93.3564 102.814C93.2867 102.956 93.2026 103.063 93.104 103.137C93.0055 103.211 92.9045 103.26 92.8012 103.284C92.6978 103.308 92.6101 103.323 92.538 103.327C92.1342 103.323 91.8385 103.232 91.651 103.055C91.4635 102.878 91.3698 102.596 91.3698 102.208V100.156H89.5743V102.244C89.5743 102.416 89.5574 102.569 89.5238 102.703C89.4901 102.837 89.424 102.951 89.3255 103.044C89.2269 103.137 89.0899 103.208 88.9145 103.256C88.739 103.304 88.5094 103.327 88.2258 103.327H87.2956V105.114H88.2258ZM79.1616 109.742C79.1616 108.666 79.1592 107.588 79.1544 106.51C79.1496 105.431 79.1472 104.351 79.1472 103.27C79.2625 103.323 79.3707 103.374 79.4716 103.424C79.5726 103.475 79.6724 103.525 79.7709 103.575C79.8695 103.625 79.9704 103.677 80.0738 103.729C80.1771 103.782 80.2889 103.839 80.4091 103.901C80.7312 104.069 81.0521 104.234 81.3717 104.397C81.6914 104.559 81.9967 104.703 82.2875 104.827C82.5784 104.951 82.8524 105.052 83.1096 105.128C83.3668 105.205 83.5963 105.243 83.7983 105.243C83.904 105.243 84.0266 105.235 84.166 105.218C84.3054 105.201 84.4533 105.168 84.6095 105.118C84.7657 105.067 84.922 104.994 85.0782 104.899C85.2344 104.803 85.3823 104.674 85.5217 104.511C85.7236 104.727 85.9748 104.881 86.2752 104.974C86.5757 105.067 86.9446 105.114 87.3821 105.114H87.584V103.327H87.3821C87.3148 103.327 87.2187 103.313 87.0937 103.284C86.9687 103.256 86.8437 103.205 86.7187 103.134C86.5937 103.062 86.4831 102.964 86.387 102.84C86.2909 102.715 86.238 102.555 86.2284 102.359C86.2332 102.306 86.2356 102.25 86.2356 102.19V102.007C86.2356 101.558 86.1707 101.13 86.0409 100.723C85.9111 100.316 85.72 99.96 85.4676 99.6539C85.2152 99.3477 84.9039 99.105 84.5338 98.9256C84.1636 98.7462 83.7358 98.6565 83.2502 98.6565H83.1709C82.7046 98.6565 82.3104 98.7403 81.9883 98.9077C81.647 99.0847 81.3633 99.3238 81.1374 99.6252C80.9114 99.9265 80.7312 100.272 80.5966 100.662C80.462 101.052 80.3538 101.455 80.2721 101.871L79.1039 101.29L77.4165 102.309L77.4237 109.742H79.1616ZM83.7983 103.464C83.6925 103.464 83.5615 103.441 83.4053 103.396C83.249 103.35 83.0808 103.289 82.9005 103.213C82.7202 103.136 82.5315 103.05 82.3344 102.954C82.1373 102.859 81.945 102.761 81.7575 102.66C81.8152 102.301 81.8813 101.998 81.9558 101.749C82.0304 101.5 82.1097 101.295 82.1938 101.132C82.2779 100.969 82.3657 100.841 82.457 100.748C82.5483 100.655 82.6409 100.585 82.7346 100.54C82.8284 100.495 82.9209 100.467 83.0123 100.457C83.1036 100.448 83.1925 100.443 83.2791 100.443C83.4714 100.443 83.6372 100.475 83.7766 100.54C83.916 100.605 84.0362 100.687 84.1372 100.788C84.2381 100.888 84.3199 100.999 84.3823 101.121C84.4448 101.243 84.4941 101.363 84.5302 101.48C84.5662 101.597 84.5903 101.704 84.6023 101.799C84.6143 101.895 84.6203 101.964 84.6203 102.007C84.6203 102.39 84.5854 102.682 84.5157 102.883C84.446 103.083 84.3643 103.227 84.2706 103.313C84.1768 103.399 84.0855 103.446 83.9966 103.453C83.9076 103.46 83.8415 103.464 83.7983 103.464ZM67.7033 105.121C68.0446 105.121 68.4172 105.085 68.821 105.014C69.3017 104.927 69.7128 104.767 70.0541 104.533C70.2368 104.408 70.3966 104.266 70.5336 104.106C70.6706 103.946 70.78 103.77 70.8617 103.579C70.9771 103.315 71.0348 103.04 71.0348 102.753C71.0348 102.658 71.0276 102.56 71.0131 102.459C70.9555 102.067 70.804 101.687 70.5589 101.318C70.2464 100.85 69.9784 100.447 69.7548 100.109C69.5313 99.7723 69.3426 99.4888 69.1888 99.2592C69.0349 99.0296 68.9111 98.8443 68.8174 98.7032C68.7237 98.5621 68.6516 98.4533 68.6011 98.3767C68.5506 98.3002 68.5169 98.25 68.5001 98.2261C68.4833 98.2021 68.4749 98.1878 68.4749 98.183L67.9845 97.4296L66.4702 98.4054L69.1599 102.309C69.2368 102.419 69.2849 102.51 69.3041 102.581C69.3234 102.653 69.333 102.706 69.333 102.739C69.333 102.792 69.3234 102.837 69.3041 102.875C69.2032 103.086 69.0313 103.217 68.7886 103.27C68.5458 103.323 68.3042 103.349 68.0639 103.349C67.9437 103.349 67.8187 103.344 67.6889 103.335C67.2899 103.301 66.8656 103.229 66.4161 103.119C65.9667 103.009 65.5328 102.883 65.1146 102.739L64.5954 104.461L65.4535 104.719C65.665 104.782 65.8669 104.838 66.0592 104.888C66.2515 104.938 66.439 104.98 66.6217 105.014C66.8043 105.047 66.9846 105.073 67.1625 105.092C67.3404 105.112 67.5206 105.121 67.7033 105.121ZM59.0357 108.967C59.7135 108.967 60.3216 108.867 60.8601 108.666C61.3985 108.465 61.8576 108.179 62.2374 107.808C62.6171 107.438 62.9152 106.988 63.1315 106.459C63.3479 105.931 63.4704 105.336 63.4993 104.676V100.156H61.7038V104.526C61.7038 105.009 61.6509 105.419 61.5451 105.756C61.4394 106.093 61.2783 106.367 61.062 106.578C60.8456 106.788 60.5692 106.941 60.2327 107.037C59.8962 107.133 59.4972 107.18 59.0357 107.18H58.1415V108.967H59.0357ZM48.1687 108.967C48.8465 108.967 49.4547 108.867 49.9931 108.666C50.5315 108.465 50.9906 108.179 51.3704 107.808C51.7502 107.438 52.0482 106.988 52.2646 106.459C52.4809 105.931 52.6035 105.336 52.6323 104.676V100.156H50.8368V104.526C50.8368 105.009 50.7839 105.419 50.6781 105.756C50.5724 106.093 50.4113 106.367 50.195 106.578C49.9787 106.788 49.7022 106.941 49.3657 107.037C49.0292 107.133 48.6302 107.18 48.1687 107.18H47.2745V108.967H48.1687ZM45.9405 105.114V94.7677H44.145V105.114H45.9405ZM38.9603 105.523C39.3689 105.523 39.7439 105.475 40.0852 105.379C40.4265 105.284 40.7294 105.15 40.9938 104.978C41.2582 104.805 41.4829 104.6 41.668 104.361C41.8531 104.121 41.9937 103.858 42.0898 103.571C42.1908 103.27 42.2413 102.969 42.2413 102.667C42.2413 102.5 42.2269 102.333 42.198 102.165C42.1067 101.696 41.912 101.263 41.6139 100.866C41.4745 100.685 41.3303 100.493 41.1813 100.292C41.0322 100.092 40.8796 99.8894 40.7234 99.6862C40.5671 99.4829 40.4133 99.2832 40.2619 99.087C40.1104 98.8909 39.9674 98.702 39.8328 98.5202C39.5107 98.0993 39.1934 97.6831 38.8809 97.2718L37.5253 98.2835L38.2752 99.209C38.6358 99.6539 38.9675 100.064 39.2703 100.44C39.5732 100.815 39.8268 101.158 40.0311 101.469C40.2354 101.78 40.376 102.036 40.4529 102.237C40.5299 102.438 40.5683 102.603 40.5683 102.732C40.5683 102.804 40.5587 102.873 40.5395 102.94C40.4818 103.127 40.3965 103.277 40.2835 103.392C40.1705 103.507 40.0407 103.597 39.8941 103.661C39.7475 103.726 39.5924 103.769 39.429 103.79C39.2655 103.812 39.1093 103.823 38.9603 103.823C38.8112 103.823 38.6574 103.802 38.4988 103.762C38.3401 103.721 38.1863 103.677 38.0373 103.629C38.1863 103.481 38.3209 103.33 38.4411 103.177C38.5613 103.024 38.6622 102.862 38.7439 102.692C38.8257 102.523 38.8894 102.342 38.935 102.151C38.9807 101.959 39.0035 101.749 39.0035 101.519C39.0035 101.237 38.9398 100.933 38.8124 100.608C38.685 100.283 38.4976 99.9803 38.25 99.7005C38.0024 99.4207 37.6971 99.1887 37.3342 99.0045C36.9712 98.8204 36.5566 98.7283 36.0903 98.7283C35.6769 98.7283 35.2911 98.7941 34.9329 98.9256C34.5748 99.0572 34.2623 99.2401 33.9955 99.4745C33.7287 99.7089 33.5196 99.9911 33.3681 100.321C33.2167 100.651 33.141 101.012 33.141 101.405C33.141 101.61 33.159 101.798 33.1951 101.968C33.2311 102.138 33.284 102.298 33.3537 102.449C33.4234 102.599 33.5076 102.743 33.6061 102.879C33.7047 103.015 33.8164 103.155 33.9414 103.299C33.826 103.313 33.7215 103.323 33.6277 103.327C33.534 103.332 33.4415 103.335 33.3501 103.335C33.254 103.335 33.1542 103.333 33.0509 103.331C32.9475 103.329 32.8285 103.327 32.6939 103.327H31.8791V105.114H32.6939C33.3717 105.114 33.9907 105.082 34.5507 105.017C35.1108 104.953 35.6216 104.851 36.0831 104.712C36.136 104.741 36.2009 104.773 36.2778 104.809C36.3547 104.845 36.4292 104.88 36.5013 104.913C36.583 104.951 36.6672 104.99 36.7537 105.028C37.1383 105.219 37.5157 105.35 37.8858 105.419C38.256 105.488 38.6141 105.523 38.9603 105.523ZM36.1768 102.926C35.9557 102.806 35.7622 102.692 35.5963 102.585C35.4305 102.477 35.2911 102.366 35.1781 102.251C35.0651 102.136 34.981 102.011 34.9257 101.875C34.8704 101.738 34.8428 101.582 34.8428 101.405C34.8428 101.261 34.8764 101.125 34.9437 100.996C35.011 100.866 35.1024 100.753 35.2178 100.655C35.3331 100.557 35.4665 100.479 35.618 100.422C35.7694 100.364 35.9268 100.335 36.0903 100.335C36.2009 100.335 36.3271 100.359 36.4689 100.407C36.6107 100.455 36.7441 100.529 36.8691 100.63C36.9941 100.73 37.0998 100.857 37.1864 101.01C37.2729 101.163 37.3162 101.34 37.3162 101.541C37.3162 101.708 37.2849 101.861 37.2224 102C37.1599 102.139 37.077 102.264 36.9736 102.377C36.8703 102.489 36.7489 102.591 36.6095 102.682C36.4701 102.773 36.3258 102.854 36.1768 102.926ZM23.7451 109.742C23.7451 108.666 23.7427 107.588 23.7379 106.51C23.733 105.431 23.7306 104.351 23.7306 103.27C23.846 103.323 23.9542 103.374 24.0551 103.424C24.1561 103.475 24.2558 103.525 24.3544 103.575C24.4529 103.625 24.5539 103.677 24.6573 103.729C24.7606 103.782 24.8724 103.839 24.9926 103.901C25.3147 104.069 25.6355 104.234 25.9552 104.397C26.2749 104.559 26.5802 104.703 26.871 104.827C27.1619 104.951 27.4359 105.052 27.6931 105.128C27.9503 105.205 28.1798 105.243 28.3817 105.243C28.4875 105.243 28.6101 105.235 28.7495 105.218C28.8889 105.201 29.0367 105.168 29.193 105.118C29.3492 105.067 29.5054 104.994 29.6617 104.899C29.8179 104.803 29.9657 104.674 30.1052 104.511C30.3071 104.727 30.5583 104.881 30.8587 104.974C31.1592 105.067 31.5281 105.114 31.9656 105.114H32.1675V103.327H31.9656C31.8983 103.327 31.8021 103.313 31.6772 103.284C31.5522 103.256 31.4272 103.205 31.3022 103.134C31.1772 103.062 31.0666 102.964 30.9705 102.84C30.8743 102.715 30.8215 102.555 30.8118 102.359C30.8166 102.306 30.819 102.25 30.819 102.19V102.007C30.819 101.558 30.7542 101.13 30.6244 100.723C30.4946 100.316 30.3035 99.96 30.0511 99.6539C29.7987 99.3477 29.4874 99.105 29.1173 98.9256C28.7471 98.7462 28.3192 98.6565 27.8337 98.6565H27.7544C27.2881 98.6565 26.8939 98.7403 26.5718 98.9077C26.2305 99.0847 25.9468 99.3238 25.7209 99.6252C25.4949 99.9265 25.3147 100.272 25.1801 100.662C25.0454 101.052 24.9373 101.455 24.8556 101.871L23.6874 101.29L22 102.309L22.0072 109.742H23.7451ZM28.3817 103.464C28.276 103.464 28.145 103.441 27.9887 103.396C27.8325 103.35 27.6642 103.289 27.484 103.213C27.3037 103.136 27.115 103.05 26.9179 102.954C26.7208 102.859 26.5285 102.761 26.341 102.66C26.3987 102.301 26.4648 101.998 26.5393 101.749C26.6138 101.5 26.6932 101.295 26.7773 101.132C26.8614 100.969 26.9491 100.841 27.0405 100.748C27.1318 100.655 27.2244 100.585 27.3181 100.54C27.4119 100.495 27.5044 100.467 27.5957 100.457C27.6871 100.448 27.776 100.443 27.8625 100.443C28.0548 100.443 28.2207 100.475 28.3601 100.54C28.4995 100.605 28.6197 100.687 28.7206 100.788C28.8216 100.888 28.9033 100.999 28.9658 101.121C29.0283 101.243 29.0776 101.363 29.1136 101.48C29.1497 101.597 29.1737 101.704 29.1858 101.799C29.1978 101.895 29.2038 101.964 29.2038 102.007C29.2038 102.39 29.1689 102.682 29.0992 102.883C29.0295 103.083 28.9478 103.227 28.8541 103.313C28.7603 103.399 28.669 103.446 28.58 103.453C28.4911 103.46 28.425 103.464 28.3817 103.464Z" fill="white"/>
</svg>
