<svg width="204" height="236" viewBox="0 0 204 236" fill="none" xmlns="http://www.w3.org/2000/svg">
<path d="M113.194 182.493C112.498 182.615 112.157 183.144 111.484 183.473C108.224 185.083 104.728 185.46 101.172 185.503C99.7105 185.518 98.1591 185.339 96.839 185.911C92.9419 187.606 88.8825 187.703 84.6471 186.439C83.0451 185.963 81.8942 186.374 80.765 187.959C78.6519 190.917 75.5828 190.835 72.6682 190.887C68.2815 190.969 63.8648 190.785 59.4606 190.714C59.3678 190.711 59.259 190.66 59.1873 190.712C56.8742 192.456 54.2227 192.887 51.6355 193.626C49.4708 194.246 47.5056 195.893 45.3064 196.2C38.6713 197.123 31.9618 197.605 24.8393 198.304C23.8293 193.528 22.8552 189.28 22.0398 185.007C18.515 166.395 5.84877 96.4648 2.36906 77.8376C2.11886 76.4527 1.95127 75.0548 1.86789 73.6556C1.70443 71.0651 2.60795 69.4649 4.10871 69.012C9.22646 67.4514 14.337 65.9041 19.6182 64.9945C22.974 64.4184 26.4442 65.9172 29.7152 64.9063C34.1643 63.5182 38.8356 63.4488 43.5755 63.9825C49.5691 63.1141 55.4626 61.1508 61.5471 61.3261C68.369 61.5212 74.2715 57.6148 80.9812 57.4594C84.295 57.3829 87.4186 55.9846 90.4847 54.4137L113.194 182.493Z" fill="#FF6200"/>
<path d="M159.42 43.0468L180.431 39.3561L184.146 60.3398M199.228 145.546L202.942 166.53L181.931 170.22" stroke="#FF6200"/>
<path d="M81.6394 1.00854L123.008 234.991" stroke="#FF6200" stroke-width="2"/>
<path d="M167.711 83.3269L168.44 82.2864L167.385 81.5482L166.678 82.5955L167.711 83.3269ZM165.527 83.7153L166.251 82.6757L165.196 81.9374L164.494 82.9838L165.527 83.7153ZM167.239 90.2757C167.614 90.2099 167.966 90.1115 168.294 89.9806C168.622 89.8497 168.902 89.6699 169.136 89.441C169.37 89.2122 169.542 88.926 169.653 88.5827C169.764 88.2393 169.791 87.8222 169.732 87.3314L169.685 86.9425C169.639 86.7036 169.58 86.4679 169.509 86.2353C169.437 86.0027 169.349 85.7827 169.246 85.5753C169.143 85.368 169.022 85.179 168.882 85.0084C168.743 84.8378 168.581 84.6953 168.398 84.5807C168.215 84.4661 168.008 84.3842 167.779 84.3349C167.55 84.2856 167.296 84.2801 167.016 84.3185L166.911 84.3368C166.637 84.3849 166.393 84.476 166.18 84.6099C165.936 84.7673 165.734 84.9593 165.575 85.1857C165.417 85.4122 165.306 85.6642 165.244 85.9416C165.182 86.2191 165.177 86.5036 165.229 86.7952C165.294 87.1631 165.419 87.4669 165.603 87.7066C165.787 87.9463 166.022 88.1226 166.307 88.2354C166.592 88.3482 166.872 88.3994 167.146 88.3889C167.42 88.3784 167.651 88.3567 167.839 88.3238C168.061 88.2848 168.296 88.2257 168.544 88.1465C168.528 88.2173 168.494 88.2903 168.443 88.3655C168.392 88.4407 168.309 88.5151 168.195 88.5888C168.081 88.6625 167.927 88.7332 167.735 88.8009C167.543 88.8687 167.301 88.9281 167.009 88.9793L164.881 89.3524L165.111 90.6487L167.239 90.2757ZM167.715 87.1429C167.437 87.1917 167.199 87.1923 167.001 87.1448C166.657 87.069 166.459 86.8801 166.406 86.5781C166.382 86.4428 166.387 86.3192 166.423 86.2073C166.459 86.0955 166.515 85.9971 166.591 85.9121C166.668 85.8272 166.755 85.7627 166.853 85.7187C166.951 85.6746 167.045 85.6447 167.135 85.6289C167.166 85.6234 167.2 85.6193 167.235 85.6167C167.437 85.6028 167.604 85.637 167.737 85.7192C167.87 85.8015 167.979 85.9104 168.064 86.0458C168.149 86.1812 168.215 86.3307 168.262 86.4942C168.308 86.6578 168.349 86.8136 168.382 86.9616C168.139 87.0471 167.917 87.1076 167.715 87.1429ZM165.32 90.6122L165.09 89.3158L163.964 89.5133C163.99 89.3763 164.002 89.2309 164.002 89.0771C164.002 88.9233 163.986 88.7579 163.954 88.5809C163.877 88.1435 163.748 87.7867 163.568 87.5105C163.389 87.2342 163.178 87.0224 162.937 86.875C162.696 86.7277 162.436 86.6372 162.158 86.6037C161.879 86.5702 161.603 86.5775 161.328 86.6257C161.134 86.6598 160.95 86.7179 160.779 86.7999C160.607 86.8819 160.445 86.9818 160.294 87.0996C160.143 87.2174 160.002 87.3495 159.87 87.4961C159.738 87.6427 159.615 87.7993 159.502 87.966L158.801 84.0144L157.508 84.2411L158.49 89.7807L158.171 90.5291L157.134 90.711L157.363 92.0074L165.32 90.6122ZM161.904 89.8744L159.496 90.2969C159.61 90.012 159.743 89.7344 159.896 89.4643C160.049 89.1941 160.215 88.9502 160.396 88.7326C160.576 88.5149 160.764 88.3334 160.96 88.188C161.157 88.0426 161.356 87.9522 161.557 87.9169C161.703 87.8912 161.849 87.8845 161.994 87.8965C162.14 87.9086 162.274 87.9468 162.397 88.0112C162.519 88.0757 162.625 88.1689 162.715 88.2909C162.805 88.413 162.867 88.5712 162.901 88.7656C162.925 88.9009 162.923 89.0212 162.895 89.1263C162.867 89.2314 162.824 89.324 162.764 89.4042C162.705 89.4844 162.635 89.5522 162.553 89.6077C162.472 89.6631 162.39 89.7096 162.309 89.7471C162.228 89.7846 162.151 89.8133 162.077 89.8334C162.004 89.8534 161.946 89.8671 161.904 89.8744ZM157.572 91.9708L157.342 90.6745C157.05 90.7257 156.819 90.751 156.649 90.7504C156.478 90.7499 156.344 90.7108 156.246 90.6331C156.148 90.5555 156.075 90.435 156.026 90.2718C155.978 90.1085 155.929 89.8881 155.879 89.6104L155.005 84.68L153.707 84.9077L154.581 89.8381C154.633 90.1296 154.69 90.3943 154.752 90.6322C154.813 90.8701 154.891 91.0793 154.984 91.2598C155.077 91.4404 155.192 91.5919 155.33 91.7144C155.469 91.8369 155.64 91.9277 155.844 91.9867C156.048 92.0458 156.291 92.0747 156.574 92.0734C156.857 92.0721 157.19 92.0379 157.572 91.9708ZM150.987 96.0083C151.477 95.9223 151.904 95.7724 152.268 95.5583C152.631 95.3443 152.926 95.0787 153.153 94.7615C153.38 94.4444 153.538 94.0803 153.626 93.6693C153.715 93.2584 153.727 92.8116 153.663 92.3289L153.081 89.0489L151.783 89.2766L152.345 92.4473C152.407 92.7978 152.422 93.1022 152.389 93.3603C152.356 93.6184 152.274 93.8375 152.145 94.0177C152.016 94.1978 151.836 94.3439 151.605 94.456C151.374 94.5681 151.091 94.6534 150.757 94.7119L150.111 94.8253L150.341 96.1217L150.987 96.0083ZM137.963 95.4096C138.21 95.3663 138.442 95.2843 138.661 95.1637C138.88 95.043 139.069 94.8774 139.229 94.6668C139.659 94.9314 140.192 95.0078 140.829 94.8963C141.072 94.8536 141.302 94.773 141.519 94.6544C141.737 94.5357 141.925 94.3711 142.085 94.1606C142.521 94.4349 143.062 94.5154 143.708 94.402C143.948 94.3565 144.178 94.2696 144.399 94.1414C144.62 94.0132 144.808 93.845 144.965 93.6368C145.122 93.4286 145.235 93.1815 145.304 92.8955C145.373 92.6096 145.377 92.2896 145.314 91.9356C145.294 91.821 145.261 91.6898 145.217 91.5419C145.173 91.3939 145.124 91.2433 145.07 91.0899C145.016 90.9366 144.959 90.7846 144.9 90.6338C144.841 90.4831 144.786 90.3462 144.733 90.2229C144.681 90.0997 144.637 89.9965 144.601 89.9134C144.564 89.8303 144.541 89.7772 144.529 89.7541L143.375 90.3699C143.398 90.4195 143.429 90.4874 143.468 90.5737C143.506 90.66 143.548 90.7565 143.592 90.8633C143.636 90.9701 143.681 91.083 143.727 91.202C143.773 91.3209 143.816 91.4386 143.857 91.555C143.897 91.6714 143.933 91.7823 143.964 91.8878C143.995 91.9932 144.018 92.0841 144.031 92.1605C144.064 92.3445 144.062 92.4951 144.025 92.6125C143.989 92.7298 143.938 92.8238 143.871 92.8945C143.805 92.9652 143.734 93.0169 143.66 93.0497C143.585 93.0825 143.525 93.1029 143.479 93.1108C143.17 93.1651 142.935 93.1374 142.774 93.0279C142.613 92.9183 142.507 92.7212 142.457 92.4366L142.195 90.958L140.902 91.1848L141.164 92.6634C141.196 92.8473 141.193 92.9992 141.153 93.1189C141.113 93.2386 141.059 93.333 140.991 93.4023C140.923 93.4715 140.851 93.5208 140.775 93.5502C140.7 93.5795 140.641 93.5978 140.6 93.6051C140.294 93.6588 140.062 93.6322 139.905 93.5255C139.749 93.4189 139.645 93.2232 139.594 92.9386L139.332 91.46L138.034 91.6877L138.3 93.1871C138.333 93.3745 138.33 93.5263 138.289 93.6426C138.249 93.7588 138.194 93.8507 138.126 93.9182C138.057 93.9857 137.985 94.0332 137.909 94.0608C137.833 94.0884 137.775 94.1059 137.733 94.1132L136.56 94.3189L136.79 95.6153L137.963 95.4096ZM132.807 99.1965C133.168 99.1331 133.49 99.0615 133.771 98.9817C134.053 98.9019 134.304 98.8104 134.526 98.7071C134.748 98.6038 134.945 98.4897 135.116 98.3648C135.287 98.2399 135.442 98.1009 135.58 97.9479C135.842 97.6513 136.022 97.3263 136.119 96.9729C136.216 96.6196 136.229 96.2039 136.159 95.7259L137.05 95.5696L136.82 94.2732L135.934 94.4286L135.809 93.7206C135.743 93.3527 135.643 93.0187 135.507 92.7186C135.372 92.4185 135.197 92.169 134.985 91.9701C134.772 91.7712 134.52 91.6302 134.227 91.5473C133.935 91.4644 133.599 91.4562 133.22 91.5226C132.914 91.5762 132.639 91.6826 132.395 91.8418C132.151 92.0009 131.943 92.2029 131.771 92.4477C131.713 92.5403 131.653 92.6466 131.591 92.7665C131.53 92.8863 131.48 93.0231 131.441 93.1767C131.402 93.3302 131.378 93.5035 131.369 93.6965C131.36 93.8896 131.377 94.1058 131.42 94.3453C131.469 94.623 131.545 94.8638 131.647 95.0677C131.75 95.2716 131.87 95.4429 132.007 95.5816C132.145 95.7204 132.297 95.8306 132.464 95.9123C132.63 95.994 132.803 96.054 132.982 96.0924C133.161 96.1309 133.343 96.1481 133.529 96.1442C133.714 96.1403 133.894 96.1231 134.068 96.0926L134.871 95.9518C134.904 96.218 134.897 96.4358 134.85 96.6051C134.803 96.7744 134.717 96.9308 134.592 97.0744C134.512 97.1707 134.414 97.2586 134.297 97.3381C134.18 97.4176 134.041 97.4904 133.879 97.5564C133.717 97.6224 133.529 97.684 133.315 97.7412C133.101 97.7984 132.855 97.8514 132.577 97.9001L132.807 99.1965ZM134.641 94.6554L133.838 94.7962C133.72 94.8169 133.599 94.822 133.475 94.8115C133.352 94.801 133.236 94.7703 133.128 94.7194C133.021 94.6684 132.927 94.5945 132.847 94.4976C132.767 94.4007 132.714 94.2758 132.687 94.1231C132.618 93.7344 132.654 93.4328 132.795 93.2184C132.936 93.0039 133.155 92.8708 133.45 92.819C133.485 92.8129 133.531 92.8093 133.588 92.8082C133.645 92.8071 133.706 92.8152 133.772 92.8323C133.838 92.8494 133.908 92.88 133.982 92.9243C134.056 92.9686 134.127 93.0331 134.194 93.118C134.261 93.2029 134.322 93.3129 134.379 93.4479C134.435 93.583 134.48 93.7495 134.516 93.9473L134.641 94.6554ZM126.1 93.3295L126.83 92.289L125.774 91.5507L125.067 92.598L126.1 93.3295ZM123.916 93.7178L124.641 92.6782L123.585 91.94L122.884 92.9863L123.916 93.7178ZM128.797 97.017C129.037 96.9749 129.268 96.8913 129.492 96.7663C129.715 96.6412 129.907 96.4769 130.068 96.2733C130.229 96.0697 130.345 95.8265 130.417 95.5437C130.489 95.261 130.493 94.9408 130.43 94.5833C130.409 94.4688 130.378 94.3365 130.335 94.1865C130.292 94.0366 130.244 93.8832 130.189 93.7263C130.134 93.5695 130.078 93.4139 130.02 93.2594C129.962 93.1049 129.908 92.9642 129.857 92.8371C129.851 92.8239 129.844 92.8089 129.838 92.7921L128.665 93.3307C128.679 93.3711 128.695 93.413 128.714 93.4563C128.759 93.57 128.806 93.6897 128.855 93.8153C128.905 93.9408 128.951 94.0643 128.994 94.1856C129.037 94.3069 129.074 94.4211 129.106 94.5283C129.137 94.6355 129.16 94.7273 129.173 94.8037C129.206 94.9876 129.202 95.1377 129.162 95.2539C129.121 95.3702 129.067 95.4612 128.998 95.5269C128.929 95.5927 128.856 95.6385 128.78 95.6644C128.704 95.6903 128.645 95.7069 128.603 95.7142L122.389 96.804C122.298 96.8199 122.219 96.8267 122.15 96.8244C122.082 96.8221 122.009 96.7999 121.931 96.758C121.854 96.7161 121.783 96.6481 121.718 96.5539C121.653 96.4598 121.606 96.3294 121.576 96.1628C121.559 96.0691 121.55 95.9562 121.548 95.8241C121.546 95.692 121.549 95.5547 121.556 95.4121C121.563 95.2695 121.572 95.1301 121.584 94.9938C121.595 94.8576 121.609 94.7398 121.623 94.6406L120.974 94.5559L120.318 94.4669C120.313 94.4999 120.304 94.5858 120.289 94.7244C120.274 94.863 120.261 95.0263 120.249 95.2144C120.238 95.4025 120.233 95.6011 120.234 95.8103C120.235 96.0194 120.251 96.2108 120.282 96.3843C120.318 96.5856 120.369 96.7636 120.436 96.9183C120.503 97.073 120.577 97.2094 120.659 97.3275C120.741 97.4455 120.827 97.5448 120.919 97.6255C121.01 97.7061 121.096 97.7732 121.178 97.827C121.384 97.9625 121.61 98.0535 121.855 98.1001C122.1 98.1466 122.351 98.1474 122.608 98.1022L128.797 97.017ZM113.437 99.7105C113.77 99.652 114.048 99.5675 114.271 99.4569C114.493 99.3463 114.673 99.2272 114.81 99.0994C114.946 98.9716 115.048 98.8411 115.114 98.7079C115.18 98.5746 115.225 98.4575 115.25 98.3564C115.269 98.2781 115.282 98.1845 115.289 98.0758C115.297 97.9671 115.288 97.8434 115.264 97.7045C115.244 97.5935 115.21 97.4724 115.162 97.3413C115.113 97.2102 115.047 97.0769 114.962 96.9415C114.866 96.7865 114.743 96.6256 114.591 96.4589C114.44 96.2922 114.271 96.1241 114.085 95.9545C113.899 95.7849 113.703 95.6171 113.496 95.4512C113.289 95.2853 113.083 95.1264 112.877 94.9747C112.671 94.8229 112.471 94.68 112.277 94.5458C112.082 94.4116 111.908 94.2919 111.753 94.1866L115.272 91.8357L114.596 90.7839L110.427 93.6515L110.532 94.8464C110.661 94.9096 110.836 95.0077 111.057 95.1408C111.278 95.2739 111.516 95.4298 111.771 95.6087C112.027 95.7875 112.287 95.9799 112.551 96.1859C112.815 96.3919 113.057 96.5991 113.277 96.8075C113.497 97.0159 113.682 97.2161 113.832 97.408C113.983 97.5999 114.071 97.7705 114.098 97.9197C114.111 97.9961 114.088 98.0619 114.028 98.1172C113.968 98.1725 113.893 98.2196 113.803 98.2586C113.713 98.2976 113.62 98.3283 113.524 98.3506C113.427 98.3728 113.351 98.3889 113.296 98.3986L110.245 98.9335L110.475 100.23L113.437 99.7105ZM104.662 94.641L105.349 93.6617L104.379 92.9835L103.693 93.9628L104.662 94.641ZM106.042 95.9665L106.761 94.9278L105.713 94.1991L104.975 95.2518L106.042 95.9665ZM103.801 96.3918L104.528 95.3409L103.485 94.6112L102.757 95.6622L103.801 96.3918ZM101.262 101.845C101.947 101.725 102.464 101.468 102.814 101.074C103.022 101.195 103.255 101.277 103.513 101.319C103.771 101.362 104.057 101.355 104.37 101.301L104.406 101.294C104.635 101.25 104.854 101.166 105.063 101.039C105.272 100.913 105.452 100.755 105.605 100.563C105.827 100.707 106.068 100.797 106.327 100.834C106.587 100.871 106.88 100.86 107.206 100.803C107.453 100.76 107.688 100.675 107.911 100.548C108.134 100.421 108.32 100.261 108.468 100.067C108.691 100.21 108.941 100.298 109.219 100.329C109.497 100.361 109.815 100.346 110.173 100.283L110.684 100.193L110.454 98.8969L109.943 98.9865C109.62 99.0432 109.369 99.0254 109.192 98.9331C109.014 98.8408 108.898 98.6616 108.844 98.3955L108.571 96.8545L107.272 97.0821L107.545 98.618C107.563 98.7615 107.56 98.8855 107.535 98.99C107.511 99.0945 107.471 99.1829 107.416 99.2553C107.36 99.3276 107.294 99.3839 107.217 99.4243C107.14 99.4646 107.06 99.4921 106.976 99.5068C106.671 99.5604 106.438 99.5349 106.28 99.4302C106.122 99.3256 106.017 99.131 105.967 98.8463L105.703 97.3573L104.41 97.5841L104.678 99.0991C104.709 99.2727 104.709 99.4151 104.676 99.5263C104.644 99.6375 104.597 99.7263 104.535 99.7926C104.474 99.8589 104.407 99.9072 104.335 99.9377C104.264 99.9682 104.202 99.9897 104.15 100.002C103.858 100.05 103.632 100.022 103.474 99.9169C103.316 99.8123 103.212 99.6194 103.162 99.3382L102.898 97.8492L101.6 98.0769L101.868 99.5919C101.89 99.7169 101.898 99.8301 101.891 99.9315C101.884 100.033 101.851 100.124 101.791 100.204C101.732 100.284 101.642 100.353 101.521 100.41C101.401 100.467 101.238 100.513 101.033 100.549L100.36 100.667L100.59 101.963L101.262 101.845ZM100.705 101.943C100.774 101.931 100.824 101.906 100.855 101.869C100.886 101.831 100.895 101.774 100.881 101.698L100.724 100.807C100.713 100.748 100.686 100.704 100.643 100.674C100.6 100.644 100.544 100.635 100.475 100.647L98.2953 101.029C98.2189 101.043 98.1682 101.07 98.1434 101.112C98.1186 101.154 98.1114 101.205 98.1219 101.264L98.2797 102.154C98.2932 102.23 98.3184 102.281 98.3553 102.307C98.3921 102.333 98.4487 102.339 98.5252 102.325L100.705 101.943ZM171.466 110.18C171.762 110.128 172.027 110.046 172.261 109.933C172.496 109.82 172.697 109.685 172.866 109.526C173.036 109.368 173.172 109.19 173.275 108.993C173.378 108.796 173.445 108.587 173.478 108.367C173.512 108.135 173.51 107.91 173.471 107.692C173.45 107.57 173.418 107.451 173.375 107.333C173.249 107.004 173.053 106.715 172.786 106.464C172.662 106.35 172.533 106.23 172.399 106.103C172.266 105.976 172.129 105.849 171.99 105.721C171.851 105.593 171.714 105.468 171.579 105.345C171.445 105.222 171.317 105.103 171.196 104.988C170.909 104.723 170.626 104.462 170.347 104.203L169.497 105.109L170.159 105.685C170.477 105.962 170.769 106.218 171.037 106.452C171.304 106.686 171.531 106.903 171.719 107.103C171.907 107.302 172.041 107.47 172.123 107.606C172.204 107.742 172.253 107.857 172.27 107.951C172.279 108.003 172.281 108.054 172.276 108.105C172.258 108.248 172.216 108.368 172.149 108.466C172.082 108.563 172 108.645 171.902 108.71C171.804 108.776 171.698 108.827 171.582 108.863C171.467 108.899 171.355 108.927 171.248 108.946C171.14 108.965 171.026 108.97 170.906 108.96C170.786 108.951 170.669 108.938 170.555 108.922C170.644 108.796 170.722 108.67 170.789 108.543C170.856 108.417 170.909 108.287 170.946 108.153C170.983 108.02 171.006 107.881 171.014 107.736C171.023 107.591 171.012 107.436 170.983 107.269C170.946 107.064 170.861 106.852 170.727 106.632C170.593 106.412 170.419 106.217 170.204 106.045C169.989 105.873 169.738 105.744 169.452 105.656C169.166 105.568 168.854 105.554 168.517 105.613C168.218 105.666 167.948 105.762 167.706 105.903C167.464 106.044 167.261 106.217 167.098 106.42C166.936 106.624 166.821 106.856 166.754 107.114C166.687 107.373 166.678 107.645 166.729 107.929C166.755 108.079 166.793 108.212 166.84 108.331C166.888 108.45 166.947 108.559 167.017 108.66C167.087 108.76 167.166 108.854 167.255 108.94C167.344 109.027 167.443 109.114 167.551 109.202C167.47 109.227 167.395 109.248 167.328 109.263C167.261 109.278 167.194 109.292 167.128 109.303C167.059 109.315 166.987 109.327 166.912 109.339C166.837 109.35 166.75 109.364 166.653 109.381L166.064 109.485L166.294 110.781L166.883 110.678C167.373 110.592 167.816 110.49 168.213 110.372C168.61 110.254 168.966 110.116 169.282 109.956C169.324 109.97 169.375 109.986 169.435 110.002C169.495 110.018 169.554 110.034 169.61 110.049C169.674 110.067 169.74 110.084 169.807 110.1C170.11 110.19 170.4 110.237 170.676 110.241C170.953 110.244 171.216 110.224 171.466 110.18ZM169.12 108.648C168.944 108.589 168.79 108.531 168.656 108.474C168.522 108.417 168.407 108.354 168.311 108.285C168.214 108.216 168.137 108.136 168.08 108.044C168.022 107.952 167.982 107.842 167.959 107.713C167.941 107.609 167.948 107.506 167.98 107.404C168.012 107.302 168.063 107.208 168.134 107.122C168.205 107.036 168.291 106.963 168.393 106.902C168.496 106.841 168.606 106.8 168.724 106.78C168.804 106.766 168.898 106.767 169.007 106.784C169.116 106.8 169.221 106.837 169.325 106.894C169.428 106.951 169.521 107.03 169.603 107.13C169.685 107.23 169.739 107.353 169.765 107.499C169.787 107.62 169.784 107.735 169.757 107.844C169.729 107.952 169.685 108.054 169.625 108.149C169.565 108.243 169.49 108.333 169.401 108.416C169.312 108.5 169.218 108.577 169.12 108.648ZM163.778 111.48C163.861 111.465 163.96 111.443 164.072 111.412C164.185 111.382 164.301 111.334 164.418 111.271C164.536 111.207 164.65 111.122 164.76 111.015C164.87 110.908 164.964 110.773 165.043 110.608C165.233 110.69 165.438 110.748 165.657 110.783C165.876 110.817 166.109 110.813 166.356 110.77L166.502 110.744L166.272 109.448L166.126 109.474C166.092 109.48 166.026 109.485 165.93 109.489C165.834 109.494 165.733 109.478 165.626 109.443C165.52 109.408 165.419 109.343 165.323 109.247C165.227 109.151 165.162 109.006 165.127 108.811C165.064 108.497 164.961 108.203 164.818 107.932C164.675 107.66 164.494 107.43 164.274 107.243C164.055 107.056 163.8 106.922 163.512 106.84C163.223 106.758 162.9 106.749 162.542 106.812C162.177 106.876 161.883 106.999 161.662 107.183C161.44 107.367 161.267 107.583 161.144 107.83C161.022 108.077 160.935 108.341 160.885 108.624C160.835 108.907 160.797 109.179 160.772 109.441C160.755 109.591 160.737 109.727 160.718 109.85C160.698 109.974 160.673 110.08 160.64 110.17C160.608 110.26 160.567 110.332 160.517 110.387C160.468 110.443 160.405 110.477 160.329 110.49L159.677 110.605L159.917 111.899L160.558 111.787C160.798 111.745 161.001 111.672 161.168 111.57C161.334 111.467 161.481 111.319 161.608 111.125C161.833 111.2 162.04 111.267 162.229 111.325C162.419 111.383 162.6 111.428 162.772 111.46C162.944 111.493 163.112 111.512 163.274 111.517C163.436 111.523 163.604 111.51 163.778 111.48ZM163.611 110.237C163.518 110.253 163.406 110.253 163.275 110.237C163.145 110.22 163.005 110.195 162.856 110.16C162.706 110.125 162.553 110.083 162.395 110.034C162.238 109.985 162.088 109.935 161.947 109.884C161.982 109.721 162.011 109.541 162.032 109.346C162.053 109.151 162.088 108.967 162.138 108.793C162.188 108.62 162.261 108.47 162.356 108.342C162.452 108.214 162.59 108.134 162.771 108.103C162.979 108.066 163.161 108.084 163.315 108.155C163.469 108.226 163.599 108.322 163.704 108.441C163.81 108.56 163.891 108.687 163.949 108.822C164.007 108.957 164.044 109.069 164.06 109.16C164.102 109.396 164.108 109.583 164.077 109.723C164.046 109.863 164.001 109.97 163.943 110.044C163.884 110.119 163.822 110.168 163.757 110.192C163.691 110.217 163.643 110.231 163.611 110.237ZM160.115 111.864L159.885 110.568L159.739 110.594C159.625 110.614 159.488 110.624 159.328 110.625C159.169 110.627 159.009 110.603 158.848 110.554C158.687 110.505 158.532 110.423 158.383 110.308C158.233 110.193 158.111 110.028 158.015 109.812L156.412 106.292L155.193 106.812L155.407 107.29C155.096 107.459 154.8 107.646 154.52 107.851C154.239 108.056 153.999 108.285 153.801 108.54C153.602 108.795 153.457 109.078 153.365 109.387C153.273 109.697 153.26 110.039 153.326 110.414C153.384 110.737 153.49 111.017 153.645 111.254C153.8 111.492 153.987 111.684 154.206 111.83C154.426 111.976 154.668 112.075 154.934 112.129C155.2 112.182 155.472 112.185 155.75 112.136C155.899 112.11 156.053 112.066 156.21 112.004C156.368 111.943 156.517 111.866 156.658 111.773C156.8 111.68 156.927 111.573 157.04 111.451C157.152 111.329 157.239 111.197 157.3 111.054C157.443 111.254 157.611 111.42 157.804 111.55C157.998 111.681 158.21 111.779 158.44 111.844C158.67 111.909 158.915 111.945 159.174 111.952C159.433 111.958 159.698 111.938 159.969 111.89L160.115 111.864ZM155.481 110.83C155.408 110.843 155.333 110.846 155.256 110.838C155.137 110.83 155.025 110.801 154.921 110.751C154.817 110.702 154.728 110.632 154.653 110.541C154.577 110.45 154.528 110.341 154.506 110.212C154.447 109.883 154.541 109.581 154.788 109.307C155.036 109.032 155.421 108.758 155.946 108.483C156.02 108.635 156.088 108.772 156.151 108.893C156.213 109.015 156.267 109.129 156.311 109.236C156.355 109.342 156.385 109.426 156.401 109.485C156.417 109.545 156.427 109.587 156.431 109.612C156.445 109.688 156.449 109.764 156.445 109.84C156.441 110.102 156.363 110.306 156.209 110.453C156.056 110.6 155.853 110.715 155.599 110.799C155.558 110.813 155.519 110.824 155.481 110.83ZM143.542 107.352L147.521 104.716L147.146 104.181L143.479 106.601L143.542 107.352ZM146.69 114.219C147.023 114.16 147.301 114.076 147.524 113.965C147.746 113.855 147.926 113.735 148.062 113.608C148.199 113.48 148.301 113.349 148.367 113.216C148.433 113.083 148.478 112.966 148.503 112.865C148.522 112.786 148.535 112.693 148.542 112.584C148.55 112.475 148.541 112.352 148.517 112.213C148.497 112.102 148.463 111.981 148.415 111.85C148.366 111.718 148.3 111.585 148.215 111.45C148.119 111.295 147.996 111.134 147.844 110.967C147.693 110.8 147.524 110.632 147.338 110.463C147.152 110.293 146.956 110.125 146.749 109.959C146.542 109.794 146.336 109.635 146.13 109.483C145.923 109.331 145.723 109.188 145.529 109.054C145.335 108.92 145.161 108.8 145.006 108.695L148.524 106.344L147.849 105.292L143.68 108.16L143.784 109.355C143.914 109.418 144.089 109.516 144.31 109.649C144.53 109.782 144.769 109.938 145.024 110.117C145.28 110.296 145.54 110.488 145.804 110.694C146.068 110.9 146.31 111.107 146.53 111.316C146.749 111.524 146.935 111.724 147.085 111.916C147.236 112.108 147.324 112.279 147.351 112.428C147.364 112.504 147.341 112.57 147.281 112.625C147.221 112.681 147.146 112.728 147.056 112.767C146.966 112.806 146.873 112.837 146.776 112.859C146.68 112.881 146.604 112.897 146.548 112.907L143.498 113.442L143.728 114.738L146.69 114.219ZM139.745 118.319C140.107 118.256 140.428 118.184 140.71 118.105C140.991 118.025 141.243 117.933 141.465 117.83C141.687 117.727 141.883 117.612 142.055 117.488C142.226 117.363 142.38 117.224 142.518 117.071C142.781 116.774 142.961 116.449 143.058 116.096C143.154 115.742 143.168 115.327 143.097 114.849L143.989 114.692L143.759 113.396L142.873 113.551L142.747 112.843C142.682 112.475 142.581 112.141 142.446 111.841C142.31 111.541 142.136 111.292 141.923 111.093C141.711 110.894 141.458 110.753 141.166 110.67C140.873 110.587 140.538 110.579 140.159 110.645C139.853 110.699 139.578 110.805 139.334 110.965C139.089 111.124 138.882 111.326 138.71 111.571C138.651 111.663 138.591 111.769 138.53 111.889C138.469 112.009 138.419 112.146 138.379 112.299C138.34 112.453 138.316 112.626 138.308 112.819C138.299 113.012 138.316 113.229 138.358 113.468C138.407 113.746 138.483 113.987 138.586 114.19C138.688 114.394 138.808 114.566 138.946 114.704C139.083 114.843 139.235 114.953 139.402 115.035C139.569 115.117 139.742 115.177 139.921 115.215C140.099 115.254 140.282 115.271 140.467 115.267C140.653 115.263 140.833 115.246 141.007 115.215L141.809 115.075C141.842 115.341 141.835 115.559 141.788 115.728C141.741 115.897 141.655 116.054 141.53 116.197C141.45 116.294 141.352 116.381 141.235 116.461C141.119 116.54 140.979 116.613 140.817 116.679C140.655 116.745 140.467 116.807 140.253 116.864C140.039 116.921 139.793 116.974 139.515 117.023L139.745 118.319ZM141.58 113.778L140.777 113.919C140.659 113.94 140.538 113.945 140.414 113.934C140.29 113.924 140.174 113.893 140.067 113.842C139.959 113.791 139.866 113.717 139.786 113.62C139.706 113.523 139.652 113.399 139.625 113.246C139.556 112.857 139.592 112.556 139.734 112.341C139.875 112.127 140.093 111.994 140.389 111.942C140.423 111.936 140.469 111.932 140.526 111.931C140.584 111.93 140.645 111.938 140.711 111.955C140.776 111.972 140.846 112.003 140.921 112.047C140.995 112.091 141.065 112.156 141.132 112.241C141.199 112.326 141.261 112.436 141.317 112.571C141.373 112.706 141.419 112.872 141.454 113.07L141.58 113.778ZM132.983 109.864L133.67 108.885L132.7 108.206L132.013 109.186L132.983 109.864ZM134.363 111.189L135.082 110.151L134.034 109.422L133.296 110.475L134.363 111.189ZM132.121 111.615L132.849 110.564L131.806 109.834L131.078 110.885L132.121 111.615ZM129.849 117.172C130.096 117.129 130.328 117.047 130.547 116.926C130.766 116.805 130.955 116.64 131.115 116.429C131.545 116.694 132.079 116.77 132.715 116.659C132.958 116.616 133.188 116.535 133.406 116.417C133.623 116.298 133.811 116.134 133.971 115.923C134.407 116.197 134.948 116.278 135.595 116.164C135.834 116.119 136.064 116.032 136.285 115.904C136.506 115.776 136.695 115.607 136.851 115.399C137.008 115.191 137.121 114.944 137.19 114.658C137.26 114.372 137.263 114.052 137.2 113.698C137.18 113.583 137.148 113.452 137.103 113.304C137.059 113.156 137.01 113.006 136.956 112.852C136.902 112.699 136.846 112.547 136.787 112.396C136.728 112.246 136.672 112.109 136.62 111.985C136.567 111.862 136.523 111.759 136.487 111.676C136.451 111.593 136.427 111.54 136.416 111.517L135.261 112.132C135.285 112.182 135.315 112.25 135.354 112.336C135.393 112.422 135.434 112.519 135.478 112.626C135.522 112.733 135.567 112.845 135.613 112.964C135.659 113.083 135.703 113.201 135.743 113.317C135.783 113.434 135.819 113.545 135.85 113.65C135.882 113.756 135.904 113.847 135.918 113.923C135.95 114.107 135.948 114.258 135.912 114.375C135.875 114.492 135.824 114.586 135.757 114.657C135.691 114.728 135.62 114.779 135.546 114.812C135.471 114.845 135.411 114.865 135.366 114.873C135.056 114.928 134.821 114.9 134.66 114.79C134.499 114.681 134.393 114.484 134.343 114.199L134.081 112.72L132.788 112.947L133.05 114.426C133.083 114.61 133.079 114.762 133.039 114.881C133 115.001 132.946 115.095 132.877 115.165C132.809 115.234 132.737 115.283 132.661 115.313C132.586 115.342 132.527 115.36 132.486 115.368C132.18 115.421 131.948 115.395 131.792 115.288C131.635 115.181 131.531 114.986 131.481 114.701L131.218 113.222L129.92 113.45L130.186 114.95C130.219 115.137 130.216 115.289 130.175 115.405C130.135 115.521 130.081 115.613 130.012 115.681C129.943 115.748 129.871 115.796 129.795 115.823C129.72 115.851 129.661 115.868 129.619 115.876L128.446 116.081L128.676 117.378L129.849 117.172ZM122.863 111.789L123.549 110.81L122.58 110.131L121.893 111.111L122.863 111.789ZM124.243 113.114L124.962 112.076L123.913 111.347L123.175 112.4L124.243 113.114ZM122.001 113.54L122.729 112.489L121.685 111.759L120.958 112.81L122.001 113.54ZM119.463 118.993C120.148 118.873 120.665 118.616 121.014 118.222C121.222 118.343 121.455 118.425 121.714 118.467C121.972 118.51 122.258 118.503 122.57 118.448L122.607 118.442C122.836 118.398 123.054 118.313 123.263 118.187C123.472 118.061 123.653 117.903 123.805 117.711C124.028 117.855 124.269 117.945 124.528 117.982C124.787 118.019 125.08 118.008 125.407 117.951C125.653 117.908 125.888 117.823 126.111 117.696C126.334 117.569 126.52 117.409 126.668 117.214C126.891 117.358 127.141 117.446 127.419 117.477C127.697 117.509 128.015 117.494 128.373 117.431L128.884 117.341L128.654 116.045L128.144 116.134C127.82 116.191 127.57 116.173 127.392 116.081C127.215 115.989 127.099 115.809 127.044 115.543L126.771 114.002L125.473 114.23L125.745 115.766C125.763 115.909 125.76 116.033 125.736 116.138C125.711 116.242 125.671 116.331 125.616 116.403C125.561 116.475 125.495 116.532 125.418 116.572C125.341 116.613 125.26 116.64 125.177 116.655C124.871 116.708 124.639 116.683 124.481 116.578C124.322 116.473 124.218 116.279 124.167 115.994L123.903 114.505L122.61 114.732L122.879 116.247C122.91 116.421 122.909 116.563 122.877 116.674C122.844 116.785 122.797 116.874 122.736 116.94C122.674 117.007 122.607 117.055 122.536 117.086C122.464 117.116 122.402 117.138 122.351 117.15C122.058 117.198 121.833 117.169 121.675 117.065C121.516 116.96 121.412 116.767 121.362 116.486L121.098 114.997L119.8 115.225L120.069 116.74C120.091 116.865 120.098 116.978 120.091 117.079C120.084 117.181 120.051 117.272 119.992 117.352C119.932 117.432 119.842 117.501 119.722 117.558C119.601 117.615 119.438 117.661 119.233 117.697L118.56 117.815L118.79 119.111L119.463 118.993ZM118.999 119.075L118.769 117.778C118.477 117.83 118.246 117.855 118.076 117.854C117.905 117.854 117.771 117.815 117.673 117.737C117.575 117.659 117.502 117.539 117.453 117.376C117.404 117.212 117.356 116.992 117.306 116.714L116.432 111.784L115.134 112.012L116.008 116.942C116.06 117.233 116.117 117.498 116.178 117.736C116.24 117.974 116.318 118.183 116.411 118.364C116.504 118.544 116.619 118.696 116.757 118.818C116.896 118.941 117.067 119.032 117.271 119.091C117.475 119.15 117.718 119.179 118.001 119.177C118.284 119.176 118.617 119.142 118.999 119.075ZM111.112 117.312L111.893 116.198L110.763 115.408L109.993 116.521L111.112 117.312ZM112.363 123.127C113.385 122.947 114.109 122.572 114.537 121.999C114.964 121.427 115.091 120.656 114.92 119.688L114.299 116.184L113 116.412L113.622 119.916C113.664 120.155 113.679 120.378 113.667 120.584C113.656 120.79 113.598 120.975 113.494 121.138C113.39 121.301 113.23 121.441 113.012 121.558C112.795 121.675 112.502 121.766 112.133 121.83L111.075 122.016C110.744 122.074 110.43 122.053 110.131 121.953C109.832 121.853 109.577 121.695 109.367 121.478C109.231 121.323 109.115 121.142 109.018 120.935C108.92 120.729 108.85 120.507 108.809 120.271C108.777 120.091 108.757 119.916 108.751 119.747C108.744 119.578 108.751 119.4 108.771 119.212C108.792 119.024 108.826 118.822 108.874 118.606C108.921 118.39 108.985 118.145 109.065 117.87L107.794 117.518C107.703 117.838 107.631 118.13 107.575 118.394C107.52 118.658 107.482 118.908 107.461 119.144C107.44 119.38 107.435 119.608 107.445 119.829C107.456 120.049 107.481 120.273 107.522 120.502C107.586 120.863 107.692 121.202 107.841 121.517C107.99 121.833 108.172 122.111 108.387 122.353C108.569 122.55 108.772 122.72 108.997 122.863C109.221 123.006 109.458 123.119 109.707 123.2C109.956 123.282 110.215 123.333 110.484 123.354C110.753 123.375 111.026 123.361 111.305 123.312L112.363 123.127ZM175.466 129.77C175.553 129.754 175.656 129.73 175.776 129.697C175.895 129.663 176.016 129.612 176.138 129.542C176.26 129.472 176.378 129.378 176.491 129.26C176.605 129.141 176.698 128.99 176.771 128.805C176.844 128.621 176.889 128.396 176.907 128.132C176.925 127.868 176.902 127.555 176.838 127.194C176.78 126.868 176.68 126.563 176.538 126.28C176.397 125.997 176.216 125.758 175.997 125.562C175.778 125.366 175.52 125.224 175.223 125.137C174.926 125.049 174.595 125.037 174.23 125.101C173.865 125.165 173.572 125.289 173.35 125.473C173.128 125.657 172.956 125.872 172.833 126.119C172.71 126.366 172.623 126.631 172.573 126.914C172.523 127.196 172.485 127.469 172.46 127.731C172.443 127.881 172.426 128.017 172.406 128.14C172.387 128.264 172.361 128.37 172.328 128.46C172.296 128.55 172.255 128.622 172.206 128.677C172.156 128.733 172.093 128.767 172.017 128.78L171.365 128.895L171.606 130.189L172.247 130.077C172.487 130.035 172.69 129.962 172.856 129.86C173.023 129.757 173.169 129.609 173.296 129.415C173.521 129.49 173.728 129.556 173.917 129.615C174.107 129.673 174.288 129.718 174.46 129.75C174.633 129.783 174.8 129.802 174.962 129.807C175.125 129.813 175.293 129.8 175.466 129.77ZM175.3 128.527C175.206 128.543 175.094 128.543 174.964 128.527C174.834 128.51 174.694 128.484 174.544 128.45C174.395 128.415 174.241 128.373 174.084 128.324C173.926 128.275 173.777 128.225 173.635 128.174C173.671 128.011 173.699 127.831 173.72 127.636C173.741 127.441 173.776 127.257 173.826 127.083C173.876 126.91 173.949 126.759 174.044 126.632C174.14 126.504 174.278 126.424 174.459 126.393C174.668 126.356 174.849 126.373 175.003 126.445C175.157 126.516 175.287 126.611 175.393 126.731C175.498 126.85 175.58 126.977 175.638 127.112C175.696 127.247 175.733 127.359 175.749 127.449C175.79 127.685 175.796 127.873 175.765 128.013C175.734 128.152 175.69 128.26 175.631 128.334C175.573 128.409 175.511 128.458 175.445 128.482C175.379 128.506 175.331 128.521 175.3 128.527ZM166.783 127.911L167.563 126.797L166.434 126.007L165.664 127.119L166.783 127.911ZM168.035 133.703C169.057 133.524 169.782 133.148 170.209 132.576C170.636 132.004 170.764 131.233 170.592 130.265L170.585 130.223C170.711 130.248 170.845 130.26 170.986 130.26C171.128 130.26 171.265 130.249 171.397 130.226L171.814 130.152L171.584 128.856L171.167 128.929C170.938 128.969 170.741 128.946 170.577 128.858C170.412 128.771 170.306 128.613 170.259 128.385L169.971 126.761L168.673 126.989L169.294 130.492C169.336 130.732 169.352 130.955 169.34 131.161C169.328 131.367 169.27 131.551 169.167 131.715C169.063 131.878 168.902 132.018 168.685 132.135C168.467 132.251 168.174 132.342 167.805 132.407L166.747 132.592C166.417 132.65 166.102 132.629 165.803 132.53C165.504 132.43 165.249 132.272 165.039 132.055C164.904 131.899 164.788 131.718 164.69 131.512C164.592 131.305 164.523 131.084 164.481 130.848C164.449 130.667 164.43 130.493 164.423 130.324C164.416 130.155 164.423 129.977 164.444 129.789C164.464 129.601 164.498 129.399 164.546 129.183C164.594 128.967 164.658 128.722 164.738 128.446L163.466 128.095C163.376 128.415 163.303 128.707 163.248 128.971C163.192 129.234 163.154 129.484 163.133 129.721C163.112 129.957 163.107 130.185 163.118 130.405C163.128 130.625 163.153 130.85 163.194 131.079C163.258 131.44 163.365 131.778 163.514 132.094C163.663 132.409 163.845 132.688 164.06 132.93C164.242 133.127 164.445 133.297 164.669 133.44C164.893 133.583 165.13 133.696 165.379 133.777C165.628 133.859 165.888 133.91 166.156 133.931C166.425 133.952 166.699 133.938 166.977 133.889L168.035 133.703ZM156.212 126.023L156.941 124.982L155.886 124.244L155.179 125.291L156.212 126.023ZM154.028 126.411L154.753 125.371L153.697 124.633L152.995 125.679L154.028 126.411ZM155.74 132.971C156.115 132.905 156.467 132.807 156.795 132.676C157.123 132.545 157.404 132.365 157.637 132.137C157.871 131.908 158.043 131.622 158.154 131.278C158.266 130.935 158.292 130.518 158.234 130.027L158.186 129.638C158.14 129.399 158.081 129.163 158.01 128.931C157.938 128.698 157.851 128.478 157.748 128.271C157.645 128.064 157.523 127.875 157.384 127.704C157.244 127.533 157.083 127.391 156.899 127.276C156.716 127.162 156.51 127.08 156.28 127.031C156.051 126.981 155.797 126.976 155.517 127.014L155.413 127.032C155.138 127.081 154.894 127.172 154.682 127.306C154.437 127.463 154.235 127.655 154.077 127.881C153.918 128.108 153.808 128.36 153.746 128.637C153.684 128.915 153.679 129.199 153.73 129.491C153.796 129.859 153.92 130.163 154.104 130.402C154.288 130.642 154.523 130.818 154.808 130.931C155.093 131.044 155.373 131.095 155.647 131.085C155.921 131.074 156.152 131.052 156.34 131.019C156.562 130.98 156.797 130.921 157.045 130.842C157.029 130.913 156.995 130.986 156.944 131.061C156.893 131.136 156.81 131.211 156.696 131.284C156.582 131.358 156.429 131.429 156.236 131.497C156.044 131.564 155.802 131.624 155.51 131.675L153.383 132.048L153.613 133.344L155.74 132.971ZM156.217 129.839C155.938 129.887 155.7 129.888 155.502 129.84C155.159 129.765 154.96 129.576 154.907 129.274C154.883 129.138 154.889 129.015 154.924 128.903C154.96 128.791 155.016 128.693 155.092 128.608C155.169 128.523 155.256 128.458 155.354 128.414C155.452 128.37 155.546 128.34 155.636 128.324C155.668 128.319 155.701 128.315 155.736 128.312C155.938 128.298 156.105 128.333 156.238 128.415C156.371 128.497 156.48 128.606 156.565 128.741C156.65 128.877 156.716 129.026 156.763 129.19C156.81 129.353 156.85 129.509 156.883 129.657C156.64 129.743 156.418 129.803 156.217 129.839ZM153.795 133.312L153.565 132.016L153.44 132.038C153.185 132.054 152.974 131.991 152.807 131.848C152.64 131.706 152.536 131.52 152.496 131.291L151.552 125.965L150.258 126.192L151.203 131.518C151.219 131.611 151.227 131.712 151.227 131.819C151.226 131.927 151.189 132.032 151.116 132.134C151.043 132.236 150.919 132.332 150.745 132.422C150.571 132.512 150.317 132.586 149.983 132.644L150.213 133.94C150.474 133.895 150.707 133.843 150.911 133.786C151.116 133.728 151.297 133.662 151.454 133.586C151.611 133.51 151.744 133.422 151.853 133.323C151.963 133.223 152.053 133.11 152.124 132.983C152.251 133.075 152.371 133.15 152.484 133.209C152.596 133.268 152.711 133.312 152.827 133.34C152.943 133.368 153.068 133.381 153.202 133.379C153.336 133.377 153.49 133.362 153.665 133.335L153.795 133.312ZM147.038 134.497C147.379 134.438 147.675 134.346 147.927 134.223C148.18 134.1 148.389 133.94 148.555 133.743C148.749 133.87 148.975 133.952 149.233 133.989C149.49 134.026 149.766 134.019 150.062 133.967L150.39 133.909L150.161 132.613L149.832 132.671C149.801 132.676 149.741 132.682 149.652 132.689C149.564 132.695 149.472 132.685 149.375 132.657C149.279 132.629 149.188 132.577 149.103 132.501C149.018 132.424 148.961 132.308 148.934 132.152L148.641 130.501L147.348 130.728L147.647 132.415C147.659 132.484 147.662 132.557 147.656 132.633C147.65 132.71 147.62 132.783 147.566 132.853C147.512 132.924 147.426 132.99 147.306 133.052C147.186 133.114 147.02 133.164 146.808 133.201L145.885 133.363L146.115 134.659L147.038 134.497ZM148.676 137.125L149.457 136.011L148.327 135.221L147.557 136.333L148.676 137.125ZM140.824 139.049C140.685 138.269 140.545 137.487 140.403 136.705C140.261 135.923 140.12 135.14 139.981 134.355C140.071 134.379 140.156 134.402 140.235 134.426C140.315 134.45 140.393 134.473 140.471 134.497C140.549 134.521 140.628 134.546 140.71 134.571C140.791 134.596 140.88 134.623 140.975 134.653C141.229 134.734 141.482 134.813 141.734 134.891C141.986 134.968 142.226 135.033 142.452 135.087C142.678 135.14 142.889 135.178 143.085 135.201C143.281 135.224 143.452 135.223 143.598 135.197C143.674 135.184 143.762 135.162 143.86 135.132C143.959 135.103 144.062 135.059 144.168 135.003C144.275 134.947 144.378 134.874 144.479 134.785C144.58 134.696 144.67 134.583 144.75 134.448C144.923 134.578 145.125 134.658 145.354 134.688C145.583 134.717 145.856 134.705 146.172 134.649L146.318 134.623L146.089 133.327L145.943 133.353C145.894 133.361 145.822 133.363 145.728 133.358C145.634 133.353 145.538 133.332 145.438 133.296C145.338 133.26 145.246 133.203 145.16 133.125C145.075 133.047 145.016 132.937 144.984 132.796C144.98 132.757 144.975 132.716 144.967 132.673L144.944 132.54C144.886 132.214 144.784 131.911 144.638 131.633C144.492 131.354 144.308 131.12 144.086 130.93C143.864 130.74 143.607 130.603 143.317 130.52C143.026 130.437 142.705 130.426 142.354 130.487L142.297 130.497C141.96 130.556 141.685 130.667 141.474 130.83C141.25 131.001 141.076 131.211 140.951 131.458C140.826 131.705 140.741 131.979 140.693 132.279C140.646 132.579 140.62 132.885 140.614 133.197L139.695 132.924L138.606 133.877L139.567 139.27L140.824 139.049ZM143.369 133.906C143.292 133.919 143.195 133.92 143.076 133.906C142.957 133.893 142.828 133.87 142.687 133.838C142.547 133.805 142.4 133.766 142.245 133.722C142.09 133.678 141.938 133.631 141.79 133.582C141.785 133.314 141.794 133.085 141.816 132.895C141.838 132.705 141.869 132.546 141.909 132.417C141.949 132.289 141.996 132.185 142.05 132.105C142.104 132.026 142.162 131.964 142.224 131.919C142.286 131.874 142.349 131.843 142.414 131.824C142.479 131.806 142.542 131.791 142.605 131.78C142.744 131.756 142.868 131.758 142.977 131.787C143.086 131.816 143.184 131.861 143.27 131.921C143.355 131.981 143.429 132.052 143.49 132.132C143.551 132.213 143.602 132.293 143.643 132.374C143.684 132.454 143.715 132.528 143.736 132.596C143.757 132.664 143.77 132.714 143.776 132.745C143.825 133.023 143.837 133.239 143.813 133.393C143.788 133.548 143.748 133.662 143.691 133.737C143.634 133.811 143.574 133.857 143.511 133.873C143.447 133.89 143.4 133.901 143.369 133.906ZM131.605 140.086C132.095 140 132.522 139.85 132.886 139.636C133.249 139.422 133.544 139.157 133.771 138.84C133.998 138.522 134.156 138.158 134.244 137.747C134.333 137.336 134.345 136.89 134.281 136.407L133.699 133.127L132.401 133.355L132.963 136.525C133.025 136.876 133.04 137.18 133.007 137.438C132.974 137.696 132.892 137.916 132.763 138.096C132.634 138.276 132.453 138.422 132.222 138.534C131.991 138.646 131.709 138.731 131.375 138.79L130.729 138.903L130.959 140.2L131.605 140.086ZM129.498 137.573L128.167 130.066L126.869 130.293L128.2 137.801L129.498 137.573ZM122.349 138.746L122.054 137.08L120.34 137.38L120.635 139.047L122.349 138.746ZM118.524 139.417L118.228 137.75L116.514 138.051L116.81 139.718L118.524 139.417ZM126.169 138.076L125.873 136.41L124.16 136.71L124.455 138.377L126.169 138.076Z" fill="#FF6200"/>
<path d="M98.0177 102.31C98.0971 102.296 98.1613 102.284 98.2103 102.274C98.3409 102.248 98.5802 102.193 98.9281 102.109C99.276 102.026 99.5747 101.954 99.8371 101.876L99.68 101.038C99.3092 101.122 99.0007 101.187 98.7416 101.252C98.4825 101.317 98.2516 101.371 98.0489 101.413C97.8462 101.455 97.7181 101.479 97.6645 101.485C97.6262 101.489 97.5432 101.502 97.4154 101.524L97.2407 101.554C97.0117 101.595 96.7306 101.641 96.3972 101.693C96.0639 101.745 95.651 101.794 95.1585 101.842L95.3006 102.644C95.6312 102.592 95.9927 102.553 96.3853 102.526C96.7778 102.5 97.1474 102.457 97.4942 102.4C97.6242 102.378 97.739 102.359 97.8387 102.342L98.0177 102.31ZM95.3476 102.635L95.1921 101.758C95.0566 101.795 94.8939 101.788 94.7041 101.737C94.5143 101.686 94.3813 101.618 94.3051 101.534C94.2289 101.451 94.1558 101.339 94.0858 101.198C94.0158 101.058 93.9625 100.894 93.9259 100.706C93.8893 100.518 93.8262 100.362 93.7365 100.239C93.6468 100.115 93.5235 100.075 93.3666 100.119C93.2098 100.162 93.1028 100.251 93.0457 100.384C92.9886 100.517 92.9487 100.683 92.9258 100.882C92.9028 101.08 92.8751 101.27 92.8426 101.451C92.8101 101.631 92.7001 101.821 92.5125 102.019C92.3249 102.217 92.0917 102.331 91.8129 102.36L91.9668 103.228C92.4149 103.098 92.7121 102.981 92.8583 102.877C93.0046 102.774 93.1363 102.652 93.2534 102.511C93.3705 102.371 93.451 102.224 93.4948 102.07C93.5386 101.917 93.6078 101.934 93.7024 102.122C93.7969 102.309 93.9666 102.456 94.2114 102.562C94.4562 102.668 94.8349 102.693 95.3476 102.635ZM91.7002 106.368C91.7315 106.362 91.7654 106.353 91.8019 106.34C91.8383 106.327 91.8768 106.307 91.9173 106.281L92.0174 106.171C92.2152 105.963 92.3983 105.819 92.5668 105.739C92.7674 105.633 92.9796 105.555 93.2033 105.506C93.427 105.457 93.6416 105.411 93.8471 105.369C94.2157 105.226 94.3854 105.073 94.3564 104.91C94.3364 104.797 94.1771 104.718 93.8787 104.673L93.7859 104.659C93.7202 104.653 93.6468 104.651 93.5656 104.655C93.4439 104.66 93.3079 104.675 93.1576 104.702C92.4939 104.818 91.935 105.088 91.4807 105.511C91.2758 105.703 91.1872 105.877 91.2151 106.034C91.253 106.248 91.4147 106.359 91.7002 106.368ZM87.5701 104.427C87.2087 105.119 87.4427 105.292 88.2721 104.946C88.6936 104.775 89.0451 104.408 89.3264 103.847C89.6582 103.315 89.9025 102.764 90.0593 102.191C90.0402 102.448 90.1877 102.715 90.5018 102.994C90.8159 103.273 91.3455 103.347 92.0905 103.216L91.94 102.367C91.4195 102.381 91.062 102.267 90.8675 102.025C90.673 101.784 90.5558 101.514 90.5159 101.217C90.4761 100.919 90.4544 100.706 90.4509 100.577C90.3417 100.252 90.181 100.092 89.9688 100.097C89.7567 100.102 89.5828 100.268 89.4474 100.597L89.3923 100.723C89.1278 101.671 88.8993 102.375 88.7068 102.837C88.5143 103.299 88.1354 103.829 87.5701 104.427ZM80.6551 107.643C81.7378 106.941 82.4317 106.367 82.7368 105.922C83.0419 105.476 83.2467 105.065 83.3513 104.691C83.4559 104.316 83.5507 103.949 83.6356 103.59C83.7194 103.226 83.736 102.928 83.6853 102.697C83.6347 102.466 83.5632 102.235 83.4707 102.005C83.3783 101.775 83.2187 101.621 82.992 101.544C82.7654 101.467 82.5561 101.452 82.3642 101.499C82.1724 101.545 82.0347 101.625 81.9513 101.736C81.8678 101.848 81.784 102.022 81.6998 102.257C81.6156 102.492 81.5367 102.803 81.4631 103.188C81.3894 103.574 81.7167 103.836 82.4448 103.974C82.2821 104.768 82.0426 105.301 81.7262 105.574C81.4098 105.846 80.9419 106.293 80.3225 106.914C79.7433 107.579 79.8542 107.823 80.6551 107.643ZM74.1294 106.337C75.3049 106.085 75.97 105.249 76.1248 103.828C76.1589 103.219 76.0085 102.808 75.6737 102.594C75.1461 102.531 74.9446 102.797 75.0693 103.391C75.324 104.682 74.9611 105.384 73.9806 105.498L74.1294 106.337ZM76.1741 109.158C76.2155 109.119 76.2453 109.068 76.2634 109.007C76.2815 108.945 76.2817 108.892 76.264 108.846C76.2462 108.801 76.2189 108.765 76.182 108.739C76.1452 108.713 76.1024 108.672 76.0537 108.616C76.0123 108.564 75.9996 108.502 76.0155 108.428C76.0314 108.354 76.0482 108.284 76.0658 108.22C76.0833 108.155 76.0947 108.091 76.0997 108.029C76.1048 107.966 76.0924 107.905 76.0624 107.846C76.0325 107.786 75.9936 107.739 75.9456 107.706C75.8977 107.672 75.831 107.642 75.7454 107.614C75.6599 107.587 75.5687 107.582 75.4716 107.599C75.3746 107.616 75.285 107.648 75.2029 107.695C75.1209 107.742 75.0557 107.802 75.0073 107.875C74.959 107.948 74.9182 108.037 74.8848 108.14C74.8514 108.243 74.8387 108.344 74.8466 108.443C74.8545 108.542 74.8703 108.632 74.8942 108.712C74.9181 108.792 74.9663 108.873 75.0388 108.954C75.1113 109.035 75.1862 109.093 75.2634 109.129C75.3407 109.164 75.4411 109.193 75.5647 109.217C75.6883 109.24 75.8105 109.247 75.9311 109.235C76.0517 109.224 76.1327 109.198 76.1741 109.158ZM70.4157 110.022C69.8355 110.792 69.9985 111.019 70.9047 110.705C72.1433 109.826 72.8598 109.08 73.0543 108.466C73.2488 107.851 73.3972 107.35 73.4996 106.963C73.602 106.575 73.8318 106.37 74.1891 106.346L74.0453 105.535C73.7746 105.537 73.5353 105.571 73.3274 105.636C73.1195 105.702 72.9519 105.83 72.8243 106.021C72.606 106.319 72.4269 106.747 72.2872 107.307C72.1476 107.866 71.9153 108.322 71.5903 108.674C71.2654 109.026 70.8739 109.475 70.4157 110.022ZM68.4957 107.276L68.8386 107.08C69.2774 106.679 69.5987 106.07 69.8025 105.253C70.0063 104.436 69.9467 102.989 69.6237 100.913L69.5719 100.62C69.4916 100.168 69.2211 99.9525 68.7603 99.975L68.6476 99.9948L68.5174 100.134C68.6715 101.404 68.7658 102.282 68.8005 102.769C68.8749 103.735 68.8632 104.525 68.7654 105.138C68.7074 105.758 68.533 106.395 68.2423 107.048L68.2607 107.152L68.2895 107.206L68.4957 107.276ZM64.4343 107.799C64.8321 107.895 65.26 107.85 65.718 107.666C66.7158 107.141 67.1848 106.527 67.1248 105.825C66.9723 104.892 66.6059 104.3 66.0255 104.048C65.4451 103.796 65.0531 103.643 64.8497 103.588C64.5803 103.525 64.3702 103.596 64.2193 103.801C64.0684 104.005 64.1604 104.27 64.4954 104.594C63.8558 105.756 63.5863 106.557 63.6868 106.996C63.7873 107.436 64.0364 107.703 64.4343 107.799ZM65.0372 106.94C64.7492 106.99 64.5859 106.925 64.5473 106.743C64.5139 106.555 64.6016 106.24 64.8105 105.798C65.0195 105.356 65.29 105.07 65.6221 104.941C65.8913 104.893 66.097 105.107 66.2392 105.581C66.344 106.172 65.9433 106.625 65.0372 106.94ZM57.5455 109.197L57.8884 109C58.3272 108.599 58.6485 107.99 58.8523 107.173C59.0561 106.356 58.9965 104.91 58.6735 102.833L58.6217 102.541C58.5414 102.088 58.2709 101.873 57.8101 101.895L57.6974 101.915L57.5672 102.055C57.7213 103.324 57.8156 104.202 57.8503 104.689C57.9247 105.655 57.913 106.445 57.8152 107.058C57.7572 107.678 57.5829 108.315 57.2921 108.969L57.3105 109.073L57.3393 109.126L57.5455 109.197ZM54.3119 102.018C54.4136 101.99 54.4851 101.957 54.5265 101.917C54.5678 101.877 54.5976 101.827 54.6157 101.765C54.6339 101.704 54.6436 101.658 54.6448 101.629C54.6461 101.599 54.6282 101.572 54.5914 101.546C54.5545 101.52 54.5237 101.473 54.4989 101.406C54.4803 101.338 54.4674 101.274 54.4599 101.214C54.4524 101.153 54.4575 101.091 54.4751 101.026C54.4927 100.962 54.504 100.898 54.5091 100.836C54.5141 100.773 54.5017 100.712 54.4717 100.653C54.4418 100.593 54.4029 100.546 54.3549 100.513C54.307 100.479 54.2403 100.448 54.1548 100.421C54.0693 100.394 53.978 100.389 53.8809 100.406C53.7839 100.423 53.6943 100.455 53.6123 100.502C53.5302 100.549 53.4619 100.609 53.4073 100.684C53.3527 100.758 53.3118 100.846 53.2847 100.948C53.2576 101.05 53.2446 101.15 53.2457 101.247C53.2467 101.344 53.2626 101.433 53.2933 101.516C53.324 101.598 53.3756 101.679 53.4481 101.761C53.5207 101.842 53.5955 101.9 53.6728 101.935C53.75 101.97 53.8504 102 53.974 102.024C54.0977 102.047 54.2103 102.045 54.3119 102.018ZM53.8759 109.908C54.2913 109.848 54.7577 109.621 55.275 109.225C55.7924 108.83 56.0945 108.422 56.1813 108.001C56.2682 107.581 56.2768 107.156 56.2073 106.728C56.0633 106.28 55.8909 105.981 55.6901 105.831C55.4893 105.682 55.2345 105.62 54.9259 105.645C54.6172 105.669 54.3718 105.815 54.1897 106.08C54.0075 106.345 53.902 106.587 53.873 106.807C53.8441 107.026 53.8664 107.297 53.94 107.621C54.0137 107.946 54.2934 108.185 54.7791 108.34C54.5386 108.622 54.3446 108.802 54.197 108.879C54.0494 108.957 53.8885 109.015 53.7143 109.052L53.8759 109.908ZM49.8738 103.939C49.9114 103.932 49.95 103.922 49.9895 103.909C50.0291 103.895 50.0692 103.875 50.1096 103.849L50.2192 103.732C50.4351 103.51 50.6323 103.356 50.8105 103.269C51.0288 103.153 51.2592 103.069 51.5017 103.016C51.7442 102.964 51.9744 102.916 52.1925 102.871C52.6086 102.778 52.8016 102.647 52.7715 102.478C52.7503 102.358 52.5806 102.274 52.2622 102.226L52.157 102.21C52.0839 102.202 52.0046 102.2 51.9193 102.204C51.7913 102.21 51.6459 102.228 51.4831 102.256C50.7631 102.382 50.1589 102.67 49.6703 103.119C49.4489 103.326 49.3526 103.511 49.3816 103.675C49.4218 103.901 49.5858 103.989 49.8738 103.939ZM53.9322 109.898L53.7767 109.021C53.6412 109.058 53.4785 109.051 53.2887 109C53.0989 108.949 52.9659 108.881 52.8897 108.798C52.8135 108.714 52.7404 108.602 52.6704 108.462C52.6004 108.322 52.5471 108.157 52.5105 107.969C52.4739 107.781 52.4108 107.625 52.3211 107.502C52.2314 107.378 52.1081 107.338 51.9512 107.382C51.7944 107.426 51.6874 107.514 51.6303 107.647C51.5732 107.78 51.5333 107.946 51.5104 108.145C51.4874 108.343 51.4597 108.533 51.4272 108.714C51.3947 108.894 51.2847 109.084 51.0971 109.282C50.9095 109.48 50.6763 109.594 50.3975 109.624L50.5514 110.491C50.9995 110.361 51.2967 110.244 51.4429 110.14C51.5892 110.037 51.7209 109.915 51.838 109.775C51.9551 109.634 52.0356 109.487 52.0794 109.334C52.1232 109.18 52.1924 109.197 52.287 109.385C52.3815 109.572 52.5512 109.719 52.796 109.825C53.0408 109.932 53.4195 109.956 53.9322 109.898ZM50.6077 110.481L50.4589 109.642C50.2154 109.652 50.0496 109.646 49.9615 109.622C49.8735 109.599 49.7875 109.551 49.7035 109.478C49.6196 109.405 49.5585 109.315 49.5202 109.209C49.4819 109.102 49.4531 108.976 49.4337 108.83C49.4143 108.684 49.3976 108.353 49.3836 107.837C49.3695 107.321 49.3559 106.916 49.3428 106.624C49.3296 106.331 49.3196 106.065 49.3128 105.827C49.306 105.588 49.2825 105.209 49.2423 104.691C49.1751 104.385 49.0483 104.262 48.8618 104.32C48.6753 104.379 48.5521 104.53 48.492 104.774C48.3366 105.281 48.2673 105.655 48.284 105.895C48.3008 106.135 48.3205 106.428 48.3431 106.775C48.3657 107.121 48.3809 107.452 48.3886 107.768C48.3962 108.085 48.4093 108.395 48.4278 108.7C48.4464 109.005 48.4774 109.262 48.521 109.471C48.5646 109.681 48.6338 109.862 48.7285 110.014C48.8232 110.166 48.9361 110.283 49.0672 110.367C49.1983 110.451 49.361 110.514 49.5554 110.554C49.7498 110.595 50.1006 110.57 50.6077 110.481ZM44.2097 112.08C43.8673 112.698 44.0301 112.906 44.698 112.704C45.2611 112.385 45.7335 112.036 46.1151 111.658C46.4968 111.28 46.7985 110.861 47.0203 110.401C47.2421 109.94 47.3244 109.513 47.2672 109.117C47.2101 108.722 47.0762 108.34 46.8657 107.972C46.6552 107.604 46.3992 107.317 46.098 107.11L45.8746 107.052C45.658 107.032 45.5157 107.121 45.4479 107.321L45.473 107.463C45.523 107.636 45.6653 107.883 45.8999 108.205C46.1345 108.527 46.2417 108.886 46.2215 109.281C46.2013 109.677 46.0184 110.093 45.673 110.53C45.3276 110.967 44.8398 111.483 44.2097 112.08ZM40.8528 107.728L41.0383 107.628C41.5141 107.544 41.5937 106.61 41.2771 104.824C41.0932 103.786 40.8512 102.868 40.5513 102.068C40.2513 101.268 39.9171 100.848 39.5486 100.809C39.1853 100.763 39.0386 101.064 39.1085 101.713C39.3202 102.143 39.6329 103.141 40.0464 104.709L40.4978 107.256C40.5268 107.419 40.6451 107.577 40.8528 107.728ZM41.4312 111.974C41.6065 111.943 41.7587 111.855 41.8877 111.709C41.9775 111.596 42.0397 111.456 42.0744 111.287C42.1092 111.119 42.1076 110.928 42.0697 110.715C42.0128 110.394 41.904 110.199 41.7433 110.13C41.6047 110.076 41.4791 110.06 41.3664 110.079C40.9219 110.157 40.689 110.464 40.6677 110.999C40.6616 111.111 40.668 111.22 40.687 111.327C40.7761 111.83 41.0242 112.045 41.4312 111.974ZM97.9585 124.478C97.3784 125.248 97.5414 125.475 98.4475 125.161C99.6861 124.282 100.425 123.514 100.663 122.857C100.902 122.199 101.084 121.692 101.212 121.336C101.339 120.979 101.392 120.667 101.37 120.399C101.287 120.147 101.161 120.022 100.993 120.022C100.826 120.022 100.661 120.131 100.499 120.347C100.281 120.645 100.08 121.095 99.896 121.698C99.7124 122.3 99.4581 122.778 99.1332 123.13C98.8082 123.482 98.4167 123.931 97.9585 124.478ZM95.9406 123.092L96.2834 122.895C96.7223 122.494 97.0436 121.885 97.2474 121.068C97.4511 120.251 97.3916 118.804 97.0686 116.728L97.0168 116.436C96.9365 115.983 96.666 115.768 96.2052 115.79L96.0925 115.81L95.9623 115.95C96.1164 117.219 96.2107 118.097 96.2454 118.584C96.3198 119.55 96.3081 120.34 96.2103 120.953C96.1523 121.573 95.9779 122.21 95.6872 122.864L95.7056 122.967L95.7344 123.021L95.9406 123.092ZM88.6821 118.283C88.6759 118.404 88.7205 118.446 88.8158 118.408C90.1735 116.495 91.4711 114.739 92.7085 113.139C93.9459 111.538 94.8136 110.391 95.3116 109.696C95.8097 109.001 96.2156 108.391 96.5296 107.865C96.8435 107.338 97.0924 106.921 97.2763 106.612C97.4602 106.302 97.644 105.934 97.8277 105.507C97.8142 105.047 97.6551 104.996 97.3505 105.353C97.3109 105.404 97.2676 105.462 97.2204 105.524L97.0678 105.728C96.7124 106.207 96.1976 106.915 95.5232 107.853C94.6413 109.081 93.7038 110.316 92.7106 111.559C91.7174 112.802 90.7594 114.102 89.8364 115.46C88.9133 116.818 88.5286 117.759 88.6821 118.283ZM88.6397 115.395C89.3028 114.482 89.8974 113.676 90.4236 112.978C90.9498 112.279 91.5864 111.436 92.3333 110.448C92.4944 109.915 92.3627 109.797 91.9382 110.096C91.2705 110.894 90.528 111.802 89.7105 112.82C88.8931 113.839 88.4038 114.618 88.2427 115.157C87.8785 116.07 88.0108 116.149 88.6397 115.395ZM88.1576 124.525C88.6584 124.437 89.0331 124.301 89.2814 124.118C89.5298 123.935 89.7228 123.731 89.8604 123.506C89.998 123.281 90.1078 123.063 90.1896 122.85C90.2714 122.638 90.3343 122.42 90.3784 122.195C90.4224 121.97 90.4499 121.66 90.4607 121.266C90.4715 120.872 90.3945 120.265 90.2297 119.444C90.0505 118.834 89.809 118.692 89.5052 119.017C89.2014 119.343 89.1391 119.902 89.3182 120.694C89.4031 121.282 89.4428 121.688 89.4375 121.913C89.4321 122.137 89.3801 122.372 89.2813 122.616C89.1826 122.86 89.0345 123.081 88.837 123.277C88.6395 123.474 88.3651 123.619 88.0138 123.713L88.1576 124.525ZM84.478 128.185C83.8979 128.954 84.0609 129.182 84.967 128.867C86.2056 127.989 86.9222 127.242 87.1167 126.628C87.3112 126.013 87.4596 125.512 87.562 125.125C87.6644 124.737 87.8942 124.532 88.2515 124.508L88.1077 123.697C87.8369 123.699 87.5976 123.733 87.3898 123.799C87.1819 123.864 87.0142 123.992 86.8867 124.183C86.6683 124.481 86.4893 124.909 86.3496 125.469C86.2099 126.028 85.9776 126.484 85.6527 126.836C85.3278 127.188 84.9362 127.637 84.478 128.185ZM82.3297 117.732C82.4313 117.705 82.5028 117.671 82.5442 117.632C82.5856 117.592 82.6153 117.541 82.6335 117.48C82.6516 117.418 82.6613 117.373 82.6626 117.343C82.6638 117.314 82.646 117.286 82.6091 117.26C82.5722 117.234 82.5414 117.188 82.5166 117.121C82.4981 117.053 82.4851 116.989 82.4776 116.929C82.4702 116.868 82.4752 116.806 82.4928 116.741C82.5104 116.676 82.5217 116.613 82.5268 116.55C82.5319 116.488 82.5194 116.427 82.4895 116.367C82.4596 116.308 82.4206 116.261 82.3727 116.227C82.3247 116.194 82.258 116.163 82.1725 116.136C82.087 116.109 81.9957 116.104 81.8987 116.121C81.8017 116.138 81.7121 116.17 81.63 116.217C81.5479 116.263 81.4796 116.324 81.425 116.398C81.3704 116.473 81.3296 116.561 81.3025 116.663C81.2754 116.765 81.2623 116.864 81.2634 116.962C81.2645 117.059 81.2804 117.148 81.3111 117.23C81.3418 117.313 81.3934 117.394 81.4659 117.476C81.5384 117.557 81.6133 117.615 81.6905 117.65C81.7677 117.685 81.8682 117.715 81.9918 117.738C82.1154 117.762 82.228 117.76 82.3297 117.732ZM81.8936 125.623C82.309 125.563 82.7754 125.336 83.2928 124.94C83.8101 124.545 84.1122 124.137 84.1991 123.716C84.2859 123.296 84.2946 122.871 84.225 122.443C84.081 121.995 83.9086 121.696 83.7078 121.546C83.507 121.397 83.2523 121.334 82.9436 121.359C82.6349 121.384 82.3895 121.529 82.2074 121.795C82.0253 122.06 81.9197 122.302 81.8908 122.521C81.8618 122.74 81.8842 123.012 81.9578 123.336C82.0314 123.66 82.3111 123.9 82.7969 124.055C82.5564 124.337 82.3623 124.516 82.2147 124.594C82.0671 124.672 81.9062 124.729 81.732 124.766L81.8936 125.623ZM77.8916 119.654C77.9291 119.647 77.9677 119.637 78.0073 119.623C78.0469 119.61 78.0869 119.59 78.1274 119.564L78.2369 119.447C78.4529 119.225 78.65 119.07 78.8283 118.984C79.0465 118.867 79.2769 118.783 79.5194 118.731C79.7619 118.679 79.9922 118.63 80.2102 118.586C80.6263 118.493 80.8194 118.362 80.7893 118.192C80.7681 118.073 80.5983 117.989 80.2799 117.941L80.1748 117.925C80.1016 117.916 80.0224 117.915 79.937 117.919C79.809 117.925 79.6636 117.942 79.5009 117.971C78.7809 118.097 78.1766 118.385 77.6881 118.833C77.4666 119.041 77.3704 119.226 77.3994 119.39C77.4395 119.616 77.6036 119.704 77.8916 119.654ZM81.95 125.613L81.7944 124.736C81.6589 124.773 81.4963 124.766 81.3065 124.715C81.1167 124.664 80.9837 124.596 80.9075 124.512C80.8313 124.428 80.7582 124.316 80.6882 124.176C80.6181 124.036 80.5648 123.872 80.5283 123.684C80.4917 123.496 80.4286 123.34 80.3388 123.216C80.2491 123.093 80.1259 123.053 79.969 123.097C79.8121 123.14 79.7052 123.229 79.6481 123.362C79.591 123.495 79.551 123.661 79.5281 123.859C79.5052 124.058 79.4775 124.248 79.445 124.428C79.4125 124.609 79.3024 124.799 79.1149 124.997C78.9273 125.195 78.6941 125.309 78.4153 125.338L78.5691 126.206C79.0172 126.076 79.3144 125.959 79.4607 125.855C79.607 125.752 79.7387 125.63 79.8558 125.489C79.9729 125.349 80.0533 125.202 80.0971 125.048C80.1409 124.895 80.2101 124.912 80.3047 125.099C80.3993 125.287 80.569 125.434 80.8137 125.54C81.0585 125.646 81.4372 125.671 81.95 125.613ZM75.9207 120.471C76.0223 120.443 76.0938 120.41 76.1352 120.37C76.1766 120.33 76.2064 120.28 76.2245 120.218C76.2426 120.157 76.2523 120.111 76.2536 120.082C76.2548 120.052 76.237 120.025 76.2001 119.999C76.1632 119.973 76.1324 119.926 76.1076 119.859C76.0891 119.791 76.0761 119.727 76.0687 119.667C76.0612 119.607 76.0663 119.544 76.0838 119.479C76.1014 119.415 76.1127 119.351 76.1178 119.289C76.1229 119.226 76.1104 119.165 76.0805 119.106C76.0506 119.046 76.0116 118.999 75.9637 118.966C75.9158 118.932 75.849 118.901 75.7635 118.874C75.678 118.847 75.5867 118.842 75.4897 118.859C75.3927 118.876 75.3031 118.908 75.221 118.955C75.1389 119.002 75.0706 119.062 75.016 119.137C74.9614 119.211 74.9206 119.299 74.8935 119.401C74.8664 119.503 74.8534 119.603 74.8544 119.7C74.8555 119.797 74.8714 119.887 74.9021 119.969C74.9328 120.051 74.9844 120.133 75.0569 120.214C75.1294 120.295 75.2043 120.353 75.2815 120.388C75.3587 120.423 75.4592 120.453 75.5828 120.477C75.7064 120.5 75.8191 120.498 75.9207 120.471ZM78.7663 126.172L78.6108 125.294C78.4753 125.331 78.3126 125.324 78.1229 125.273C77.9331 125.222 77.8001 125.154 77.7239 125.071C77.6477 124.987 77.5745 124.875 77.5045 124.735C77.4345 124.595 77.3812 124.43 77.3446 124.242C77.3081 124.054 77.2449 123.898 77.1552 123.775C77.0655 123.651 76.9422 123.611 76.7854 123.655C76.6285 123.699 76.5215 123.787 76.4644 123.92C76.4074 124.053 76.3674 124.219 76.3445 124.418C76.3216 124.616 76.2939 124.806 76.2613 124.987C76.2288 125.167 76.1188 125.357 75.9312 125.555C75.7436 125.753 75.5105 125.867 75.2316 125.897L75.3855 126.764C75.8336 126.634 76.1308 126.517 76.2771 126.414C76.4233 126.31 76.555 126.188 76.6721 126.048C76.7893 125.907 76.8697 125.76 76.9135 125.607C76.9573 125.453 77.0265 125.47 77.1211 125.658C77.2157 125.845 77.3853 125.992 77.6301 126.098C77.8749 126.205 78.2536 126.229 78.7663 126.172ZM70.9325 127.973C70.571 128.666 70.805 128.838 71.6345 128.492C72.056 128.321 72.4074 127.954 72.6888 127.393C73.0206 126.861 73.2649 126.31 73.4217 125.738C73.4026 125.994 73.5501 126.261 73.8642 126.54C74.1783 126.819 74.7078 126.893 75.4529 126.762L75.3024 125.913C74.7819 125.927 74.4244 125.813 74.2299 125.572C74.0354 125.33 73.9182 125.061 73.8783 124.763C73.8384 124.465 73.8167 124.252 73.8132 124.123C73.7041 123.798 73.5434 123.638 73.3312 123.643C73.119 123.648 72.9452 123.815 72.8098 124.143L72.7547 124.269C72.4902 125.217 72.2617 125.922 72.0692 126.383C71.8766 126.845 71.4978 127.375 70.9325 127.973ZM67.4036 124.809C67.6238 124.868 67.8354 124.832 68.0383 124.703C68.2413 124.573 68.3411 124.38 68.3378 124.125C68.3344 123.869 68.263 123.694 68.1234 123.598C67.9838 123.503 67.8543 123.446 67.7349 123.428C67.6156 123.41 67.5396 123.373 67.5071 123.318C67.4746 123.262 67.4607 123.183 67.4653 123.082C67.4699 122.98 67.5062 122.875 67.574 122.766C67.6418 122.657 67.7104 122.553 67.7799 122.453C67.8493 122.353 67.8687 122.235 67.8379 122.097C67.8256 122.028 67.7834 121.99 67.7112 121.983C67.4891 122.042 67.2885 122.194 67.1093 122.439C66.9301 122.685 66.7994 122.921 66.7172 123.15C66.6351 123.378 66.6101 123.601 66.6423 123.819C66.6745 124.037 66.7544 124.242 66.8819 124.434C67.0095 124.625 67.1834 124.75 67.4036 124.809ZM67.5929 127.761C67.9512 128.107 68.2791 128.173 68.5768 127.958L68.6718 127.893C69.1109 127.421 69.2051 127.005 68.9544 126.647C68.5258 126.269 68.1564 126.188 67.8461 126.404C67.4278 126.957 67.3301 127.389 67.5531 127.7L67.5929 127.761Z" fill="black" stroke="black" stroke-width="0.6"/>
</svg>
