<?xml version="1.0" encoding="UTF-8"?>
<svg fill="none" viewBox="0 0 1280 168" xmlns="http://www.w3.org/2000/svg">
<g style="mix-blend-mode:lighten">
<rect y="1" width="1280" height="167" fill="#000"/>
</g>
<path d="m1097.4 59.029c-0.75 0-1.43-0.1649-2.04-0.4946-0.61-0.3248-1.11-0.7903-1.48-1.3963-0.27-0.4121-0.45-0.8703-0.56-1.3746-0.09-0.3878-0.14-0.7951-0.14-1.2218 0-0.126 0.01-0.3636 0.03-0.7127 0.02-0.3539 0.12-0.8436 0.3-1.4691 0.18-0.6303 0.43-1.28 0.75-1.9491l1.24 0.5891c-0.27 0.5624-0.49 1.103-0.65 1.6218-0.16 0.514-0.25 1.0012-0.29 1.4618-0.01 0.1552-0.02 0.3055-0.02 0.4509 0 0.291 0.04 0.5988 0.1 0.9237 0.06 0.3297 0.19 0.6497 0.39 0.96 0.25 0.3927 0.58 0.6957 0.99 0.9091 0.41 0.2182 0.87 0.3272 1.38 0.3272h1.71c0.56 0 1.01-0.0606 1.36-0.1818 0.36-0.1163 0.63-0.2812 0.82-0.4945 0.2-0.2134 0.34-0.4727 0.4-0.7782 0.08-0.3006 0.11-0.6352 0.11-1.0036v-5.1128h1.38v2.2619c0 0.1939 0.04 0.3709 0.1 0.5309 0.07 0.1551 0.16 0.2884 0.27 0.4 0.11 0.1115 0.24 0.1988 0.4 0.2618 0.16 0.0582 0.34 0.0873 0.53 0.0873h0.28v1.3745h-0.28c-0.48 0-0.91-0.1042-1.3-0.3127v0.5091c0 1.28-0.34 2.2375-1.02 2.8727-0.68 0.64-1.7 0.96-3.05 0.96h-1.71zm0.05-9.4909 1.24-1.2509 1.27 1.2654-1.26 1.2509-1.25-1.2654zm10.21 4.0873c0.06 0 0.08 0.0193 0.08 0.0581v1.2437c0 0.0485-0.02 0.0727-0.08 0.0727h-3.11c-0.05 0-0.07-0.0242-0.07-0.0727v-1.2437c0-0.0388 0.02-0.0581 0.07-0.0581h3.11zm2.97 0c0.05 0 0.08 0.0193 0.08 0.0581v1.2437c0 0.0485-0.03 0.0727-0.08 0.0727h-3.11c-0.05 0-0.07-0.0242-0.07-0.0727v-1.2437c0-0.0388 0.02-0.0581 0.07-0.0581h3.11zm5.46 1.36c-0.46 0-0.86-0.0655-1.22-0.1964-0.35-0.1358-0.65-0.3297-0.89-0.5818-0.25 0.2715-0.55 0.4727-0.88 0.6036-0.34 0.1261-0.67 0.1891-1.01 0.1891h-1.68v-1.3745h1.68c0.07 0 0.17-0.0097 0.31-0.0291 0.14-0.0243 0.27-0.08 0.4-0.1673 0.13-0.0921 0.24-0.2279 0.34-0.4073s0.15-0.4242 0.15-0.7345v-2.2037h1.38v2.1746c0 0.4703 0.11 0.8145 0.33 1.0327s0.58 0.3273 1.09 0.3273c0.07 0 0.17-0.0121 0.3-0.0364 0.14-0.0291 0.27-0.0897 0.4-0.1818 0.14-0.0921 0.25-0.2279 0.35-0.4073s0.15-0.4242 0.15-0.7345v-2.1746h1.37v2.1746c0 0.4703 0.12 0.817 0.34 1.04 0.23 0.223 0.6 0.3345 1.1 0.3345 0.08 0 0.18-0.0145 0.31-0.0436 0.13-0.0339 0.26-0.0994 0.39-0.1964 0.13-0.0969 0.24-0.2351 0.33-0.4145 0.1-0.1794 0.14-0.4194 0.14-0.72 0-0.1067-0.01-0.24-0.03-0.4-0.01-0.16-0.03-0.3321-0.06-0.5164-0.03-0.1842-0.06-0.3709-0.09-0.56-0.03-0.1939-0.07-0.3733-0.1-0.5382-0.04-0.1697-0.07-0.32-0.1-0.4509-0.03-0.1357-0.05-0.2351-0.07-0.2982l1.3-0.4145c0.01 0.0291 0.03 0.1067 0.06 0.2327 0.03 0.1212 0.06 0.274 0.1 0.4582 0.04 0.1794 0.08 0.3806 0.12 0.6036 0.04 0.2231 0.08 0.4485 0.12 0.6764 0.03 0.223 0.07 0.4412 0.09 0.6546 0.02 0.2084 0.04 0.3927 0.04 0.5527 0 0.4606-0.08 0.863-0.23 1.2073-0.15 0.3393-0.35 0.623-0.59 0.8509-0.24 0.223-0.51 0.3927-0.81 0.5091-0.31 0.1115-0.61 0.1697-0.92 0.1745-0.46 0-0.88-0.0679-1.24-0.2036-0.35-0.1406-0.65-0.3419-0.9-0.6037-0.25 0.2667-0.54 0.4655-0.88 0.5964-0.33 0.1309-0.66 0.1964-0.99 0.1964zm2.99-10.175-1.04 1.0109-1.02-1.0109 1.05-1.04 1.01 1.04zm0.35 3.2873-1.15-1.1637 1.14-1.1781 1.18 1.1781-1.17 1.1637zm-2.78-0.0146-1.15-1.1636 1.13-1.1782 1.18 1.1782-1.16 1.1636zm8.25 9.5564c0.73 0 1.35-0.0558 1.85-0.1673s0.89-0.2836 1.18-0.5163c0.26-0.2037 0.44-0.4631 0.56-0.7782 0.12-0.3152 0.18-0.7079 0.18-1.1782h-1.34c-0.34 0-0.68-0.0509-1.03-0.1527s-0.67-0.2691-0.96-0.5018c-0.28-0.2328-0.51-0.5358-0.69-0.9091-0.18-0.3782-0.27-0.8388-0.27-1.3819 0-0.32 0.03-0.6084 0.08-0.8654 0.06-0.2618 0.13-0.4946 0.22-0.6982 0.08-0.2036 0.18-0.3806 0.28-0.5309s0.2-0.2788 0.3-0.3855c0.26-0.2666 0.57-0.4727 0.91-0.6181 0.35-0.1455 0.72-0.2182 1.11-0.2182 0.34 0 0.67 0.0533 0.97 0.16 0.3 0.1066 0.57 0.2666 0.8 0.48 0.66 0.6109 0.99 1.5685 0.99 2.8727v2.7491c0 0.6885-0.11 1.28-0.31 1.7745-0.2 0.4994-0.51 0.9164-0.93 1.251-0.43 0.3345-0.96 0.5818-1.59 0.7418-0.63 0.1648-1.4 0.2472-2.31 0.2472v-1.3745zm2.38-7.5273c-0.48 0-0.85 0.1697-1.12 0.5091s-0.4 0.817-0.4 1.4327c0 0.6255 0.19 1.0594 0.57 1.3019 0.09 0.0581 0.18 0.1066 0.28 0.1454 0.1 0.034 0.19 0.0606 0.28 0.08 0.1 0.0146 0.18 0.0267 0.25 0.0364 0.08 0.0048 0.14 0.0073 0.19 0.0073h1.34v-1.3746c0-0.3539-0.03-0.6521-0.08-0.8945-0.06-0.2473-0.12-0.4509-0.21-0.6109-0.08-0.16-0.17-0.2813-0.28-0.3637-0.1-0.0873-0.2-0.1503-0.3-0.1891-0.11-0.0388-0.2-0.0606-0.3-0.0654-0.09-0.0097-0.16-0.0146-0.22-0.0146zm3.67 8.9237v-1.3746h1c0.5 0 0.93-0.0606 1.3-0.1818 0.37-0.1164 0.67-0.2982 0.91-0.5455 0.24-0.2472 0.42-0.5624 0.53-0.9454s0.17-0.8388 0.17-1.3673v-4.5382h1.38v4.5382c0 0.6934-0.09 1.3115-0.28 1.8546-0.18 0.5478-0.45 1.0109-0.81 1.3891-0.36 0.3781-0.8 0.6666-1.34 0.8654-0.54 0.2036-1.15 0.3055-1.86 0.3055h-1z" fill="#fff"/>
<mask id="a" x="1152" y="37" width="26" height="29" style="mask-type:alpha" maskUnits="userSpaceOnUse">
<path d="m1152 37h25.2v29h-25.2v-29z" fill="#fff"/>
</mask>
<g mask="url(#a)">
<path d="m1166.4 37.294c-0.69-0.3915-1.53-0.3915-2.22 0l-11.12 6.3362c-0.69 0.3915-1.11 1.1154-1.11 1.8989v12.671c0 0.7835 0.42 1.5075 1.11 1.8994l10.01 5.7026c0.99 0.5626 2.22-0.1411 2.22-1.2663v-11.405c0-0.7835 0.42-1.5079 1.11-1.8994l10.01-5.7026c0.99-0.5626 0.99-1.9695 0-2.5321l-10.01-5.703z" clip-rule="evenodd" fill="#fff" fill-rule="evenodd"/>
</g>
<path d="m1170.2 55.659c0-0.7004 0.38-1.3468 0.99-1.6971l6.17-3.5423c0.88-0.5031 1.98 0.1257 1.98 1.1314v7.0847c0 0.7004-0.38 1.3469-0.99 1.6971l-6.17 3.5423c-0.88 0.5027-1.98-0.1256-1.98-1.1314v-7.0847z" clip-rule="evenodd" fill="#07f" fill-rule="evenodd"/>
<path d="m483.83 58c-0.381-0.0036-0.698-0.0291-0.949-0.0764-0.247-0.0509-0.458-0.1218-0.632-0.2127-0.171-0.0945-0.31-0.2109-0.415-0.3491-0.102-0.1418-0.182-0.3054-0.24-0.4909-0.058-0.1891-0.096-0.4-0.115-0.6327-0.018-0.2327-0.027-0.4909-0.027-0.7746v-5.2472h1.031v5.2472c0 0.3164 9e-3 0.5728 0.027 0.7691 0.022 0.1964 0.075 0.3491 0.159 0.4582 0.087 0.1055 0.216 0.1782 0.387 0.2182 0.174 0.0364 0.433 0.0564 0.774 0.06v1.0309zm3.74-0.7691c0.025 0 0.06-0.0018 0.104-0.0054 0.047-0.0037 0.096-0.0182 0.147-0.0437 0.054-0.0254 0.107-0.0636 0.158-0.1145 0.055-0.0546 0.102-0.1291 0.142-0.2237 0.044-0.0981 0.078-0.2218 0.104-0.3709 0.029-0.1527 0.043-0.3382 0.043-0.5563 0-0.04-3e-3 -0.1037-0.011-0.1909-7e-3 -0.0873-0.023-0.1837-0.049-0.2891-0.025-0.1091-0.063-0.22-0.114-0.3328-0.048-0.1127-0.113-0.2163-0.197-0.3109-0.083-0.0945-0.185-0.1709-0.305-0.2291-0.12-0.0618-0.266-0.0927-0.437-0.0927-0.16 0-0.296 0.0291-0.409 0.0873-0.109 0.0545-0.201 0.1309-0.278 0.2291-0.076 0.0982-0.14 0.2145-0.191 0.3491-0.051 0.1309-0.098 0.2745-0.142 0.4309-0.043 0.1527-0.087 0.3145-0.13 0.4854-0.044 0.1673-0.095 0.3346-0.153 0.5018 0.189 0.0946 0.363 0.1837 0.523 0.2673 0.16 0.0837 0.31 0.1564 0.448 0.2182 0.138 0.0582 0.267 0.1055 0.387 0.1418 0.124 0.0327 0.244 0.0491 0.36 0.0491zm-0.415-3.7854c0.357 0 0.666 0.069 0.928 0.2072 0.265 0.1346 0.485 0.3164 0.66 0.5455 0.174 0.2291 0.303 0.4927 0.387 0.7909 0.087 0.2982 0.131 0.6073 0.131 0.9273 0 0.3527-0.031 0.6563-0.093 0.9109-0.058 0.2545-0.136 0.4691-0.234 0.6436-0.099 0.1709-0.209 0.3091-0.333 0.4146-0.12 0.1054-0.244 0.1854-0.371 0.24-0.124 0.0545-0.244 0.0909-0.36 0.109-0.116 0.0182-0.216 0.0273-0.3 0.0273-0.178 0-0.349-0.0182-0.513-0.0545-0.163-0.0364-0.331-0.0891-0.502-0.1582-0.17-0.0655-0.35-0.1473-0.54-0.2455-0.185-0.0981-0.39-0.2091-0.616-0.3327-0.298 0.3527-0.682 0.5291-1.151 0.5291h-0.627v-1.0309h0.627c0.138 0 0.251-0.0509 0.338-0.1527 0.091-0.1019 0.169-0.2346 0.235-0.3982 0.065-0.1637 0.125-0.3509 0.18-0.5618 0.054-0.2109 0.116-0.4273 0.185-0.6491 0.073-0.2218 0.159-0.4382 0.257-0.6491s0.222-0.3982 0.371-0.5618c0.152-0.1637 0.336-0.2964 0.551-0.3982 0.218-0.1018 0.481-0.1527 0.79-0.1527zm10.093 4.5545c-0.381-0.0036-0.698-0.0291-0.949-0.0764-0.247-0.0509-0.458-0.1218-0.632-0.2127-0.171-0.0945-0.31-0.2109-0.415-0.3491-0.102-0.1418-0.182-0.3054-0.24-0.4909-0.058-0.1891-0.096-0.4-0.115-0.6327-0.018-0.2327-0.027-0.4909-0.027-0.7746v-5.2472h1.031v5.2472c0 0.3164 9e-3 0.5728 0.027 0.7691 0.022 0.1964 0.075 0.3491 0.159 0.4582 0.087 0.1055 0.216 0.1782 0.387 0.2182 0.174 0.0364 0.433 0.0564 0.774 0.06v1.0309zm2.72-4.44c7e-3 0.0218 0.022 0.08 0.044 0.1745 0.021 0.0946 0.045 0.2128 0.071 0.3546 0.029 0.1382 0.06 0.2927 0.092 0.4636 0.033 0.1673 0.062 0.3382 0.088 0.5128 0.025 0.1709 0.047 0.3363 0.065 0.4963s0.027 0.3 0.027 0.42c0 0.3491-0.058 0.6509-0.174 0.9055-0.113 0.2509-0.262 0.46-0.448 0.6272-0.181 0.1637-0.387 0.2855-0.616 0.3655s-0.46 0.12-0.693 0.12h-1.391v-1.0309h1.391c0.055 0 0.131-0.0073 0.229-0.0218 0.102-0.0182 0.202-0.06 0.3-0.1255 0.102-0.0654 0.19-0.1636 0.262-0.2945 0.077-0.1309 0.115-0.3128 0.115-0.5455 0-0.08-7e-3 -0.18-0.022-0.3-0.011-0.1236-0.027-0.2545-0.049-0.3927-0.018-0.1418-0.04-0.2855-0.066-0.4309-0.025-0.1491-0.05-0.2891-0.076-0.42-0.025-0.1309-0.049-0.2473-0.071-0.3491s-0.04-0.1782-0.054-0.2291l0.976-0.3zm-1.887 6.42 0.927-0.9382 0.949 0.9491-0.938 0.9382-0.938-0.9491zm18.955-1.98c-0.36 0-0.677-0.0527-0.949-0.1582-0.269-0.1054-0.495-0.2582-0.677-0.4582-0.098 0.1164-0.209 0.2146-0.332 0.2946-0.12 0.0763-0.246 0.14-0.377 0.1909-0.127 0.0473-0.258 0.0818-0.392 0.1036-0.131 0.0182-0.259 0.0273-0.382 0.0273-0.455 0-0.848-0.1018-1.178-0.3055v0.4582c0 0.9528-0.255 1.6673-0.764 2.1437-0.509 0.4763-1.271 0.7145-2.286 0.7145h-1.281c-0.564 0-1.075-0.1218-1.533-0.3654-0.458-0.2437-0.829-0.591-1.113-1.0419-0.196-0.3091-0.336-0.6527-0.42-1.0309-0.069-0.2945-0.103-0.6036-0.103-0.9272 0-0.0946 7e-3 -0.2746 0.021-0.54 0.019-0.2655 0.095-0.6364 0.229-1.1128 0.135-0.4763 0.322-0.9672 0.562-1.4727l0.928 0.4527c-0.204 0.4218-0.366 0.8273-0.486 1.2164-0.116 0.3891-0.189 0.7564-0.218 1.1018-0.011 0.1164-0.016 0.2291-0.016 0.3382 0 0.2218 0.023 0.4564 0.07 0.7036 0.051 0.2473 0.151 0.4873 0.3 0.72 0.19 0.2946 0.437 0.5218 0.742 0.6818 0.306 0.1637 0.651 0.2455 1.037 0.2455h1.281c0.419 0 0.759-0.0436 1.02-0.1309 0.266-0.0873 0.471-0.2109 0.617-0.3709 0.149-0.16 0.249-0.3527 0.3-0.5782 0.054-0.2218 0.082-0.4709 0.082-0.7473v-3.84h1.031v1.0637c0 0.3491 0.032 0.6291 0.098 0.84 0.069 0.2072 0.158 0.3672 0.267 0.48 0.113 0.1127 0.238 0.1872 0.376 0.2236 0.142 0.0364 0.288 0.0545 0.437 0.0545 0.091 0 0.194-0.0163 0.311-0.049 0.116-0.0328 0.225-0.0873 0.327-0.1637 0.102-0.08 0.187-0.1854 0.256-0.3163 0.073-0.131 0.109-0.2946 0.109-0.491v-1.6418h1.026v1.6964c7e-3 0.3309 0.094 0.5745 0.262 0.7309 0.171 0.1564 0.441 0.2345 0.812 0.2345 0.062-0.0036 0.142-0.0163 0.24-0.0381 0.102-0.0255 0.199-0.0728 0.289-0.1419 0.095-0.0727 0.175-0.1745 0.24-0.3054 0.07-0.1346 0.104-0.3127 0.104-0.5346 0-0.08-7e-3 -0.18-0.022-0.3-0.011-0.12-0.025-0.2472-0.043-0.3818-0.019-0.1382-0.04-0.2782-0.066-0.42-0.025-0.1454-0.051-0.2818-0.076-0.4091-0.022-0.1272-0.044-0.24-0.066-0.3381-0.021-0.1019-0.04-0.1782-0.054-0.2291l0.982-0.3c7e-3 0.0181 0.02 0.0745 0.038 0.1691 0.022 0.0909 0.047 0.2054 0.076 0.3436 0.029 0.1345 0.058 0.2854 0.087 0.4527 0.033 0.1673 0.062 0.3364 0.088 0.5073 0.025 0.1673 0.045 0.3309 0.06 0.4909 0.018 0.1564 0.027 0.2945 0.027 0.4145 0 0.3455-0.056 0.6455-0.169 0.9-0.109 0.251-0.255 0.4619-0.436 0.6328-0.179 0.1672-0.382 0.2945-0.611 0.3818-0.226 0.0836-0.453 0.1273-0.682 0.1309zm5.923 0c-0.382-0.0036-0.698-0.0291-0.949-0.0764-0.247-0.0509-0.458-0.1218-0.633-0.2127-0.17-0.0945-0.309-0.2109-0.414-0.3491-0.102-0.1418-0.182-0.3054-0.24-0.4909-0.058-0.1891-0.096-0.4-0.115-0.6327-0.018-0.2327-0.027-0.4909-0.027-0.7746v-5.2472h1.031v5.2472c0 0.3164 9e-3 0.5728 0.027 0.7691 0.022 0.1964 0.075 0.3491 0.158 0.4582 0.088 0.1055 0.217 0.1782 0.388 0.2182 0.174 0.0364 0.432 0.0564 0.774 0.06v1.0309zm6.194 0c-0.261 0-0.507-0.0382-0.736-0.1145-0.229-0.0764-0.436-0.1855-0.622-0.3273-0.098 0.1527-0.207 0.2763-0.327 0.3709-0.116 0.0909-0.235 0.16-0.355 0.2073-0.116 0.0509-0.229 0.0836-0.338 0.0981-0.109 0.0182-0.203 0.0273-0.283 0.0273-0.179 0-0.349-0.0182-0.513-0.0545-0.164-0.0364-0.331-0.0891-0.502-0.1582-0.171-0.0655-0.351-0.1473-0.54-0.2455-0.185-0.0981-0.391-0.2091-0.616-0.3327-0.298 0.3527-0.682 0.5291-1.151 0.5291h-0.426v-1.0309h0.426c0.138 0 0.251-0.0509 0.338-0.1527 0.091-0.1019 0.169-0.2346 0.235-0.3982 0.065-0.1637 0.125-0.3509 0.18-0.5618 0.054-0.2109 0.116-0.4273 0.185-0.6491 0.073-0.2218 0.158-0.4382 0.256-0.6491 0.099-0.2109 0.222-0.3982 0.371-0.5618 0.153-0.1637 0.337-0.2964 0.551-0.3982 0.218-0.1018 0.482-0.1527 0.791-0.1527 0.356 0 0.666 0.069 0.927 0.2072 0.266 0.1346 0.486 0.3164 0.66 0.5455 0.175 0.2291 0.304 0.4927 0.388 0.7909 0.087 0.2982 0.131 0.6073 0.131 0.9273 0 0.24 0.041 0.4309 0.125 0.5727 0.087 0.1382 0.185 0.2436 0.295 0.3164 0.112 0.069 0.221 0.1145 0.327 0.1363 0.109 0.0182 0.183 0.0273 0.223 0.0273h0.191v1.0309h-0.191zm-2.661-0.7691c0.029 0 0.065-0.0018 0.109-0.0054 0.043-0.0037 0.091-0.0182 0.142-0.0437 0.054-0.0254 0.107-0.0636 0.158-0.1145 0.054-0.0546 0.102-0.1291 0.142-0.2237 0.043-0.0981 0.078-0.2218 0.103-0.3709 0.029-0.1527 0.044-0.3382 0.044-0.5563 0-0.04-4e-3 -0.1037-0.011-0.1909-7e-3 -0.0873-0.024-0.1837-0.049-0.2891-0.026-0.1091-0.064-0.22-0.115-0.3328-0.047-0.1127-0.112-0.2163-0.196-0.3109-0.084-0.0945-0.186-0.1709-0.306-0.2291-0.12-0.0618-0.265-0.0927-0.436-0.0927-0.16 0-0.296 0.0291-0.409 0.0873-0.109 0.0545-0.202 0.1309-0.278 0.2291-0.077 0.0982-0.14 0.2145-0.191 0.3491-0.051 0.1309-0.098 0.2745-0.142 0.4309-0.044 0.1527-0.087 0.3145-0.131 0.4854-0.043 0.1673-0.094 0.3346-0.153 0.5018 0.19 0.0946 0.364 0.1837 0.524 0.2673 0.16 0.0837 0.309 0.1564 0.447 0.2182 0.139 0.0582 0.268 0.1055 0.388 0.1418 0.123 0.0327 0.243 0.0491 0.36 0.0491zm6.43-3.6709c7e-3 0.0218 0.022 0.08 0.044 0.1745 0.021 0.0946 0.045 0.2128 0.071 0.3546 0.029 0.1382 0.06 0.2927 0.092 0.4636 0.033 0.1673 0.062 0.3382 0.088 0.5128 0.025 0.1709 0.047 0.3363 0.065 0.4963s0.027 0.3 0.027 0.42c0 0.3491-0.058 0.6509-0.174 0.9055-0.113 0.2509-0.262 0.46-0.448 0.6272-0.181 0.1637-0.387 0.2855-0.616 0.3655s-0.46 0.12-0.693 0.12h-2.258v-1.0309h2.258c0.055 0 0.131-0.0073 0.229-0.0218 0.102-0.0182 0.202-0.06 0.3-0.1255 0.102-0.0654 0.19-0.1636 0.262-0.2945 0.077-0.1309 0.115-0.3128 0.115-0.5455 0-0.08-7e-3 -0.18-0.022-0.3-0.011-0.1236-0.027-0.2545-0.049-0.3927-0.018-0.1418-0.04-0.2855-0.066-0.4309-0.025-0.1491-0.05-0.2891-0.076-0.42-0.025-0.1309-0.049-0.2473-0.071-0.3491s-0.04-0.1782-0.054-0.2291l0.976-0.3zm-0.098-1.1564-0.862-0.8727 0.851-0.8836 0.884 0.8836-0.873 0.8727zm-2.089-0.0109-0.862-0.8727 0.851-0.8836 0.883 0.8836-0.872 0.8727z" fill="#fff"/>
<path d="m137.79 52.18-0.043 0.0545c-0.026 0.0364-0.06 0.0873-0.104 0.1528-0.044 0.0618-0.093 0.1382-0.147 0.2291-0.055 0.0909-0.109 0.1945-0.164 0.3109-0.051 0.1018-0.103 0.2182-0.158 0.3491s-0.104 0.2745-0.147 0.4309c-0.04 0.1563-0.075 0.3218-0.104 0.4963-0.025 0.1746-0.038 0.3546-0.038 0.54 0 0.1891 0.013 0.3709 0.038 0.5455 0.029 0.1745 0.064 0.3382 0.104 0.4909 0.043 0.1527 0.092 0.2964 0.147 0.4309 0.055 0.1309 0.107 0.2473 0.158 0.3491 0.055 0.1164 0.109 0.22 0.164 0.3109 0.054 0.0873 0.103 0.1618 0.147 0.2236 0.047 0.0764 0.095 0.1437 0.142 0.2019l-0.546 0.4527c-0.01-0.0146-0.072-0.0982-0.185-0.2509-0.109-0.1527-0.231-0.3618-0.365-0.6273-0.131-0.2654-0.25-0.5782-0.355-0.9382s-0.158-0.7563-0.158-1.1891c0-0.2836 0.025-0.5545 0.076-0.8127s0.115-0.4964 0.191-0.7145c0.076-0.2182 0.158-0.4182 0.246-0.6 0.09-0.1819 0.176-0.3364 0.256-0.4637 0.084-0.1272 0.151-0.2272 0.202-0.3 0.054-0.0727 0.085-0.1127 0.092-0.12l0.551 0.4473zm1.468 0.5673-0.109 0.1582c-0.077 0.1018-0.159 0.2436-0.246 0.4254-0.087 0.1782-0.167 0.3891-0.24 0.6327-0.073 0.24-0.109 0.5-0.109 0.78 0 0.2837 0.036 0.5473 0.109 0.7909 0.073 0.24 0.153 0.4491 0.24 0.6273 0.087 0.1746 0.167 0.3127 0.24 0.4146 0.076 0.0981 0.115 0.1509 0.115 0.1581l-0.54 0.4528c-0.011-0.0146-0.062-0.0837-0.153-0.2073-0.091-0.1273-0.191-0.2982-0.3-0.5127-0.106-0.2146-0.202-0.4691-0.289-0.7637-0.087-0.2945-0.131-0.6145-0.131-0.96 0-0.3491 0.044-0.6691 0.131-0.96 0.087-0.2945 0.183-0.5509 0.289-0.7691 0.109-0.2181 0.209-0.389 0.3-0.5127 0.091-0.1273 0.142-0.1963 0.153-0.2073l0.54 0.4528zm10.196 0.36c-0.124 0-0.246 0.0218-0.366 0.0654-0.116 0.04-0.222 0.1055-0.316 0.1964-0.091 0.0873-0.166 0.2-0.224 0.3382-0.058 0.1345-0.087 0.2945-0.087 0.48 0 0.1382 0.016 0.2618 0.049 0.3709s0.094 0.2018 0.185 0.2782c0.095 0.0763 0.224 0.1345 0.388 0.1745 0.163 0.04 0.376 0.06 0.638 0.06h0.829c-0.018-0.2327-0.042-0.4654-0.071-0.6982-0.025-0.2327-0.075-0.4418-0.147-0.6272-0.069-0.1891-0.173-0.3419-0.311-0.4582-0.138-0.12-0.327-0.18-0.567-0.18zm-0.84 4.9091h-5.357c-0.254-0.0037-0.496-0.0473-0.725-0.1309-0.229-0.0873-0.431-0.2128-0.606-0.3764-0.072-0.0655-0.145-0.1455-0.218-0.24-0.073-0.0946-0.138-0.2055-0.196-0.3327-0.058-0.1309-0.108-0.2764-0.148-0.4364-0.036-0.1636-0.054-0.3473-0.054-0.5509 0-0.1818 0.018-0.3818 0.054-0.6 0.037-0.2182 0.079-0.4236 0.126-0.6164 0.047-0.1963 0.091-0.3654 0.131-0.5072 0.04-0.1455 0.065-0.2346 0.076-0.2673l0.982 0.3109c-0.022 0.0764-0.053 0.1854-0.093 0.3273-0.04 0.1381-0.078 0.2872-0.114 0.4472-0.037 0.16-0.069 0.3219-0.098 0.4855-0.026 0.16-0.039 0.3-0.039 0.42 0 0.24 0.039 0.4291 0.115 0.5673 0.076 0.1381 0.165 0.2418 0.267 0.3109 0.106 0.0691 0.209 0.1127 0.311 0.1309 0.106 0.0182 0.186 0.0273 0.24 0.0273h5.346c0.272 0 0.507-0.0128 0.703-0.0382 0.2-0.0291 0.371-0.0655 0.513-0.1091 0.142-0.0437 0.256-0.0946 0.344-0.1527 0.09-0.0619 0.161-0.1255 0.212-0.191 0.055-0.0654 0.093-0.1309 0.115-0.1963 0.022-0.0691 0.036-0.1346 0.043-0.1964h-0.387c-0.142-0.0036-0.287-0.0054-0.436-0.0054-0.273 0-0.546-0.0255-0.818-0.0764-0.269-0.0509-0.513-0.1473-0.731-0.2891s-0.397-0.3364-0.535-0.5836c-0.134-0.2473-0.202-0.5673-0.202-0.96 0-0.2946 0.049-0.5691 0.148-0.8237 0.101-0.2545 0.241-0.4763 0.42-0.6654 0.178-0.1927 0.391-0.3437 0.638-0.4527 0.247-0.1091 0.518-0.1637 0.813-0.1637 0.403 0 0.741 0.0891 1.014 0.2673 0.273 0.1745 0.491 0.4073 0.655 0.6982 0.167 0.2872 0.285 0.6163 0.354 0.9872 0.069 0.3673 0.104 0.7437 0.104 1.1291v0.7473c0 0.4146-0.082 0.7582-0.246 1.0309-0.163 0.2691-0.383 0.4837-0.66 0.6437-0.272 0.16-0.589 0.2727-0.949 0.3381-0.356 0.0619-0.727 0.0928-1.112 0.0928zm-0.186-8.0346 0.927-0.9382 0.949 0.9491-0.938 0.9382-0.938-0.9491zm2.76 11.046v-1.0309h0.752c0.375 0 0.698-0.0455 0.971-0.1364 0.276-0.0873 0.504-0.2236 0.682-0.4091 0.182-0.1854 0.314-0.4218 0.398-0.7091 0.087-0.2873 0.131-0.6291 0.131-1.0254v-3.4037h1.031v3.4037c0 0.52-0.069 0.9836-0.207 1.3909-0.135 0.4109-0.337 0.7582-0.606 1.0418s-0.605 0.5-1.009 0.6491c-0.4 0.1527-0.864 0.2291-1.391 0.2291h-0.752zm5.05 0v-1.0309h0.753c0.375 0 0.698-0.0455 0.971-0.1364 0.276-0.0873 0.504-0.2236 0.682-0.4091 0.182-0.1854 0.314-0.4218 0.398-0.7091 0.087-0.2873 0.131-0.6291 0.131-1.0254v-3.4037h1.031v3.4037c0 0.52-0.069 0.9836-0.208 1.3909-0.134 0.4109-0.336 0.7582-0.605 1.0418s-0.605 0.5-1.009 0.6491c-0.4 0.1527-0.864 0.2291-1.391 0.2291h-0.753zm4.009-10.451-0.774 0.7581-0.764-0.7581 0.786-0.78 0.752 0.78zm0.268 2.4654-0.862-0.8727 0.851-0.8836 0.883 0.8836-0.872 0.8727zm-2.089-0.0109-0.862-0.8727 0.851-0.8837 0.883 0.8837-0.872 0.8727zm19.252 4.9691c-0.36 0-0.676-0.0527-0.949-0.1582-0.269-0.1054-0.494-0.2582-0.676-0.4582-0.098 0.1164-0.209 0.2146-0.333 0.2946-0.12 0.0763-0.245 0.14-0.376 0.1909-0.127 0.0473-0.258 0.0818-0.393 0.1036-0.131 0.0182-0.258 0.0273-0.382 0.0273-0.454 0-0.847-0.1018-1.178-0.3055v0.4582c0 0.9528-0.254 1.6673-0.763 2.1437-0.51 0.4763-1.271 0.7145-2.286 0.7145h-1.282c-0.563 0-1.074-0.1218-1.532-0.3654-0.459-0.2437-0.83-0.591-1.113-1.0419-0.197-0.3091-0.337-0.6527-0.42-1.0309-0.069-0.2945-0.104-0.6036-0.104-0.9272 0-0.0946 7e-3 -0.2746 0.022-0.54 0.018-0.2655 0.095-0.6364 0.229-1.1128 0.135-0.4763 0.322-0.9672 0.562-1.4727l0.927 0.4527c-0.203 0.4218-0.365 0.8273-0.485 1.2164-0.117 0.3891-0.189 0.7564-0.218 1.1018-0.011 0.1164-0.017 0.2291-0.017 0.3382 0 0.2218 0.024 0.4564 0.071 0.7036 0.051 0.2473 0.151 0.4873 0.3 0.72 0.189 0.2946 0.436 0.5218 0.742 0.6818 0.305 0.1637 0.651 0.2455 1.036 0.2455h1.282c0.418 0 0.758-0.0436 1.02-0.1309 0.266-0.0873 0.471-0.2109 0.616-0.3709 0.15-0.16 0.25-0.3527 0.3-0.5782 0.055-0.2218 0.082-0.4709 0.082-0.7473v-3.84h1.031v1.0637c0 0.3491 0.033 0.6291 0.098 0.84 0.069 0.2072 0.159 0.3672 0.268 0.48 0.112 0.1127 0.238 0.1872 0.376 0.2236 0.142 0.0364 0.287 0.0545 0.436 0.0545 0.091 0 0.195-0.0163 0.311-0.049 0.117-0.0328 0.226-0.0873 0.328-0.1637 0.101-0.08 0.187-0.1854 0.256-0.3163 0.073-0.131 0.109-0.2946 0.109-0.491v-1.6418h1.025v1.6964c8e-3 0.3309 0.095 0.5745 0.262 0.7309 0.171 0.1564 0.442 0.2345 0.813 0.2345 0.062-0.0036 0.142-0.0163 0.24-0.0381 0.102-0.0255 0.198-0.0728 0.289-0.1419 0.095-0.0727 0.175-0.1745 0.24-0.3054 0.069-0.1346 0.104-0.3127 0.104-0.5346 0-0.08-8e-3 -0.18-0.022-0.3-0.011-0.12-0.026-0.2472-0.044-0.3818-0.018-0.1382-0.04-0.2782-0.065-0.42-0.026-0.1454-0.051-0.2818-0.077-0.4091-0.021-0.1272-0.043-0.24-0.065-0.3381-0.022-0.1019-0.04-0.1782-0.055-0.2291l0.982-0.3c8e-3 0.0181 0.02 0.0745 0.038 0.1691 0.022 0.0909 0.048 0.2054 0.077 0.3436 0.029 0.1345 0.058 0.2854 0.087 0.4527 0.033 0.1673 0.062 0.3364 0.087 0.5073 0.026 0.1673 0.046 0.3309 0.06 0.4909 0.019 0.1564 0.028 0.2945 0.028 0.4145 0 0.3455-0.057 0.6455-0.169 0.9-0.11 0.251-0.255 0.4619-0.437 0.6328-0.178 0.1672-0.382 0.2945-0.611 0.3818-0.225 0.0836-0.452 0.1273-0.682 0.1309zm-1.014-7.5927-0.775 0.7582-0.763-0.7582 0.785-0.78 0.753 0.78zm0.267 2.4654-0.862-0.8727 0.851-0.8836 0.884 0.8836-0.873 0.8727zm-2.089-0.0109-0.862-0.8727 0.851-0.8836 0.884 0.8836-0.873 0.8727zm4.26 8.1655v-1.0309h0.752c0.375 0 0.698-0.0455 0.971-0.1364 0.277-0.0873 0.504-0.2236 0.682-0.4091 0.182-0.1854 0.315-0.4218 0.398-0.7091 0.087-0.2873 0.131-0.6291 0.131-1.0254v-3.4037h1.031v3.4037c0 0.52-0.069 0.9836-0.207 1.3909-0.135 0.4109-0.337 0.7582-0.606 1.0418s-0.605 0.5-1.009 0.6491c-0.4 0.1527-0.863 0.2291-1.391 0.2291h-0.752zm2.47-9.0764 0.928-0.9382 0.949 0.9491-0.938 0.9382-0.939-0.9491zm4.151 6.0436h-1.031v-7.7781h1.031v7.7781zm4.051 0.0873c-0.185 0-0.372-0.0091-0.561-0.0273-0.19-0.0145-0.375-0.0381-0.557-0.0709-0.178-0.0363-0.351-0.0818-0.518-0.1363-0.164-0.0582-0.313-0.1273-0.447-0.2073l-0.453-0.2564 0.513-0.9 0.452 0.2564c0.128 0.0727 0.284 0.1327 0.47 0.18 0.185 0.0436 0.381 0.0745 0.589 0.0927 0.178 0.0182 0.356 0.0273 0.534 0.0273h0.229c0.12-0.0036 0.269-0.0182 0.448-0.0436 0.21-0.0328 0.383-0.0782 0.518-0.1364 0.138-0.0618 0.225-0.1309 0.262-0.2073 0.014-0.0363 0.021-0.0763 0.021-0.12 0-0.0618-0.018-0.1472-0.054-0.2563-0.037-0.1128-0.113-0.2564-0.229-0.4309l-1.975-2.9837 0.873-0.5673c0.047 0.0728 0.096 0.1491 0.147 0.2291 0.051 0.0764 0.111 0.1673 0.18 0.2728 0.069 0.1018 0.149 0.2236 0.24 0.3654 0.091 0.1382 0.202 0.3055 0.333 0.5018 0.131 0.1964 0.283 0.4255 0.458 0.6873s0.378 0.5673 0.611 0.9164c0.091 0.1382 0.173 0.2836 0.245 0.4363 0.073 0.1491 0.128 0.3 0.164 0.4528 0.033 0.1381 0.049 0.2763 0.049 0.4145 0 0.0146-2e-3 0.0655-5e-3 0.1527-4e-3 0.0837-0.04 0.2-0.109 0.3491-0.229 0.5128-0.757 0.8291-1.582 0.9491-0.127 0.0182-0.262 0.0327-0.404 0.0437-0.142 0.0109-0.289 0.0163-0.442 0.0163zm7.067-0.0818h-0.234c-0.349 0-0.671-0.0691-0.966-0.2073 0 0.5091-0.071 0.9637-0.212 1.3637-0.142 0.4-0.35 0.7381-0.622 1.0145-0.273 0.28-0.609 0.4927-1.009 0.6382-0.397 0.1454-0.853 0.2182-1.369 0.2182h-0.753v-1.0309h0.753c0.374 0 0.698-0.0455 0.97-0.1364 0.277-0.0873 0.504-0.2236 0.682-0.4091 0.182-0.1854 0.315-0.4218 0.398-0.7091 0.088-0.2873 0.131-0.6291 0.131-1.0254v-3.4037h1.031v1.8055c0 0.2036 0.042 0.3636 0.126 0.48 0.087 0.1127 0.187 0.1963 0.3 0.2509 0.112 0.0545 0.22 0.0891 0.322 0.1036 0.105 0.0109 0.178 0.0164 0.218 0.0164h0.234v1.0309zm3.567-4.44c8e-3 0.0218 0.022 0.08 0.044 0.1745 0.022 0.0946 0.045 0.2128 0.071 0.3546 0.029 0.1382 0.06 0.2927 0.093 0.4636 0.032 0.1673 0.061 0.3382 0.087 0.5128 0.025 0.1709 0.047 0.3363 0.065 0.4963 0.019 0.16 0.028 0.3 0.028 0.42 0 0.3491-0.059 0.6509-0.175 0.9055-0.113 0.2509-0.262 0.46-0.447 0.6272-0.182 0.1637-0.387 0.2855-0.617 0.3655-0.229 0.08-0.46 0.12-0.692 0.12h-2.258v-1.0309h2.258c0.054 0 0.131-0.0073 0.229-0.0218 0.102-0.0182 0.202-0.06 0.3-0.1255 0.102-0.0654 0.189-0.1636 0.262-0.2945 0.076-0.1309 0.114-0.3128 0.114-0.5455 0-0.08-7e-3 -0.18-0.022-0.3-0.011-0.1236-0.027-0.2545-0.049-0.3927-0.018-0.1418-0.04-0.2855-0.065-0.4309-0.026-0.1491-0.051-0.2891-0.077-0.42-0.025-0.1309-0.049-0.2473-0.07-0.3491-0.022-0.1018-0.04-0.1782-0.055-0.2291l0.976-0.3zm-1.189 8.7436-0.785-0.78 0.763-0.7581 0.775 0.7581-0.753 0.78zm1.893-2.3727-0.884 0.8836-0.851-0.8836 0.862-0.8727 0.873 0.8727zm-2.089 0.0109-0.884 0.8837-0.851-0.8837 0.862-0.8727 0.873 0.8727zm6.258 1.0855v-1.0309h0.753c0.375 0 0.698-0.0455 0.971-0.1364 0.276-0.0873 0.504-0.2236 0.682-0.4091 0.182-0.1854 0.314-0.4218 0.398-0.7091 0.087-0.2873 0.131-0.6291 0.131-1.0254v-3.4037h1.031v3.4037c0 0.52-0.069 0.9836-0.208 1.3909-0.134 0.4109-0.336 0.7582-0.605 1.0418s-0.605 0.5-1.009 0.6491c-0.4 0.1527-0.864 0.2291-1.391 0.2291h-0.753zm7.969-3.0273c-0.381-0.0036-0.698-0.0291-0.949-0.0764-0.247-0.0509-0.458-0.1218-0.632-0.2127-0.171-0.0945-0.31-0.2109-0.415-0.3491-0.102-0.1418-0.182-0.3054-0.24-0.4909-0.058-0.1891-0.096-0.4-0.115-0.6327-0.018-0.2327-0.027-0.4909-0.027-0.7746v-5.2472h1.031v5.2472c0 0.3164 9e-3 0.5728 0.027 0.7691 0.022 0.1964 0.075 0.3491 0.159 0.4582 0.087 0.1055 0.216 0.1782 0.387 0.2182 0.174 0.0364 0.433 0.0564 0.774 0.06v1.0309zm6.756 0h-0.081c-0.324 0-0.613-0.0309-0.868-0.0927-0.251-0.0618-0.48-0.1491-0.687-0.2618-0.207-0.1164-0.398-0.2546-0.573-0.4146-0.174-0.1636-0.345-0.3454-0.512-0.5454-8e-3 0.0181-0.015 0.0345-0.022 0.049-8e-3 0.0146-0.015 0.031-0.022 0.0491-0.102 0.2-0.246 0.38-0.431 0.54-0.182 0.16-0.398 0.2928-0.649 0.3982-0.215 0.0946-0.453 0.1655-0.715 0.2127-0.261 0.0437-0.534 0.0655-0.818 0.0655h-1.603v-1.0309h1.603c0.211 0 0.407-0.0146 0.589-0.0436 0.186-0.0328 0.351-0.0764 0.497-0.131 0.149-0.0581 0.274-0.1272 0.376-0.2072 0.105-0.08 0.184-0.1691 0.235-0.2673 0.047-0.0982 0.07-0.2091 0.07-0.3327 0-0.0982-0.025-0.2382-0.076-0.42-0.051-0.1855-0.191-0.4328-0.42-0.7418-0.324-0.4546-0.598-0.84-0.824-1.1564-0.225-0.3164-0.409-0.5746-0.55-0.7746-0.168-0.2327-0.304-0.4236-0.41-0.5727l0.202-0.7636 5.008-2.3127 0.425 0.9436-4.467 2.0454 2.165 3.0055c0.222 0.2982 0.42 0.5564 0.595 0.7745 0.174 0.2146 0.351 0.3928 0.529 0.5346 0.182 0.1418 0.378 0.2473 0.589 0.3164 0.214 0.069 0.469 0.1036 0.764 0.1036h0.081v1.0309zm3.319-1.4073c0.135-0.0582 0.259-0.1309 0.371-0.2182 0.117-0.0872 0.217-0.1854 0.3-0.2945 0.088-0.1127 0.155-0.2345 0.202-0.3655 0.047-0.1309 0.071-0.2727 0.071-0.4254 0-0.1818-0.038-0.3346-0.114-0.4582-0.077-0.1273-0.168-0.2291-0.273-0.3054-0.106-0.08-0.217-0.1364-0.333-0.1691-0.113-0.0364-0.209-0.0546-0.289-0.0546-0.149 0-0.287 0.0237-0.415 0.0709-0.123 0.0437-0.232 0.1055-0.327 0.1855-0.091 0.08-0.163 0.1763-0.218 0.2891-0.051 0.1127-0.076 0.2345-0.076 0.3654 0 0.1564 0.02 0.2982 0.06 0.4255 0.043 0.1236 0.109 0.24 0.196 0.3491 0.091 0.1054 0.205 0.2072 0.344 0.3054 0.138 0.0982 0.305 0.1982 0.501 0.3zm1.391-4.3309c0.4 0.4182 0.769 0.8091 1.108 1.1727 0.145 0.1564 0.291 0.3146 0.436 0.4746 0.145 0.1564 0.28 0.3073 0.404 0.4527 0.127 0.1418 0.238 0.2727 0.332 0.3927 0.099 0.1164 0.171 0.211 0.219 0.2837 0.098 0.16 0.178 0.3145 0.24 0.4636 0.065 0.1491 0.11 0.3 0.136 0.4527 0.014 0.091 0.022 0.1837 0.022 0.2782 0 0.0618-6e-3 0.1491-0.017 0.2618-0.011 0.1128-0.043 0.2619-0.098 0.4473-0.058 0.2109-0.151 0.4037-0.278 0.5782-0.124 0.1709-0.275 0.3182-0.453 0.4418-0.178 0.1237-0.38 0.2182-0.605 0.2837-0.226 0.069-0.469 0.1036-0.731 0.1036-0.247 0-0.504-0.0327-0.769-0.0982-0.266-0.0654-0.54-0.1673-0.824-0.3054-0.08-0.0328-0.154-0.0655-0.223-0.0982-0.062-0.0291-0.126-0.0582-0.191-0.0873-0.062-0.0291-0.113-0.0545-0.153-0.0764-0.342 0.1055-0.742 0.1855-1.2 0.24-0.458 0.0509-0.953 0.0764-1.484 0.0764h-0.802v-1.0309h0.802c0.237 0 0.48-0.0036 0.731-0.0109 0.255-0.0073 0.48-0.0237 0.677-0.0491-0.262-0.2291-0.453-0.48-0.573-0.7527-0.12-0.2764-0.18-0.5909-0.18-0.9437 0-0.2763 0.051-0.5309 0.153-0.7636 0.101-0.2364 0.241-0.44 0.42-0.6109 0.181-0.1709 0.394-0.3037 0.638-0.3982 0.247-0.0982 0.516-0.1473 0.807-0.1473 0.218 0 0.418 0.0309 0.6 0.0928 0.182 0.0618 0.347 0.1454 0.496 0.2509 0.149 0.1018 0.279 0.2218 0.388 0.36 0.112 0.1345 0.207 0.2763 0.283 0.4254 0.077 0.1455 0.133 0.2946 0.169 0.4473 0.04 0.1491 0.06 0.2891 0.06 0.42 0 0.3745-0.071 0.7127-0.212 1.0145-0.139 0.2982-0.344 0.5619-0.617 0.7909 0.153 0.0619 0.315 0.1128 0.486 0.1528 0.174 0.04 0.347 0.06 0.518 0.06 0.109 0 0.216-0.0073 0.322-0.0218 0.109-0.0146 0.211-0.0437 0.305-0.0873 0.098-0.0437 0.187-0.1018 0.267-0.1746 0.08-0.0763 0.15-0.1745 0.208-0.2945 0.047-0.0982 0.071-0.2055 0.071-0.3218 0-0.0546-0.013-0.1418-0.039-0.2618-0.021-0.12-0.09-0.2819-0.207-0.4855-0.116-0.2036-0.263-0.4145-0.442-0.6327-0.178-0.2218-0.374-0.4473-0.589-0.6764-0.214-0.2291-0.438-0.4582-0.671-0.6873-0.232-0.2291-0.46-0.4563-0.681-0.6818l0.741-0.72zm5.457 5.7327h-1.031v-7.7781h1.031v7.7781zm-0.271 3.0328v-1.0309h0.753c0.375 0 0.698-0.0455 0.971-0.1364 0.276-0.0873 0.504-0.2236 0.682-0.4091 0.182-0.1854 0.314-0.4218 0.398-0.7091 0.087-0.2873 0.131-0.6291 0.131-1.0254v-3.4037h1.031v3.4037c0 0.52-0.069 0.9836-0.207 1.3909-0.135 0.4109-0.337 0.7582-0.606 1.0418s-0.605 0.5-1.009 0.6491c-0.4 0.1527-0.864 0.2291-1.391 0.2291h-0.753zm7.424-8.8473 0.551-0.4473c7e-3 0.0073 0.036 0.0473 0.087 0.12 0.055 0.0728 0.122 0.1728 0.202 0.3 0.084 0.1273 0.169 0.2818 0.256 0.4637 0.091 0.1818 0.175 0.3818 0.251 0.6 0.077 0.2181 0.14 0.4563 0.191 0.7145s0.077 0.5291 0.077 0.8127c0 0.4328-0.053 0.8291-0.159 1.1891-0.105 0.36-0.225 0.6728-0.36 0.9382-0.131 0.2655-0.252 0.4746-0.365 0.6273-0.109 0.1527-0.169 0.2363-0.18 0.2509l-0.546-0.4527c0.048-0.0582 0.095-0.1255 0.142-0.2019 0.044-0.0618 0.093-0.1363 0.148-0.2236 0.054-0.0909 0.109-0.1945 0.163-0.3109 0.051-0.1018 0.104-0.2182 0.158-0.3491 0.055-0.1345 0.102-0.2782 0.142-0.4309 0.044-0.1527 0.078-0.3164 0.104-0.4909 0.029-0.1746 0.043-0.3564 0.043-0.5455 0-0.1854-0.014-0.3654-0.043-0.54-0.026-0.1745-0.06-0.34-0.104-0.4963-0.04-0.1564-0.087-0.3-0.142-0.4309-0.054-0.1309-0.107-0.2473-0.158-0.3491-0.054-0.1164-0.109-0.22-0.163-0.3109-0.055-0.0909-0.104-0.1673-0.148-0.2291-0.043-0.0655-0.078-0.1164-0.103-0.1528l-0.044-0.0545zm-1.467 0.5673 0.54-0.4528c0.011 0.011 0.062 0.08 0.152 0.2073 0.091 0.1237 0.19 0.2946 0.295 0.5127 0.105 0.2182 0.202 0.4746 0.289 0.7691 0.087 0.2909 0.131 0.6109 0.131 0.96 0 0.3455-0.044 0.6655-0.131 0.96-0.087 0.2946-0.184 0.5491-0.289 0.7637-0.105 0.2145-0.204 0.3854-0.295 0.5127-0.09 0.1236-0.141 0.1927-0.152 0.2073l-0.54-0.4528c0-0.0072 0.036-0.06 0.109-0.1581 0.076-0.1019 0.158-0.24 0.245-0.4146 0.088-0.1782 0.166-0.3873 0.235-0.6273 0.073-0.2436 0.109-0.5072 0.109-0.7909 0-0.28-0.036-0.54-0.109-0.78-0.069-0.2436-0.147-0.4545-0.235-0.6327-0.087-0.1818-0.169-0.3236-0.245-0.4254l-0.109-0.1582zm11.685 8.2745c-0.563 0-1.074-0.1236-1.533-0.3709-0.458-0.2436-0.829-0.5927-1.112-1.0473-0.197-0.3091-0.337-0.6527-0.42-1.0309-0.069-0.2909-0.104-0.5963-0.104-0.9163 0-0.0946 7e-3 -0.2728 0.022-0.5346 0.018-0.2654 0.094-0.6327 0.229-1.1018 0.135-0.4727 0.322-0.96 0.562-1.4618l0.927 0.4418c-0.204 0.4218-0.365 0.8273-0.485 1.2164-0.117 0.3854-0.189 0.7509-0.219 1.0963-0.01 0.1164-0.016 0.2291-0.016 0.3382 0 0.2182 0.024 0.4491 0.071 0.6927 0.051 0.2473 0.151 0.4873 0.3 0.72 0.189 0.2946 0.436 0.5219 0.742 0.6819 0.305 0.1636 0.651 0.2454 1.036 0.2454h1.282c0.418 0 0.758-0.0454 1.02-0.1364 0.265-0.0872 0.471-0.2109 0.616-0.3709 0.149-0.16 0.249-0.3545 0.3-0.5836 0.055-0.2255 0.082-0.4764 0.082-0.7527v-3.8346h1.031v3.8346c0 0.96-0.254 1.6782-0.764 2.1545-0.509 0.48-1.27 0.72-2.285 0.72h-1.282zm0.044-7.14 0.927-0.9382 0.949 0.9491-0.938 0.9382-0.938-0.9491zm8.436 4.1182c-0.382-0.0036-0.698-0.0291-0.949-0.0764-0.248-0.0509-0.458-0.1218-0.633-0.2127-0.171-0.0945-0.309-0.2109-0.415-0.3491-0.101-0.1418-0.181-0.3054-0.24-0.4909-0.058-0.1891-0.096-0.4-0.114-0.6327s-0.027-0.4909-0.027-0.7746v-5.2472h1.031v5.2472c0 0.3164 9e-3 0.5728 0.027 0.7691 0.022 0.1964 0.074 0.3491 0.158 0.4582 0.087 0.1055 0.216 0.1782 0.387 0.2182 0.175 0.0364 0.433 0.0564 0.775 0.06v1.0309zm5.741-1.0309v1.0309h-0.954c-0.331 0-0.624-0.0473-0.878-0.1418-0.251-0.0946-0.453-0.2364-0.606-0.4255-0.378 0.3782-0.938 0.5673-1.68 0.5673h-1.854v-1.0309h1.854c0.262 0 0.469-0.0255 0.622-0.0764 0.153-0.0545 0.267-0.12 0.344-0.1963 0.08-0.08 0.13-0.1673 0.152-0.2619 0.026-0.0981 0.038-0.1909 0.038-0.2781v-1.8437h1.026v1.8055c0 0.1345 0.02 0.2491 0.06 0.3436 0.044 0.0946 0.096 0.1746 0.158 0.24 0.062 0.0618 0.131 0.1109 0.207 0.1473 0.08 0.0364 0.157 0.0636 0.229 0.0818 0.073 0.0182 0.139 0.0291 0.197 0.0327 0.058 0.0037 0.102 0.0055 0.131 0.0055h0.954zm-1.505 3.1418-0.884 0.8836-0.851-0.8836 0.862-0.8727 0.873 0.8727zm-2.089 0.0109-0.884 0.8837-0.851-0.8837 0.862-0.8727 0.873 0.8727zm7.993-3.1527v1.0309h-0.425c-0.331 0-0.624-0.0473-0.879-0.1418-0.251-0.0946-0.452-0.2364-0.605-0.4255-0.378 0.3782-0.938 0.5673-1.68 0.5673h-1.047v-1.0309h1.047c0.262 0 0.469-0.0255 0.622-0.0764 0.152-0.0545 0.267-0.12 0.343-0.1963 0.08-0.08 0.131-0.1673 0.153-0.2619 0.026-0.0981 0.038-0.1909 0.038-0.2781v-1.8437h1.026v1.8055c0 0.1345 0.02 0.2491 0.06 0.3436 0.04 0.0946 0.091 0.1746 0.152 0.24 0.066 0.0618 0.137 0.1109 0.213 0.1473 0.08 0.0364 0.157 0.0636 0.229 0.0818 0.073 0.0182 0.138 0.0291 0.197 0.0327 0.058 0.0037 0.101 0.0055 0.131 0.0055h0.425zm-3.245-5.1709 0.927-0.9382 0.949 0.9491-0.938 0.9382-0.938-0.9491zm5.961 1.7618c7e-3 0.0218 0.022 0.08 0.044 0.1745 0.022 0.0946 0.045 0.2128 0.071 0.3546 0.029 0.1382 0.06 0.2927 0.092 0.4636 0.033 0.1673 0.062 0.3382 0.088 0.5128 0.025 0.1709 0.047 0.3363 0.065 0.4963s0.027 0.3 0.027 0.42c0 0.3491-0.058 0.6509-0.174 0.9055-0.113 0.2509-0.262 0.46-0.447 0.6272-0.182 0.1637-0.388 0.2855-0.617 0.3655s-0.46 0.12-0.692 0.12h-1.391v-1.0309h1.391c0.054 0 0.13-0.0073 0.229-0.0218 0.101-0.0182 0.201-0.06 0.3-0.1255 0.101-0.0654 0.189-0.1636 0.261-0.2945 0.077-0.1309 0.115-0.3128 0.115-0.5455 0-0.08-7e-3 -0.18-0.022-0.3-0.011-0.1236-0.027-0.2545-0.049-0.3927-0.018-0.1418-0.04-0.2855-0.065-0.4309-0.026-0.1491-0.051-0.2891-0.077-0.42-0.025-0.1309-0.049-0.2473-0.071-0.3491-0.021-0.1018-0.04-0.1782-0.054-0.2291l0.976-0.3zm-1.887 6.42 0.927-0.9382 0.949 0.9491-0.938 0.9382-0.938-0.9491zm18.3-1.98c-0.36 0-0.678-0.0527-0.955-0.1582-0.272-0.1054-0.5-0.2582-0.681-0.4582l-0.131 0.1255c-0.182 0.1527-0.391 0.2727-0.628 0.36-0.236 0.0873-0.478 0.1309-0.725 0.1309-0.356 0-0.669-0.0527-0.938-0.1582-0.269-0.1054-0.495-0.2582-0.677-0.4582l-0.131 0.1255c-0.181 0.1527-0.39 0.2727-0.627 0.36-0.236 0.0873-0.478 0.1309-0.725 0.1309-0.455 0-0.847-0.1018-1.178-0.3055v0.4582c0 0.9528-0.255 1.6673-0.764 2.1437-0.509 0.4763-1.271 0.7145-2.285 0.7145h-1.282c-0.564 0-1.075-0.1218-1.533-0.3654-0.458-0.2437-0.829-0.591-1.113-1.0419-0.196-0.3091-0.336-0.6527-0.42-1.0309-0.065-0.2945-0.098-0.6036-0.098-0.9272 0-0.0946 7e-3 -0.2746 0.022-0.54 0.014-0.2655 0.089-0.6364 0.223-1.1128 0.135-0.4763 0.322-0.9672 0.562-1.4727l0.928 0.4527c-0.204 0.4218-0.366 0.8273-0.486 1.2164-0.116 0.3891-0.189 0.7564-0.218 1.1018-7e-3 0.1164-0.011 0.2291-0.011 0.3382 0 0.2218 0.024 0.4564 0.071 0.7036 0.047 0.2473 0.145 0.4873 0.294 0.72 0.19 0.2946 0.437 0.5218 0.742 0.6818 0.306 0.1637 0.651 0.2455 1.037 0.2455h1.282c0.418 0 0.758-0.0436 1.019-0.1309 0.266-0.0873 0.471-0.2109 0.617-0.3709 0.149-0.16 0.249-0.3527 0.3-0.5782 0.054-0.2218 0.082-0.4709 0.082-0.7473v-3.8345h1.031v1.0582c0 0.3491 0.032 0.6291 0.098 0.84 0.069 0.2072 0.158 0.3672 0.267 0.48 0.113 0.1127 0.238 0.1872 0.376 0.2236 0.142 0.0364 0.288 0.0545 0.437 0.0545 0.091 0 0.194-0.0163 0.311-0.049 0.116-0.0328 0.225-0.0873 0.327-0.1637 0.102-0.08 0.187-0.1854 0.256-0.3163 0.073-0.131 0.109-0.2946 0.109-0.491v-1.6363h1.026v1.6909c7e-3 0.3309 0.094 0.5745 0.262 0.7309 0.171 0.1564 0.443 0.2345 0.818 0.2345 0.091 0 0.193-0.0163 0.305-0.049 0.117-0.0328 0.226-0.0873 0.328-0.1637 0.101-0.08 0.187-0.1854 0.256-0.3163 0.069-0.131 0.104-0.2946 0.104-0.491v-1.6363h1.025v1.6909c7e-3 0.3309 0.096 0.5745 0.267 0.7309 0.175 0.1527 0.449 0.2291 0.824 0.2291h0.431v1.0309h-0.431zm-3.949-7.4455-0.775 0.7582-0.763-0.7582 0.785-0.78 0.753 0.78zm0.267 2.4655-0.862-0.8727 0.851-0.8837 0.884 0.8837-0.873 0.8727zm-2.089-0.0109-0.862-0.8727 0.851-0.8837 0.884 0.8837-0.873 0.8727zm8.928 0.5509c8e-3 0.0218 0.022 0.08 0.044 0.1745 0.022 0.0946 0.046 0.2128 0.071 0.3546 0.029 0.1382 0.06 0.2927 0.093 0.4636 0.032 0.1673 0.062 0.3382 0.087 0.5128 0.025 0.1709 0.047 0.3363 0.065 0.4963 0.019 0.16 0.028 0.3 0.028 0.42 0 0.3491-0.058 0.6509-0.175 0.9055-0.113 0.2509-0.262 0.46-0.447 0.6272-0.182 0.1637-0.387 0.2855-0.616 0.3655-0.23 0.08-0.46 0.12-0.693 0.12h-1.391v-1.0309h1.391c0.054 0 0.131-0.0073 0.229-0.0218 0.102-0.0182 0.202-0.06 0.3-0.1255 0.102-0.0654 0.189-0.1636 0.262-0.2945 0.076-0.1309 0.114-0.3128 0.114-0.5455 0-0.08-7e-3 -0.18-0.022-0.3-0.01-0.1236-0.027-0.2545-0.049-0.3927-0.018-0.1418-0.04-0.2855-0.065-0.4309-0.026-0.1491-0.051-0.2891-0.076-0.42-0.026-0.1309-0.05-0.2473-0.071-0.3491-0.022-0.1018-0.04-0.1782-0.055-0.2291l0.976-0.3zm-1.8-2.2527 0.928-0.9382 0.949 0.9491-0.938 0.9382-0.939-0.9491zm4.73 6.6872h-1.031v-7.7781h1.031v7.7781zm4.051 0.0873c-0.186 0-0.373-0.0091-0.562-0.0273-0.189-0.0145-0.375-0.0381-0.557-0.0709-0.178-0.0363-0.351-0.0818-0.518-0.1363-0.163-0.0582-0.313-0.1273-0.447-0.2073l-0.453-0.2564 0.513-0.9 0.453 0.2564c0.127 0.0727 0.283 0.1327 0.469 0.18 0.185 0.0436 0.382 0.0745 0.589 0.0927 0.178 0.0182 0.356 0.0273 0.534 0.0273h0.229c0.12-0.0036 0.27-0.0182 0.448-0.0436 0.211-0.0328 0.383-0.0782 0.518-0.1364 0.138-0.0618 0.225-0.1309 0.262-0.2073 0.014-0.0363 0.022-0.0763 0.022-0.12 0-0.0618-0.019-0.1472-0.055-0.2563-0.036-0.1128-0.113-0.2564-0.229-0.4309l-1.975-2.9837 0.873-0.5673c0.047 0.0728 0.096 0.1491 0.147 0.2291 0.051 0.0764 0.111 0.1673 0.18 0.2728 0.069 0.1018 0.149 0.2236 0.24 0.3654 0.091 0.1382 0.202 0.3055 0.333 0.5018 0.131 0.1964 0.284 0.4255 0.458 0.6873 0.175 0.2618 0.378 0.5673 0.611 0.9164 0.091 0.1382 0.173 0.2836 0.246 0.4363 0.072 0.1491 0.127 0.3 0.163 0.4528 0.033 0.1381 0.049 0.2763 0.049 0.4145 0 0.0146-1e-3 0.0655-5e-3 0.1527-4e-3 0.0837-0.04 0.2-0.109 0.3491-0.229 0.5128-0.757 0.8291-1.582 0.9491-0.127 0.0182-0.262 0.0327-0.404 0.0437-0.141 0.0109-0.289 0.0163-0.441 0.0163zm18.996-1.1127v1.0254h-0.163c-0.266 0-0.517-0.0381-0.753-0.1145-0.236-0.08-0.447-0.1945-0.633-0.3436-0.021-0.0182-0.043-0.0364-0.065-0.0546l-0.066-0.0654c-0.385 0.3818-0.943 0.5745-1.674 0.5781h-6.191c-0.258 0-0.502-0.0436-0.731-0.1309-0.225-0.0872-0.425-0.2127-0.6-0.3763-0.073-0.0655-0.145-0.1455-0.218-0.24-0.073-0.0946-0.14-0.2055-0.202-0.3328-0.058-0.1272-0.107-0.2709-0.147-0.4309-0.037-0.1636-0.055-0.3472-0.055-0.5509 0-0.1818 0.018-0.3818 0.055-0.6 0.04-0.2182 0.082-0.4254 0.125-0.6218 0.048-0.1964 0.091-0.3654 0.131-0.5073 0.044-0.1418 0.071-0.2291 0.082-0.2618l0.982 0.3109c-0.026 0.0764-0.058 0.1855-0.098 0.3273-0.037 0.1382-0.075 0.2873-0.115 0.4473-0.036 0.16-0.069 0.3218-0.098 0.4854-0.026 0.16-0.038 0.3-0.038 0.42 0 0.24 0.038 0.4291 0.114 0.5673 0.077 0.1382 0.166 0.2418 0.268 0.3109 0.105 0.0691 0.21 0.1127 0.316 0.1309 0.105 0.0182 0.185 0.0273 0.24 0.0273h6.142c0.265 0 0.476-0.0273 0.632-0.0818 0.16-0.0546 0.28-0.1237 0.36-0.2073 0.084-0.0836 0.137-0.1745 0.159-0.2727 0.025-0.1018 0.038-0.1982 0.038-0.2891v-1.8927h1.031v1.8654c0 0.2073 0.043 0.3709 0.131 0.4909 0.091 0.1164 0.194 0.2037 0.311 0.2618 0.116 0.0582 0.229 0.0946 0.338 0.1091 0.109 0.0109 0.185 0.0164 0.229 0.0164h0.163zm-5.356-3.1473-0.862-0.8727 0.851-0.8836 0.884 0.8836-0.873 0.8727zm-2.089-0.0109-0.862-0.8727 0.851-0.8837 0.884 0.8837-0.873 0.8727zm7.158 4.1891v-1.0309h3.197c0.261 0 0.478-0.0291 0.649-0.0873 0.174-0.0618 0.287-0.1454 0.338-0.2509 0.025-0.0545 0.038-0.1164 0.038-0.1854 0-0.0619-0.018-0.1491-0.055-0.2619-0.032-0.1163-0.105-0.2672-0.218-0.4527-0.112-0.1891-0.251-0.3873-0.414-0.5945-0.164-0.2073-0.34-0.4146-0.529-0.6219-0.189-0.2072-0.384-0.409-0.584-0.6054-0.2-0.2-0.393-0.3836-0.578-0.5509-0.186-0.1709-0.355-0.32-0.507-0.4473-0.153-0.1309-0.279-0.2309-0.377-0.3l0.104-1.1618 4.991-2.1927 0.414 0.9381-4.369 1.9091c0.109 0.1091 0.249 0.2473 0.42 0.4146 0.171 0.1636 0.357 0.3473 0.557 0.5509 0.2 0.2 0.403 0.4145 0.61 0.6436 0.208 0.2255 0.404 0.4528 0.59 0.6818 0.185 0.2291 0.349 0.4546 0.49 0.6764 0.146 0.2182 0.253 0.42 0.322 0.6055 0.062 0.16 0.106 0.3091 0.131 0.4472 0.018 0.12 0.027 0.2291 0.027 0.3273 0 0.0182-1e-3 0.06-5e-3 0.1255 0 0.0654-0.013 0.1436-0.038 0.2345-0.022 0.0909-0.047 0.1691-0.077 0.2346-0.04 0.0909-0.101 0.1927-0.185 0.3054-0.084 0.1091-0.202 0.2127-0.355 0.3109-0.149 0.0946-0.336 0.1746-0.561 0.24-0.226 0.0655-0.502 0.0982-0.829 0.0982h-3.197zm10.272 0h-0.235c-0.349 0-0.671-0.0691-0.965-0.2073 0 0.5091-0.071 0.9637-0.213 1.3637s-0.349 0.7381-0.622 1.0145c-0.273 0.28-0.609 0.4927-1.009 0.6382-0.396 0.1454-0.853 0.2182-1.369 0.2182h-0.753v-1.0309h0.753c0.374 0 0.698-0.0455 0.971-0.1364 0.276-0.0873 0.503-0.2236 0.682-0.4091 0.181-0.1854 0.314-0.4218 0.398-0.7091 0.087-0.2873 0.131-0.6291 0.131-1.0254v-3.4037h1.031v1.8055c0 0.2036 0.041 0.3636 0.125 0.48 0.087 0.1127 0.187 0.1963 0.3 0.2509 0.113 0.0545 0.22 0.0891 0.322 0.1036 0.105 0.0109 0.178 0.0164 0.218 0.0164h0.235v1.0309zm4.03-0.0109c-0.341 0-0.645-0.0491-0.911-0.1473-0.265-0.1018-0.489-0.2473-0.67-0.4363-0.19 0.2036-0.41 0.3545-0.66 0.4527-0.251 0.0945-0.504 0.1418-0.759 0.1418h-1.254v-1.0309h1.254c0.055 0 0.133-0.0073 0.235-0.0218 0.102-0.0182 0.202-0.06 0.3-0.1255 0.098-0.0691 0.184-0.1709 0.256-0.3054 0.077-0.1346 0.115-0.3182 0.115-0.5509v-1.6528h1.031v1.6309c0 0.3528 0.082 0.6109 0.245 0.7746 0.167 0.1636 0.44 0.2454 0.818 0.2454 0.055 0 0.131-0.0091 0.229-0.0272 0.102-0.0219 0.202-0.0673 0.3-0.1364 0.102-0.0691 0.19-0.1709 0.262-0.3055 0.077-0.1345 0.115-0.3181 0.115-0.5509v-1.6309h1.025v1.6309c0 0.3528 0.086 0.6128 0.257 0.78 0.171 0.1673 0.445 0.2509 0.823 0.2509 0.058 0 0.137-0.0109 0.235-0.0327 0.098-0.0254 0.194-0.0745 0.289-0.1473 0.098-0.0727 0.182-0.1763 0.251-0.3109 0.069-0.1345 0.103-0.3145 0.103-0.54 0-0.08-7e-3 -0.18-0.021-0.3-0.011-0.12-0.028-0.2491-0.049-0.3872-0.019-0.1382-0.04-0.2782-0.066-0.42-0.025-0.1455-0.051-0.28-0.076-0.4037-0.026-0.1272-0.049-0.24-0.071-0.3382-0.022-0.1018-0.04-0.1763-0.055-0.2236l0.977-0.3109c7e-3 0.0218 0.021 0.08 0.043 0.1745 0.022 0.091 0.048 0.2055 0.077 0.3437 0.029 0.1345 0.058 0.2854 0.087 0.4527 0.033 0.1673 0.062 0.3364 0.087 0.5073 0.029 0.1673 0.053 0.3309 0.071 0.4909 0.018 0.1564 0.027 0.2945 0.027 0.4145 0 0.3455-0.056 0.6473-0.169 0.9055-0.112 0.2545-0.26 0.4673-0.442 0.6382-0.178 0.1672-0.381 0.2945-0.61 0.3818-0.23 0.0836-0.459 0.1273-0.688 0.1309-0.349 0-0.658-0.0509-0.927-0.1527-0.265-0.1055-0.491-0.2564-0.676-0.4528-0.189 0.2-0.409 0.3491-0.66 0.4473-0.248 0.0982-0.497 0.1473-0.748 0.1473zm2.242-7.6309-0.774 0.7582-0.764-0.7582 0.785-0.78 0.753 0.78zm0.267 2.4654-0.861-0.8727 0.851-0.8836 0.883 0.8836-0.873 0.8727zm-2.089-0.0109-0.861-0.8727 0.85-0.8836 0.884 0.8836-0.873 0.8727z" fill="#fff"/>
<path d="m474.98 96c-0.382-0.0036-0.698-0.0291-0.949-0.0764-0.248-0.0509-0.459-0.1218-0.633-0.2127-0.171-0.0945-0.309-0.2109-0.415-0.3491-0.101-0.1418-0.181-0.3054-0.24-0.4909-0.058-0.1891-0.096-0.4-0.114-0.6327s-0.027-0.4909-0.027-0.7746v-5.2472h1.03v5.2472c0 0.3164 0.01 0.5728 0.028 0.7691 0.022 0.1964 0.074 0.3491 0.158 0.4582 0.087 0.1055 0.216 0.1782 0.387 0.2182 0.175 0.0364 0.433 0.0564 0.775 0.06v1.0309zm3.739-0.7691c0.026 0 0.06-0.0018 0.104-0.0054 0.047-0.0037 0.096-0.0182 0.147-0.0437 0.055-0.0254 0.108-0.0636 0.158-0.1145 0.055-0.0546 0.102-0.1291 0.142-0.2237 0.044-0.0981 0.078-0.2218 0.104-0.3709 0.029-0.1527 0.044-0.3382 0.044-0.5563 0-0.04-4e-3 -0.1037-0.011-0.1909-8e-3 -0.0873-0.024-0.1837-0.049-0.2891-0.026-0.1091-0.064-0.22-0.115-0.3328-0.047-0.1127-0.113-0.2163-0.196-0.3109-0.084-0.0945-0.186-0.1709-0.306-0.2291-0.12-0.0618-0.265-0.0927-0.436-0.0927-0.16 0-0.297 0.0291-0.409 0.0873-0.109 0.0545-0.202 0.1309-0.278 0.2291-0.077 0.0982-0.14 0.2145-0.191 0.3491-0.051 0.1309-0.099 0.2745-0.142 0.4309-0.044 0.1527-0.087 0.3145-0.131 0.4854-0.044 0.1673-0.095 0.3346-0.153 0.5018 0.189 0.0946 0.364 0.1837 0.524 0.2673 0.16 0.0837 0.309 0.1564 0.447 0.2182 0.138 0.0582 0.267 0.1055 0.387 0.1418 0.124 0.0327 0.244 0.0491 0.36 0.0491zm-0.414-3.7854c0.356 0 0.665 0.069 0.927 0.2072 0.266 0.1346 0.486 0.3164 0.66 0.5455 0.175 0.2291 0.304 0.4927 0.387 0.7909 0.088 0.2982 0.131 0.6073 0.131 0.9273 0 0.3527-0.031 0.6563-0.092 0.9109-0.059 0.2545-0.137 0.4691-0.235 0.6436-0.098 0.1709-0.209 0.3091-0.333 0.4146-0.12 0.1054-0.243 0.1854-0.371 0.24-0.123 0.0545-0.243 0.0909-0.36 0.109-0.116 0.0182-0.216 0.0273-0.3 0.0273-0.178 0-0.349-0.0182-0.512-0.0545-0.164-0.0364-0.331-0.0891-0.502-0.1582-0.171-0.0655-0.351-0.1473-0.54-0.2455-0.186-0.0981-0.391-0.2091-0.617-0.3327-0.298 0.3527-0.681 0.5291-1.15 0.5291h-0.628v-1.0309h0.628c0.138 0 0.25-0.0509 0.338-0.1527 0.091-0.1019 0.169-0.2346 0.234-0.3982 0.066-0.1637 0.126-0.3509 0.18-0.5618 0.055-0.2109 0.117-0.4273 0.186-0.6491 0.072-0.2218 0.158-0.4382 0.256-0.6491s0.222-0.3982 0.371-0.5618c0.153-0.1637 0.336-0.2964 0.551-0.3982 0.218-0.1018 0.482-0.1527 0.791-0.1527zm10.093 4.5545c-0.382-0.0036-0.698-0.0291-0.949-0.0764-0.248-0.0509-0.459-0.1218-0.633-0.2127-0.171-0.0945-0.309-0.2109-0.415-0.3491-0.101-0.1418-0.181-0.3054-0.24-0.4909-0.058-0.1891-0.096-0.4-0.114-0.6327s-0.027-0.4909-0.027-0.7746v-5.2472h1.03v5.2472c0 0.3164 0.01 0.5728 0.028 0.7691 0.022 0.1964 0.074 0.3491 0.158 0.4582 0.087 0.1055 0.216 0.1782 0.387 0.2182 0.175 0.0364 0.433 0.0564 0.775 0.06v1.0309zm2.719-4.44c8e-3 0.0218 0.022 0.08 0.044 0.1745 0.022 0.0946 0.045 0.2128 0.071 0.3546 0.029 0.1382 0.06 0.2927 0.093 0.4636 0.032 0.1673 0.061 0.3382 0.087 0.5128 0.025 0.1709 0.047 0.3363 0.065 0.4963 0.019 0.16 0.028 0.3 0.028 0.42 0 0.3491-0.059 0.6509-0.175 0.9055-0.113 0.2509-0.262 0.46-0.447 0.6272-0.182 0.1637-0.387 0.2855-0.617 0.3655-0.229 0.08-0.46 0.12-0.692 0.12h-1.391v-1.0309h1.391c0.054 0 0.131-0.0073 0.229-0.0218 0.102-0.0182 0.202-0.06 0.3-0.1255 0.102-0.0654 0.189-0.1636 0.262-0.2945 0.076-0.1309 0.114-0.3128 0.114-0.5455 0-0.08-7e-3 -0.18-0.022-0.3-0.011-0.1236-0.027-0.2545-0.049-0.3927-0.018-0.1418-0.04-0.2855-0.065-0.4309-0.026-0.1491-0.051-0.2891-0.077-0.42-0.025-0.1309-0.049-0.2473-0.07-0.3491-0.022-0.1018-0.04-0.1782-0.055-0.2291l0.976-0.3zm-1.887 6.42 0.927-0.9382 0.949 0.9491-0.938 0.9382-0.938-0.9491zm11.581-0.0109c0.363 0 0.678-0.0327 0.943-0.0982 0.269-0.0618 0.491-0.1618 0.666-0.3 0.174-0.1382 0.303-0.3182 0.387-0.54s0.125-0.4909 0.125-0.8073c-0.349-0.0909-0.69-0.1818-1.025-0.2727-0.142-0.0364-0.291-0.0745-0.447-0.1145-0.157-0.0437-0.313-0.0855-0.469-0.1255-0.153-0.0436-0.304-0.0836-0.453-0.12-0.146-0.0364-0.28-0.0709-0.404-0.1036-0.16-0.3891-0.24-0.7728-0.24-1.1509 0-0.0219 2e-3 -0.1382 6e-3 -0.3491 7e-3 -0.2109 0.085-0.4891 0.234-0.8346 0.149-0.3454 0.36-0.6545 0.633-0.9272 0.273-0.2764 0.587-0.4964 0.944-0.66 0.356-0.1637 0.745-0.2637 1.167-0.3 0.084-0.0073 0.169-0.011 0.256-0.011 0.342 0 0.693 0.0528 1.053 0.1582l-0.256 0.9873c-0.248-0.0764-0.499-0.1127-0.753-0.1091-0.255 0-0.5 0.0364-0.736 0.1091-0.233 0.0691-0.45 0.1709-0.65 0.3055-0.2 0.1345-0.37 0.2963-0.512 0.4854-0.138 0.1855-0.238 0.3946-0.3 0.6273-0.044 0.1527-0.066 0.3109-0.066 0.4745 0 0.0946 8e-3 0.1891 0.022 0.2837l2.089 0.5181c0.291 0.08 0.509 0.211 0.655 0.3928 0.145 0.1818 0.218 0.4036 0.218 0.6654 0 0.4764-0.056 0.8928-0.169 1.2491-0.113 0.36-0.293 0.6582-0.54 0.8946-0.247 0.2363-0.567 0.4145-0.96 0.5345-0.389 0.12-0.862 0.18-1.418 0.18h-1.206c-0.276 0-0.543-0.0345-0.802-0.1036-0.258-0.0691-0.501-0.1655-0.731-0.2891-0.229-0.1237-0.44-0.2727-0.632-0.4473-0.193-0.1745-0.362-0.3673-0.508-0.5782-0.17-0.2763-0.3-0.58-0.387-0.9109s-0.131-0.68-0.131-1.0473c0-0.4545 0.071-0.9436 0.213-1.4672 0.145-0.5273 0.356-1.0837 0.633-1.6691 0.163 0.0763 0.316 0.1509 0.458 0.2236 0.142 0.0691 0.291 0.1418 0.447 0.2182-0.48 1.0255-0.72 1.9145-0.72 2.6673 0 0.2691 0.033 0.5254 0.098 0.7691 0.066 0.2436 0.157 0.4636 0.273 0.66 0.186 0.2909 0.436 0.5181 0.753 0.6818 0.316 0.1673 0.662 0.2509 1.036 0.2509h1.206zm4.028 1.0582v-1.0309h0.752c0.375 0 0.699-0.0455 0.971-0.1364 0.277-0.0873 0.504-0.2236 0.682-0.4091 0.182-0.1854 0.315-0.4218 0.398-0.7091 0.088-0.2873 0.131-0.6291 0.131-1.0254v-3.4037h1.031v3.4037c0 0.52-0.069 0.9836-0.207 1.3909-0.135 0.4109-0.336 0.7582-0.606 1.0418-0.269 0.2836-0.605 0.5-1.009 0.6491-0.4 0.1527-0.863 0.2291-1.391 0.2291h-0.752zm7.969-3.0273c-0.382-0.0036-0.698-0.0291-0.949-0.0764-0.248-0.0509-0.458-0.1218-0.633-0.2127-0.171-0.0945-0.309-0.2109-0.415-0.3491-0.101-0.1418-0.181-0.3054-0.24-0.4909-0.058-0.1891-0.096-0.4-0.114-0.6327s-0.027-0.4909-0.027-0.7746v-5.2472h1.031v5.2472c0 0.3164 9e-3 0.5728 0.027 0.7691 0.022 0.1964 0.074 0.3491 0.158 0.4582 0.087 0.1055 0.216 0.1782 0.387 0.2182 0.175 0.0364 0.433 0.0564 0.775 0.06v1.0309zm6.756 0h-0.082c-0.324 0-0.613-0.0309-0.867-0.0927-0.251-0.0618-0.48-0.1491-0.688-0.2618-0.207-0.1164-0.398-0.2546-0.572-0.4146-0.175-0.1636-0.346-0.3454-0.513-0.5454-7e-3 0.0181-0.015 0.0345-0.022 0.049-7e-3 0.0146-0.014 0.031-0.022 0.0491-0.101 0.2-0.245 0.38-0.431 0.54-0.181 0.16-0.398 0.2928-0.649 0.3982-0.214 0.0946-0.452 0.1655-0.714 0.2127-0.262 0.0437-0.535 0.0655-0.818 0.0655h-1.604v-1.0309h1.604c0.211 0 0.407-0.0146 0.589-0.0436 0.185-0.0328 0.351-0.0764 0.496-0.131 0.149-0.0581 0.275-0.1272 0.376-0.2072 0.106-0.08 0.184-0.1691 0.235-0.2673 0.047-0.0982 0.071-0.2091 0.071-0.3327 0-0.0982-0.026-0.2382-0.076-0.42-0.051-0.1855-0.191-0.4328-0.42-0.7418-0.324-0.4546-0.599-0.84-0.824-1.1564-0.226-0.3164-0.409-0.5746-0.551-0.7746-0.167-0.2327-0.304-0.4236-0.409-0.5727l0.202-0.7636 5.007-2.3127 0.425 0.9436-4.467 2.0454 2.166 3.0055c0.221 0.2982 0.42 0.5564 0.594 0.7745 0.175 0.2146 0.351 0.3928 0.529 0.5346 0.182 0.1418 0.378 0.2473 0.589 0.3164 0.215 0.069 0.469 0.1036 0.764 0.1036h0.082v1.0309zm6.188 0c-0.262 0-0.507-0.0382-0.736-0.1145-0.229-0.0764-0.437-0.1855-0.622-0.3273-0.098 0.1527-0.207 0.2763-0.327 0.3709-0.117 0.0909-0.235 0.16-0.355 0.2073-0.116 0.0509-0.229 0.0836-0.338 0.0981-0.109 0.0182-0.204 0.0273-0.284 0.0273-0.178 0-0.349-0.0182-0.513-0.0545-0.163-0.0364-0.33-0.0891-0.501-0.1582-0.171-0.0655-0.351-0.1473-0.54-0.2455-0.186-0.0981-0.391-0.2091-0.617-0.3327-0.298 0.3527-0.682 0.5291-1.151 0.5291h-0.425v-1.0309h0.425c0.139 0 0.251-0.0509 0.339-0.1527 0.09-0.1019 0.169-0.2346 0.234-0.3982 0.066-0.1637 0.126-0.3509 0.18-0.5618 0.055-0.2109 0.116-0.4273 0.186-0.6491 0.072-0.2218 0.158-0.4382 0.256-0.6491s0.222-0.3982 0.371-0.5618c0.153-0.1637 0.336-0.2964 0.551-0.3982 0.218-0.1018 0.482-0.1527 0.791-0.1527 0.356 0 0.665 0.069 0.927 0.2072 0.265 0.1346 0.485 0.3164 0.66 0.5455 0.174 0.2291 0.304 0.4927 0.387 0.7909 0.087 0.2982 0.131 0.6073 0.131 0.9273 0 0.24 0.042 0.4309 0.126 0.5727 0.087 0.1382 0.185 0.2436 0.294 0.3164 0.113 0.069 0.222 0.1145 0.327 0.1363 0.109 0.0182 0.184 0.0273 0.224 0.0273h0.191v1.0309h-0.191zm-2.662-0.7691c0.029 0 0.066-0.0018 0.109-0.0054 0.044-0.0037 0.091-0.0182 0.142-0.0437 0.055-0.0254 0.107-0.0636 0.158-0.1145 0.055-0.0546 0.102-0.1291 0.142-0.2237 0.044-0.0981 0.078-0.2218 0.104-0.3709 0.029-0.1527 0.043-0.3382 0.043-0.5563 0-0.04-3e-3 -0.1037-0.011-0.1909-7e-3 -0.0873-0.023-0.1837-0.049-0.2891-0.025-0.1091-0.063-0.22-0.114-0.3328-0.047-0.1127-0.113-0.2163-0.197-0.3109-0.083-0.0945-0.185-0.1709-0.305-0.2291-0.12-0.0618-0.265-0.0927-0.436-0.0927-0.16 0-0.297 0.0291-0.409 0.0873-0.11 0.0545-0.202 0.1309-0.279 0.2291-0.076 0.0982-0.14 0.2145-0.191 0.3491-0.05 0.1309-0.098 0.2745-0.141 0.4309-0.044 0.1527-0.088 0.3145-0.131 0.4854-0.044 0.1673-0.095 0.3346-0.153 0.5018 0.189 0.0946 0.364 0.1837 0.524 0.2673 0.16 0.0837 0.309 0.1564 0.447 0.2182 0.138 0.0582 0.267 0.1055 0.387 0.1418 0.124 0.0327 0.244 0.0491 0.36 0.0491zm6.18-0.6382c0.134-0.0582 0.258-0.1309 0.371-0.2182 0.116-0.0872 0.216-0.1854 0.3-0.2945 0.087-0.1127 0.154-0.2345 0.201-0.3655 0.048-0.1309 0.071-0.2727 0.071-0.4254 0-0.1818-0.038-0.3346-0.114-0.4582-0.077-0.1273-0.168-0.2291-0.273-0.3054-0.105-0.08-0.216-0.1364-0.333-0.1691-0.112-0.0364-0.209-0.0546-0.289-0.0546-0.149 0-0.287 0.0237-0.414 0.0709-0.124 0.0437-0.233 0.1055-0.328 0.1855-0.091 0.08-0.163 0.1763-0.218 0.2891-0.051 0.1127-0.076 0.2345-0.076 0.3654 0 0.1564 0.02 0.2982 0.06 0.4255 0.043 0.1236 0.109 0.24 0.196 0.3491 0.091 0.1054 0.206 0.2072 0.344 0.3054s0.305 0.1982 0.502 0.3zm1.391-4.3309c0.4 0.4182 0.769 0.8091 1.107 1.1727 0.145 0.1564 0.291 0.3146 0.436 0.4746 0.146 0.1564 0.28 0.3073 0.404 0.4527 0.127 0.1418 0.238 0.2727 0.333 0.3927 0.098 0.1164 0.17 0.211 0.218 0.2837 0.098 0.16 0.178 0.3145 0.24 0.4636 0.065 0.1491 0.111 0.3 0.136 0.4527 0.015 0.091 0.022 0.1837 0.022 0.2782 0 0.0618-6e-3 0.1491-0.016 0.2618-0.011 0.1128-0.044 0.2619-0.099 0.4473-0.058 0.2109-0.151 0.4037-0.278 0.5782-0.123 0.1709-0.274 0.3182-0.453 0.4418-0.178 0.1237-0.38 0.2182-0.605 0.2837-0.225 0.069-0.469 0.1036-0.731 0.1036-0.247 0-0.504-0.0327-0.769-0.0982-0.265-0.0654-0.54-0.1673-0.824-0.3054-0.08-0.0328-0.154-0.0655-0.223-0.0982-0.062-0.0291-0.126-0.0582-0.191-0.0873-0.062-0.0291-0.113-0.0545-0.153-0.0764-0.342 0.1055-0.742 0.1855-1.2 0.24-0.458 0.0509-0.953 0.0764-1.484 0.0764h-0.801v-1.0309h0.801c0.237 0 0.48-0.0036 0.731-0.0109 0.255-0.0073 0.48-0.0237 0.677-0.0491-0.262-0.2291-0.453-0.48-0.573-0.7527-0.12-0.2764-0.18-0.5909-0.18-0.9437 0-0.2763 0.051-0.5309 0.153-0.7636 0.102-0.2364 0.242-0.44 0.42-0.6109 0.182-0.1709 0.394-0.3037 0.638-0.3982 0.247-0.0982 0.516-0.1473 0.807-0.1473 0.218 0 0.418 0.0309 0.6 0.0928 0.182 0.0618 0.347 0.1454 0.497 0.2509 0.149 0.1018 0.278 0.2218 0.387 0.36 0.113 0.1345 0.207 0.2763 0.283 0.4254 0.077 0.1455 0.133 0.2946 0.17 0.4473 0.04 0.1491 0.06 0.2891 0.06 0.42 0 0.3745-0.071 0.7127-0.213 1.0145-0.138 0.2982-0.344 0.5619-0.617 0.7909 0.153 0.0619 0.315 0.1128 0.486 0.1528 0.174 0.04 0.347 0.06 0.518 0.06 0.109 0 0.216-0.0073 0.322-0.0218 0.109-0.0146 0.211-0.0437 0.305-0.0873 0.099-0.0437 0.188-0.1018 0.268-0.1746 0.08-0.0763 0.149-0.1745 0.207-0.2945 0.047-0.0982 0.071-0.2055 0.071-0.3218 0-0.0546-0.013-0.1418-0.038-0.2618-0.022-0.12-0.091-0.2819-0.208-0.4855-0.116-0.2036-0.263-0.4145-0.441-0.6327-0.179-0.2218-0.375-0.4473-0.59-0.6764-0.214-0.2291-0.438-0.4582-0.67-0.6873-0.233-0.2291-0.46-0.4563-0.682-0.6818l0.742-0.72z" fill="#fff"/>
<path d="m235.34 90.32c0-0.2945-0.111-0.5218-0.333-0.6818-0.218-0.1637-0.602-0.3037-1.151-0.42-0.549-0.1164-0.985-0.2564-1.309-0.42-0.32-0.1673-0.558-0.3637-0.714-0.5891-0.153-0.2255-0.229-0.4946-0.229-0.8073 0-0.52 0.218-0.96 0.654-1.32 0.44-0.36 1.002-0.54 1.686-0.54 0.72 0 1.303 0.1855 1.751 0.5564 0.447 0.3709 0.67 0.8454 0.67 1.4236h-1.09c0-0.2945-0.126-0.5491-0.377-0.7636-0.251-0.2182-0.569-0.3273-0.954-0.3273-0.393 0-0.7 0.0873-0.922 0.2618-0.222 0.1709-0.333 0.3946-0.333 0.6709 0 0.2619 0.102 0.46 0.306 0.5946 0.207 0.1309 0.581 0.2582 1.123 0.3818 0.542 0.12 0.98 0.2636 1.315 0.4309 0.338 0.1673 0.587 0.3691 0.747 0.6055 0.164 0.2363 0.245 0.5254 0.245 0.8672 0 0.5637-0.227 1.0164-0.681 1.3582-0.451 0.3418-1.039 0.5127-1.762 0.5127-0.509 0-0.96-0.089-1.353-0.2672-0.389-0.1782-0.694-0.4291-0.916-0.7528-0.218-0.3236-0.328-0.6727-0.328-1.0472h1.086c0.018 0.3636 0.162 0.6527 0.431 0.8672 0.273 0.211 0.633 0.3164 1.08 0.3164 0.411 0 0.74-0.0818 0.987-0.2454 0.247-0.1673 0.371-0.3891 0.371-0.6655zm6.411 1.68c-0.062-0.1236-0.113-0.3455-0.153-0.6655-0.505 0.52-1.107 0.78-1.805 0.78-0.625 0-1.138-0.1763-1.538-0.529-0.4-0.3528-0.6-0.8-0.6-1.3419 0-0.6618 0.251-1.1745 0.753-1.5381 0.501-0.3673 1.207-0.551 2.116-0.551h1.058v-0.4963c0-0.3782-0.114-0.68-0.344-0.9055-0.225-0.2254-0.558-0.3382-0.998-0.3382-0.389 0-0.714 0.0982-0.976 0.2946-0.258 0.1964-0.387 0.4327-0.387 0.7091h-1.091c0-0.3164 0.111-0.6218 0.332-0.9164 0.226-0.2945 0.531-0.5273 0.917-0.6982 0.385-0.1745 0.809-0.2618 1.271-0.2618 0.731 0 1.302 0.1837 1.712 0.5509 0.415 0.3637 0.631 0.8655 0.65 1.5055v2.9182c0 0.5818 0.072 1.0454 0.218 1.3909v0.0927h-1.135zm-1.8-0.8236c0.342 0 0.664-0.0873 0.966-0.2619 0.305-0.1781 0.527-0.4072 0.665-0.6872v-1.3037h-0.851c-1.327 0-1.991 0.3891-1.991 1.1673 0 0.3382 0.113 0.6036 0.338 0.7964 0.226 0.1927 0.517 0.2891 0.873 0.2891zm5.589 0.8236h-1.08v-9h1.08v9zm5.656 0c-0.061-0.1236-0.112-0.3455-0.152-0.6655-0.506 0.52-1.108 0.78-1.806 0.78-0.625 0-1.138-0.1763-1.538-0.529-0.4-0.3528-0.6-0.8-0.6-1.3419 0-0.6618 0.251-1.1745 0.753-1.5381 0.502-0.3673 1.207-0.551 2.116-0.551h1.058v-0.4963c0-0.3782-0.114-0.68-0.343-0.9055-0.226-0.2254-0.558-0.3382-0.998-0.3382-0.39 0-0.715 0.0982-0.977 0.2946-0.258 0.1964-0.387 0.4327-0.387 0.7091h-1.091c0-0.3164 0.111-0.6218 0.333-0.9164 0.225-0.2945 0.531-0.5273 0.916-0.6982 0.386-0.1745 0.809-0.2618 1.271-0.2618 0.731 0 1.302 0.1837 1.713 0.5509 0.414 0.3637 0.631 0.8655 0.649 1.5055v2.9182c0 0.5818 0.073 1.0454 0.218 1.3909v0.0927h-1.135zm-1.8-0.8236c0.342 0 0.664-0.0873 0.966-0.2619 0.305-0.1781 0.527-0.4072 0.665-0.6872v-1.3037h-0.851c-1.327 0-1.99 0.3891-1.99 1.1673 0 0.3382 0.112 0.6036 0.338 0.7964 0.225 0.1927 0.516 0.2891 0.872 0.2891zm5.431-5.5146 0.033 0.7037c0.466-0.5491 1.093-0.8237 1.882-0.8237 0.884 0 1.485 0.34 1.805 1.02 0.211-0.3054 0.486-0.5509 0.824-0.7363 0.338-0.1891 0.738-0.2837 1.2-0.2837 1.389 0 2.096 0.7364 2.122 2.2091v4.2491h-1.086v-4.1836c0-0.4546-0.103-0.7928-0.31-1.0146-0.208-0.2254-0.555-0.3382-1.042-0.3382-0.404 0-0.738 0.12-1.004 0.36-0.265 0.24-0.42 0.5637-0.464 0.9709v4.2055h-1.085v-4.1564c0-0.92-0.451-1.38-1.353-1.38-0.712 0-1.2 0.3019-1.462 0.9055v4.6309h-1.085v-6.3382h1.025zm18.858 3.3982c-0.048 0.9455-0.282 1.6909-0.704 2.2364-0.422 0.5454-0.985 0.8181-1.691 0.8181-0.731 0-1.2-0.3272-1.407-0.9818-0.211 0.3309-0.453 0.5782-0.726 0.7418-0.269 0.16-0.549 0.24-0.84 0.24-0.556 0-0.976-0.2272-1.26-0.6818-0.225-0.36-0.338-0.8291-0.338-1.4072 0-0.1491 7e-3 -0.3055 0.022-0.4691 0.058-0.6437 0.205-1.2182 0.442-1.7237 0.236-0.5054 0.54-0.9018 0.911-1.1891 0.374-0.2909 0.767-0.4363 1.178-0.4363 0.316 0 0.6 0.0418 0.851 0.1254 0.251 0.0837 0.533 0.2473 0.845 0.4909l-0.305 3.2509c-7e-3 0.1055-0.011 0.2055-0.011 0.3 0 0.7019 0.253 1.0528 0.758 1.0528 0.444 0 0.802-0.2182 1.075-0.6546 0.272-0.44 0.42-1.0109 0.441-1.7127 8e-3 -0.1636 0.011-0.3218 0.011-0.4745 0-1.2873-0.301-2.3073-0.905-3.06-0.604-0.7564-1.558-1.1346-2.864-1.1346-0.785 0-1.483 0.1946-2.094 0.5836-0.608 0.3855-1.088 0.9455-1.44 1.68-0.353 0.7346-0.549 1.5837-0.589 2.5473-8e-3 0.1382-0.011 0.2746-0.011 0.4091 0 0.7964 0.129 1.5255 0.387 2.1873 0.262 0.6618 0.68 1.18 1.255 1.5545 0.578 0.3782 1.276 0.5673 2.094 0.5673 0.349 0 0.7-0.0436 1.053-0.1309 0.356-0.0836 0.651-0.1946 0.883-0.3327l0.219 0.6763c-0.244 0.1528-0.566 0.2782-0.966 0.3764s-0.805 0.1473-1.216 0.1473c-0.975 0-1.815-0.22-2.52-0.66-0.702-0.44-1.227-1.0728-1.577-1.8982-0.309-0.7273-0.463-1.5637-0.463-2.5091 0-0.1273 3e-3 -0.2564 0.011-0.3873 0.047-1.0763 0.287-2.0418 0.72-2.8963 0.432-0.8582 1.02-1.52 1.762-1.9855 0.741-0.4691 1.58-0.7036 2.514-0.7036 0.975 0 1.809 0.2181 2.504 0.6545 0.694 0.4364 1.212 1.0673 1.554 1.8927 0.298 0.7237 0.448 1.5564 0.448 2.4982 0 0.1309-4e-3 0.2637-0.011 0.3982zm-6.011 0.4964c-0.015 0.1418-0.022 0.2745-0.022 0.3981 0 0.3673 0.069 0.68 0.207 0.9382s0.378 0.3873 0.72 0.3873c0.237 0 0.462-0.1 0.677-0.3 0.218-0.2 0.398-0.4855 0.54-0.8564l5e-3 -0.0491 0.267-2.9509c-0.218-0.1127-0.452-0.1691-0.703-0.1691-0.455 0-0.833 0.2328-1.135 0.6982-0.298 0.4655-0.484 1.1-0.556 1.9037zm10.48-2.9237c-0.163-0.0291-0.342-0.0436-0.534-0.0436-0.709 0-1.191 0.3036-1.446 0.9109v4.5h-1.085v-6.3382h1.058l0.016 0.7309c0.357-0.5672 0.86-0.8509 1.511-0.8509 0.211 0 0.371 0.0273 0.48 0.0818v1.0091zm0.706 2.1382c0-0.6218 0.122-1.18 0.365-1.6745 0.244-0.4982 0.584-0.8819 1.02-1.1509 0.437-0.2691 0.933-0.4037 1.489-0.4037 0.866 0 1.564 0.3 2.095 0.9 0.534 0.5964 0.802 1.3909 0.802 2.3837v0.0763c0 0.6146-0.119 1.1673-0.355 1.6582s-0.574 0.8727-1.014 1.1455c-0.44 0.2727-0.946 0.409-1.517 0.409-0.858 0-1.554-0.2981-2.089-0.8945-0.531-0.5964-0.796-1.3873-0.796-2.3727v-0.0764zm1.091 0.1309c0 0.7018 0.161 1.2655 0.485 1.6909 0.327 0.4255 0.764 0.6382 1.309 0.6382 0.553 0 0.991-0.2145 1.315-0.6436 0.323-0.4328 0.485-1.0382 0.485-1.8164 0-0.6945-0.165-1.2582-0.496-1.6909-0.327-0.4327-0.766-0.6491-1.315-0.6491-0.534 0-0.965 0.2146-1.292 0.6436-0.328 0.4255-0.491 1.0346-0.491 1.8273zm9.729 1.4182c0-0.2945-0.111-0.5218-0.333-0.6818-0.218-0.1637-0.602-0.3037-1.151-0.42-0.549-0.1164-0.985-0.2564-1.309-0.42-0.32-0.1673-0.558-0.3637-0.714-0.5891-0.153-0.2255-0.229-0.4946-0.229-0.8073 0-0.52 0.218-0.96 0.654-1.32 0.44-0.36 1.002-0.54 1.686-0.54 0.72 0 1.303 0.1855 1.75 0.5564 0.448 0.3709 0.671 0.8454 0.671 1.4236h-1.091c0-0.2945-0.125-0.5491-0.376-0.7636-0.251-0.2182-0.569-0.3273-0.954-0.3273-0.393 0-0.7 0.0873-0.922 0.2618-0.222 0.1709-0.333 0.3946-0.333 0.6709 0 0.2619 0.102 0.46 0.305 0.5946 0.208 0.1309 0.582 0.2582 1.124 0.3818 0.542 0.12 0.98 0.2636 1.315 0.4309 0.338 0.1673 0.587 0.3691 0.747 0.6055 0.164 0.2363 0.245 0.5254 0.245 0.8672 0 0.5637-0.227 1.0164-0.681 1.3582-0.451 0.3418-1.039 0.5127-1.762 0.5127-0.509 0-0.96-0.089-1.353-0.2672-0.389-0.1782-0.695-0.4291-0.916-0.7528-0.219-0.3236-0.328-0.6727-0.328-1.0472h1.086c0.018 0.3636 0.162 0.6527 0.431 0.8672 0.272 0.211 0.632 0.3164 1.08 0.3164 0.411 0 0.74-0.0818 0.987-0.2454 0.247-0.1673 0.371-0.3891 0.371-0.6655zm3.58-3.8945c0.48-0.5891 1.106-0.8837 1.876-0.8837 1.339 0 2.015 0.7564 2.03 2.2691v4.1891h-1.086v-4.1945c-4e-3 -0.4582-0.109-0.7964-0.316-1.0146-0.204-0.2182-0.522-0.3273-0.955-0.3273-0.353 0-0.662 0.0946-0.927 0.2837-0.266 0.1854-0.473 0.4309-0.622 0.7363v4.5164h-1.085v-9h1.085v3.4255zm9.44 5.5745c-0.061-0.1236-0.112-0.3455-0.152-0.6655-0.506 0.52-1.108 0.78-1.806 0.78-0.625 0-1.138-0.1763-1.538-0.529-0.4-0.3528-0.6-0.8-0.6-1.3419 0-0.6618 0.251-1.1745 0.753-1.5381 0.502-0.3673 1.207-0.551 2.116-0.551h1.058v-0.4963c0-0.3782-0.114-0.68-0.343-0.9055-0.226-0.2254-0.559-0.3382-0.999-0.3382-0.389 0-0.714 0.0982-0.976 0.2946-0.258 0.1964-0.387 0.4327-0.387 0.7091h-1.091c0-0.3164 0.111-0.6218 0.333-0.9164 0.225-0.2945 0.531-0.5273 0.916-0.6982 0.385-0.1745 0.809-0.2618 1.271-0.2618 0.731 0 1.302 0.1837 1.713 0.5509 0.414 0.3637 0.631 0.8655 0.649 1.5055v2.9182c0 0.5818 0.072 1.0454 0.218 1.3909v0.0927h-1.135zm-1.8-0.8236c0.342 0 0.664-0.0873 0.966-0.2619 0.305-0.1781 0.527-0.4072 0.665-0.6872v-1.3037h-0.851c-1.327 0-1.991 0.3891-1.991 1.1673 0 0.3382 0.113 0.6036 0.339 0.7964 0.225 0.1927 0.516 0.2891 0.872 0.2891zm5.437-5.5146 0.038 0.7964c0.484-0.6109 1.116-0.9164 1.898-0.9164 1.338 0 2.015 0.7564 2.029 2.2691v4.1891h-1.085v-4.1945c-4e-3 -0.4582-0.109-0.7964-0.317-1.0146-0.203-0.2182-0.521-0.3273-0.954-0.3273-0.353 0-0.662 0.0946-0.927 0.2837-0.266 0.1854-0.473 0.4309-0.622 0.7363v4.5164h-1.086v-6.3382h1.026zm7.854 3.1582h-2.859v-0.8891h2.859v0.8891zm4.974 3.18c-0.062-0.1236-0.112-0.3455-0.152-0.6655-0.506 0.52-1.108 0.78-1.806 0.78-0.625 0-1.138-0.1763-1.538-0.529-0.4-0.3528-0.6-0.8-0.6-1.3419 0-0.6618 0.251-1.1745 0.753-1.5381 0.501-0.3673 1.207-0.551 2.116-0.551h1.058v-0.4963c0-0.3782-0.114-0.68-0.343-0.9055-0.226-0.2254-0.559-0.3382-0.999-0.3382-0.389 0-0.714 0.0982-0.976 0.2946-0.258 0.1964-0.387 0.4327-0.387 0.7091h-1.091c0-0.3164 0.111-0.6218 0.333-0.9164 0.225-0.2945 0.53-0.5273 0.916-0.6982 0.385-0.1745 0.809-0.2618 1.271-0.2618 0.731 0 1.302 0.1837 1.713 0.5509 0.414 0.3637 0.63 0.8655 0.649 1.5055v2.9182c0 0.5818 0.072 1.0454 0.218 1.3909v0.0927h-1.135zm-1.8-0.8236c0.342 0 0.664-0.0873 0.966-0.2619 0.305-0.1781 0.527-0.4072 0.665-0.6872v-1.3037h-0.851c-1.327 0-1.991 0.3891-1.991 1.1673 0 0.3382 0.113 0.6036 0.339 0.7964 0.225 0.1927 0.516 0.2891 0.872 0.2891zm5.589 0.8236h-1.08v-6.3382h1.08v6.3382zm-1.172-8.0236c0-0.1746 0.054-0.3219 0.163-0.4419 0.109-0.1236 0.269-0.1854 0.48-0.1854s0.371 0.0618 0.48 0.1854c0.109 0.12 0.164 0.2673 0.164 0.4419 0 0.1781-0.055 0.3254-0.164 0.4418-0.109 0.1163-0.269 0.1745-0.48 0.1745s-0.371-0.0582-0.48-0.1745c-0.109-0.1164-0.163-0.2637-0.163-0.4418zm2.939 7.4563c0-0.1891 0.055-0.3454 0.164-0.4691 0.113-0.1272 0.28-0.1909 0.502-0.1909s0.391 0.0637 0.507 0.1909c0.117 0.1237 0.175 0.28 0.175 0.4691 0 0.1782-0.058 0.3291-0.175 0.4528-0.116 0.12-0.285 0.18-0.507 0.18s-0.389-0.06-0.502-0.18c-0.109-0.1237-0.164-0.2746-0.164-0.4528zm4.304 0.5673h-1.08v-6.3382h1.08v6.3382zm-1.173-8.0236c0-0.1746 0.055-0.3219 0.164-0.4419 0.109-0.1236 0.269-0.1854 0.48-0.1854s0.371 0.0618 0.48 0.1854c0.109 0.12 0.163 0.2673 0.163 0.4419 0 0.1781-0.054 0.3254-0.163 0.4418-0.109 0.1163-0.269 0.1745-0.48 0.1745s-0.371-0.0582-0.48-0.1745c-0.109-0.1164-0.164-0.2637-0.164-0.4418zm5.978 2.6563c-0.164-0.0291-0.342-0.0436-0.535-0.0436-0.709 0-1.191 0.3036-1.445 0.9109v4.5h-1.086v-6.3382h1.059l0.016 0.7309c0.356-0.5672 0.86-0.8509 1.511-0.8509 0.211 0 0.371 0.0273 0.48 0.0818v1.0091z" fill="#fff"/>
<path d="m0 1h1280" opacity=".25" stroke="#fff" stroke-width=".5"/>
</svg>
