<?xml version="1.0" encoding="UTF-8"?>
<svg viewBox="0 0 245 149" xmlns="http://www.w3.org/2000/svg">
<path d="M244 43H139V148H244V43Z" fill="#07f" fill-opacity=".15" stroke="#0089FF"/>
<path d="m203.79 85.889 2.942-2.9274-2.977-2.9618-2.872 2.9618 2.907 2.9274zm-7.251 0.0172 2.924-2.9274-2.976-2.9618-2.856 2.9618 2.908 2.9274zm3.478 17.806c0.796 0 1.59-0.138 2.38-0.413 0.79-0.276 1.503-0.695 2.137-1.258 0.635-0.562 1.148-1.277 1.541-2.1434 0.392-0.8667 0.588-1.8913 0.588-3.0738 0-0.3788-0.026-0.8208-0.078-1.3259s-0.121-1.0246-0.208-1.5584c-0.086-0.5338-0.178-1.0648-0.277-1.5928-0.098-0.5281-0.193-1.0074-0.285-1.4379s-0.176-0.795-0.251-1.0935c-0.075-0.2984-0.124-0.4879-0.147-0.5682l-4.067 1.2226c0.046 0.1722 0.109 0.4161 0.19 0.7318s0.162 0.6659 0.243 1.0505c0.08 0.3845 0.164 0.7921 0.25 1.2226 0.087 0.4305 0.165 0.8524 0.234 1.2656 0.069 0.4133 0.124 0.8008 0.165 1.1624 0.04 0.3616 0.06 0.6687 0.06 0.9212 0 0.6085-0.098 1.0878-0.294 1.4379s-0.424 0.6113-0.684 0.7835c-0.259 0.1722-0.519 0.2784-0.779 0.3186-0.259 0.0402-0.458 0.0602-0.597 0.0602h-7.58v4.288h7.459zm-22.325 9.247c1.2 0 2.276-0.049 3.228-0.146 0.952-0.098 1.814-0.25 2.587-0.457 0.773-0.206 1.471-0.462 2.094-0.766s1.2-0.663 1.731-1.076c1.015-0.804 1.779-1.745 2.293-2.824 0.513-1.08 0.793-2.405 0.839-3.978h2.96v-4.288h-2.943v-2.3419c0-1.2168-0.132-2.3447-0.398-3.3837-0.265-1.0389-0.683-1.9372-1.254-2.6949s-1.304-1.3517-2.198-1.7822-1.97-0.6458-3.228-0.6458c-1.015 0-1.961 0.1866-2.838 0.5597s-1.662 0.904-2.354 1.5928c-0.242 0.264-0.496 0.5711-0.761 0.9213-0.266 0.3501-0.505 0.7605-0.718 1.2312-0.214 0.4707-0.39 1.0131-0.528 1.6273-0.139 0.6141-0.208 1.3173-0.208 2.1094 0 0.9184 0.107 1.7335 0.32 2.4452 0.214 0.7118 0.502 1.3286 0.865 1.8516 0.364 0.522 0.791 0.961 1.281 1.317 0.491 0.356 1.013 0.646 1.566 0.869 0.554 0.224 1.131 0.382 1.731 0.474s1.188 0.138 1.765 0.138h2.665c-0.046 0.872-0.193 1.567-0.441 2.083-0.248 0.517-0.614 0.97-1.099 1.361-0.311 0.264-0.678 0.491-1.099 0.68s-0.911 0.344-1.471 0.465c-0.559 0.12-1.2 0.212-1.921 0.275-0.721 0.064-1.543 0.095-2.466 0.095v4.288zm8.497-13.535h-2.665c-0.392 0-0.784-0.0516-1.177-0.1549-0.392-0.1034-0.747-0.2669-1.064-0.4908s-0.577-0.5137-0.779-0.8696-0.303-0.7864-0.303-1.2915c0-1.2857 0.289-2.2328 0.866-2.8413 0.577-0.6084 1.355-0.9126 2.336-0.9126 0.116 0 0.266 0.0143 0.45 0.043 0.185 0.0287 0.378 0.089 0.58 0.1808 0.202 0.0919 0.409 0.2296 0.623 0.4133 0.213 0.1837 0.404 0.4305 0.571 0.7405 0.167 0.3099 0.303 0.6974 0.407 1.1623s0.155 1.0246 0.155 1.6789v2.3419z" fill="#fff"/>
<path d="M131 26H91V66H131V26Z" fill="#07f" fill-opacity=".15" stroke="#0089FF"/>
<path d="m110.9 53.839c0.657 0 1.247-0.0979 1.769-0.2937s0.968-0.4744 1.336-0.8357 0.657-0.7995 0.867-1.3147c0.21-0.5151 0.329-1.0944 0.357-1.7378v-4.4055h-1.741v4.2587c0 0.4709-0.052 0.8706-0.154 1.1993-0.103 0.3287-0.259 0.5956-0.469 0.8007s-0.478 0.3543-0.804 0.4475c-0.326 0.0933-0.713 0.1399-1.161 0.1399h-0.867v1.7413h0.867zm-2.161-3.7553v-10.084h-1.741v10.084h1.741z" fill="#fff"/>
<path d="M83 1H18V66H83V1Z" fill="#07f" fill-opacity=".15" stroke="#0089FF"/>
<path d="m61.02 37.285c0.1721 0 0.3786-0.0121 0.6196-0.0362s0.4905-0.0826 0.7487-0.1755c0.2581-0.093 0.5163-0.2341 0.7745-0.4234 0.2581-0.1893 0.4888-0.4492 0.6918-0.7797 0.2031-0.3304 0.3666-0.7469 0.4906-1.2495 0.1239-0.5026 0.1858-1.1118 0.1858-1.8278 0-0.6471-0.0877-1.2667-0.2633-1.8588-0.1755-0.592-0.4406-1.1135-0.7951-1.5645-0.3546-0.4509-0.8021-0.8106-1.3425-1.0791s-1.1721-0.4027-1.8949-0.4027c-0.7229 0-1.3287 0.1394-1.8175 0.4182s-0.8932 0.6351-1.2134 1.0688c-0.3201 0.4337-0.5765 0.9139-0.7693 1.4406-0.1928 0.5266-0.358 1.0378-0.4957 1.5335-0.0826 0.2822-0.1635 0.5387-0.2426 0.7693-0.0792 0.2306-0.1653 0.4268-0.2582 0.5886-0.093 0.1618-0.1962 0.2874-0.3098 0.3769s-0.2461 0.1343-0.3976 0.1343h-1.2908l0.0207 2.5713h1.2701c0.475 0 0.8898-0.0706 1.2444-0.2117 0.3545-0.1411 0.6867-0.3769 0.9965-0.7074 0.4062 0.2203 0.7814 0.4182 1.1256 0.5938s0.6764 0.3236 0.9965 0.444c0.3201 0.1205 0.6351 0.2135 0.9449 0.2789s0.6368 0.0981 0.981 0.0981zm0.1033-2.4474c-0.1859 0-0.401-0.0379-0.6454-0.1136-0.2444-0.0758-0.5043-0.1721-0.7797-0.2892-0.2754-0.117-0.5559-0.2495-0.8416-0.3975-0.2857-0.1481-0.5559-0.2944-0.8107-0.4389 0.124-0.3029 0.2393-0.6385 0.346-1.0069 0.1067-0.3683 0.2375-0.7108 0.3924-1.0275 0.1549-0.3166 0.3459-0.5817 0.5731-0.7951s0.5198-0.3201 0.8778-0.3201c0.413 0 0.7555 0.0946 1.0275 0.284 0.2719 0.1893 0.4888 0.4165 0.6505 0.6815 0.1618 0.2651 0.2754 0.537 0.3408 0.8158s0.0981 0.5077 0.0981 0.6867c0 0.4682-0.0533 0.8313-0.16 1.0895-0.1067 0.2581-0.2289 0.4492-0.3666 0.5731s-0.2737 0.1979-0.4079 0.222c-0.1343 0.0241-0.2324 0.0362-0.2943 0.0362zm-16.151-4.0584 1.8794-1.8794-1.9-1.9001-1.8588 1.8794 1.8794 1.9001zm0.4337 11.566c2.024 0 3.5438-0.4785 4.5592-1.4354 1.0155-0.9569 1.5232-2.3958 1.5232-4.3165v-0.0826c0.234 0.0895 0.487 0.1583 0.759 0.2065 0.2719 0.0482 0.5387 0.0723 0.8003 0.0723h0.8261v-2.5713h-0.8261c-0.4544 0-0.8244-0.1119-1.1101-0.3356-0.2857-0.2238-0.4355-0.5628-0.4492-1.0172v-3.2219h-2.5713v6.9498c0 0.475-0.0465 0.9087-0.1394 1.3011-0.093 0.3924-0.2668 0.7281-0.5215 1.0069-0.2548 0.2788-0.611 0.4939-1.0688 0.6454-0.4578 0.1514-1.0516 0.2272-1.7814 0.2272h-2.0963c-0.654 0-1.2512-0.1463-1.7916-0.4389-0.5405-0.2926-0.9759-0.6833-1.3063-1.1721-0.2066-0.3442-0.3684-0.7314-0.4854-1.1617s-0.1755-0.8795-0.1755-1.3476c0-0.358 0.0223-0.7005 0.0671-1.0275 0.0447-0.327 0.1187-0.6678 0.222-1.0224 0.1033-0.3545 0.2375-0.7314 0.4027-1.1307 0.1653-0.3993 0.3718-0.8502 0.6196-1.3528l-2.3234-1.1049c-0.2823 0.5851-0.5215 1.1221-0.7177 1.6109s-0.3546 0.9569-0.4751 1.4044c-0.1204 0.4475-0.2082 0.8847-0.2633 1.3115s-0.0826 0.8674-0.0826 1.3218c0 0.716 0.0895 1.4027 0.2685 2.0601 0.179 0.6575 0.4337 1.2547 0.7642 1.7917 0.2822 0.4406 0.6144 0.8365 0.9965 1.1876s0.7986 0.6471 1.2495 0.888c0.4509 0.241 0.9311 0.4269 1.4405 0.5577 0.5095 0.1308 1.0396 0.1962 1.5903 0.1962h2.0963z" fill="#fff"/>
<path d="M131 74H1V129H131V74Z" fill="#07f" fill-opacity=".15" stroke="#0089FF"/>
<path d="m103.15 105.11c0.625 0 1.247-0.068 1.867-0.204 0.62-0.137 1.214-0.308 1.781-0.513 0.568-0.206 1.096-0.429 1.587-0.668 0.49-0.239 0.918-0.465 1.283-0.678 0.366-0.213 0.659-0.393 0.88-0.541 0.221-0.149 0.346-0.232 0.375-0.252l-0.209-1.449c-0.048-0.014-0.159-0.053-0.332-0.115s-0.387-0.14-0.642-0.233c-0.254-0.093-0.54-0.197-0.858-0.312-0.317-0.115-0.644-0.232-0.98-0.3516-0.337-0.1196-0.672-0.2344-1.006-0.3444s-0.648-0.2081-0.941-0.2942c-0.294-0.0861-0.556-0.1555-0.786-0.2081-0.231-0.0526-0.409-0.0789-0.534-0.0789-0.322 0-0.608 0.0538-0.858 0.1614-0.25 0.1077-0.47 0.2547-0.66 0.4413-0.19 0.1865-0.351 0.4054-0.483 0.6565-0.132 0.251-0.244 0.52-0.335 0.807l1.651 0.495c0.062-0.134 0.123-0.248 0.18-0.344 0.058-0.096 0.12-0.174 0.188-0.233 0.067-0.06 0.143-0.103 0.227-0.129 0.084-0.027 0.181-0.04 0.292-0.04 0.106 0 0.25 0.017 0.433 0.05 0.182 0.034 0.389 0.079 0.62 0.137 0.23 0.057 0.478 0.123 0.742 0.197 0.265 0.074 0.532 0.151 0.801 0.23 0.269 0.078 0.532 0.157 0.79 0.236 0.257 0.079 0.496 0.152 0.717 0.219-0.346 0.182-0.754 0.366-1.222 0.553-0.469 0.186-0.963 0.355-1.482 0.505-0.519 0.151-1.046 0.274-1.579 0.37-0.534 0.096-1.036 0.143-1.507 0.143h-2.185v1.787h2.185zm1.413 3.666 1.226-1.219-1.226-1.234-1.226 1.219 1.226 1.234zm3.021 0.015 1.226-1.22-1.226-1.234-1.24 1.22 1.24 1.234zm-1.521 1.923 1.139-1.134-1.154-1.148-1.139 1.134 1.154 1.148zm-11.567-14.436 1.1537-1.148-1.1393-1.1336-1.1538 1.148 1.1394 1.1336zm1.5359 2.0951 1.2115-1.2197-1.2331-1.2198-1.2403 1.2341 1.2619 1.2054zm-3.1079 0.0431 1.2258-1.2341-1.2258-1.2198-1.2259 1.2341 1.2259 1.2198zm-4.7016 6.6942c0.947 0 1.7018-0.222 2.2643-0.667 0.2499 0.21 0.5432 0.374 0.8797 0.491s0.7211 0.176 1.1538 0.176h0.0504c0.3173-5e-3 0.631-0.067 0.9411-0.187 0.31-0.119 0.5901-0.289 0.8401-0.509 0.2644 0.244 0.566 0.421 0.9049 0.531 0.339 0.11 0.7344 0.165 1.1863 0.165 0.3413 0 0.6766-0.059 1.0059-0.176s0.6165-0.288 0.8617-0.513c0.2644 0.244 0.5793 0.42 0.9446 0.528 0.3654 0.107 0.7954 0.161 1.2904 0.161h0.707v-1.787h-0.707c-0.447 0-0.7784-0.082-0.9947-0.247s-0.3293-0.432-0.3389-0.8v-2.124h-1.7956v2.117c-0.0096 0.196-0.0432 0.361-0.1009 0.495s-0.1322 0.243-0.2236 0.326c-0.0913 0.084-0.1935 0.144-0.3064 0.18-0.113 0.036-0.2272 0.053-0.3425 0.053-0.4231 0-0.7284-0.088-0.9159-0.265-0.1874-0.177-0.2812-0.462-0.2812-0.854v-2.052h-1.7883v2.088c0 0.239-0.0349 0.429-0.1046 0.57-0.0697 0.142-0.1538 0.249-0.2524 0.323-0.0985 0.074-0.1995 0.123-0.3028 0.147-0.1034 0.024-0.1911 0.039-0.2632 0.043-0.4038-4e-3 -0.6995-0.095-0.887-0.272s-0.2812-0.459-0.2812-0.847v-2.052h-1.7955v2.088c0 0.172-0.0169 0.325-0.0505 0.459-0.0337 0.134-0.0998 0.248-0.1983 0.341-0.0986 0.093-0.2356 0.164-0.411 0.212-0.1755 0.048-0.4051 0.071-0.6887 0.071h-0.9302v1.787h0.9302zm-9.0642 4.628c0-1.076-0.0024-2.154-0.0072-3.232-0.0048-1.079-0.0072-2.159-0.0072-3.24 0.1153 0.053 0.2235 0.104 0.3244 0.154 0.101 0.051 0.2008 0.101 0.2993 0.151 0.0986 0.05 0.1995 0.102 0.3029 0.154 0.1033 0.053 0.2151 0.11 0.3353 0.172 0.3221 0.168 0.643 0.333 0.9626 0.496 0.3197 0.162 0.625 0.306 0.9158 0.43 0.2909 0.124 0.5649 0.225 0.8221 0.301 0.2572 0.077 0.4867 0.115 0.6887 0.115 0.1057 0 0.2283-8e-3 0.3677-0.025s0.2873-0.05 0.4435-0.1c0.1562-0.051 0.3125-0.124 0.4687-0.219 0.1562-0.096 0.3041-0.225 0.4435-0.388 0.2019 0.216 0.4531 0.37 0.7535 0.463 0.3005 0.093 0.6694 0.14 1.1069 0.14h0.2019v-1.787h-0.2019c-0.0673 0-0.1634-0.014-0.2884-0.043-0.125-0.028-0.25-0.079-0.375-0.15-0.125-0.072-0.2356-0.17-0.3317-0.294-0.0961-0.125-0.149-0.285-0.1586-0.481 0.0048-0.053 0.0072-0.109 0.0072-0.169v-0.183c0-0.449-0.0649-0.877-0.1947-1.284s-0.3209-0.763-0.5733-1.0691c-0.2524-0.3062-0.5637-0.5489-0.9338-0.7283-0.3702-0.1794-0.798-0.2691-1.2836-0.2691h-0.0793c-0.4663 0-0.8605 0.0838-1.1826 0.2512-0.3413 0.177-0.625 0.4161-0.8509 0.7175-0.226 0.3013-0.4062 0.6468-0.5408 1.0368s-0.2428 0.793-0.3245 1.209l-1.1682-0.581-1.6874 1.019 0.0072 7.433h1.7379zm4.6367-6.278c-0.1058 0-0.2368-0.023-0.393-0.068-0.1563-0.046-0.3245-0.107-0.5048-0.183-0.1803-0.077-0.369-0.163-0.5661-0.259-0.1971-0.095-0.3894-0.193-0.5769-0.294 0.0577-0.359 0.1238-0.662 0.1983-0.911 0.0746-0.249 0.1539-0.454 0.238-0.617s0.1719-0.291 0.2632-0.384 0.1839-0.163 0.2776-0.208c0.0938-0.045 0.1863-0.073 0.2777-0.083 0.0913-9e-3 0.1802-0.014 0.2668-0.014 0.1923 0 0.3581 0.032 0.4975 0.097s0.2596 0.147 0.3606 0.248c0.1009 0.1 0.1827 0.211 0.2451 0.333 0.0625 0.122 0.1118 0.242 0.1479 0.359 0.036 0.117 0.0601 0.224 0.0721 0.319 0.012 0.096 0.018 0.165 0.018 0.208 0 0.383-0.0349 0.675-0.1046 0.876-0.0697 0.2-0.1514 0.344-0.2451 0.43-0.0938 0.086-0.1851 0.133-0.274 0.14-0.089 7e-3 -0.1551 0.011-0.1983 0.011zm-16.095 1.657c0.3413 0 0.7139-0.036 1.1177-0.107 0.4807-0.087 0.8918-0.247 1.2331-0.481 0.1827-0.125 0.3425-0.267 0.4795-0.427s0.2464-0.336 0.3281-0.527c0.1154-0.264 0.1731-0.539 0.1731-0.826 0-0.095-0.0072-0.193-0.0217-0.294-0.0576-0.392-0.2091-0.772-0.4542-1.141-0.3125-0.468-0.5805-0.871-0.8041-1.209-0.2235-0.3367-0.4122-0.6202-0.566-0.8498-0.1539-0.2296-0.2777-0.4149-0.3714-0.556s-0.1658-0.2499-0.2163-0.3265c-0.0505-0.0765-0.0842-0.1267-0.101-0.1506-0.0168-0.024-0.0252-0.0383-0.0252-0.0431l-0.4904-0.7534-1.5143 0.9758 2.6897 3.9036c0.0769 0.11 0.125 0.201 0.1442 0.272 0.0193 0.072 0.0289 0.125 0.0289 0.158 0 0.053-0.0096 0.098-0.0289 0.136-0.1009 0.211-0.2728 0.342-0.5155 0.395-0.2428 0.053-0.4844 0.079-0.7247 0.079-0.1202 0-0.2452-5e-3 -0.375-0.014-0.399-0.034-0.8233-0.106-1.2728-0.216-0.4494-0.11-0.8833-0.236-1.3015-0.38l-0.5192 1.722 0.8581 0.258c0.2115 0.063 0.4134 0.119 0.6057 0.169s0.3798 0.092 0.5625 0.126c0.1826 0.033 0.3629 0.059 0.5408 0.078 0.1779 0.02 0.3581 0.029 0.5408 0.029zm-8.6676 3.846c0.6778 0 1.2859-0.1 1.8244-0.301 0.5384-0.201 0.9975-0.487 1.3773-0.858 0.3797-0.37 0.6778-0.82 0.8941-1.349 0.2164-0.528 0.3389-1.123 0.3678-1.783v-4.52h-1.7955v4.37c0 0.483-0.0529 0.893-0.1587 1.23-0.1057 0.337-0.2668 0.611-0.4831 0.822-0.2164 0.21-0.4928 0.363-0.8293 0.459s-0.7355 0.143-1.197 0.143h-0.8942v1.787h0.8942zm-10.867 0c0.6778 0 1.286-0.1 1.8244-0.301s0.9975-0.487 1.3773-0.858c0.3798-0.37 0.6778-0.82 0.8942-1.349 0.2163-0.528 0.3389-1.123 0.3677-1.783v-4.52h-1.7955v4.37c0 0.483-0.0529 0.893-0.1587 1.23-0.1057 0.337-0.2668 0.611-0.4831 0.822-0.2163 0.21-0.4928 0.363-0.8293 0.459s-0.7355 0.143-1.197 0.143h-0.8942v1.787h0.8942zm-2.2282-3.853v-10.346h-1.7955v10.346h1.7955zm-6.9802 0.409c0.4086 0 0.7836-0.048 1.1249-0.144 0.3413-0.095 0.6442-0.229 0.9086-0.401 0.2644-0.173 0.4891-0.378 0.6742-0.617 0.1851-0.24 0.3257-0.503 0.4218-0.79 0.101-0.301 0.1515-0.602 0.1515-0.904 0-0.167-0.0144-0.334-0.0433-0.502-0.0913-0.469-0.286-0.902-0.5841-1.299-0.1394-0.181-0.2836-0.373-0.4326-0.574-0.1491-0.2-0.3017-0.4026-0.4579-0.6058-0.1563-0.2033-0.3101-0.403-0.4615-0.5992-0.1515-0.1961-0.2945-0.385-0.4291-0.5668-0.3221-0.4209-0.6394-0.8371-0.9519-1.2484l-1.3556 1.0117 0.7499 0.9255c0.3606 0.4449 0.6923 0.855 0.9951 1.231 0.3029 0.375 0.5565 0.718 0.7608 1.029s0.3449 0.567 0.4218 0.768c0.077 0.201 0.1154 0.366 0.1154 0.495 0 0.072-0.0096 0.141-0.0288 0.208-0.0577 0.187-0.143 0.337-0.256 0.452s-0.2428 0.205-0.3894 0.269c-0.1466 0.065-0.3017 0.108-0.4651 0.129-0.1635 0.022-0.3197 0.033-0.4687 0.033-0.1491 0-0.3029-0.021-0.4615-0.061-0.1587-0.041-0.3125-0.085-0.4615-0.133 0.149-0.148 0.2836-0.299 0.4038-0.452s0.2211-0.315 0.3028-0.485c0.0818-0.169 0.1455-0.35 0.1911-0.541 0.0457-0.192 0.0685-0.402 0.0685-0.632 0-0.282-0.0637-0.586-0.1911-0.911s-0.3148-0.6277-0.5624-0.9075-0.5529-0.5118-0.9158-0.696c-0.363-0.1841-0.7776-0.2762-1.2439-0.2762-0.4134 0-0.7992 0.0658-1.1574 0.1973-0.3581 0.1316-0.6706 0.3145-0.9374 0.5489s-0.4759 0.5166-0.6274 0.8465c-0.1514 0.33-0.2271 0.691-0.2271 1.084 0 0.205 0.018 0.393 0.0541 0.563 0.036 0.17 0.0889 0.33 0.1586 0.481 0.0697 0.15 0.1539 0.294 0.2524 0.43 0.0986 0.136 0.2103 0.276 0.3353 0.42-0.1154 0.014-0.2199 0.024-0.3137 0.028-0.0937 5e-3 -0.1862 8e-3 -0.2776 8e-3 -0.0961 0-0.1959-2e-3 -0.2992-4e-3 -0.1034-2e-3 -0.2224-4e-3 -0.357-4e-3h-0.8148v1.787h0.8148c0.6778 0 1.2968-0.032 1.8568-0.097 0.5601-0.064 1.0709-0.166 1.5324-0.305 0.0529 0.029 0.1178 0.061 0.1947 0.097s0.1514 0.071 0.2235 0.104c0.0817 0.038 0.1659 0.077 0.2524 0.115 0.3846 0.191 0.762 0.322 1.1321 0.391 0.3702 0.069 0.7283 0.104 1.0745 0.104zm-2.7835-2.597c-0.2211-0.12-0.4146-0.234-0.5805-0.341-0.1658-0.108-0.3052-0.219-0.4182-0.334s-0.1971-0.24-0.2524-0.376c-0.0553-0.137-0.0829-0.293-0.0829-0.47 0-0.144 0.0336-0.28 0.1009-0.409 0.0673-0.13 0.1587-0.243 0.2741-0.341 0.1153-0.098 0.2487-0.176 0.4002-0.233 0.1514-0.058 0.3088-0.087 0.4723-0.087 0.1106 0 0.2368 0.024 0.3786 0.072s0.2752 0.122 0.4002 0.223c0.125 0.1 0.2307 0.227 0.3173 0.38 0.0865 0.153 0.1298 0.33 0.1298 0.531 0 0.167-0.0313 0.32-0.0938 0.459s-0.1454 0.264-0.2488 0.377c-0.1033 0.112-0.2247 0.214-0.3641 0.305s-0.2837 0.172-0.4327 0.244zm-12.432 6.816c0-1.076-0.0024-2.154-0.0072-3.232-0.0049-1.079-0.0073-2.159-0.0073-3.24 0.1154 0.053 0.2236 0.104 0.3245 0.154 0.101 0.051 0.2007 0.101 0.2993 0.151 0.0985 0.05 0.1995 0.102 0.3029 0.154 0.1033 0.053 0.2151 0.11 0.3353 0.172 0.3221 0.168 0.6429 0.333 0.9626 0.496 0.3197 0.162 0.625 0.306 0.9158 0.43 0.2909 0.124 0.5649 0.225 0.8221 0.301 0.2572 0.077 0.4867 0.115 0.6886 0.115 0.1058 0 0.2284-8e-3 0.3678-0.025s0.2872-0.05 0.4435-0.1c0.1562-0.051 0.3124-0.124 0.4687-0.219 0.1562-0.096 0.304-0.225 0.4435-0.388 0.2019 0.216 0.4531 0.37 0.7535 0.463 0.3005 0.093 0.6694 0.14 1.1069 0.14h0.2019v-1.787h-0.2019c-0.0673 0-0.1635-0.014-0.2884-0.043-0.125-0.028-0.25-0.079-0.375-0.15-0.125-0.072-0.2356-0.17-0.3317-0.294-0.0962-0.125-0.149-0.285-0.1587-0.481 0.0048-0.053 0.0072-0.109 0.0072-0.169v-0.183c0-0.449-0.0648-0.877-0.1946-1.284s-0.3209-0.763-0.5733-1.0691c-0.2524-0.3062-0.5637-0.5489-0.9338-0.7283-0.3702-0.1794-0.7981-0.2691-1.2836-0.2691h-0.0793c-0.4663 0-0.8605 0.0838-1.1826 0.2512-0.3413 0.177-0.625 0.4161-0.8509 0.7175-0.226 0.3013-0.4062 0.6468-0.5408 1.0368-0.1347 0.39-0.2428 0.793-0.3245 1.209l-1.1682-0.581-1.6874 1.019 0.0072 7.433h1.7379zm4.6366-6.278c-0.1057 0-0.2367-0.023-0.393-0.068-0.1562-0.046-0.3245-0.107-0.5047-0.183-0.1803-0.077-0.369-0.163-0.5661-0.259-0.1971-0.095-0.3894-0.193-0.5769-0.294 0.0577-0.359 0.1238-0.662 0.1983-0.911s0.1539-0.454 0.238-0.617 0.1718-0.291 0.2632-0.384c0.0913-0.093 0.1839-0.163 0.2776-0.208 0.0938-0.045 0.1863-0.073 0.2776-0.083 0.0914-9e-3 0.1803-0.014 0.2668-0.014 0.1923 0 0.3582 0.032 0.4976 0.097s0.2596 0.147 0.3605 0.248c0.101 0.1 0.1827 0.211 0.2452 0.333s0.1118 0.242 0.1478 0.359c0.0361 0.117 0.0601 0.224 0.0722 0.319 0.012 0.096 0.018 0.165 0.018 0.208 0 0.383-0.0349 0.675-0.1046 0.876-0.0697 0.2-0.1514 0.344-0.2451 0.43-0.0938 0.086-0.1851 0.133-0.2741 0.14-0.0889 7e-3 -0.155 0.011-0.1983 0.011z" fill="#fff"/>
</svg>
