<svg width="62" height="14" viewBox="0 0 62 14" fill="none" xmlns="http://www.w3.org/2000/svg">
<path d="M3.4711 10C3.02565 9.99576 2.65656 9.96606 2.36383 9.91091C2.07534 9.85152 1.82928 9.76879 1.62565 9.66273C1.42625 9.55242 1.26504 9.41667 1.14201 9.25545C1.02322 9.09 0.929889 8.89909 0.86201 8.68273C0.794131 8.46212 0.749586 8.21606 0.728374 7.94455C0.707161 7.67303 0.696555 7.37182 0.696555 7.04091V0.919091H1.89928V7.04091C1.89928 7.41 1.90989 7.70909 1.9311 7.93818C1.95656 8.16727 2.01807 8.34545 2.11565 8.47273C2.21746 8.59576 2.36807 8.68061 2.56746 8.72727C2.7711 8.7697 3.07231 8.79303 3.4711 8.79727V10ZM7.83402 9.10273C7.86372 9.10273 7.90402 9.10061 7.95493 9.09636C8.01008 9.09212 8.06735 9.07515 8.12675 9.04545C8.19038 9.01576 8.2519 8.97121 8.31129 8.91182C8.37493 8.84818 8.43008 8.76121 8.47675 8.65091C8.52766 8.53636 8.56796 8.39212 8.59766 8.21818C8.6316 8.04 8.64857 7.82364 8.64857 7.56909C8.64857 7.52242 8.64432 7.44818 8.63584 7.34636C8.62735 7.24455 8.60826 7.13212 8.57857 7.00909C8.54887 6.88182 8.50432 6.75242 8.44493 6.62091C8.38978 6.48939 8.31341 6.36848 8.21584 6.25818C8.11826 6.14788 7.99947 6.05879 7.85947 5.99091C7.71947 5.91879 7.54978 5.88273 7.35038 5.88273C7.16372 5.88273 7.00463 5.91667 6.87311 5.98455C6.74584 6.04818 6.63766 6.13727 6.54857 6.25182C6.45947 6.36636 6.38523 6.50212 6.32584 6.65909C6.26644 6.81182 6.21129 6.97939 6.16038 7.16182C6.10947 7.34 6.05857 7.52879 6.00766 7.72818C5.95675 7.92333 5.89735 8.11848 5.82947 8.31364C6.05008 8.42394 6.25372 8.52788 6.44038 8.62545C6.62705 8.72303 6.80099 8.80788 6.9622 8.88C7.12341 8.94788 7.27402 9.00303 7.41402 9.04545C7.55826 9.08364 7.69826 9.10273 7.83402 9.10273ZM7.35038 4.68636C7.76614 4.68636 8.12675 4.76697 8.4322 4.92818C8.7419 5.08515 8.99857 5.29727 9.2022 5.56455C9.40584 5.83182 9.55644 6.13939 9.65402 6.48727C9.75584 6.83515 9.80675 7.19576 9.80675 7.56909C9.80675 7.98061 9.77069 8.33485 9.69857 8.63182C9.63069 8.92879 9.53947 9.17909 9.42493 9.38273C9.31038 9.58212 9.18099 9.74333 9.03675 9.86636C8.89675 9.98939 8.7525 10.0827 8.60402 10.1464C8.45978 10.21 8.31978 10.2524 8.18402 10.2736C8.04826 10.2948 7.9316 10.3055 7.83402 10.3055C7.62614 10.3055 7.42675 10.2842 7.23584 10.2418C7.04493 10.1994 6.84978 10.1379 6.65038 10.0573C6.45099 9.98091 6.24099 9.88545 6.02038 9.77091C5.80402 9.65636 5.56432 9.52697 5.30129 9.38273C4.95341 9.79424 4.50584 10 3.95857 10H3.22675V8.79727H3.95857C4.11978 8.79727 4.25129 8.73788 4.35311 8.61909C4.45917 8.5003 4.55038 8.34545 4.62675 8.15455C4.70311 7.96364 4.77311 7.74515 4.83675 7.49909C4.90038 7.25303 4.9725 7.00061 5.05311 6.74182C5.13796 6.48303 5.23766 6.23061 5.3522 5.98455C5.46675 5.73848 5.61099 5.52 5.78493 5.32909C5.96311 5.13818 6.17735 4.98333 6.42766 4.86455C6.6822 4.74576 6.98978 4.68636 7.35038 4.68636ZM19.1254 10C18.6799 9.99576 18.3109 9.96606 18.0181 9.91091C17.7296 9.85152 17.4836 9.76879 17.2799 9.66273C17.0805 9.55242 16.9193 9.41667 16.7963 9.25545C16.6775 9.09 16.5842 8.89909 16.5163 8.68273C16.4484 8.46212 16.4039 8.21606 16.3827 7.94455C16.3615 7.67303 16.3509 7.37182 16.3509 7.04091V0.919091H17.5536V7.04091C17.5536 7.41 17.5642 7.70909 17.5854 7.93818C17.6109 8.16727 17.6724 8.34545 17.7699 8.47273C17.8718 8.59576 18.0224 8.68061 18.2218 8.72727C18.4254 8.7697 18.7266 8.79303 19.1254 8.79727V10ZM22.2983 4.82C22.3068 4.84545 22.3238 4.91333 22.3492 5.02364C22.3747 5.13394 22.4023 5.27182 22.432 5.43727C22.4659 5.59848 22.502 5.77879 22.5401 5.97818C22.5783 6.17333 22.6123 6.37273 22.642 6.57636C22.6716 6.77576 22.6971 6.96879 22.7183 7.15545C22.7395 7.34212 22.7501 7.50545 22.7501 7.64545C22.7501 8.05273 22.6823 8.40485 22.5465 8.70182C22.415 8.99455 22.241 9.23848 22.0247 9.43364C21.8126 9.62455 21.5729 9.76667 21.3056 9.86C21.0383 9.95333 20.7689 10 20.4974 10H18.8747V8.79727H20.4974C20.561 8.79727 20.6501 8.78879 20.7647 8.77182C20.8835 8.75061 21.0001 8.70182 21.1147 8.62545C21.2335 8.54909 21.3353 8.43455 21.4201 8.28182C21.5092 8.12909 21.5538 7.91697 21.5538 7.64545C21.5538 7.55212 21.5453 7.43545 21.5283 7.29545C21.5156 7.15121 21.4965 6.99848 21.471 6.83727C21.4498 6.67182 21.4244 6.50424 21.3947 6.33455C21.365 6.16061 21.3353 5.99727 21.3056 5.84455C21.2759 5.69182 21.2483 5.55606 21.2229 5.43727C21.1974 5.31848 21.1762 5.22939 21.1592 5.17L22.2983 4.82ZM20.0965 12.31L21.1783 11.2155L22.2856 12.3227L21.191 13.4173L20.0965 12.31ZM42.2108 10C41.7908 10 41.4217 9.93848 41.1036 9.81545C40.7896 9.69242 40.5266 9.51424 40.3145 9.28091C40.1999 9.41667 40.0705 9.53121 39.9263 9.62455C39.7863 9.71364 39.6399 9.78788 39.4872 9.84727C39.3387 9.90242 39.186 9.94273 39.029 9.96818C38.8763 9.98939 38.7278 10 38.5836 10C38.0533 10 37.5951 9.88121 37.209 9.64364V10.1782C37.209 11.2897 36.912 12.1233 36.3181 12.6791C35.7242 13.2348 34.8354 13.5127 33.6517 13.5127H32.1563C31.4987 13.5127 30.9026 13.3706 30.3681 13.0864C29.8336 12.8021 29.4008 12.397 29.0699 11.8709C28.8408 11.5103 28.6775 11.1094 28.5799 10.6682C28.4993 10.3245 28.459 9.96394 28.459 9.58636C28.459 9.47606 28.4675 9.26606 28.4845 8.95636C28.5057 8.64667 28.5948 8.21394 28.7517 7.65818C28.9087 7.10242 29.1272 6.5297 29.4072 5.94L30.489 6.46818C30.2514 6.9603 30.0626 7.43333 29.9226 7.88727C29.7869 8.34121 29.702 8.7697 29.6681 9.17273C29.6554 9.30848 29.649 9.44 29.649 9.56727C29.649 9.82606 29.6766 10.0997 29.7317 10.3882C29.7911 10.6767 29.9078 10.9567 30.0817 11.2282C30.3023 11.5718 30.5908 11.837 30.9472 12.0236C31.3036 12.2145 31.7066 12.31 32.1563 12.31H33.6517C34.1396 12.31 34.5363 12.2591 34.8417 12.1573C35.1514 12.0555 35.3911 11.9112 35.5608 11.7245C35.7348 11.5379 35.8514 11.313 35.9108 11.05C35.9745 10.7912 36.0063 10.5006 36.0063 10.1782V5.69818H37.209V6.93909C37.209 7.34636 37.2472 7.67303 37.3236 7.91909C37.4042 8.16091 37.5081 8.34758 37.6354 8.47909C37.7669 8.61061 37.9133 8.69758 38.0745 8.74C38.2399 8.78242 38.4096 8.80364 38.5836 8.80364C38.6896 8.80364 38.8105 8.78455 38.9463 8.74636C39.082 8.70818 39.2093 8.64455 39.3281 8.55545C39.4469 8.46212 39.5466 8.33909 39.6272 8.18636C39.712 8.03364 39.7545 7.84273 39.7545 7.61364V5.69818H40.9508V7.67727C40.9593 8.06333 41.0611 8.34758 41.2563 8.53C41.4557 8.71242 41.7717 8.80364 42.2045 8.80364C42.2766 8.79939 42.3699 8.78455 42.4845 8.75909C42.6033 8.72939 42.7157 8.67424 42.8217 8.59364C42.932 8.50879 43.0254 8.39 43.1017 8.23727C43.1823 8.0803 43.2226 7.87242 43.2226 7.61364C43.2226 7.5203 43.2142 7.40364 43.1972 7.26364C43.1845 7.12364 43.1675 6.97515 43.1463 6.81818C43.1251 6.65697 43.0996 6.49364 43.0699 6.32818C43.0402 6.15848 43.0105 5.99939 42.9808 5.85091C42.9554 5.70242 42.9299 5.57091 42.9045 5.45636C42.879 5.33758 42.8578 5.24848 42.8408 5.18909L43.9863 4.83909C43.9948 4.8603 44.0096 4.92606 44.0308 5.03636C44.0563 5.14242 44.086 5.27606 44.1199 5.43727C44.1539 5.59424 44.1878 5.7703 44.2217 5.96545C44.2599 6.16061 44.2939 6.35788 44.3236 6.55727C44.3533 6.75242 44.3766 6.94333 44.3936 7.13C44.4148 7.31242 44.4254 7.47364 44.4254 7.61364C44.4254 8.01667 44.3596 8.36667 44.2281 8.66364C44.1008 8.95636 43.9311 9.20242 43.719 9.40182C43.5111 9.59697 43.2736 9.74545 43.0063 9.84727C42.7433 9.94485 42.4781 9.99576 42.2108 10ZM49.1215 10C48.676 9.99576 48.3069 9.96606 48.0142 9.91091C47.7257 9.85152 47.4797 9.76879 47.276 9.66273C47.0766 9.55242 46.9154 9.41667 46.7924 9.25545C46.6736 9.09 46.5803 8.89909 46.5124 8.68273C46.4445 8.46212 46.4 8.21606 46.3788 7.94455C46.3576 7.67303 46.3469 7.37182 46.3469 7.04091V0.919091H47.5497V7.04091C47.5497 7.41 47.5603 7.70909 47.5815 7.93818C47.6069 8.16727 47.6685 8.34545 47.766 8.47273C47.8679 8.59576 48.0185 8.68061 48.2179 8.72727C48.4215 8.7697 48.7227 8.79303 49.1215 8.79727V10ZM56.348 10C56.0426 10 55.7562 9.95545 55.489 9.86636C55.2217 9.77727 54.9799 9.65 54.7635 9.48455C54.649 9.66273 54.5217 9.80697 54.3817 9.91727C54.2459 10.0233 54.108 10.1039 53.968 10.1591C53.8323 10.2185 53.7008 10.2567 53.5735 10.2736C53.4462 10.2948 53.3359 10.3055 53.2426 10.3055C53.0347 10.3055 52.8353 10.2842 52.6444 10.2418C52.4535 10.1994 52.2583 10.1379 52.059 10.0573C51.8596 9.98091 51.6496 9.88545 51.429 9.77091C51.2126 9.65636 50.9729 9.52697 50.7099 9.38273C50.362 9.79424 49.9144 10 49.3671 10H48.8708V8.79727H49.3671C49.5283 8.79727 49.6599 8.73788 49.7617 8.61909C49.8677 8.5003 49.959 8.34545 50.0353 8.15455C50.1117 7.96364 50.1817 7.74515 50.2453 7.49909C50.309 7.25303 50.3811 7.00061 50.4617 6.74182C50.5465 6.48303 50.6462 6.23061 50.7608 5.98455C50.8753 5.73848 51.0196 5.52 51.1935 5.32909C51.3717 5.13818 51.5859 4.98333 51.8362 4.86455C52.0908 4.74576 52.3984 4.68636 52.759 4.68636C53.1747 4.68636 53.5353 4.76697 53.8408 4.92818C54.1505 5.08515 54.4071 5.29727 54.6108 5.56455C54.8144 5.83182 54.965 6.13939 55.0626 6.48727C55.1644 6.83515 55.2153 7.19576 55.2153 7.56909C55.2153 7.84909 55.2641 8.07182 55.3617 8.23727C55.4635 8.39848 55.578 8.52152 55.7053 8.60636C55.8368 8.68697 55.9641 8.74 56.0871 8.76545C56.2144 8.78667 56.3014 8.79727 56.348 8.79727H56.5708V10H56.348ZM53.2426 9.10273C53.2765 9.10273 53.319 9.10061 53.3699 9.09636C53.4208 9.09212 53.4759 9.07515 53.5353 9.04545C53.599 9.01576 53.6605 8.97121 53.7199 8.91182C53.7835 8.84818 53.8387 8.76121 53.8853 8.65091C53.9362 8.53636 53.9765 8.39212 54.0062 8.21818C54.0402 8.04 54.0571 7.82364 54.0571 7.56909C54.0571 7.52242 54.0529 7.44818 54.0444 7.34636C54.0359 7.24455 54.0168 7.13212 53.9871 7.00909C53.9574 6.88182 53.9129 6.75242 53.8535 6.62091C53.7983 6.48939 53.722 6.36848 53.6244 6.25818C53.5268 6.14788 53.408 6.05879 53.268 5.99091C53.128 5.91879 52.9583 5.88273 52.759 5.88273C52.5723 5.88273 52.4132 5.91667 52.2817 5.98455C52.1544 6.04818 52.0462 6.13727 51.9571 6.25182C51.868 6.36636 51.7938 6.50212 51.7344 6.65909C51.675 6.81182 51.6199 6.97939 51.569 7.16182C51.518 7.34 51.4671 7.52879 51.4162 7.72818C51.3653 7.92333 51.3059 8.11848 51.238 8.31364C51.4587 8.42394 51.6623 8.52788 51.849 8.62545C52.0356 8.72303 52.2096 8.80788 52.3708 8.88C52.532 8.94788 52.6826 9.00303 52.8226 9.04545C52.9668 9.08364 53.1068 9.10273 53.2426 9.10273ZM60.7447 4.82C60.7532 4.84545 60.7701 4.91333 60.7956 5.02364C60.821 5.13394 60.8486 5.27182 60.8783 5.43727C60.9122 5.59848 60.9483 5.77879 60.9865 5.97818C61.0247 6.17333 61.0586 6.37273 61.0883 6.57636C61.118 6.77576 61.1435 6.96879 61.1647 7.15545C61.1859 7.34212 61.1965 7.50545 61.1965 7.64545C61.1965 8.05273 61.1286 8.40485 60.9929 8.70182C60.8613 8.99455 60.6874 9.23848 60.471 9.43364C60.2589 9.62455 60.0192 9.76667 59.7519 9.86C59.4847 9.95333 59.2153 10 58.9438 10H56.3092V8.79727H58.9438C59.0074 8.79727 59.0965 8.78879 59.211 8.77182C59.3298 8.75061 59.4465 8.70182 59.561 8.62545C59.6798 8.54909 59.7816 8.43455 59.8665 8.28182C59.9556 8.12909 60.0001 7.91697 60.0001 7.64545C60.0001 7.55212 59.9916 7.43545 59.9747 7.29545C59.9619 7.15121 59.9429 6.99848 59.9174 6.83727C59.8962 6.67182 59.8707 6.50424 59.841 6.33455C59.8113 6.16061 59.7816 5.99727 59.7519 5.84455C59.7222 5.69182 59.6947 5.55606 59.6692 5.43727C59.6438 5.31848 59.6226 5.22939 59.6056 5.17L60.7447 4.82ZM60.6301 3.47091L59.6247 2.45273L60.6174 1.42182L61.6483 2.45273L60.6301 3.47091ZM58.1929 3.45818L57.1874 2.44L58.1801 1.40909L59.211 2.44L58.1929 3.45818Z" fill="white"/>
</svg>
