<svg width="439" height="22" viewBox="0 0 439 22" fill="none" xmlns="http://www.w3.org/2000/svg">
<path d="M11.7246 14.2818V16H11.3882C10.4852 16 9.65188 15.6242 8.88825 14.8727C8.4337 15.4848 7.63673 15.8727 6.49734 16.0364C6.28522 16.0667 6.06097 16.0909 5.82461 16.1091C5.58825 16.1273 5.34279 16.1364 5.08825 16.1364C4.77915 16.1364 4.46703 16.1212 4.15188 16.0909C3.83673 16.0667 3.52764 16.0273 3.22461 15.9727C2.92764 15.9121 2.63976 15.8364 2.36097 15.7455C2.08219 15.6485 1.83067 15.5364 1.60643 15.4091L0.860973 14.9727L1.71552 13.4727L2.47006 13.9091C2.68219 14.0303 2.93976 14.1303 3.24279 14.2091C3.55188 14.2818 3.87915 14.3333 4.22461 14.3636C4.48522 14.3879 4.74582 14.4 5.00643 14.4C5.09734 14.4 5.25188 14.4 5.47006 14.4C5.68825 14.3939 5.94885 14.3697 6.25188 14.3273C6.6034 14.2727 6.89128 14.197 7.11552 14.1C7.34582 13.997 7.49128 13.8818 7.55188 13.7545C7.60643 13.6939 7.6337 13.6182 7.6337 13.5273C7.6337 13.4667 7.61249 13.3697 7.57006 13.2364C7.52764 13.097 7.4337 12.9152 7.28825 12.6909L3.87915 7.5L5.32461 6.55455L8.85188 11.9364C9.0337 12.197 9.21552 12.4667 9.39734 12.7455C9.58522 13.0182 9.78219 13.2697 9.98825 13.5C10.1943 13.7242 10.4095 13.9121 10.6337 14.0636C10.864 14.2091 11.1155 14.2818 11.3882 14.2818H11.7246ZM19.0787 14.2818V16H18.3696C17.8181 16 17.3302 15.9212 16.9059 15.7636C16.4877 15.6061 16.1514 15.3697 15.8968 15.0545C15.2665 15.6848 14.3332 16 13.0968 16H11.3514V14.2818H13.0968C13.5332 14.2818 13.8787 14.2394 14.1332 14.1545C14.3877 14.0636 14.5787 13.9545 14.7059 13.8273C14.8393 13.6939 14.9241 13.5485 14.9605 13.3909C15.0029 13.2273 15.0241 13.0727 15.0241 12.9273V9.85455H16.7332V12.8636C16.7332 13.0879 16.7665 13.2788 16.8332 13.4364C16.8999 13.5939 16.9847 13.7273 17.0877 13.8364C17.1968 13.9394 17.315 14.0212 17.4423 14.0818C17.5756 14.1424 17.7029 14.1879 17.8241 14.2182C17.9453 14.2485 18.0544 14.2667 18.1514 14.2727C18.2484 14.2788 18.3211 14.2818 18.3696 14.2818H19.0787ZM13.6696 5.66364L15.215 4.1L16.7968 5.68182L15.2332 7.24545L13.6696 5.66364ZM18.6874 16V14.2818H24.0147C24.451 14.2818 24.8116 14.2333 25.0965 14.1364C25.3874 14.0333 25.5753 13.8939 25.6601 13.7182C25.7025 13.6273 25.7238 13.5242 25.7238 13.4091C25.7238 13.3061 25.6935 13.1606 25.6328 12.9727C25.5783 12.7788 25.4571 12.5273 25.2692 12.2182C25.0813 11.903 24.851 11.5727 24.5783 11.2273C24.3056 10.8818 24.0116 10.5364 23.6965 10.1909C23.3813 9.84545 23.0571 9.50909 22.7238 9.18182C22.3904 8.84848 22.0692 8.54242 21.7601 8.26364C21.451 7.97879 21.1692 7.7303 20.9147 7.51818C20.6601 7.3 20.451 7.13333 20.2874 7.01818L20.4601 5.08182L28.7783 1.42727L29.4692 2.99091L22.1874 6.17273C22.3692 6.35455 22.6025 6.58485 22.8874 6.86364C23.1722 7.13636 23.4813 7.44242 23.8147 7.78182C24.148 8.11515 24.4874 8.47273 24.8328 8.85455C25.1783 9.2303 25.5056 9.60909 25.8147 9.99091C26.1238 10.3727 26.3965 10.7485 26.6328 11.1182C26.8753 11.4818 27.0541 11.8182 27.1692 12.1273C27.2722 12.3939 27.345 12.6424 27.3874 12.8727C27.4177 13.0727 27.4328 13.2545 27.4328 13.4182C27.4328 13.4485 27.4298 13.5182 27.4238 13.6273C27.4238 13.7364 27.4025 13.8667 27.3601 14.0182C27.3238 14.1697 27.2813 14.3 27.2328 14.4091C27.1662 14.5606 27.0632 14.7303 26.9238 14.9182C26.7844 15.1 26.5874 15.2727 26.3328 15.4364C26.0844 15.5939 25.7722 15.7273 25.3965 15.8364C25.0207 15.9455 24.5601 16 24.0147 16H18.6874ZM44.4001 16H44.0092C43.4274 16 42.891 15.8848 42.4001 15.6545C42.4001 16.503 42.2819 17.2606 42.0456 17.9273C41.8092 18.5939 41.4637 19.1576 41.0092 19.6182C40.5547 20.0848 39.994 20.4394 39.3274 20.6818C38.6668 20.9242 37.9062 21.0455 37.0456 21.0455H35.791V19.3273H37.0456C37.6698 19.3273 38.2092 19.2515 38.6637 19.1C39.1243 18.9545 39.5031 18.7273 39.8001 18.4182C40.1031 18.1091 40.3243 17.7152 40.4637 17.2364C40.6092 16.7576 40.6819 16.1879 40.6819 15.5273V9.85455H42.4001V12.8636C42.4001 13.203 42.4698 13.4697 42.6092 13.6636C42.7547 13.8515 42.9213 13.9909 43.1092 14.0818C43.2971 14.1727 43.4759 14.2303 43.6456 14.2545C43.8213 14.2727 43.9425 14.2818 44.0092 14.2818H44.4001V16ZM55.6453 16H55.509C54.9696 16 54.4878 15.9485 54.0635 15.8455C53.6453 15.7424 53.2635 15.597 52.9181 15.4091C52.5726 15.2152 52.2544 14.9848 51.9635 14.7182C51.6726 14.4455 51.3878 14.1424 51.109 13.8091C51.0969 13.8394 51.0847 13.8667 51.0726 13.8909C51.0605 13.9152 51.0484 13.9424 51.0363 13.9727C50.8666 14.3061 50.6272 14.6061 50.3181 14.8727C50.015 15.1394 49.6544 15.3606 49.2363 15.5364C48.8787 15.6939 48.4817 15.8121 48.0453 15.8909C47.609 15.9636 47.1544 16 46.6817 16H44.009V14.2818H46.6817C47.0332 14.2818 47.3605 14.2576 47.6635 14.2091C47.9726 14.1545 48.2484 14.0818 48.4908 13.9909C48.7393 13.8939 48.9484 13.7788 49.1181 13.6455C49.2938 13.5121 49.4241 13.3636 49.509 13.2C49.5878 13.0364 49.6272 12.8515 49.6272 12.6455C49.6272 12.4818 49.5847 12.2485 49.4999 11.9455C49.415 11.6364 49.1817 11.2242 48.7999 10.7091C48.2605 9.95152 47.8029 9.30909 47.4272 8.78182C47.0514 8.25455 46.7453 7.82424 46.509 7.49091C46.2302 7.10303 46.0029 6.78485 45.8272 6.53636L46.1635 5.26364L54.509 1.40909L55.2181 2.98182L47.7726 6.39091L51.3817 11.4C51.7514 11.897 52.0817 12.3273 52.3726 12.6909C52.6635 13.0485 52.9575 13.3455 53.2544 13.5818C53.5575 13.8182 53.8847 13.9939 54.2363 14.1091C54.5938 14.2242 55.0181 14.2818 55.509 14.2818H55.6453V16ZM55.259 16V14.2818H59.2953C59.9741 14.2818 60.5196 14.2333 60.9317 14.1364C61.3499 14.0394 61.6741 13.9182 61.9044 13.7727C62.1347 13.6273 62.2893 13.4697 62.3681 13.3C62.4529 13.1242 62.5044 12.9576 62.5226 12.8H61.1408C60.9832 12.8 60.8075 12.7939 60.6135 12.7818C60.4196 12.7697 60.2166 12.7485 60.0044 12.7182C59.7984 12.6818 59.5893 12.6303 59.3772 12.5636C59.165 12.497 58.959 12.4091 58.759 12.3C58.5953 12.203 58.4287 12.0818 58.259 11.9364C58.0893 11.7909 57.9347 11.6121 57.7953 11.4C57.662 11.1818 57.5499 10.9273 57.459 10.6364C57.3741 10.3394 57.3317 9.99394 57.3317 9.6C57.3317 9.10909 57.4166 8.64545 57.5863 8.20909C57.756 7.76667 57.9984 7.38788 58.3135 7.07273C58.6287 6.75758 58.9893 6.51818 59.3953 6.35455C59.8014 6.19091 60.2347 6.10909 60.6953 6.10909C61.2226 6.10909 61.7075 6.22121 62.1499 6.44545C62.5923 6.6697 62.965 6.99091 63.2681 7.40909C63.5953 7.84545 63.8378 8.38485 63.9953 9.02727C64.1529 9.6697 64.2317 10.4061 64.2317 11.2364V12.4909C64.2317 13.0909 64.1105 13.6242 63.8681 14.0909C63.6317 14.5576 63.2711 14.9364 62.7863 15.2273C61.9802 15.7424 60.8166 16 59.2953 16H55.259ZM60.6953 7.82727C60.4953 7.82727 60.2893 7.86364 60.0772 7.93636C59.8711 8.00303 59.6832 8.10909 59.5135 8.25455C59.3499 8.39394 59.2135 8.57576 59.1044 8.8C59.0014 9.02424 58.9499 9.29091 58.9499 9.6C58.9499 9.8 58.9711 9.9697 59.0135 10.1091C59.056 10.2424 59.1105 10.3545 59.1772 10.4455C59.2438 10.5303 59.3135 10.6 59.3863 10.6545C59.459 10.7091 59.5287 10.7545 59.5953 10.7909C59.7711 10.8939 59.9863 10.9697 60.2408 11.0182C60.4953 11.0606 60.7953 11.0818 61.1408 11.0818H62.5408C62.5287 10.4818 62.465 9.95758 62.3499 9.50909C62.2408 9.06061 62.0893 8.69394 61.8953 8.40909C61.6044 8.02121 61.2044 7.82727 60.6953 7.82727ZM59.3044 2.47273L60.8499 0.909091L62.4317 2.49091L60.8681 4.05454L59.3044 2.47273ZM77.4012 21.0364C76.4618 21.0364 75.6103 20.8303 74.8466 20.4182C74.083 20.0121 73.4648 19.4303 72.9921 18.6727C72.6648 18.1576 72.4315 17.5848 72.2921 16.9545C72.1769 16.4697 72.1194 15.9606 72.1194 15.4273C72.1194 15.2697 72.1315 14.9727 72.1557 14.5364C72.186 14.0939 72.3133 13.4818 72.5375 12.7C72.7618 11.9121 73.0739 11.1 73.4739 10.2636L75.0194 11C74.68 11.703 74.4103 12.3788 74.2103 13.0273C74.0163 13.6697 73.8951 14.2788 73.8466 14.8545C73.8284 15.0485 73.8194 15.2364 73.8194 15.4182C73.8194 15.7818 73.8587 16.1667 73.9375 16.5727C74.0224 16.9848 74.1891 17.3848 74.4375 17.7727C74.7527 18.2636 75.1648 18.6424 75.6739 18.9091C76.183 19.1818 76.7587 19.3182 77.4012 19.3182H79.5375C80.2345 19.3182 80.8012 19.2424 81.2375 19.0909C81.68 18.9455 82.0224 18.7394 82.2648 18.4727C82.5133 18.2061 82.68 17.8818 82.7648 17.5C82.8557 17.1242 82.9012 16.7061 82.9012 16.2455V9.85455H84.6194V16.2455C84.6194 17.8455 84.1951 19.0424 83.3466 19.8364C82.4981 20.6364 81.2284 21.0364 79.5375 21.0364H77.4012ZM77.4739 9.13636L79.0194 7.57273L80.6012 9.15455L79.0375 10.7182L77.4739 9.13636ZM91.5338 16C90.8974 15.9939 90.3701 15.9515 89.952 15.8727C89.5398 15.7879 89.1883 15.6697 88.8974 15.5182C88.6126 15.3606 88.3823 15.1667 88.2065 14.9364C88.0368 14.7 87.9035 14.4273 87.8065 14.1182C87.7095 13.803 87.6459 13.4515 87.6156 13.0636C87.5853 12.6758 87.5701 12.2455 87.5701 11.7727V3.02727H89.2883V11.7727C89.2883 12.3 89.3035 12.7273 89.3338 13.0545C89.3701 13.3818 89.458 13.6364 89.5974 13.8182C89.7429 13.9939 89.958 14.1152 90.2429 14.1818C90.5338 14.2424 90.9641 14.2758 91.5338 14.2818V16ZM107.148 16C106.567 16 106.051 15.9182 105.603 15.7545C105.154 15.5848 104.779 15.3333 104.476 15H104.467L104.33 15.1455C104.033 15.4303 103.697 15.6455 103.321 15.7909C102.945 15.9303 102.542 16 102.112 16C100.979 16 100.1 15.6727 99.4756 15.0182C99.1726 15.3394 98.8241 15.5818 98.4301 15.7455C98.0362 15.903 97.6362 15.9879 97.2301 16H97.112C96.0392 15.9818 95.2029 15.6667 94.6029 15.0545C94.5665 15.103 94.5241 15.1455 94.4756 15.1818C93.8635 15.7273 92.9998 16 91.8847 16H91.1756V14.2818H91.8847C92.2726 14.2818 92.5847 14.2455 92.8211 14.1727C93.0635 14.1 93.2514 13.9939 93.3847 13.8545C93.518 13.7091 93.6059 13.5364 93.6483 13.3364C93.6968 13.1303 93.7211 12.897 93.7211 12.6364V9.86364H95.4392V12.5909C95.4392 13.1788 95.5817 13.6061 95.8665 13.8727C96.1514 14.1394 96.5968 14.2758 97.2029 14.2818C97.312 14.2758 97.4453 14.2545 97.6029 14.2182C97.7665 14.1818 97.9211 14.1061 98.0665 13.9909C98.218 13.8758 98.3483 13.7121 98.4574 13.5C98.5665 13.2818 98.6211 12.9939 98.6211 12.6364V9.86364H100.33V12.5909C100.33 13.1788 100.47 13.6091 100.748 13.8818C101.033 14.1485 101.488 14.2818 102.112 14.2818C102.288 14.2818 102.463 14.2545 102.639 14.2C102.815 14.1455 102.973 14.0545 103.112 13.9273C103.251 13.8 103.367 13.6364 103.457 13.4364C103.548 13.2303 103.6 12.9788 103.612 12.6818V9.86364H105.33V12.6818C105.342 13.2394 105.497 13.6455 105.794 13.9C106.091 14.1545 106.542 14.2818 107.148 14.2818H107.703V16H107.148ZM112.238 8.6C112.251 8.63636 112.275 8.73333 112.311 8.89091C112.347 9.04848 112.387 9.24545 112.429 9.48182C112.478 9.71212 112.529 9.9697 112.584 10.2545C112.638 10.5333 112.687 10.8182 112.729 11.1091C112.772 11.3939 112.808 11.6697 112.838 11.9364C112.869 12.203 112.884 12.4364 112.884 12.6364C112.884 13.2182 112.787 13.7212 112.593 14.1455C112.405 14.5636 112.157 14.9121 111.847 15.1909C111.544 15.4636 111.202 15.6667 110.82 15.8C110.438 15.9333 110.054 16 109.666 16H107.347V14.2818H109.666C109.757 14.2818 109.884 14.2697 110.047 14.2455C110.217 14.2152 110.384 14.1455 110.547 14.0364C110.717 13.9273 110.863 13.7636 110.984 13.5455C111.111 13.3273 111.175 13.0242 111.175 12.6364C111.175 12.503 111.163 12.3364 111.138 12.1364C111.12 11.9303 111.093 11.7121 111.057 11.4818C111.026 11.2455 110.99 11.0061 110.947 10.7636C110.905 10.5152 110.863 10.2818 110.82 10.0636C110.778 9.84545 110.738 9.65152 110.702 9.48182C110.666 9.31212 110.635 9.18485 110.611 9.1L112.238 8.6ZM109.238 4.84545L110.784 3.28182L112.366 4.86364L110.802 6.42727L109.238 4.84545ZM117.12 15.9909H115.402V3.02727H117.12V15.9909ZM136.764 14.2818V16H136.427C135.524 16 134.691 15.6242 133.927 14.8727C133.473 15.4848 132.676 15.8727 131.536 16.0364C131.324 16.0667 131.1 16.0909 130.864 16.1091C130.627 16.1273 130.382 16.1364 130.127 16.1364C129.818 16.1364 129.506 16.1212 129.191 16.0909C128.876 16.0667 128.567 16.0273 128.264 15.9727C127.967 15.9121 127.679 15.8364 127.4 15.7455C127.121 15.6485 126.87 15.5364 126.645 15.4091L125.9 14.9727L126.755 13.4727L127.509 13.9091C127.721 14.0303 127.979 14.1303 128.282 14.2091C128.591 14.2818 128.918 14.3333 129.264 14.3636C129.524 14.3879 129.785 14.4 130.045 14.4C130.136 14.4 130.291 14.4 130.509 14.4C130.727 14.3939 130.988 14.3697 131.291 14.3273C131.642 14.2727 131.93 14.197 132.155 14.1C132.385 13.997 132.53 13.8818 132.591 13.7545C132.645 13.6939 132.673 13.6182 132.673 13.5273C132.673 13.4667 132.652 13.3697 132.609 13.2364C132.567 13.097 132.473 12.9152 132.327 12.6909L128.918 7.5L130.364 6.55455L133.891 11.9364C134.073 12.197 134.255 12.4667 134.436 12.7455C134.624 13.0182 134.821 13.2697 135.027 13.5C135.233 13.7242 135.449 13.9121 135.673 14.0636C135.903 14.2091 136.155 14.2818 136.427 14.2818H136.764ZM144.118 14.2818V16H143.409C142.857 16 142.369 15.9212 141.945 15.7636C141.527 15.6061 141.19 15.3697 140.936 15.0545C140.306 15.6848 139.372 16 138.136 16H136.39V14.2818H138.136C138.572 14.2818 138.918 14.2394 139.172 14.1545C139.427 14.0636 139.618 13.9545 139.745 13.8273C139.878 13.6939 139.963 13.5485 140 13.3909C140.042 13.2273 140.063 13.0727 140.063 12.9273V9.85455H141.772V12.8636C141.772 13.0879 141.806 13.2788 141.872 13.4364C141.939 13.5939 142.024 13.7273 142.127 13.8364C142.236 13.9394 142.354 14.0212 142.481 14.0818C142.615 14.1424 142.742 14.1879 142.863 14.2182C142.984 14.2485 143.093 14.2667 143.19 14.2727C143.287 14.2788 143.36 14.2818 143.409 14.2818H144.118ZM138.709 5.66364L140.254 4.1L141.836 5.68182L140.272 7.24545L138.709 5.66364ZM148.645 8.6C148.657 8.63636 148.681 8.73333 148.717 8.89091C148.754 9.04848 148.793 9.24545 148.836 9.48182C148.884 9.71212 148.936 9.9697 148.99 10.2545C149.045 10.5333 149.093 10.8182 149.136 11.1091C149.178 11.3939 149.214 11.6697 149.245 11.9364C149.275 12.203 149.29 12.4364 149.29 12.6364C149.29 13.2182 149.193 13.7212 148.999 14.1455C148.811 14.5636 148.563 14.9121 148.254 15.1909C147.951 15.4636 147.608 15.6667 147.226 15.8C146.845 15.9333 146.46 16 146.072 16H143.754V14.2818H146.072C146.163 14.2818 146.29 14.2697 146.454 14.2455C146.623 14.2152 146.79 14.1455 146.954 14.0364C147.123 13.9273 147.269 13.7636 147.39 13.5455C147.517 13.3273 147.581 13.0242 147.581 12.6364C147.581 12.503 147.569 12.3364 147.545 12.1364C147.526 11.9303 147.499 11.7121 147.463 11.4818C147.433 11.2455 147.396 11.0061 147.354 10.7636C147.311 10.5152 147.269 10.2818 147.226 10.0636C147.184 9.84545 147.145 9.65152 147.108 9.48182C147.072 9.31212 147.042 9.18485 147.017 9.1L148.645 8.6ZM145.645 4.84545L147.19 3.28182L148.772 4.86364L147.208 6.42727L145.645 4.84545ZM155.772 16C155.136 15.9939 154.608 15.9515 154.19 15.8727C153.778 15.7879 153.427 15.6697 153.136 15.5182C152.851 15.3606 152.621 15.1667 152.445 14.9364C152.275 14.7 152.142 14.4273 152.045 14.1182C151.948 13.803 151.884 13.4515 151.854 13.0636C151.824 12.6758 151.808 12.2455 151.808 11.7727V3.02727H153.527V11.7727C153.527 12.3 153.542 12.7273 153.572 13.0545C153.608 13.3818 153.696 13.6364 153.836 13.8182C153.981 13.9939 154.196 14.1152 154.481 14.1818C154.772 14.2424 155.202 14.2758 155.772 14.2818V16ZM162.005 14.7182C162.047 14.7182 162.105 14.7152 162.178 14.7091C162.256 14.703 162.338 14.6788 162.423 14.6364C162.514 14.5939 162.602 14.5303 162.687 14.4455C162.778 14.3545 162.856 14.2303 162.923 14.0727C162.996 13.9091 163.053 13.703 163.096 13.4545C163.144 13.2 163.168 12.8909 163.168 12.5273C163.168 12.4606 163.162 12.3545 163.15 12.2091C163.138 12.0636 163.111 11.903 163.068 11.7273C163.026 11.5455 162.962 11.3606 162.878 11.1727C162.799 10.9848 162.69 10.8121 162.55 10.6545C162.411 10.497 162.241 10.3697 162.041 10.2727C161.841 10.1697 161.599 10.1182 161.314 10.1182C161.047 10.1182 160.82 10.1667 160.632 10.2636C160.45 10.3545 160.296 10.4818 160.168 10.6455C160.041 10.8091 159.935 11.003 159.85 11.2273C159.765 11.4455 159.687 11.6848 159.614 11.9455C159.541 12.2 159.468 12.4697 159.396 12.7545C159.323 13.0333 159.238 13.3121 159.141 13.5909C159.456 13.7485 159.747 13.897 160.014 14.0364C160.281 14.1758 160.529 14.297 160.759 14.4C160.99 14.497 161.205 14.5758 161.405 14.6364C161.611 14.6909 161.811 14.7182 162.005 14.7182ZM161.314 8.40909C161.908 8.40909 162.423 8.52424 162.859 8.75455C163.302 8.97879 163.668 9.28182 163.959 9.66364C164.25 10.0455 164.465 10.4848 164.605 10.9818C164.75 11.4788 164.823 11.9939 164.823 12.5273C164.823 13.1152 164.771 13.6212 164.668 14.0455C164.571 14.4697 164.441 14.8273 164.278 15.1182C164.114 15.403 163.929 15.6333 163.723 15.8091C163.523 15.9848 163.317 16.1182 163.105 16.2091C162.899 16.3 162.699 16.3606 162.505 16.3909C162.311 16.4212 162.144 16.4364 162.005 16.4364C161.708 16.4364 161.423 16.4061 161.15 16.3455C160.878 16.2848 160.599 16.197 160.314 16.0818C160.029 15.9727 159.729 15.8364 159.414 15.6727C159.105 15.5091 158.762 15.3242 158.387 15.1182C157.89 15.7061 157.25 16 156.468 16H155.423V14.2818H156.468C156.699 14.2818 156.887 14.197 157.032 14.0273C157.184 13.8576 157.314 13.6364 157.423 13.3636C157.532 13.0909 157.632 12.7788 157.723 12.4273C157.814 12.0758 157.917 11.7152 158.032 11.3455C158.153 10.9758 158.296 10.6152 158.459 10.2636C158.623 9.91212 158.829 9.6 159.078 9.32727C159.332 9.05455 159.638 8.83333 159.996 8.66364C160.359 8.49394 160.799 8.40909 161.314 8.40909ZM178.135 16C177.499 15.9939 176.972 15.9515 176.554 15.8727C176.141 15.7879 175.79 15.6697 175.499 15.5182C175.214 15.3606 174.984 15.1667 174.808 14.9364C174.638 14.7 174.505 14.4273 174.408 14.1182C174.311 13.803 174.247 13.4515 174.217 13.0636C174.187 12.6758 174.172 12.2455 174.172 11.7727V3.02727H175.89V11.7727C175.89 12.3 175.905 12.7273 175.935 13.0545C175.972 13.3818 176.06 13.6364 176.199 13.8182C176.344 13.9939 176.56 14.1152 176.844 14.1818C177.135 14.2424 177.566 14.2758 178.135 14.2818V16ZM184.095 8.6C184.107 8.63636 184.132 8.73333 184.168 8.89091C184.204 9.04848 184.244 9.24545 184.286 9.48182C184.335 9.71212 184.386 9.9697 184.441 10.2545C184.495 10.5333 184.544 10.8182 184.586 11.1091C184.629 11.3939 184.665 11.6697 184.695 11.9364C184.726 12.203 184.741 12.4364 184.741 12.6364C184.741 13.2182 184.644 13.7212 184.45 14.1455C184.262 14.5636 184.014 14.9121 183.704 15.1909C183.401 15.4636 183.059 15.6667 182.677 15.8C182.295 15.9333 181.91 16 181.523 16H177.759V14.2818H181.523C181.614 14.2818 181.741 14.2697 181.904 14.2455C182.074 14.2152 182.241 14.1455 182.404 14.0364C182.574 13.9273 182.72 13.7636 182.841 13.5455C182.968 13.3273 183.032 13.0242 183.032 12.6364C183.032 12.503 183.02 12.3364 182.995 12.1364C182.977 11.9303 182.95 11.7121 182.914 11.4818C182.883 11.2455 182.847 11.0061 182.804 10.7636C182.762 10.5152 182.72 10.2818 182.677 10.0636C182.635 9.84545 182.595 9.65152 182.559 9.48182C182.523 9.31212 182.492 9.18485 182.468 9.1L184.095 8.6ZM183.932 6.67273L182.495 5.21818L183.914 3.74545L185.386 5.21818L183.932 6.67273ZM180.45 6.65455L179.014 5.2L180.432 3.72727L181.904 5.2L180.45 6.65455ZM205.762 16C205.247 16 204.793 15.9242 204.399 15.7727C204.011 15.6212 203.659 15.4 203.344 15.1091C203.18 15.3152 203.008 15.4818 202.826 15.6091C202.644 15.7303 202.462 15.8273 202.28 15.9C202.099 15.9667 201.923 16.0091 201.753 16.0273C201.59 16.0515 201.447 16.0636 201.326 16.0636C201.223 16.0636 201.09 16.0485 200.926 16.0182C200.762 15.9879 200.541 15.9242 200.262 15.8273C199.983 15.7303 199.632 15.5909 199.208 15.4091C198.783 15.2273 198.259 14.9818 197.635 14.6727C197.217 14.4667 196.823 14.2697 196.453 14.0818C196.09 13.8879 195.793 13.7273 195.562 13.6V22H193.853V12.5818L195.508 11.6182C195.683 11.7152 195.865 11.8152 196.053 11.9182C196.211 12.003 196.38 12.097 196.562 12.2C196.75 12.303 196.932 12.397 197.108 12.4818C197.199 11.9364 197.302 11.4455 197.417 11.0091C197.538 10.5667 197.686 10.1697 197.862 9.81818C198.45 8.63636 199.377 8.04545 200.644 8.04545C201.208 8.04545 201.705 8.16061 202.135 8.39091C202.571 8.61515 202.935 8.91515 203.226 9.29091C203.523 9.66667 203.747 10.103 203.899 10.6C204.05 11.097 204.126 11.6121 204.126 12.1455C204.126 12.2485 204.123 12.3485 204.117 12.4455C204.117 12.5364 204.114 12.6242 204.108 12.7091C204.108 13.0424 204.174 13.3121 204.308 13.5182C204.447 13.7242 204.608 13.8848 204.79 14C204.971 14.1091 205.153 14.1848 205.335 14.2273C205.523 14.2636 205.665 14.2818 205.762 14.2818H206.062V16H205.762ZM198.626 13.2C199.141 13.4545 199.568 13.6576 199.908 13.8091C200.253 13.9545 200.529 14.0697 200.735 14.1545C200.941 14.2333 201.086 14.2848 201.171 14.3091C201.262 14.3333 201.314 14.3455 201.326 14.3455C201.393 14.3455 201.49 14.3333 201.617 14.3091C201.75 14.2848 201.88 14.2061 202.008 14.0727C202.141 13.9333 202.256 13.7152 202.353 13.4182C202.45 13.1212 202.499 12.697 202.499 12.1455C202.499 12.0788 202.49 11.9727 202.471 11.8273C202.459 11.6818 202.432 11.5212 202.39 11.3455C202.347 11.1697 202.283 10.9879 202.199 10.8C202.12 10.6121 202.011 10.4424 201.871 10.2909C201.732 10.1333 201.562 10.0061 201.362 9.90909C201.162 9.80606 200.923 9.75455 200.644 9.75455C200.408 9.75455 200.19 9.79394 199.99 9.87273C199.796 9.94545 199.617 10.103 199.453 10.3455C199.29 10.5879 199.138 10.9364 198.999 11.3909C198.865 11.8455 198.741 12.4485 198.626 13.2ZM215.634 14.2818V16H214.043C213.492 16 213.004 15.9212 212.58 15.7636C212.161 15.6061 211.825 15.3697 211.57 15.0545C210.94 15.6848 210.007 16 208.77 16H205.68V14.2818H208.77C209.207 14.2818 209.552 14.2394 209.807 14.1545C210.061 14.0636 210.252 13.9545 210.38 13.8273C210.513 13.6939 210.598 13.5485 210.634 13.3909C210.677 13.2273 210.698 13.0727 210.698 12.9273V9.85455H212.407V12.8636C212.407 13.0879 212.44 13.2788 212.507 13.4364C212.58 13.5939 212.667 13.7273 212.77 13.8364C212.874 13.9394 212.989 14.0212 213.116 14.0818C213.249 14.1424 213.377 14.1879 213.498 14.2182C213.619 14.2485 213.728 14.2667 213.825 14.2727C213.922 14.2788 213.995 14.2818 214.043 14.2818H215.634ZM213.125 19.5182L211.652 20.9909L210.234 19.5182L211.67 18.0636L213.125 19.5182ZM209.643 19.5364L208.17 21.0091L206.752 19.5364L208.189 18.0818L209.643 19.5364ZM221.138 13.6545C221.362 13.5576 221.568 13.4364 221.756 13.2909C221.95 13.1455 222.117 12.9818 222.256 12.8C222.402 12.6121 222.514 12.4091 222.593 12.1909C222.671 11.9727 222.711 11.7364 222.711 11.4818C222.711 11.1788 222.647 10.9242 222.52 10.7182C222.393 10.5061 222.241 10.3364 222.065 10.2091C221.89 10.0758 221.705 9.98182 221.511 9.92727C221.323 9.86667 221.162 9.83636 221.029 9.83636C220.781 9.83636 220.55 9.87576 220.338 9.95455C220.132 10.0273 219.95 10.1303 219.793 10.2636C219.641 10.397 219.52 10.5576 219.429 10.7455C219.344 10.9333 219.302 11.1364 219.302 11.3545C219.302 11.6152 219.335 11.8515 219.402 12.0636C219.474 12.2697 219.584 12.4636 219.729 12.6455C219.881 12.8212 220.071 12.9909 220.302 13.1545C220.532 13.3182 220.811 13.4848 221.138 13.6545ZM223.456 6.43636C224.123 7.13333 224.738 7.78485 225.302 8.39091C225.544 8.65152 225.787 8.91515 226.029 9.18182C226.271 9.44242 226.496 9.69394 226.702 9.93636C226.914 10.1727 227.099 10.3909 227.256 10.5909C227.42 10.7848 227.541 10.9424 227.62 11.0636C227.784 11.3303 227.917 11.5879 228.02 11.8364C228.129 12.0848 228.205 12.3364 228.247 12.5909C228.271 12.7424 228.284 12.897 228.284 13.0545C228.284 13.1576 228.274 13.303 228.256 13.4909C228.238 13.6788 228.184 13.9273 228.093 14.2364C227.996 14.5879 227.841 14.9091 227.629 15.2C227.423 15.4848 227.171 15.7303 226.874 15.9364C226.577 16.1424 226.241 16.3 225.865 16.4091C225.49 16.5242 225.084 16.5818 224.647 16.5818C224.235 16.5818 223.808 16.5273 223.365 16.4182C222.923 16.3091 222.465 16.1394 221.993 15.9091C221.859 15.8545 221.735 15.8 221.62 15.7455C221.517 15.697 221.411 15.6485 221.302 15.6C221.199 15.5515 221.114 15.5091 221.047 15.4727C220.477 15.6485 219.811 15.7818 219.047 15.8727C218.284 15.9576 217.459 16 216.574 16H215.238V14.2818H216.574C216.968 14.2818 217.374 14.2758 217.793 14.2636C218.217 14.2515 218.593 14.2242 218.92 14.1818C218.484 13.8 218.165 13.3818 217.965 12.9273C217.765 12.4667 217.665 11.9424 217.665 11.3545C217.665 10.8939 217.75 10.4697 217.92 10.0818C218.09 9.68788 218.323 9.34849 218.62 9.06364C218.923 8.77879 219.277 8.55758 219.684 8.4C220.096 8.23636 220.544 8.15455 221.029 8.15455C221.393 8.15455 221.726 8.20606 222.029 8.30909C222.332 8.41212 222.608 8.55152 222.856 8.72727C223.105 8.89697 223.32 9.09697 223.502 9.32727C223.69 9.55152 223.847 9.78788 223.974 10.0364C224.102 10.2788 224.196 10.5273 224.256 10.7818C224.323 11.0303 224.356 11.2636 224.356 11.4818C224.356 12.1061 224.238 12.6697 224.002 13.1727C223.771 13.6697 223.429 14.1091 222.974 14.4909C223.229 14.5939 223.499 14.6788 223.784 14.7455C224.074 14.8121 224.362 14.8455 224.647 14.8455C224.829 14.8455 225.008 14.8333 225.184 14.8091C225.365 14.7848 225.535 14.7364 225.693 14.6636C225.856 14.5909 226.005 14.4939 226.138 14.3727C226.271 14.2455 226.387 14.0818 226.484 13.8818C226.562 13.7182 226.602 13.5394 226.602 13.3455C226.602 13.2545 226.581 13.1091 226.538 12.9091C226.502 12.7091 226.387 12.4394 226.193 12.1C225.999 11.7606 225.753 11.4091 225.456 11.0455C225.159 10.6758 224.832 10.3 224.474 9.91818C224.117 9.53636 223.744 9.15455 223.356 8.77273C222.968 8.39091 222.59 8.01212 222.22 7.63636L223.456 6.43636ZM233.95 16.1364C233.641 16.1364 233.329 16.1212 233.014 16.0909C232.699 16.0667 232.389 16.0273 232.086 15.9727C231.789 15.9121 231.502 15.8364 231.223 15.7455C230.95 15.6485 230.702 15.5333 230.477 15.4L229.723 14.9727L230.577 13.4727L231.332 13.9C231.544 14.0212 231.805 14.1212 232.114 14.2C232.423 14.2727 232.75 14.3242 233.095 14.3545C233.392 14.3848 233.689 14.4 233.986 14.4C234.041 14.4 234.168 14.4 234.368 14.4C234.568 14.3939 234.817 14.3697 235.114 14.3273C235.465 14.2727 235.753 14.197 235.977 14.1C236.208 13.997 236.353 13.8818 236.414 13.7545C236.438 13.6939 236.45 13.6273 236.45 13.5545C236.45 13.4515 236.42 13.3091 236.359 13.1273C236.299 12.9394 236.171 12.7 235.977 12.4091L232.686 7.43636L234.141 6.49091C234.22 6.61212 234.302 6.73939 234.386 6.87273C234.471 7 234.571 7.15152 234.686 7.32727C234.802 7.49697 234.935 7.7 235.086 7.93636C235.238 8.16667 235.423 8.44545 235.641 8.77273C235.859 9.1 236.114 9.48182 236.405 9.91818C236.695 10.3545 237.035 10.8636 237.423 11.4455C237.574 11.6758 237.711 11.9182 237.832 12.1727C237.953 12.4212 238.044 12.6727 238.105 12.9273C238.159 13.1576 238.186 13.3879 238.186 13.6182C238.186 13.6424 238.183 13.7273 238.177 13.8727C238.171 14.0121 238.111 14.2061 237.995 14.4545C237.614 15.3091 236.735 15.8364 235.359 16.0364C235.147 16.0667 234.923 16.0909 234.686 16.1091C234.45 16.1273 234.205 16.1364 233.95 16.1364ZM258.93 16C259.184 16.497 259.324 16.9667 259.348 17.4091L259.357 17.5364C259.357 17.9303 259.278 18.303 259.121 18.6545C258.963 19.0061 258.718 19.3303 258.384 19.6273C258.051 19.9242 257.657 20.1727 257.202 20.3727C256.748 20.5788 256.242 20.7364 255.684 20.8455C255.127 20.9606 254.539 21.0182 253.921 21.0182H251.33C250.372 21.0182 249.511 20.8091 248.748 20.3909C247.984 19.9727 247.36 19.3939 246.875 18.6545C246.548 18.1333 246.315 17.5545 246.175 16.9182C246.066 16.4273 246.011 15.9121 246.011 15.3727C246.011 15.2152 246.024 14.9182 246.048 14.4818C246.072 14.0394 246.196 13.4212 246.421 12.6273C246.651 11.8333 246.972 11.0121 247.384 10.1636L248.911 10.9091C248.233 12.3394 247.848 13.6333 247.757 14.7909C247.745 14.9848 247.739 15.1727 247.739 15.3545C247.739 16.2758 247.942 17.0667 248.348 17.7273C248.657 18.2303 249.069 18.6152 249.584 18.8818C250.105 19.1485 250.687 19.2818 251.33 19.2818H253.921C254.26 19.2818 254.593 19.2545 254.921 19.2C255.248 19.1515 255.554 19.0818 255.839 18.9909C256.124 18.9 256.381 18.7909 256.611 18.6636C256.842 18.5424 257.033 18.4061 257.184 18.2545C257.342 18.103 257.451 17.9394 257.511 17.7636C257.548 17.6727 257.566 17.5818 257.566 17.4909C257.566 17.4061 257.551 17.3212 257.521 17.2364C257.448 17 257.278 16.8 257.011 16.6364C256.745 16.4788 256.424 16.3515 256.048 16.2545C255.672 16.1636 255.266 16.097 254.83 16.0545C254.393 16.0182 253.972 16 253.566 16L253.63 14.2818H261.466V16H258.93ZM267.708 14.7182C267.75 14.7182 267.808 14.7152 267.881 14.7091C267.959 14.703 268.041 14.6788 268.126 14.6364C268.217 14.5939 268.305 14.5303 268.39 14.4455C268.481 14.3545 268.559 14.2303 268.626 14.0727C268.699 13.9091 268.756 13.703 268.799 13.4545C268.847 13.2 268.872 12.8909 268.872 12.5273C268.872 12.4606 268.865 12.3545 268.853 12.2091C268.841 12.0636 268.814 11.903 268.772 11.7273C268.729 11.5455 268.665 11.3606 268.581 11.1727C268.502 10.9848 268.393 10.8121 268.253 10.6545C268.114 10.497 267.944 10.3697 267.744 10.2727C267.544 10.1697 267.302 10.1182 267.017 10.1182C266.75 10.1182 266.523 10.1667 266.335 10.2636C266.153 10.3545 265.999 10.4818 265.872 10.6455C265.744 10.8091 265.638 11.003 265.553 11.2273C265.469 11.4455 265.39 11.6848 265.317 11.9455C265.244 12.2 265.172 12.4697 265.099 12.7545C265.026 13.0333 264.941 13.3121 264.844 13.5909C265.159 13.7485 265.45 13.897 265.717 14.0364C265.984 14.1758 266.232 14.297 266.462 14.4C266.693 14.497 266.908 14.5758 267.108 14.6364C267.314 14.6909 267.514 14.7182 267.708 14.7182ZM267.017 8.40909C267.611 8.40909 268.126 8.52424 268.562 8.75455C269.005 8.97879 269.372 9.28182 269.662 9.66364C269.953 10.0455 270.169 10.4848 270.308 10.9818C270.453 11.4788 270.526 11.9939 270.526 12.5273C270.526 13.1152 270.475 13.6212 270.372 14.0455C270.275 14.4697 270.144 14.8273 269.981 15.1182C269.817 15.403 269.632 15.6333 269.426 15.8091C269.226 15.9848 269.02 16.1182 268.808 16.2091C268.602 16.3 268.402 16.3606 268.208 16.3909C268.014 16.4212 267.847 16.4364 267.708 16.4364C267.411 16.4364 267.126 16.4061 266.853 16.3455C266.581 16.2848 266.302 16.197 266.017 16.0818C265.732 15.9727 265.432 15.8364 265.117 15.6727C264.808 15.5091 264.465 15.3242 264.09 15.1182C263.593 15.7061 262.953 16 262.172 16H261.126V14.2818H262.172C262.402 14.2818 262.59 14.197 262.735 14.0273C262.887 13.8576 263.017 13.6364 263.126 13.3636C263.235 13.0909 263.335 12.7788 263.426 12.4273C263.517 12.0758 263.62 11.7152 263.735 11.3455C263.856 10.9758 263.999 10.6152 264.162 10.2636C264.326 9.91212 264.532 9.6 264.781 9.32727C265.035 9.05455 265.341 8.83333 265.699 8.66364C266.062 8.49394 266.502 8.40909 267.017 8.40909ZM298.829 16C298.229 16 297.702 15.9121 297.248 15.7364C296.799 15.5606 296.423 15.3061 296.12 14.9727C295.957 15.1667 295.772 15.3303 295.566 15.4636C295.366 15.5909 295.157 15.697 294.938 15.7818C294.726 15.8606 294.508 15.9182 294.284 15.9545C294.066 15.9848 293.854 16 293.648 16C292.89 16 292.235 15.8303 291.684 15.4909V16.2545C291.684 17.8424 291.26 19.0333 290.411 19.8273C289.563 20.6212 288.293 21.0182 286.602 21.0182H284.466C283.526 21.0182 282.675 20.8152 281.911 20.4091C281.148 20.003 280.529 19.4242 280.057 18.6727C279.729 18.1576 279.496 17.5848 279.357 16.9545C279.241 16.4636 279.184 15.9485 279.184 15.4091C279.184 15.2515 279.196 14.9515 279.22 14.5091C279.251 14.0667 279.378 13.4485 279.602 12.6545C279.826 11.8606 280.138 11.0424 280.538 10.2L282.084 10.9545C281.745 11.6576 281.475 12.3333 281.275 12.9818C281.081 13.6303 280.96 14.2424 280.911 14.8182C280.893 15.0121 280.884 15.2 280.884 15.3818C280.884 15.7515 280.923 16.1424 281.002 16.5545C281.087 16.9667 281.254 17.3667 281.502 17.7545C281.817 18.2455 282.229 18.6242 282.738 18.8909C283.248 19.1636 283.823 19.3 284.466 19.3H286.602C287.299 19.3 287.866 19.2273 288.302 19.0818C288.745 18.9364 289.087 18.7303 289.329 18.4636C289.578 18.197 289.745 17.8758 289.829 17.5C289.92 17.1303 289.966 16.7152 289.966 16.2545V9.85455H291.684V11.6273C291.684 12.2091 291.738 12.6758 291.848 13.0273C291.963 13.3727 292.111 13.6394 292.293 13.8273C292.481 14.0152 292.69 14.1394 292.92 14.2C293.157 14.2606 293.399 14.2909 293.648 14.2909C293.799 14.2909 293.972 14.2636 294.166 14.2091C294.36 14.1545 294.541 14.0636 294.711 13.9364C294.881 13.803 295.023 13.6273 295.138 13.4091C295.26 13.1909 295.32 12.9182 295.32 12.5909V9.85455H297.029V12.6818C297.041 13.2333 297.187 13.6394 297.466 13.9C297.751 14.1606 298.202 14.2909 298.82 14.2909C298.923 14.2848 299.057 14.2636 299.22 14.2273C299.39 14.1848 299.551 14.1061 299.702 13.9909C299.86 13.8697 299.993 13.7 300.102 13.4818C300.217 13.2576 300.275 12.9606 300.275 12.5909C300.275 12.4576 300.263 12.2909 300.238 12.0909C300.22 11.8909 300.196 11.6788 300.166 11.4545C300.135 11.2242 300.099 10.9909 300.057 10.7545C300.014 10.5121 299.972 10.2848 299.929 10.0727C299.893 9.86061 299.857 9.67273 299.82 9.50909C299.784 9.33939 299.754 9.21212 299.729 9.12727L301.366 8.62727C301.378 8.65758 301.399 8.75152 301.429 8.90909C301.466 9.06061 301.508 9.25152 301.557 9.48182C301.605 9.70606 301.654 9.95758 301.702 10.2364C301.757 10.5152 301.805 10.797 301.848 11.0818C301.89 11.3606 301.923 11.6333 301.948 11.9C301.978 12.1606 301.993 12.3909 301.993 12.5909C301.993 13.1667 301.899 13.6667 301.711 14.0909C301.529 14.5091 301.287 14.8606 300.984 15.1455C300.687 15.4242 300.348 15.6364 299.966 15.7818C299.59 15.9212 299.211 15.9939 298.829 16ZM297.138 3.34545L295.848 4.60909L294.575 3.34545L295.884 2.04545L297.138 3.34545ZM297.584 7.45455L296.148 6L297.566 4.52727L299.038 6L297.584 7.45455ZM294.102 7.43636L292.666 5.98182L294.084 4.50909L295.557 5.98182L294.102 7.43636ZM301.201 21.0455V19.3273H302.456C303.08 19.3273 303.619 19.2515 304.074 19.1C304.535 18.9545 304.913 18.7273 305.21 18.4182C305.513 18.1091 305.735 17.7152 305.874 17.2364C306.019 16.7576 306.092 16.1879 306.092 15.5273V9.85455H307.81V15.5273C307.81 16.3939 307.695 17.1667 307.465 17.8455C307.241 18.5303 306.904 19.1091 306.456 19.5818C306.007 20.0545 305.447 20.4152 304.774 20.6636C304.107 20.9182 303.335 21.0455 302.456 21.0455H301.201ZM305.319 5.91818L306.865 4.35455L308.447 5.93636L306.883 7.5L305.319 5.91818ZM311.005 19.3C311.92 19.3 312.69 19.2303 313.314 19.0909C313.938 18.9515 314.432 18.7364 314.796 18.4455C315.111 18.1909 315.341 17.8667 315.487 17.4727C315.638 17.0788 315.714 16.5879 315.714 16H314.041C313.617 16 313.187 15.9364 312.75 15.8091C312.314 15.6818 311.917 15.4727 311.559 15.1818C311.208 14.8909 310.92 14.5121 310.696 14.0455C310.472 13.5727 310.359 12.997 310.359 12.3182C310.359 11.9182 310.393 11.5576 310.459 11.2364C310.532 10.9091 310.62 10.6182 310.723 10.3636C310.832 10.1091 310.95 9.88788 311.078 9.7C311.205 9.51212 311.329 9.35151 311.45 9.21818C311.784 8.88485 312.166 8.62727 312.596 8.44545C313.026 8.26364 313.487 8.17273 313.978 8.17273C314.408 8.17273 314.811 8.23939 315.187 8.37273C315.563 8.50606 315.899 8.70606 316.196 8.97273C317.014 9.73636 317.423 10.9333 317.423 12.5636V14.2818H318.787V16H317.423C317.423 16.8606 317.296 17.6 317.041 18.2182C316.793 18.8424 316.405 19.3636 315.878 19.7818C315.344 20.2 314.681 20.5091 313.887 20.7091C313.099 20.9152 312.138 21.0182 311.005 21.0182V19.3ZM313.887 9.89091C313.287 9.89091 312.82 10.103 312.487 10.5273C312.153 10.9515 311.987 11.5485 311.987 12.3182C311.987 13.1 312.223 13.6424 312.696 13.9455C312.811 14.0182 312.929 14.0788 313.05 14.1273C313.172 14.1697 313.29 14.203 313.405 14.2273C313.52 14.2455 313.623 14.2606 313.714 14.2727C313.811 14.2788 313.89 14.2818 313.95 14.2818H315.623V12.5636C315.623 12.1212 315.59 11.7485 315.523 11.4455C315.456 11.1364 315.372 10.8818 315.269 10.6818C315.166 10.4818 315.047 10.3303 314.914 10.2273C314.787 10.1182 314.659 10.0394 314.532 9.99091C314.405 9.94242 314.284 9.91515 314.169 9.90909C314.053 9.89697 313.959 9.89091 313.887 9.89091ZM325.013 14.7182C325.055 14.7182 325.113 14.7152 325.185 14.7091C325.264 14.703 325.346 14.6788 325.431 14.6364C325.522 14.5939 325.61 14.5303 325.694 14.4455C325.785 14.3545 325.864 14.2303 325.931 14.0727C326.004 13.9091 326.061 13.703 326.104 13.4545C326.152 13.2 326.176 12.8909 326.176 12.5273C326.176 12.4606 326.17 12.3545 326.158 12.2091C326.146 12.0636 326.119 11.903 326.076 11.7273C326.034 11.5455 325.97 11.3606 325.885 11.1727C325.807 10.9848 325.697 10.8121 325.558 10.6545C325.419 10.497 325.249 10.3697 325.049 10.2727C324.849 10.1697 324.607 10.1182 324.322 10.1182C324.055 10.1182 323.828 10.1667 323.64 10.2636C323.458 10.3545 323.304 10.4818 323.176 10.6455C323.049 10.8091 322.943 11.003 322.858 11.2273C322.773 11.4455 322.694 11.6848 322.622 11.9455C322.549 12.2 322.476 12.4697 322.404 12.7545C322.331 13.0333 322.246 13.3121 322.149 13.5909C322.464 13.7485 322.755 13.897 323.022 14.0364C323.288 14.1758 323.537 14.297 323.767 14.4C323.997 14.497 324.213 14.5758 324.413 14.6364C324.619 14.6909 324.819 14.7182 325.013 14.7182ZM324.322 8.40909C324.916 8.40909 325.431 8.52424 325.867 8.75455C326.31 8.97879 326.676 9.28182 326.967 9.66364C327.258 10.0455 327.473 10.4848 327.613 10.9818C327.758 11.4788 327.831 11.9939 327.831 12.5273C327.831 13.1152 327.779 13.6212 327.676 14.0455C327.579 14.4697 327.449 14.8273 327.285 15.1182C327.122 15.403 326.937 15.6333 326.731 15.8091C326.531 15.9848 326.325 16.1182 326.113 16.2091C325.907 16.3 325.707 16.3606 325.513 16.3909C325.319 16.4212 325.152 16.4364 325.013 16.4364C324.716 16.4364 324.431 16.4061 324.158 16.3455C323.885 16.2848 323.607 16.197 323.322 16.0818C323.037 15.9727 322.737 15.8364 322.422 15.6727C322.113 15.5091 321.77 15.3242 321.394 15.1182C320.897 15.7061 320.258 16 319.476 16H318.431V14.2818H319.476C319.707 14.2818 319.894 14.197 320.04 14.0273C320.191 13.8576 320.322 13.6364 320.431 13.3636C320.54 13.0909 320.64 12.7788 320.731 12.4273C320.822 12.0758 320.925 11.7152 321.04 11.3455C321.161 10.9758 321.304 10.6152 321.467 10.2636C321.631 9.91212 321.837 9.6 322.085 9.32727C322.34 9.05455 322.646 8.83333 323.004 8.66364C323.367 8.49394 323.807 8.40909 324.322 8.40909ZM334.242 16H332.524V4.39091H334.242V16ZM337.215 2.92727H332.824C332.442 2.92727 332.121 2.94242 331.86 2.97273C331.6 3.00303 331.379 3.06364 331.197 3.15455C331.021 3.24545 330.876 3.37576 330.76 3.54545C330.651 3.71515 330.554 3.93939 330.47 4.21818L329.033 3.79091C329.312 2.81515 329.818 2.14545 330.551 1.78182C330.86 1.62424 331.203 1.52424 331.579 1.48182C331.954 1.43333 332.37 1.40909 332.824 1.40909H337.215V2.92727ZM347.081 15.9909H345.363V3.02727H347.081V15.9909ZM346.631 21.0455V19.3273H347.885C348.51 19.3273 349.049 19.2515 349.504 19.1C349.964 18.9545 350.343 18.7273 350.64 18.4182C350.943 18.1091 351.164 17.7152 351.304 17.2364C351.449 16.7576 351.522 16.1879 351.522 15.5273V9.85455H353.24V15.5273C353.24 16.3939 353.125 17.1667 352.894 17.8455C352.67 18.5303 352.334 19.1091 351.885 19.5818C351.437 20.0545 350.876 20.4152 350.204 20.6636C349.537 20.9182 348.764 21.0455 347.885 21.0455H346.631ZM366.65 21.0364C365.71 21.0364 364.859 20.8303 364.095 20.4182C363.332 20.0121 362.714 19.4303 362.241 18.6727C361.914 18.1576 361.68 17.5848 361.541 16.9545C361.432 16.4697 361.377 15.9606 361.377 15.4273C361.377 15.2697 361.389 14.9727 361.414 14.5364C361.438 14.0939 361.562 13.4818 361.786 12.7C362.01 11.9121 362.323 11.1 362.723 10.2636L364.268 11C363.929 11.703 363.659 12.3788 363.459 13.0273C363.265 13.6697 363.144 14.2788 363.095 14.8545C363.083 15.0485 363.077 15.2364 363.077 15.4182C363.077 15.7818 363.117 16.1667 363.195 16.5727C363.274 16.9848 363.438 17.3848 363.686 17.7727C364.001 18.2636 364.414 18.6424 364.923 18.9091C365.432 19.1818 366.007 19.3182 366.65 19.3182H368.786C369.483 19.3182 370.05 19.2424 370.486 19.0909C370.929 18.9455 371.271 18.7394 371.514 18.4727C371.762 18.2061 371.929 17.8818 372.014 17.5C372.104 17.1242 372.15 16.7061 372.15 16.2455V9.85455H373.868V12.6818C373.874 12.9242 373.917 13.1455 373.995 13.3455C374.08 13.5394 374.192 13.7061 374.332 13.8455C374.471 13.9848 374.638 14.0939 374.832 14.1727C375.032 14.2455 375.253 14.2818 375.495 14.2818H375.85V16H375.495C374.901 16 374.359 15.8697 373.868 15.6091V16.2455C373.868 17.8455 373.444 19.0424 372.595 19.8364C371.747 20.6364 370.477 21.0364 368.786 21.0364H366.65ZM366.714 9.17273L368.259 7.60909L369.841 9.19091L368.277 10.7545L366.714 9.17273ZM385.419 14.2818V16H383.828C383.277 16 382.789 15.9212 382.365 15.7636C381.947 15.6061 381.61 15.3697 381.356 15.0545C380.725 15.6848 379.792 16 378.556 16H375.465V14.2818H378.556C378.992 14.2818 379.337 14.2394 379.592 14.1545C379.847 14.0636 380.037 13.9545 380.165 13.8273C380.298 13.6939 380.383 13.5485 380.419 13.3909C380.462 13.2273 380.483 13.0727 380.483 12.9273V9.85455H382.192V12.8636C382.192 13.0879 382.225 13.2788 382.292 13.4364C382.365 13.5939 382.453 13.7273 382.556 13.8364C382.659 13.9394 382.774 14.0212 382.901 14.0818C383.034 14.1424 383.162 14.1879 383.283 14.2182C383.404 14.2485 383.513 14.2667 383.61 14.2727C383.707 14.2788 383.78 14.2818 383.828 14.2818H385.419ZM382.91 19.5182L381.437 20.9909L380.019 19.5182L381.456 18.0636L382.91 19.5182ZM379.428 19.5364L377.956 21.0091L376.537 19.5364L377.974 18.0818L379.428 19.5364ZM392.114 15.9818C391.544 15.9818 391.038 15.9 390.596 15.7364C390.154 15.5667 389.781 15.3242 389.478 15.0091C389.163 15.3485 388.796 15.6 388.378 15.7636C387.96 15.9212 387.538 16 387.114 16H385.023V14.2818H387.114C387.205 14.2818 387.335 14.2697 387.505 14.2455C387.675 14.2152 387.841 14.1455 388.005 14.0364C388.169 13.9212 388.311 13.7515 388.432 13.5273C388.56 13.303 388.623 12.997 388.623 12.6091V9.85455H390.341V12.5727C390.341 13.1606 390.478 13.5909 390.751 13.8636C391.029 14.1364 391.484 14.2727 392.114 14.2727C392.205 14.2727 392.332 14.2576 392.496 14.2273C392.666 14.1909 392.832 14.1152 392.996 14C393.166 13.8848 393.311 13.7152 393.432 13.4909C393.56 13.2667 393.623 12.9606 393.623 12.5727V9.85455H395.332V12.5727C395.332 13.1606 395.475 13.5939 395.76 13.8727C396.044 14.1515 396.502 14.2909 397.132 14.2909C397.229 14.2909 397.36 14.2727 397.523 14.2364C397.687 14.1939 397.848 14.1121 398.005 13.9909C398.169 13.8697 398.308 13.697 398.423 13.4727C398.538 13.2485 398.596 12.9485 398.596 12.5727C398.596 12.4394 398.584 12.2727 398.56 12.0727C398.541 11.8727 398.514 11.6576 398.478 11.4273C398.448 11.197 398.411 10.9636 398.369 10.7273C398.326 10.4848 398.284 10.2606 398.241 10.0545C398.199 9.84242 398.16 9.65455 398.123 9.49091C398.087 9.32121 398.057 9.19697 398.032 9.11818L399.66 8.6C399.672 8.63636 399.696 8.73333 399.732 8.89091C399.769 9.04242 399.811 9.23333 399.86 9.46364C399.908 9.68788 399.957 9.93939 400.005 10.2182C400.06 10.497 400.108 10.7788 400.151 11.0636C400.199 11.3424 400.238 11.6152 400.269 11.8818C400.299 12.1424 400.314 12.3727 400.314 12.5727C400.314 13.1485 400.22 13.6515 400.032 14.0818C399.844 14.5061 399.599 14.8606 399.296 15.1455C398.999 15.4242 398.66 15.6364 398.278 15.7818C397.896 15.9212 397.514 15.9939 397.132 16C396.551 16 396.035 15.9152 395.587 15.7455C395.144 15.5697 394.769 15.3182 394.46 14.9909C394.144 15.3242 393.778 15.5727 393.36 15.7364C392.948 15.9 392.532 15.9818 392.114 15.9818ZM395.851 3.26364L394.56 4.52727L393.287 3.26364L394.596 1.96364L395.851 3.26364ZM396.296 7.37273L394.86 5.91818L396.278 4.44545L397.751 5.91818L396.296 7.37273ZM392.814 7.35455L391.378 5.9L392.796 4.42727L394.269 5.9L392.814 7.35455ZM407.159 16C406.522 15.9939 405.995 15.9515 405.577 15.8727C405.165 15.7879 404.813 15.6697 404.522 15.5182C404.238 15.3606 404.007 15.1667 403.831 14.9364C403.662 14.7 403.528 14.4273 403.431 14.1182C403.335 13.803 403.271 13.4515 403.241 13.0636C403.21 12.6758 403.195 12.2455 403.195 11.7727V3.02727H404.913V11.7727C404.913 12.3 404.928 12.7273 404.959 13.0545C404.995 13.3818 405.083 13.6364 405.222 13.8182C405.368 13.9939 405.583 14.1152 405.868 14.1818C406.159 14.2424 406.589 14.2758 407.159 14.2818V16ZM413.392 14.7182C413.434 14.7182 413.492 14.7152 413.564 14.7091C413.643 14.703 413.725 14.6788 413.81 14.6364C413.901 14.5939 413.988 14.5303 414.073 14.4455C414.164 14.3545 414.243 14.2303 414.31 14.0727C414.382 13.9091 414.44 13.703 414.482 13.4545C414.531 13.2 414.555 12.8909 414.555 12.5273C414.555 12.4606 414.549 12.3545 414.537 12.2091C414.525 12.0636 414.498 11.903 414.455 11.7273C414.413 11.5455 414.349 11.3606 414.264 11.1727C414.185 10.9848 414.076 10.8121 413.937 10.6545C413.798 10.497 413.628 10.3697 413.428 10.2727C413.228 10.1697 412.985 10.1182 412.701 10.1182C412.434 10.1182 412.207 10.1667 412.019 10.2636C411.837 10.3545 411.682 10.4818 411.555 10.6455C411.428 10.8091 411.322 11.003 411.237 11.2273C411.152 11.4455 411.073 11.6848 411.001 11.9455C410.928 12.2 410.855 12.4697 410.782 12.7545C410.71 13.0333 410.625 13.3121 410.528 13.5909C410.843 13.7485 411.134 13.897 411.401 14.0364C411.667 14.1758 411.916 14.297 412.146 14.4C412.376 14.497 412.592 14.5758 412.792 14.6364C412.998 14.6909 413.198 14.7182 413.392 14.7182ZM412.701 8.40909C413.295 8.40909 413.81 8.52424 414.246 8.75455C414.688 8.97879 415.055 9.28182 415.346 9.66364C415.637 10.0455 415.852 10.4848 415.992 10.9818C416.137 11.4788 416.21 11.9939 416.21 12.5273C416.21 13.1152 416.158 13.6212 416.055 14.0455C415.958 14.4697 415.828 14.8273 415.664 15.1182C415.501 15.403 415.316 15.6333 415.11 15.8091C414.91 15.9848 414.704 16.1182 414.492 16.2091C414.285 16.3 414.085 16.3606 413.892 16.3909C413.698 16.4212 413.531 16.4364 413.392 16.4364C413.095 16.4364 412.81 16.4061 412.537 16.3455C412.264 16.2848 411.985 16.197 411.701 16.0818C411.416 15.9727 411.116 15.8364 410.801 15.6727C410.492 15.5091 410.149 15.3242 409.773 15.1182C409.276 15.7061 408.637 16 407.855 16H406.81V14.2818H407.855C408.085 14.2818 408.273 14.197 408.419 14.0273C408.57 13.8576 408.701 13.6364 408.81 13.3636C408.919 13.0909 409.019 12.7788 409.11 12.4273C409.201 12.0758 409.304 11.7152 409.419 11.3455C409.54 10.9758 409.682 10.6152 409.846 10.2636C410.01 9.91212 410.216 9.6 410.464 9.32727C410.719 9.05455 411.025 8.83333 411.382 8.66364C411.746 8.49394 412.185 8.40909 412.701 8.40909ZM429.522 16C428.886 15.9939 428.358 15.9515 427.94 15.8727C427.528 15.7879 427.177 15.6697 426.886 15.5182C426.601 15.3606 426.371 15.1667 426.195 14.9364C426.025 14.7 425.892 14.4273 425.795 14.1182C425.698 13.803 425.634 13.4515 425.604 13.0636C425.574 12.6758 425.558 12.2455 425.558 11.7727V3.02727H427.277V11.7727C427.277 12.3 427.292 12.7273 427.322 13.0545C427.358 13.3818 427.446 13.6364 427.586 13.8182C427.731 13.9939 427.946 14.1152 428.231 14.1818C428.522 14.2424 428.952 14.2758 429.522 14.2818V16ZM435.755 14.7182C435.797 14.7182 435.855 14.7152 435.928 14.7091C436.006 14.703 436.088 14.6788 436.173 14.6364C436.264 14.5939 436.352 14.5303 436.437 14.4455C436.528 14.3545 436.606 14.2303 436.673 14.0727C436.746 13.9091 436.803 13.703 436.846 13.4545C436.894 13.2 436.918 12.8909 436.918 12.5273C436.918 12.4606 436.912 12.3545 436.9 12.2091C436.888 12.0636 436.861 11.903 436.818 11.7273C436.776 11.5455 436.712 11.3606 436.628 11.1727C436.549 10.9848 436.44 10.8121 436.3 10.6545C436.161 10.497 435.991 10.3697 435.791 10.2727C435.591 10.1697 435.349 10.1182 435.064 10.1182C434.797 10.1182 434.57 10.1667 434.382 10.2636C434.2 10.3545 434.046 10.4818 433.918 10.6455C433.791 10.8091 433.685 11.003 433.6 11.2273C433.515 11.4455 433.437 11.6848 433.364 11.9455C433.291 12.2 433.218 12.4697 433.146 12.7545C433.073 13.0333 432.988 13.3121 432.891 13.5909C433.206 13.7485 433.497 13.897 433.764 14.0364C434.031 14.1758 434.279 14.297 434.509 14.4C434.74 14.497 434.955 14.5758 435.155 14.6364C435.361 14.6909 435.561 14.7182 435.755 14.7182ZM435.064 8.40909C435.658 8.40909 436.173 8.52424 436.609 8.75455C437.052 8.97879 437.418 9.28182 437.709 9.66364C438 10.0455 438.215 10.4848 438.355 10.9818C438.5 11.4788 438.573 11.9939 438.573 12.5273C438.573 13.1152 438.521 13.6212 438.418 14.0455C438.321 14.4697 438.191 14.8273 438.028 15.1182C437.864 15.403 437.679 15.6333 437.473 15.8091C437.273 15.9848 437.067 16.1182 436.855 16.2091C436.649 16.3 436.449 16.3606 436.255 16.3909C436.061 16.4212 435.894 16.4364 435.755 16.4364C435.458 16.4364 435.173 16.4061 434.9 16.3455C434.628 16.2848 434.349 16.197 434.064 16.0818C433.779 15.9727 433.479 15.8364 433.164 15.6727C432.855 15.5091 432.512 15.3242 432.137 15.1182C431.64 15.7061 431 16 430.218 16H429.173V14.2818H430.218C430.449 14.2818 430.637 14.197 430.782 14.0273C430.934 13.8576 431.064 13.6364 431.173 13.3636C431.282 13.0909 431.382 12.7788 431.473 12.4273C431.564 12.0758 431.667 11.7152 431.782 11.3455C431.903 10.9758 432.046 10.6152 432.209 10.2636C432.373 9.91212 432.579 9.6 432.828 9.32727C433.082 9.05455 433.388 8.83333 433.746 8.66364C434.109 8.49394 434.549 8.40909 435.064 8.40909Z" fill="white"/>
</svg>
