<svg width="103" height="12" viewBox="0 0 103 12" fill="none" xmlns="http://www.w3.org/2000/svg">
<path d="M4.33903 7.32C4.33903 7.02545 4.22812 6.79818 4.00631 6.63818C3.78812 6.47455 3.40449 6.33455 2.8554 6.21818C2.30631 6.10182 1.86994 5.96182 1.54631 5.79818C1.22631 5.63091 0.988125 5.43455 0.831761 5.20909C0.679034 4.98364 0.60267 4.71455 0.60267 4.40182C0.60267 3.88182 0.820852 3.44182 1.25722 3.08182C1.69722 2.72182 2.25903 2.54182 2.94267 2.54182C3.66267 2.54182 4.24631 2.72727 4.69358 3.09818C5.14085 3.46909 5.36449 3.94364 5.36449 4.52182H4.27358C4.27358 4.22727 4.14813 3.97273 3.89722 3.75818C3.64631 3.54 3.32812 3.43091 2.94267 3.43091C2.54994 3.43091 2.24267 3.51818 2.02085 3.69273C1.79903 3.86364 1.68813 4.08727 1.68813 4.36364C1.68813 4.62545 1.78994 4.82364 1.99358 4.95818C2.20085 5.08909 2.5754 5.21636 3.11722 5.34C3.65903 5.46 4.09722 5.60364 4.43176 5.77091C4.76994 5.93818 5.01903 6.14 5.17903 6.37636C5.34267 6.61273 5.42449 6.90182 5.42449 7.24364C5.42449 7.80727 5.19722 8.26 4.74267 8.60182C4.29176 8.94364 3.70449 9.11455 2.98085 9.11455C2.47176 9.11455 2.02085 9.02545 1.62813 8.84727C1.23903 8.66909 0.93358 8.41818 0.711761 8.09455C0.49358 7.77091 0.384489 7.42182 0.384489 7.04727H1.46994C1.48813 7.41091 1.63176 7.7 1.90085 7.91455C2.17358 8.12545 2.53358 8.23091 2.98085 8.23091C3.39176 8.23091 3.72085 8.14909 3.96812 7.98545C4.2154 7.81818 4.33903 7.59636 4.33903 7.32ZM10.7502 9C10.6884 8.87636 10.6374 8.65455 10.5974 8.33455C10.092 8.85455 9.49017 9.11455 8.79199 9.11455C8.16653 9.11455 7.65381 8.93818 7.25381 8.58545C6.85381 8.23273 6.65381 7.78545 6.65381 7.24364C6.65381 6.58182 6.90472 6.06909 7.40653 5.70545C7.90835 5.33818 8.61381 5.15455 9.5229 5.15455H10.5811V4.65818C10.5811 4.28 10.4665 3.97818 10.2374 3.75273C10.012 3.52727 9.67926 3.41455 9.23926 3.41455C8.85017 3.41455 8.52472 3.51273 8.2629 3.70909C8.00472 3.90545 7.87563 4.14182 7.87563 4.41818H6.78472C6.78472 4.10182 6.89562 3.79636 7.11744 3.50182C7.3429 3.20727 7.64835 2.97455 8.03381 2.80364C8.41926 2.62909 8.8429 2.54182 9.30472 2.54182C10.0356 2.54182 10.6065 2.72545 11.0174 3.09273C11.432 3.45636 11.6484 3.95818 11.6665 4.59818V7.51636C11.6665 8.09818 11.7393 8.56182 11.8847 8.90727V9H10.7502ZM8.95017 8.17636C9.29199 8.17636 9.61381 8.08909 9.91562 7.91455C10.2211 7.73636 10.4429 7.50727 10.5811 7.22727V5.92364H9.73017C8.4029 5.92364 7.73926 6.31273 7.73926 7.09091C7.73926 7.42909 7.85199 7.69455 8.07744 7.88727C8.3029 8.08 8.59381 8.17636 8.95017 8.17636ZM14.5393 9H13.4593V0H14.5393V9ZM20.1955 9C20.1337 8.87636 20.0828 8.65455 20.0428 8.33455C19.5373 8.85455 18.9355 9.11455 18.2373 9.11455C17.6118 9.11455 17.0991 8.93818 16.6991 8.58545C16.2991 8.23273 16.0991 7.78545 16.0991 7.24364C16.0991 6.58182 16.35 6.06909 16.8518 5.70545C17.3537 5.33818 18.0591 5.15455 18.9682 5.15455H20.0264V4.65818C20.0264 4.28 19.9118 3.97818 19.6828 3.75273C19.4573 3.52727 19.1246 3.41455 18.6846 3.41455C18.2955 3.41455 17.97 3.51273 17.7082 3.70909C17.45 3.90545 17.3209 4.14182 17.3209 4.41818H16.23C16.23 4.10182 16.3409 3.79636 16.5628 3.50182C16.7882 3.20727 17.0937 2.97455 17.4791 2.80364C17.8646 2.62909 18.2882 2.54182 18.75 2.54182C19.4809 2.54182 20.0518 2.72545 20.4628 3.09273C20.8773 3.45636 21.0937 3.95818 21.1118 4.59818V7.51636C21.1118 8.09818 21.1846 8.56182 21.33 8.90727V9H20.1955ZM18.3955 8.17636C18.7373 8.17636 19.0591 8.08909 19.3609 7.91455C19.6664 7.73636 19.8882 7.50727 20.0264 7.22727V5.92364H19.1755C17.8482 5.92364 17.1846 6.31273 17.1846 7.09091C17.1846 7.42909 17.2973 7.69455 17.5228 7.88727C17.7482 8.08 18.0391 8.17636 18.3955 8.17636ZM23.8265 2.66182L23.8592 3.36545C24.3246 2.81636 24.9519 2.54182 25.741 2.54182C26.6246 2.54182 27.2265 2.88182 27.5465 3.56182C27.7574 3.25636 28.0319 3.01091 28.3701 2.82545C28.7083 2.63636 29.1083 2.54182 29.5701 2.54182C30.9592 2.54182 31.6665 3.27818 31.6919 4.75091V9H30.6065V4.81636C30.6065 4.36182 30.5028 4.02364 30.2956 3.80182C30.0883 3.57636 29.741 3.46364 29.2537 3.46364C28.8501 3.46364 28.5156 3.58364 28.2501 3.82364C27.9846 4.06364 27.8301 4.38727 27.7865 4.79455V9H26.701V4.84364C26.701 3.92364 26.2501 3.46364 25.3483 3.46364C24.6356 3.46364 24.1483 3.76545 23.8865 4.36909V9H22.801V2.66182H23.8265ZM42.6836 6.06C42.6364 7.00545 42.4018 7.75091 41.98 8.29636C41.5582 8.84182 40.9945 9.11455 40.2891 9.11455C39.5582 9.11455 39.0891 8.78727 38.8818 8.13273C38.6709 8.46364 38.4291 8.71091 38.1564 8.87455C37.8873 9.03455 37.6073 9.11455 37.3164 9.11455C36.76 9.11455 36.34 8.88727 36.0564 8.43273C35.8309 8.07273 35.7182 7.60364 35.7182 7.02545C35.7182 6.87636 35.7255 6.72 35.74 6.55636C35.7982 5.91273 35.9455 5.33818 36.1818 4.83273C36.4182 4.32727 36.7218 3.93091 37.0927 3.64364C37.4673 3.35273 37.86 3.20727 38.2709 3.20727C38.5873 3.20727 38.8709 3.24909 39.1218 3.33273C39.3727 3.41636 39.6545 3.58 39.9673 3.82364L39.6618 7.07455C39.6545 7.18 39.6509 7.28 39.6509 7.37455C39.6509 8.07636 39.9036 8.42727 40.4091 8.42727C40.8527 8.42727 41.2109 8.20909 41.4836 7.77273C41.7564 7.33273 41.9036 6.76182 41.9255 6.06C41.9327 5.89636 41.9364 5.73818 41.9364 5.58545C41.9364 4.29818 41.6345 3.27818 41.0309 2.52545C40.4273 1.76909 39.4727 1.39091 38.1673 1.39091C37.3818 1.39091 36.6836 1.58545 36.0727 1.97455C35.4655 2.36 34.9855 2.92 34.6327 3.65455C34.28 4.38909 34.0836 5.23818 34.0436 6.20182C34.0364 6.34 34.0327 6.47636 34.0327 6.61091C34.0327 7.40727 34.1618 8.13636 34.42 8.79818C34.6818 9.46 35.1 9.97818 35.6745 10.3527C36.2527 10.7309 36.9509 10.92 37.7691 10.92C38.1182 10.92 38.4691 10.8764 38.8218 10.7891C39.1782 10.7055 39.4727 10.5945 39.7055 10.4564L39.9236 11.1327C39.68 11.2855 39.3582 11.4109 38.9582 11.5091C38.5582 11.6073 38.1527 11.6564 37.7418 11.6564C36.7673 11.6564 35.9273 11.4364 35.2218 10.9964C34.52 10.5564 33.9945 9.92364 33.6455 9.09818C33.3364 8.37091 33.1818 7.53455 33.1818 6.58909C33.1818 6.46182 33.1855 6.33273 33.1927 6.20182C33.24 5.12545 33.48 4.16 33.9127 3.30545C34.3455 2.44727 34.9327 1.78545 35.6745 1.32C36.4164 0.850909 37.2545 0.616364 38.1891 0.616364C39.1636 0.616364 39.9982 0.834546 40.6927 1.27091C41.3873 1.70727 41.9055 2.33818 42.2473 3.16364C42.5455 3.88727 42.6945 4.72 42.6945 5.66182C42.6945 5.79273 42.6909 5.92545 42.6836 6.06ZM36.6727 6.55636C36.6582 6.69818 36.6509 6.83091 36.6509 6.95455C36.6509 7.32182 36.72 7.63455 36.8582 7.89273C36.9964 8.15091 37.2364 8.28 37.5782 8.28C37.8145 8.28 38.04 8.18 38.2545 7.98C38.4727 7.78 38.6527 7.49455 38.7945 7.12364L38.8 7.07455L39.0673 4.12364C38.8491 4.01091 38.6145 3.95455 38.3636 3.95455C37.9091 3.95455 37.5309 4.18727 37.2291 4.65273C36.9309 5.11818 36.7455 5.75273 36.6727 6.55636ZM47.1532 3.63273C46.9895 3.60364 46.8113 3.58909 46.6186 3.58909C45.9095 3.58909 45.4277 3.89273 45.1732 4.5V9H44.0877V2.66182H45.1459L45.1623 3.39273C45.5186 2.82545 46.0223 2.54182 46.6732 2.54182C46.8841 2.54182 47.0441 2.56909 47.1532 2.62364V3.63273ZM47.8588 5.77091C47.8588 5.14909 47.9806 4.59091 48.2242 4.09636C48.4679 3.59818 48.8079 3.21455 49.2442 2.94545C49.6806 2.67636 50.1769 2.54182 50.7333 2.54182C51.5988 2.54182 52.2969 2.84182 52.8279 3.44182C53.3624 4.03818 53.6297 4.83273 53.6297 5.82545V5.90182C53.6297 6.51636 53.5115 7.06909 53.2751 7.56C53.0388 8.05091 52.7006 8.43273 52.2606 8.70545C51.8206 8.97818 51.3151 9.11455 50.7442 9.11455C49.886 9.11455 49.1897 8.81636 48.6551 8.22C48.1242 7.62364 47.8588 6.83273 47.8588 5.84727V5.77091ZM48.9497 5.90182C48.9497 6.60364 49.1115 7.16727 49.4351 7.59273C49.7624 8.01818 50.1988 8.23091 50.7442 8.23091C51.2969 8.23091 51.7351 8.01636 52.0588 7.58727C52.3824 7.15455 52.5442 6.54909 52.5442 5.77091C52.5442 5.07636 52.3788 4.51273 52.0479 4.08C51.7206 3.64727 51.2824 3.43091 50.7333 3.43091C50.1988 3.43091 49.7679 3.64545 49.4406 4.07455C49.1133 4.5 48.9497 5.10909 48.9497 5.90182ZM58.6789 7.32C58.6789 7.02545 58.568 6.79818 58.3462 6.63818C58.128 6.47455 57.7443 6.33455 57.1952 6.21818C56.6462 6.10182 56.2098 5.96182 55.8862 5.79818C55.5662 5.63091 55.328 5.43455 55.1716 5.20909C55.0189 4.98364 54.9425 4.71455 54.9425 4.40182C54.9425 3.88182 55.1607 3.44182 55.5971 3.08182C56.0371 2.72182 56.5989 2.54182 57.2825 2.54182C58.0025 2.54182 58.5862 2.72727 59.0334 3.09818C59.4807 3.46909 59.7043 3.94364 59.7043 4.52182H58.6134C58.6134 4.22727 58.488 3.97273 58.2371 3.75818C57.9862 3.54 57.668 3.43091 57.2825 3.43091C56.8898 3.43091 56.5825 3.51818 56.3607 3.69273C56.1389 3.86364 56.028 4.08727 56.028 4.36364C56.028 4.62545 56.1298 4.82364 56.3334 4.95818C56.5407 5.08909 56.9152 5.21636 57.4571 5.34C57.9989 5.46 58.4371 5.60364 58.7716 5.77091C59.1098 5.93818 59.3589 6.14 59.5189 6.37636C59.6825 6.61273 59.7643 6.90182 59.7643 7.24364C59.7643 7.80727 59.5371 8.26 59.0825 8.60182C58.6316 8.94364 58.0443 9.11455 57.3207 9.11455C56.8116 9.11455 56.3607 9.02545 55.968 8.84727C55.5789 8.66909 55.2734 8.41818 55.0516 8.09455C54.8334 7.77091 54.7243 7.42182 54.7243 7.04727H55.8098C55.828 7.41091 55.9716 7.7 56.2407 7.91455C56.5134 8.12545 56.8734 8.23091 57.3207 8.23091C57.7316 8.23091 58.0607 8.14909 58.308 7.98545C58.5552 7.81818 58.6789 7.59636 58.6789 7.32ZM62.2591 3.42545C62.7391 2.83636 63.3646 2.54182 64.1355 2.54182C65.4737 2.54182 66.15 3.29818 66.1646 4.81091V9H65.0791V4.80545C65.0755 4.34727 64.97 4.00909 64.7627 3.79091C64.5591 3.57273 64.2409 3.46364 63.8082 3.46364C63.4555 3.46364 63.1464 3.55818 62.8809 3.74727C62.6155 3.93273 62.4082 4.17818 62.2591 4.48364V9H61.1737V0H62.2591V3.42545ZM71.6994 9C71.6376 8.87636 71.5867 8.65455 71.5467 8.33455C71.0412 8.85455 70.4394 9.11455 69.7412 9.11455C69.1158 9.11455 68.603 8.93818 68.203 8.58545C67.803 8.23273 67.603 7.78545 67.603 7.24364C67.603 6.58182 67.8539 6.06909 68.3558 5.70545C68.8576 5.33818 69.563 5.15455 70.4721 5.15455H71.5303V4.65818C71.5303 4.28 71.4158 3.97818 71.1867 3.75273C70.9612 3.52727 70.6285 3.41455 70.1885 3.41455C69.7994 3.41455 69.4739 3.51273 69.2121 3.70909C68.9539 3.90545 68.8248 4.14182 68.8248 4.41818H67.7339C67.7339 4.10182 67.8448 3.79636 68.0667 3.50182C68.2921 3.20727 68.5976 2.97455 68.983 2.80364C69.3685 2.62909 69.7921 2.54182 70.2539 2.54182C70.9848 2.54182 71.5558 2.72545 71.9667 3.09273C72.3812 3.45636 72.5976 3.95818 72.6158 4.59818V7.51636C72.6158 8.09818 72.6885 8.56182 72.8339 8.90727V9H71.6994ZM69.8994 8.17636C70.2412 8.17636 70.563 8.08909 70.8648 7.91455C71.1703 7.73636 71.3921 7.50727 71.5303 7.22727V5.92364H70.6794C69.3521 5.92364 68.6885 6.31273 68.6885 7.09091C68.6885 7.42909 68.8012 7.69455 69.0267 7.88727C69.2521 8.08 69.543 8.17636 69.8994 8.17636ZM75.3358 2.66182L75.374 3.45818C75.8576 2.84727 76.4904 2.54182 77.2722 2.54182C78.6104 2.54182 79.2867 3.29818 79.3013 4.81091V9H78.2158V4.80545C78.2122 4.34727 78.1067 4.00909 77.8995 3.79091C77.6958 3.57273 77.3776 3.46364 76.9449 3.46364C76.5922 3.46364 76.2831 3.55818 76.0176 3.74727C75.7522 3.93273 75.5449 4.17818 75.3958 4.48364V9H74.3104V2.66182H75.3358ZM83.1896 5.82H80.3315V4.93091H83.1896V5.82ZM88.1642 9C88.1024 8.87636 88.0515 8.65455 88.0115 8.33455C87.5061 8.85455 86.9042 9.11455 86.2061 9.11455C85.5806 9.11455 85.0679 8.93818 84.6679 8.58545C84.2679 8.23273 84.0679 7.78545 84.0679 7.24364C84.0679 6.58182 84.3188 6.06909 84.8206 5.70545C85.3224 5.33818 86.0279 5.15455 86.937 5.15455H87.9951V4.65818C87.9951 4.28 87.8806 3.97818 87.6515 3.75273C87.4261 3.52727 87.0933 3.41455 86.6533 3.41455C86.2642 3.41455 85.9388 3.51273 85.677 3.70909C85.4188 3.90545 85.2897 4.14182 85.2897 4.41818H84.1988C84.1988 4.10182 84.3097 3.79636 84.5315 3.50182C84.757 3.20727 85.0624 2.97455 85.4479 2.80364C85.8333 2.62909 86.257 2.54182 86.7188 2.54182C87.4497 2.54182 88.0206 2.72545 88.4315 3.09273C88.8461 3.45636 89.0624 3.95818 89.0806 4.59818V7.51636C89.0806 8.09818 89.1533 8.56182 89.2988 8.90727V9H88.1642ZM86.3642 8.17636C86.7061 8.17636 87.0279 8.08909 87.3297 7.91455C87.6351 7.73636 87.857 7.50727 87.9951 7.22727V5.92364H87.1442C85.817 5.92364 85.1533 6.31273 85.1533 7.09091C85.1533 7.42909 85.2661 7.69455 85.4915 7.88727C85.717 8.08 86.0079 8.17636 86.3642 8.17636ZM91.9534 9H90.8734V2.66182H91.9534V9ZM90.7807 0.976363C90.7807 0.801818 90.8352 0.654546 90.9443 0.534546C91.0534 0.410909 91.2134 0.349091 91.4243 0.349091C91.6352 0.349091 91.7952 0.410909 91.9043 0.534546C92.0134 0.654546 92.0679 0.801818 92.0679 0.976363C92.0679 1.15455 92.0134 1.30182 91.9043 1.41818C91.7952 1.53455 91.6352 1.59273 91.4243 1.59273C91.2134 1.59273 91.0534 1.53455 90.9443 1.41818C90.8352 1.30182 90.7807 1.15455 90.7807 0.976363ZM93.7205 8.43273C93.7205 8.24364 93.775 8.08727 93.8841 7.96364C93.9968 7.83636 94.1641 7.77273 94.3859 7.77273C94.6077 7.77273 94.7768 7.83636 94.8932 7.96364C95.0095 8.08727 95.0677 8.24364 95.0677 8.43273C95.0677 8.61091 95.0095 8.76182 94.8932 8.88545C94.7768 9.00545 94.6077 9.06545 94.3859 9.06545C94.1641 9.06545 93.9968 9.00545 93.8841 8.88545C93.775 8.76182 93.7205 8.61091 93.7205 8.43273ZM98.0237 9H96.9437V2.66182H98.0237V9ZM96.851 0.976363C96.851 0.801818 96.9055 0.654546 97.0146 0.534546C97.1237 0.410909 97.2837 0.349091 97.4946 0.349091C97.7055 0.349091 97.8655 0.410909 97.9746 0.534546C98.0837 0.654546 98.1383 0.801818 98.1383 0.976363C98.1383 1.15455 98.0837 1.30182 97.9746 1.41818C97.8655 1.53455 97.7055 1.59273 97.4946 1.59273C97.2837 1.59273 97.1237 1.53455 97.0146 1.41818C96.9055 1.30182 96.851 1.15455 96.851 0.976363ZM102.829 3.63273C102.665 3.60364 102.487 3.58909 102.294 3.58909C101.585 3.58909 101.103 3.89273 100.849 4.5V9H99.7635V2.66182H100.822L100.838 3.39273C101.194 2.82545 101.698 2.54182 102.349 2.54182C102.56 2.54182 102.72 2.56909 102.829 2.62364V3.63273Z" fill="white"/>
</svg>
