<svg width="44" height="17" viewBox="0 0 44 17" fill="none" xmlns="http://www.w3.org/2000/svg">
<path d="M4.45273 16.0291C3.70121 16.0291 3.02 15.8642 2.40909 15.5345C1.79818 15.2097 1.30364 14.7442 0.925454 14.1382C0.663636 13.7261 0.47697 13.2679 0.365455 12.7636C0.278182 12.3758 0.234545 11.9685 0.234545 11.5418C0.234545 11.4158 0.244242 11.1782 0.263636 10.8291C0.28303 10.4752 0.382424 9.98545 0.561818 9.36C0.741212 8.7297 0.990909 8.08 1.31091 7.41091L2.54727 8C2.27576 8.56242 2.06 9.10303 1.9 9.62182C1.74485 10.1358 1.64788 10.623 1.60909 11.0836C1.59939 11.2388 1.59455 11.3891 1.59455 11.5345C1.59455 11.8255 1.62606 12.1333 1.68909 12.4582C1.75212 12.7879 1.88303 13.1079 2.08182 13.4182C2.33394 13.8109 2.66364 14.1139 3.07091 14.3273C3.47818 14.5455 3.93879 14.6545 4.45273 14.6545H6.16182C6.71939 14.6545 7.17273 14.5939 7.52182 14.4727C7.87576 14.3564 8.1497 14.1915 8.34364 13.9782C8.54242 13.7648 8.67576 13.5055 8.74364 13.2C8.81636 12.8994 8.85273 12.5648 8.85273 12.1964V7.08364H10.2273V9.34545C10.2321 9.53939 10.2661 9.71636 10.3291 9.87636C10.397 10.0315 10.4867 10.1648 10.5982 10.2764C10.7097 10.3879 10.843 10.4752 10.9982 10.5382C11.1582 10.5964 11.3352 10.6255 11.5291 10.6255H11.8127V12H11.5291C11.0539 12 10.62 11.8958 10.2273 11.6873V12.1964C10.2273 13.4764 9.88788 14.4339 9.20909 15.0691C8.5303 15.7091 7.51455 16.0291 6.16182 16.0291H4.45273ZM4.50364 6.53818L5.74 5.28727L7.00545 6.55273L5.75455 7.80364L4.50364 6.53818ZM14.7119 10.6255C14.7652 10.6255 14.7919 10.6448 14.7919 10.6836V11.9273C14.7919 11.9758 14.7652 12 14.7119 12H11.5991C11.5507 12 11.5264 11.9758 11.5264 11.9273V10.6836C11.5264 10.6448 11.5507 10.6255 11.5991 10.6255H14.7119ZM17.6806 10.6255C17.734 10.6255 17.7606 10.6448 17.7606 10.6836V11.9273C17.7606 11.9758 17.734 12 17.6806 12H14.5679C14.5194 12 14.4952 11.9758 14.4952 11.9273V10.6836C14.4952 10.6448 14.5194 10.6255 14.5679 10.6255H17.6806ZM23.1366 11.9855C22.6809 11.9855 22.276 11.92 21.9221 11.7891C21.5682 11.6533 21.27 11.4594 21.0276 11.2073C20.7754 11.4788 20.4821 11.68 20.1476 11.8109C19.813 11.937 19.476 12 19.1366 12H17.4639V10.6255H19.1366C19.2094 10.6255 19.3136 10.6158 19.4494 10.5964C19.5851 10.5721 19.7185 10.5164 19.8494 10.4291C19.9803 10.337 20.0942 10.2012 20.1912 10.0218C20.293 9.84242 20.3439 9.59758 20.3439 9.28727V7.08364H21.7185V9.25818C21.7185 9.72848 21.8276 10.0727 22.0457 10.2909C22.2688 10.5091 22.6324 10.6182 23.1366 10.6182C23.2094 10.6182 23.3112 10.6061 23.4421 10.5818C23.5779 10.5527 23.7112 10.4921 23.8421 10.4C23.9779 10.3079 24.0942 10.1721 24.1912 9.99273C24.293 9.81333 24.3439 9.56848 24.3439 9.25818V7.08364H25.7112V9.25818C25.7112 9.72848 25.8251 10.0752 26.053 10.2982C26.2809 10.5212 26.647 10.6327 27.1512 10.6327C27.2288 10.6327 27.333 10.6182 27.4639 10.5891C27.5948 10.5552 27.7233 10.4897 27.8494 10.3927C27.9803 10.2958 28.0918 10.1576 28.1839 9.97818C28.276 9.79879 28.3221 9.55879 28.3221 9.25818C28.3221 9.15152 28.3124 9.01818 28.293 8.85818C28.2785 8.69818 28.2566 8.52606 28.2276 8.34182C28.2033 8.15758 28.1742 7.97091 28.1403 7.78182C28.1063 7.58788 28.0724 7.40848 28.0385 7.24364C28.0045 7.07394 27.973 6.92364 27.9439 6.79273C27.9148 6.65697 27.8906 6.55758 27.8712 6.49455L29.173 6.08C29.1827 6.10909 29.2021 6.18667 29.2312 6.31273C29.2603 6.43394 29.2942 6.58667 29.333 6.77091C29.3718 6.9503 29.4106 7.15152 29.4494 7.37455C29.493 7.59758 29.5318 7.82303 29.5657 8.05091C29.6045 8.27394 29.636 8.49212 29.6603 8.70545C29.6845 8.91394 29.6966 9.09818 29.6966 9.25818C29.6966 9.71879 29.6215 10.1212 29.4712 10.4655C29.3209 10.8048 29.1245 11.0885 28.8821 11.3164C28.6445 11.5394 28.373 11.7091 28.0676 11.8255C27.7621 11.937 27.4566 11.9952 27.1512 12C26.6857 12 26.2736 11.9321 25.9148 11.7964C25.5609 11.6558 25.2603 11.4545 25.013 11.1927C24.7609 11.4594 24.4676 11.6582 24.133 11.7891C23.8033 11.92 23.4712 11.9855 23.1366 11.9855ZM26.1257 1.81091L25.093 2.82182L24.0748 1.81091L25.1221 0.770909L26.1257 1.81091ZM26.4821 5.09818L25.333 3.93455L26.4676 2.75636L27.6457 3.93455L26.4821 5.09818ZM23.6966 5.08364L22.5476 3.92L23.6821 2.74182L24.8603 3.92L23.6966 5.08364ZM31.9505 14.64C32.6826 14.64 33.2984 14.5842 33.7978 14.4727C34.2972 14.3612 34.6923 14.1891 34.9832 13.9564C35.2354 13.7527 35.4196 13.4933 35.536 13.1782C35.6572 12.863 35.7178 12.4703 35.7178 12H34.3796C34.0402 12 33.696 11.9491 33.3469 11.8473C32.9978 11.7455 32.6802 11.5782 32.3941 11.3455C32.1129 11.1127 31.8826 10.8097 31.7032 10.4364C31.5238 10.0582 31.4341 9.59758 31.4341 9.05455C31.4341 8.73455 31.4608 8.44606 31.5141 8.18909C31.5723 7.92727 31.6426 7.69455 31.7251 7.49091C31.8123 7.28727 31.9069 7.1103 32.0087 6.96C32.1105 6.8097 32.2099 6.68121 32.3069 6.57455C32.5735 6.30788 32.879 6.10182 33.2232 5.95636C33.5675 5.81091 33.936 5.73818 34.3287 5.73818C34.6729 5.73818 34.9954 5.79152 35.296 5.89818C35.5966 6.00485 35.8657 6.16485 36.1032 6.37818C36.7578 6.98909 37.0851 7.94667 37.0851 9.25091V12C37.0851 12.6885 36.9832 13.28 36.7796 13.7745C36.5808 14.2739 36.2705 14.6909 35.8487 15.0255C35.422 15.36 34.8911 15.6073 34.256 15.7673C33.6257 15.9321 32.8572 16.0145 31.9505 16.0145V14.64ZM34.3287 7.11273C33.8487 7.11273 33.4754 7.28242 33.2087 7.62182C32.942 7.96121 32.8087 8.43879 32.8087 9.05455C32.8087 9.68 32.9978 10.1139 33.376 10.3564C33.4681 10.4145 33.5626 10.463 33.6596 10.5018C33.7566 10.5358 33.8511 10.5624 33.9432 10.5818C34.0354 10.5964 34.1178 10.6085 34.1905 10.6182C34.2681 10.623 34.3311 10.6255 34.3796 10.6255H35.7178V9.25091C35.7178 8.89697 35.6911 8.59879 35.6378 8.35636C35.5845 8.10909 35.5166 7.90545 35.4341 7.74545C35.3517 7.58545 35.2572 7.46424 35.1505 7.38182C35.0487 7.29455 34.9469 7.23151 34.8451 7.19273C34.7432 7.15394 34.6463 7.13212 34.5541 7.12727C34.462 7.11758 34.3869 7.11273 34.3287 7.11273ZM38 16.0364V14.6618H39.0036C39.503 14.6618 39.9345 14.6012 40.2982 14.48C40.6667 14.3636 40.9697 14.1818 41.2073 13.9345C41.4497 13.6873 41.6267 13.3721 41.7382 12.9891C41.8545 12.6061 41.9127 12.1503 41.9127 11.6218V7.08364H43.2873V11.6218C43.2873 12.3152 43.1952 12.9333 43.0109 13.4764C42.8315 14.0242 42.5624 14.4873 42.2036 14.8655C41.8448 15.2436 41.3964 15.5321 40.8582 15.7309C40.3248 15.9345 39.7067 16.0364 39.0036 16.0364H38Z" fill="white"/>
</svg>
