<svg width="150" height="49" viewBox="0 0 150 49" fill="none" xmlns="http://www.w3.org/2000/svg">
<path d="M32.7498 26.5909C32.7498 27.303 32.9922 27.8636 33.4771 28.2727C33.9468 28.6818 34.568 28.8864 35.3407 28.8864H37.0453V36.3409H34.6589L33.9544 36.2955C33.4392 36.25 33.0225 36.1591 32.7044 36.0227C32.5225 39.447 31.5529 42.1818 29.7953 44.2273C28.5529 45.6515 26.9392 46.7348 24.9544 47.4773C23.0604 48.1742 20.8256 48.5227 18.2498 48.5227H14.818C12.2119 48.5227 9.86346 48.0455 7.77255 47.0909C5.39376 46 3.5377 44.4167 2.20437 42.3409C0.764974 40.0379 0.0452771 37.3636 0.0452771 34.3182C0.0452771 33.9394 0.0528528 33.5606 0.0680043 33.1818C0.249822 29.6515 1.33316 25.7348 3.318 21.4318L10.0907 24.5455C8.49982 27.9697 7.63619 30.9773 7.49982 33.5682C7.48467 33.8258 7.4771 34.0833 7.4771 34.3409C7.4771 35.9621 7.818 37.2879 8.49982 38.3182C9.16649 39.3788 10.1968 40.1364 11.5907 40.5909C12.121 40.7727 12.6968 40.9015 13.318 40.9773C13.8029 41.0379 14.3029 41.0682 14.818 41.0682H18.2498C21.0832 41.0682 23.0074 40.5455 24.0225 39.5C24.8862 38.6061 25.318 37.0379 25.318 34.7955V20.6364H32.7498V26.5909ZM12.7271 18.9318L17.4544 14.1591L22.2726 18.9773L17.4771 23.75L12.7271 18.9318ZM46.3038 28.8864C46.925 28.8864 47.2356 29.1742 47.2356 29.75V35.4318C47.2356 36.0379 46.925 36.3409 46.3038 36.3409H36.8038C36.1977 36.3409 35.8947 36.0379 35.8947 35.4318V29.75C35.8947 29.1742 36.1977 28.8864 36.8038 28.8864H46.3038ZM56.5089 28.8864C57.1301 28.8864 57.4407 29.1742 57.4407 29.75V35.4318C57.4407 36.0379 57.1301 36.3409 56.5089 36.3409H47.0089C46.4028 36.3409 46.0998 36.0379 46.0998 35.4318V29.75C46.0998 29.1742 46.4028 28.8864 47.0089 28.8864H56.5089ZM66.714 28.8864C67.3352 28.8864 67.6458 29.1742 67.6458 29.75V35.4318C67.6458 36.0379 67.3352 36.3409 66.714 36.3409H57.214C56.6079 36.3409 56.3049 36.0379 56.3049 35.4318V29.75C56.3049 29.1742 56.6079 28.8864 57.214 28.8864H66.714ZM85.419 28.4091C85.9948 27.9848 86.2827 27.2348 86.2827 26.1591V20.6364H93.7372V26.1591C93.7372 27.0985 93.9115 27.7652 94.2599 28.1591C94.669 28.6439 95.419 28.8864 96.5099 28.8864C98.2372 28.8864 99.1009 28.2879 99.1009 27.0909C99.1009 26.8333 99.063 26.5455 98.9872 26.2273C98.1236 22.6667 97.563 20.2803 97.3054 19.0682L104.533 17.3409C104.972 19.1591 105.54 21.5455 106.237 24.5C106.389 25.1515 106.464 25.8333 106.464 26.5455C106.464 27.1212 106.411 27.7197 106.305 28.3409C106.048 29.75 105.54 31.0303 104.783 32.1818C102.98 34.9545 100.351 36.3409 96.8963 36.3409C95.3357 36.3409 93.8736 36.1061 92.5099 35.6364C91.5857 35.2879 90.7448 34.8333 89.9872 34.2727C88.1842 35.6515 86.116 36.3409 83.7827 36.3409C81.3281 36.3409 79.1993 35.6515 77.3963 34.2727C76.169 35.6515 73.9948 36.3409 70.8736 36.3409H66.5099V28.8864H70.8736C71.9645 28.8864 72.7145 28.6439 73.1236 28.1591C73.4721 27.7652 73.6463 27.0985 73.6463 26.1591V20.6364H81.1009V26.1591C81.1009 27.2348 81.3584 27.9848 81.8736 28.4091C82.2372 28.7273 82.8054 28.8864 83.5781 28.8864C84.3812 28.8864 84.9948 28.7273 85.419 28.4091ZM89.6236 10.5909L85.1236 15.1364L80.6236 10.6364L85.1236 6.09091L89.6236 10.5909ZM99.4872 10.5227L95.0327 15.0227L90.419 10.5682L94.9645 6.02273L99.4872 10.5227ZM94.0327 4.65909L90.0781 8.61364L86.169 4.70455L90.1236 0.750001L94.0327 4.65909ZM123.233 28.9091V26.5682C123.233 25.1742 122.937 24.0682 122.346 23.25C121.755 22.447 120.952 22.0455 119.937 22.0455C118.907 22.0455 118.089 22.447 117.483 23.25C116.922 23.9924 116.642 24.9545 116.642 26.1364C116.642 26.2727 116.649 26.4167 116.664 26.5682C116.71 27.3712 117.066 27.9773 117.733 28.3864C118.308 28.7348 119.043 28.9091 119.937 28.9091H123.233ZM119.937 14.5909C123.286 14.5909 125.952 15.8106 127.937 18.25C129.77 20.4773 130.687 23.25 130.687 26.5682V34.9091C130.687 40.1818 128.513 43.947 124.164 46.2045C122.483 47.0833 120.483 47.7197 118.164 48.1136C116.361 48.4318 114.392 48.5909 112.255 48.5909V41.1364C116.043 41.1364 118.892 40.6061 120.801 39.5455C122.346 38.697 123.119 37.6288 123.119 36.3409H119.937C117.225 36.3409 114.93 35.6136 113.051 34.1591C110.763 32.4015 109.619 29.8712 109.619 26.5682C109.619 23.4318 110.377 20.7727 111.892 18.5909C113.74 15.9242 116.422 14.5909 119.937 14.5909ZM149.279 32.8864C149.279 37.6136 148.089 41.3258 145.711 44.0227C143.059 47.0379 139.18 48.5455 134.074 48.5455H131.824V41.0909H134.074C136.862 41.0909 138.847 40.4621 140.029 39.2045C141.226 37.947 141.824 35.8409 141.824 32.8864V20.6364H149.279V32.8864Z" fill="url(#paint0_linear)"/>
<defs>
<linearGradient id="paint0_linear" x1="9.85211" y1="69.6154" x2="171.931" y2="-70.6011" gradientUnits="userSpaceOnUse">
<stop stop-color="#4286F5"/>
<stop offset="1" stop-color="#4286F5" stop-opacity="0.49"/>
</linearGradient>
</defs>
</svg>
