<svg width="198" height="14" viewBox="0 0 198 14" fill="none" xmlns="http://www.w3.org/2000/svg">
<path d="M1.79037 3.18L1.74673 3.23455C1.72128 3.27091 1.68673 3.32182 1.6431 3.38727C1.59946 3.44909 1.55037 3.52545 1.49582 3.61636C1.44128 3.70727 1.38673 3.81091 1.33219 3.92727C1.28128 4.02909 1.22855 4.14545 1.17401 4.27636C1.11946 4.40727 1.07037 4.55091 1.02673 4.70727C0.986733 4.86364 0.952188 5.02909 0.923097 5.20364C0.897642 5.37818 0.884915 5.55818 0.884915 5.74364C0.884915 5.93273 0.897642 6.11455 0.923097 6.28909C0.952188 6.46364 0.986733 6.62727 1.02673 6.78C1.07037 6.93273 1.11946 7.07636 1.17401 7.21091C1.22855 7.34182 1.28128 7.45818 1.33219 7.56C1.38673 7.67636 1.44128 7.78 1.49582 7.87091C1.55037 7.95818 1.59946 8.03273 1.6431 8.09455C1.69037 8.17091 1.73764 8.23818 1.78491 8.29636L1.23946 8.74909C1.22855 8.73455 1.16673 8.65091 1.05401 8.49818C0.944915 8.34545 0.823097 8.13636 0.688551 7.87091C0.557642 7.60545 0.43946 7.29273 0.334006 6.93273C0.228551 6.57273 0.175824 6.17636 0.175824 5.74364C0.175824 5.46 0.201278 5.18909 0.252188 4.93091C0.303097 4.67273 0.366733 4.43455 0.443097 4.21636C0.51946 3.99818 0.601278 3.79818 0.688551 3.61636C0.77946 3.43455 0.864915 3.28 0.944915 3.15273C1.02855 3.02545 1.09582 2.92545 1.14673 2.85273C1.20128 2.78 1.23219 2.74 1.23946 2.73273L1.79037 3.18ZM3.25764 3.74727L3.14855 3.90545C3.07219 4.00727 2.99037 4.14909 2.9031 4.33091C2.81582 4.50909 2.73582 4.72 2.6631 4.96364C2.59037 5.20364 2.55401 5.46364 2.55401 5.74364C2.55401 6.02727 2.59037 6.29091 2.6631 6.53455C2.73582 6.77455 2.81582 6.98364 2.9031 7.16182C2.99037 7.33636 3.07037 7.47455 3.1431 7.57636C3.21946 7.67455 3.25764 7.72727 3.25764 7.73455L2.71764 8.18727C2.70673 8.17273 2.65582 8.10364 2.56491 7.98C2.47401 7.85273 2.37401 7.68182 2.26491 7.46727C2.15946 7.25273 2.0631 6.99818 1.97582 6.70364C1.88855 6.40909 1.84491 6.08909 1.84491 5.74364C1.84491 5.39455 1.88855 5.07455 1.97582 4.78364C2.0631 4.48909 2.15946 4.23273 2.26491 4.01455C2.37401 3.79636 2.47401 3.62545 2.56491 3.50182C2.65582 3.37455 2.70673 3.30545 2.71764 3.29455L3.25764 3.74727ZM13.4536 4.10727C13.3299 4.10727 13.2081 4.12909 13.0881 4.17273C12.9717 4.21273 12.8663 4.27818 12.7717 4.36909C12.6808 4.45636 12.6063 4.56909 12.5481 4.70727C12.4899 4.84182 12.4608 5.00182 12.4608 5.18727C12.4608 5.32545 12.4772 5.44909 12.5099 5.55818C12.5426 5.66727 12.6045 5.76 12.6954 5.83636C12.7899 5.91273 12.919 5.97091 13.0826 6.01091C13.2463 6.05091 13.459 6.07091 13.7208 6.07091H14.5499C14.5317 5.83818 14.5081 5.60545 14.479 5.37273C14.4536 5.14 14.4045 4.93091 14.3317 4.74545C14.2626 4.55636 14.159 4.40364 14.0208 4.28727C13.8826 4.16727 13.6936 4.10727 13.4536 4.10727ZM12.6136 9.01636H7.25719C7.00264 9.01273 6.76082 8.96909 6.53173 8.88545C6.30264 8.79818 6.10082 8.67273 5.92628 8.50909C5.85355 8.44364 5.78082 8.36364 5.7081 8.26909C5.63537 8.17455 5.56991 8.06364 5.51173 7.93636C5.45355 7.80545 5.40446 7.66 5.36446 7.5C5.3281 7.33636 5.30991 7.15273 5.30991 6.94909C5.30991 6.76727 5.3281 6.56727 5.36446 6.34909C5.40082 6.13091 5.44264 5.92545 5.48991 5.73273C5.53719 5.53636 5.58082 5.36727 5.62082 5.22545C5.66082 5.08 5.68628 4.99091 5.69719 4.95818L6.67901 5.26909C6.65719 5.34545 6.62628 5.45455 6.58628 5.59636C6.54628 5.73455 6.5081 5.88364 6.47173 6.04364C6.43537 6.20364 6.40264 6.36545 6.37355 6.52909C6.3481 6.68909 6.33537 6.82909 6.33537 6.94909C6.33537 7.18909 6.37355 7.37818 6.44991 7.51636C6.52628 7.65455 6.61537 7.75818 6.71719 7.82727C6.82264 7.89636 6.92628 7.94 7.0281 7.95818C7.13355 7.97636 7.21355 7.98545 7.2681 7.98545H12.6136C12.8863 7.98545 13.1208 7.97273 13.3172 7.94727C13.5172 7.91818 13.6881 7.88182 13.8299 7.83818C13.9717 7.79455 14.0863 7.74364 14.1736 7.68545C14.2645 7.62364 14.3354 7.56 14.3863 7.49455C14.4408 7.42909 14.479 7.36364 14.5008 7.29818C14.5226 7.22909 14.5372 7.16364 14.5445 7.10182C14.4281 7.10182 14.299 7.10182 14.1572 7.10182C14.0154 7.09818 13.8699 7.09636 13.7208 7.09636C13.4481 7.09636 13.1754 7.07091 12.9026 7.02C12.6336 6.96909 12.3899 6.87273 12.1717 6.73091C11.9536 6.58909 11.7754 6.39455 11.6372 6.14727C11.5026 5.9 11.4354 5.58 11.4354 5.18727C11.4354 4.89273 11.4845 4.61818 11.5826 4.36364C11.6845 4.10909 11.8245 3.88727 12.0026 3.69818C12.1808 3.50545 12.3936 3.35455 12.6408 3.24545C12.8881 3.13636 13.159 3.08182 13.4536 3.08182C13.8572 3.08182 14.1954 3.17091 14.4681 3.34909C14.7408 3.52364 14.959 3.75636 15.1226 4.04727C15.2899 4.33455 15.4081 4.66364 15.4772 5.03455C15.5463 5.40182 15.5808 5.77818 15.5808 6.16364V6.91091C15.5808 7.32545 15.499 7.66909 15.3354 7.94182C15.1717 8.21091 14.9517 8.42545 14.6754 8.58545C14.4026 8.74545 14.0863 8.85818 13.7263 8.92364C13.3699 8.98545 12.999 9.01636 12.6136 9.01636ZM12.4281 0.981818L13.3554 0.0436363L14.3045 0.992727L13.3663 1.93091L12.4281 0.981818ZM15.1875 12.0273V10.9964H15.9402C16.3148 10.9964 16.6384 10.9509 16.9111 10.86C17.1875 10.7727 17.4148 10.6364 17.593 10.4509C17.7748 10.2655 17.9075 10.0291 17.9911 9.74182C18.0784 9.45455 18.122 9.11273 18.122 8.71636V5.31273H19.153V8.71636C19.153 9.23636 19.0839 9.7 18.9457 10.1073C18.8111 10.5182 18.6093 10.8655 18.3402 11.1491C18.0711 11.4327 17.7348 11.6491 17.3311 11.7982C16.9311 11.9509 16.4675 12.0273 15.9402 12.0273H15.1875ZM20.2383 12.0273V10.9964H20.991C21.3656 10.9964 21.6892 10.9509 21.9619 10.86C22.2383 10.7727 22.4656 10.6364 22.6437 10.4509C22.8256 10.2655 22.9583 10.0291 23.0419 9.74182C23.1292 9.45455 23.1728 9.11273 23.1728 8.71636V5.31273H24.2037V8.71636C24.2037 9.23636 24.1346 9.7 23.9965 10.1073C23.8619 10.5182 23.6601 10.8655 23.391 11.1491C23.1219 11.4327 22.7856 11.6491 22.3819 11.7982C21.9819 11.9509 21.5183 12.0273 20.991 12.0273H20.2383ZM24.2474 1.57636L23.4728 2.33455L22.7092 1.57636L23.4946 0.796364L24.2474 1.57636ZM24.5146 4.04182L23.6528 3.16909L24.5037 2.28545L25.3874 3.16909L24.5146 4.04182ZM22.4256 4.03091L21.5637 3.15818L22.4146 2.27455L23.2983 3.15818L22.4256 4.03091ZM41.6785 9C41.3185 9 41.0021 8.94727 40.7294 8.84182C40.4603 8.73636 40.2348 8.58364 40.053 8.38364C39.9548 8.5 39.8439 8.59818 39.7203 8.67818C39.6003 8.75455 39.4748 8.81818 39.3439 8.86909C39.2167 8.91636 39.0858 8.95091 38.9512 8.97273C38.8203 8.99091 38.693 9 38.5694 9C38.1148 9 37.7221 8.89818 37.3912 8.69455V9.15273C37.3912 10.1055 37.1367 10.82 36.6276 11.2964C36.1185 11.7727 35.3567 12.0109 34.3421 12.0109H33.0603C32.4967 12.0109 31.9858 11.8891 31.5276 11.6455C31.0694 11.4018 30.6985 11.0545 30.4148 10.6036C30.2185 10.2945 30.0785 9.95091 29.9948 9.57273C29.9258 9.27818 29.8912 8.96909 29.8912 8.64545C29.8912 8.55091 29.8985 8.37091 29.913 8.10545C29.9312 7.84 30.0076 7.46909 30.1421 6.99273C30.2767 6.51636 30.4639 6.02545 30.7039 5.52L31.6312 5.97273C31.4276 6.39455 31.2658 6.8 31.1458 7.18909C31.0294 7.57818 30.9567 7.94545 30.9276 8.29091C30.9167 8.40727 30.9112 8.52 30.9112 8.62909C30.9112 8.85091 30.9348 9.08545 30.9821 9.33273C31.033 9.58 31.133 9.82 31.2821 10.0527C31.4712 10.3473 31.7185 10.5745 32.0239 10.7345C32.3294 10.8982 32.6748 10.98 33.0603 10.98H34.3421C34.7603 10.98 35.1003 10.9364 35.3621 10.8491C35.6276 10.7618 35.833 10.6382 35.9785 10.4782C36.1276 10.3182 36.2276 10.1255 36.2785 9.9C36.333 9.67818 36.3603 9.42909 36.3603 9.15273V5.31273H37.3912V6.37636C37.3912 6.72545 37.4239 7.00545 37.4894 7.21636C37.5585 7.42364 37.6476 7.58364 37.7567 7.69636C37.8694 7.80909 37.9948 7.88364 38.133 7.92C38.2748 7.95636 38.4203 7.97455 38.5694 7.97455C38.6603 7.97455 38.7639 7.95818 38.8803 7.92545C38.9967 7.89273 39.1058 7.83818 39.2076 7.76182C39.3094 7.68182 39.3948 7.57636 39.4639 7.44545C39.5367 7.31455 39.573 7.15091 39.573 6.95455V5.31273H40.5985V7.00909C40.6058 7.34 40.693 7.58364 40.8603 7.74C41.0312 7.89636 41.3021 7.97455 41.673 7.97455C41.7348 7.97091 41.8148 7.95818 41.913 7.93636C42.0148 7.91091 42.1112 7.86364 42.2021 7.79455C42.2967 7.72182 42.3767 7.62 42.4421 7.48909C42.5112 7.35455 42.5458 7.17636 42.5458 6.95455C42.5458 6.87455 42.5385 6.77455 42.5239 6.65455C42.513 6.53455 42.4985 6.40727 42.4803 6.27273C42.4621 6.13455 42.4403 5.99455 42.4148 5.85273C42.3894 5.70727 42.3639 5.57091 42.3385 5.44364C42.3167 5.31636 42.2948 5.20364 42.273 5.10545C42.2512 5.00364 42.233 4.92727 42.2185 4.87636L43.2003 4.57636C43.2076 4.59455 43.2203 4.65091 43.2385 4.74545C43.2603 4.83636 43.2858 4.95091 43.3148 5.08909C43.3439 5.22364 43.373 5.37455 43.4021 5.54182C43.4348 5.70909 43.4639 5.87818 43.4894 6.04909C43.5148 6.21636 43.5348 6.38 43.5494 6.54C43.5676 6.69636 43.5767 6.83455 43.5767 6.95455C43.5767 7.3 43.5203 7.6 43.4076 7.85455C43.2985 8.10545 43.153 8.31636 42.9712 8.48727C42.793 8.65455 42.5894 8.78182 42.3603 8.86909C42.1348 8.95273 41.9076 8.99636 41.6785 9ZM40.6639 1.40727L39.8894 2.16545L39.1258 1.40727L39.9112 0.627273L40.6639 1.40727ZM40.9312 3.87273L40.0694 3L40.9203 2.11636L41.8039 3L40.9312 3.87273ZM38.8421 3.86182L37.9803 2.98909L38.8312 2.10545L39.7148 2.98909L38.8421 3.86182ZM43.1016 12.0273V10.9964H43.8543C44.2288 10.9964 44.5525 10.9509 44.8252 10.86C45.1016 10.7727 45.3288 10.6364 45.507 10.4509C45.6888 10.2655 45.8216 10.0291 45.9052 9.74182C45.9925 9.45455 46.0361 9.11273 46.0361 8.71636V5.31273H47.067V8.71636C47.067 9.23636 46.9979 9.7 46.8597 10.1073C46.7252 10.5182 46.5234 10.8655 46.2543 11.1491C45.9852 11.4327 45.6488 11.6491 45.2452 11.7982C44.8452 11.9509 44.3816 12.0273 43.8543 12.0273H43.1016ZM45.5725 2.95091L46.4997 2.01273L47.4488 2.96182L46.5107 3.9L45.5725 2.95091ZM49.7234 8.99455H48.6925V1.21636H49.7234V8.99455ZM53.7743 9.08182C53.5889 9.08182 53.4016 9.07273 53.2125 9.05455C53.0234 9.04 52.838 9.01636 52.6561 8.98364C52.478 8.94727 52.3052 8.90182 52.138 8.84727C51.9743 8.78909 51.8252 8.72 51.6907 8.64L51.238 8.38364L51.7507 7.48364L52.2034 7.74C52.3307 7.81273 52.487 7.87273 52.6725 7.92C52.858 7.96364 53.0543 7.99455 53.2616 8.01273C53.4398 8.03091 53.618 8.04 53.7961 8.04C53.8289 8.04 53.9052 8.04 54.0252 8.04C54.1452 8.03636 54.2943 8.02182 54.4725 7.99636C54.6834 7.96364 54.8561 7.91818 54.9907 7.86C55.1289 7.79818 55.2161 7.72909 55.2525 7.65273C55.267 7.61636 55.2743 7.57636 55.2743 7.53273C55.2743 7.47091 55.2561 7.38545 55.2198 7.27636C55.1834 7.16364 55.107 7.02 54.9907 6.84545L53.0161 3.86182L53.8889 3.29455C53.9361 3.36727 53.9852 3.44364 54.0361 3.52364C54.087 3.6 54.147 3.69091 54.2161 3.79636C54.2852 3.89818 54.3652 4.02 54.4561 4.16182C54.547 4.3 54.658 4.46727 54.7889 4.66364C54.9198 4.86 55.0725 5.08909 55.247 5.35091C55.4216 5.61273 55.6252 5.91818 55.858 6.26727C55.9489 6.40545 56.0307 6.55091 56.1034 6.70364C56.1761 6.85273 56.2307 7.00364 56.267 7.15636C56.2998 7.29455 56.3161 7.43273 56.3161 7.57091C56.3161 7.58545 56.3143 7.63636 56.3107 7.72364C56.307 7.80727 56.2707 7.92364 56.2016 8.07273C55.9725 8.58545 55.4452 8.90182 54.6198 9.02182C54.4925 9.04 54.358 9.05455 54.2161 9.06545C54.0743 9.07636 53.927 9.08182 53.7743 9.08182ZM60.8412 9H60.6067C60.2576 9 59.9358 8.93091 59.6412 8.79273C59.6412 9.30182 59.5703 9.75636 59.4285 10.1564C59.2867 10.5564 59.0794 10.8945 58.8067 11.1709C58.534 11.4509 58.1976 11.6636 57.7976 11.8091C57.4012 11.9545 56.9449 12.0273 56.4285 12.0273H55.6758V10.9964H56.4285C56.8031 10.9964 57.1267 10.9509 57.3994 10.86C57.6758 10.7727 57.9031 10.6364 58.0812 10.4509C58.2631 10.2655 58.3958 10.0291 58.4794 9.74182C58.5667 9.45455 58.6103 9.11273 58.6103 8.71636V5.31273H59.6412V7.11818C59.6412 7.32182 59.6831 7.48182 59.7667 7.59818C59.854 7.71091 59.954 7.79455 60.0667 7.84909C60.1794 7.90364 60.2867 7.93818 60.3885 7.95273C60.494 7.96364 60.5667 7.96909 60.6067 7.96909H60.8412V9ZM64.4084 4.56C64.4157 4.58182 64.4302 4.64 64.452 4.73455C64.4738 4.82909 64.4975 4.94727 64.5229 5.08909C64.552 5.22727 64.5829 5.38182 64.6157 5.55273C64.6484 5.72 64.6775 5.89091 64.7029 6.06545C64.7284 6.23636 64.7502 6.40182 64.7684 6.56182C64.7866 6.72182 64.7957 6.86182 64.7957 6.98182C64.7957 7.33091 64.7375 7.63273 64.6211 7.88727C64.5084 8.13818 64.3593 8.34727 64.1738 8.51455C63.992 8.67818 63.7866 8.8 63.5575 8.88C63.3284 8.96 63.0975 9 62.8647 9H60.6066V7.96909H62.8647C62.9193 7.96909 62.9957 7.96182 63.0938 7.94727C63.1957 7.92909 63.2957 7.88727 63.3938 7.82182C63.4957 7.75636 63.5829 7.65818 63.6557 7.52727C63.732 7.39636 63.7702 7.21455 63.7702 6.98182C63.7702 6.90182 63.7629 6.80182 63.7484 6.68182C63.7375 6.55818 63.7211 6.42727 63.6993 6.28909C63.6811 6.14727 63.6593 6.00364 63.6338 5.85818C63.6084 5.70909 63.5829 5.56909 63.5575 5.43818C63.532 5.30727 63.5084 5.19091 63.4866 5.08909C63.4647 4.98727 63.4466 4.91091 63.432 4.86L64.4084 4.56ZM63.2193 13.3036L62.4338 12.5236L63.1975 11.7655L63.972 12.5236L63.2193 13.3036ZM65.112 10.9309L64.2284 11.8145L63.3775 10.9309L64.2393 10.0582L65.112 10.9309ZM63.0229 10.9418L62.1393 11.8255L61.2884 10.9418L62.1502 10.0691L63.0229 10.9418ZM69.2812 12.0273V10.9964H70.034C70.4085 10.9964 70.7322 10.9509 71.0049 10.86C71.2812 10.7727 71.5085 10.6364 71.6867 10.4509C71.8685 10.2655 72.0012 10.0291 72.0849 9.74182C72.1722 9.45455 72.2158 9.11273 72.2158 8.71636V5.31273H73.2467V8.71636C73.2467 9.23636 73.1776 9.7 73.0394 10.1073C72.9049 10.5182 72.7031 10.8655 72.434 11.1491C72.1649 11.4327 71.8285 11.6491 71.4249 11.7982C71.0249 11.9509 70.5612 12.0273 70.034 12.0273H69.2812ZM77.2503 9C76.8685 8.99636 76.5522 8.97091 76.3013 8.92364C76.054 8.87273 75.8431 8.80182 75.6685 8.71091C75.4976 8.61636 75.3594 8.5 75.254 8.36182C75.1522 8.22 75.0722 8.05636 75.014 7.87091C74.9558 7.68182 74.9176 7.47091 74.8994 7.23818C74.8813 7.00545 74.8722 6.74727 74.8722 6.46364V1.21636H75.9031V6.46364C75.9031 6.78 75.9122 7.03636 75.9303 7.23273C75.9522 7.42909 76.0049 7.58182 76.0885 7.69091C76.1758 7.79636 76.3049 7.86909 76.4758 7.90909C76.6503 7.94545 76.9085 7.96545 77.2503 7.96909V9ZM84.0063 9H83.9245C83.6009 9 83.3118 8.96909 83.0573 8.90727C82.8063 8.84545 82.5773 8.75818 82.37 8.64545C82.1627 8.52909 81.9718 8.39091 81.7973 8.23091C81.6227 8.06727 81.4518 7.88545 81.2845 7.68545C81.2773 7.70364 81.27 7.72 81.2627 7.73455C81.2554 7.74909 81.2482 7.76545 81.2409 7.78364C81.1391 7.98364 80.9954 8.16364 80.81 8.32364C80.6282 8.48364 80.4118 8.61636 80.1609 8.72182C79.9463 8.81636 79.7082 8.88727 79.4463 8.93455C79.1845 8.97818 78.9118 9 78.6282 9H77.0245V7.96909H78.6282C78.8391 7.96909 79.0354 7.95455 79.2173 7.92545C79.4027 7.89273 79.5682 7.84909 79.7136 7.79455C79.8627 7.73636 79.9882 7.66727 80.09 7.58727C80.1954 7.50727 80.2736 7.41818 80.3245 7.32C80.3718 7.22182 80.3954 7.11091 80.3954 6.98727C80.3954 6.88909 80.37 6.74909 80.3191 6.56727C80.2682 6.38182 80.1282 6.13455 79.8991 5.82545C79.5754 5.37091 79.3009 4.98545 79.0754 4.66909C78.85 4.35273 78.6663 4.09455 78.5245 3.89455C78.3573 3.66182 78.2209 3.47091 78.1154 3.32182L78.3173 2.55818L83.3245 0.245454L83.75 1.18909L79.2827 3.23455L81.4482 6.24C81.67 6.53818 81.8682 6.79636 82.0427 7.01455C82.2173 7.22909 82.3936 7.40727 82.5718 7.54909C82.7536 7.69091 82.95 7.79636 83.1609 7.86545C83.3754 7.93455 83.63 7.96909 83.9245 7.96909H84.0063V9ZM87.3254 7.59273C87.46 7.53455 87.5836 7.46182 87.6963 7.37455C87.8127 7.28727 87.9127 7.18909 87.9963 7.08C88.0836 6.96727 88.1509 6.84545 88.1982 6.71455C88.2454 6.58364 88.2691 6.44182 88.2691 6.28909C88.2691 6.10727 88.2309 5.95455 88.1545 5.83091C88.0782 5.70364 87.9873 5.60182 87.8818 5.52545C87.7763 5.44545 87.6654 5.38909 87.5491 5.35636C87.4363 5.32 87.34 5.30182 87.26 5.30182C87.1109 5.30182 86.9727 5.32545 86.8454 5.37273C86.7218 5.41636 86.6127 5.47818 86.5182 5.55818C86.4273 5.63818 86.3545 5.73455 86.3 5.84727C86.2491 5.96 86.2236 6.08182 86.2236 6.21273C86.2236 6.36909 86.2436 6.51091 86.2836 6.63818C86.3273 6.76182 86.3927 6.87818 86.48 6.98727C86.5709 7.09273 86.6854 7.19455 86.8236 7.29273C86.9618 7.39091 87.1291 7.49091 87.3254 7.59273ZM88.7163 3.26182C89.1163 3.68 89.4854 4.07091 89.8236 4.43455C89.9691 4.59091 90.1145 4.74909 90.26 4.90909C90.4054 5.06545 90.54 5.21636 90.6636 5.36182C90.7909 5.50364 90.9018 5.63455 90.9963 5.75455C91.0945 5.87091 91.1673 5.96545 91.2145 6.03818C91.3127 6.19818 91.3927 6.35273 91.4545 6.50182C91.52 6.65091 91.5654 6.80182 91.5909 6.95455C91.6054 7.04545 91.6127 7.13818 91.6127 7.23273C91.6127 7.29455 91.6073 7.38182 91.5963 7.49455C91.5854 7.60727 91.5527 7.75636 91.4982 7.94182C91.44 8.15273 91.3473 8.34545 91.22 8.52C91.0963 8.69091 90.9454 8.83818 90.7673 8.96182C90.5891 9.08545 90.3873 9.18 90.1618 9.24545C89.9363 9.31455 89.6927 9.34909 89.4309 9.34909C89.1836 9.34909 88.9273 9.31636 88.6618 9.25091C88.3963 9.18545 88.1218 9.08364 87.8382 8.94545C87.7582 8.91273 87.6836 8.88 87.6145 8.84727C87.5527 8.81818 87.4891 8.78909 87.4236 8.76C87.3618 8.73091 87.3109 8.70545 87.2709 8.68364C86.9291 8.78909 86.5291 8.86909 86.0709 8.92364C85.6127 8.97455 85.1182 9 84.5873 9H83.7854V7.96909H84.5873C84.8236 7.96909 85.0673 7.96545 85.3182 7.95818C85.5727 7.95091 85.7982 7.93455 85.9945 7.90909C85.7327 7.68 85.5418 7.42909 85.4218 7.15636C85.3018 6.88 85.2418 6.56545 85.2418 6.21273C85.2418 5.93636 85.2927 5.68182 85.3945 5.44909C85.4963 5.21273 85.6363 5.00909 85.8145 4.83818C85.9963 4.66727 86.2091 4.53455 86.4527 4.44C86.7 4.34182 86.9691 4.29273 87.26 4.29273C87.4782 4.29273 87.6782 4.32364 87.86 4.38545C88.0418 4.44727 88.2073 4.53091 88.3563 4.63636C88.5054 4.73818 88.6345 4.85818 88.7436 4.99636C88.8563 5.13091 88.9509 5.27273 89.0273 5.42182C89.1036 5.56727 89.16 5.71636 89.1963 5.86909C89.2363 6.01818 89.2563 6.15818 89.2563 6.28909C89.2563 6.66364 89.1854 7.00182 89.0436 7.30364C88.9054 7.60182 88.7 7.86545 88.4273 8.09455C88.58 8.15636 88.7418 8.20727 88.9127 8.24727C89.0873 8.28727 89.26 8.30727 89.4309 8.30727C89.54 8.30727 89.6473 8.3 89.7527 8.28545C89.8618 8.27091 89.9636 8.24182 90.0582 8.19818C90.1563 8.15455 90.2454 8.09636 90.3254 8.02364C90.4054 7.94727 90.4745 7.84909 90.5327 7.72909C90.58 7.63091 90.6036 7.52364 90.6036 7.40727C90.6036 7.35273 90.5909 7.26545 90.5654 7.14545C90.5436 7.02545 90.4745 6.86364 90.3582 6.66C90.2418 6.45636 90.0945 6.24545 89.9163 6.02727C89.7382 5.80545 89.5418 5.58 89.3273 5.35091C89.1127 5.12182 88.8891 4.89273 88.6563 4.66364C88.4236 4.43455 88.1963 4.20727 87.9745 3.98182L88.7163 3.26182ZM94.1726 8.99455H93.1417V1.21636H94.1726V8.99455ZM93.9023 12.0273V10.9964H94.6551C95.0296 10.9964 95.3533 10.9509 95.626 10.86C95.9023 10.7727 96.1296 10.6364 96.3078 10.4509C96.4896 10.2655 96.6223 10.0291 96.706 9.74182C96.7933 9.45455 96.8369 9.11273 96.8369 8.71636V5.31273H97.8678V8.71636C97.8678 9.23636 97.7987 9.7 97.6605 10.1073C97.526 10.5182 97.3242 10.8655 97.0551 11.1491C96.786 11.4327 96.4496 11.6491 96.046 11.7982C95.646 11.9509 95.1823 12.0273 94.6551 12.0273H93.9023ZM101.326 3.18L101.877 2.73273C101.884 2.74 101.913 2.78 101.964 2.85273C102.019 2.92545 102.086 3.02545 102.166 3.15273C102.25 3.28 102.335 3.43455 102.422 3.61636C102.513 3.79818 102.597 3.99818 102.673 4.21636C102.75 4.43455 102.813 4.67273 102.864 4.93091C102.915 5.18909 102.941 5.46 102.941 5.74364C102.941 6.17636 102.888 6.57273 102.782 6.93273C102.677 7.29273 102.557 7.60545 102.422 7.87091C102.291 8.13636 102.17 8.34545 102.057 8.49818C101.948 8.65091 101.888 8.73455 101.877 8.74909L101.331 8.29636C101.379 8.23818 101.426 8.17091 101.473 8.09455C101.517 8.03273 101.566 7.95818 101.621 7.87091C101.675 7.78 101.73 7.67636 101.784 7.56C101.835 7.45818 101.888 7.34182 101.942 7.21091C101.997 7.07636 102.044 6.93273 102.084 6.78C102.128 6.62727 102.162 6.46364 102.188 6.28909C102.217 6.11455 102.231 5.93273 102.231 5.74364C102.231 5.55818 102.217 5.37818 102.188 5.20364C102.162 5.02909 102.128 4.86364 102.084 4.70727C102.044 4.55091 101.997 4.40727 101.942 4.27636C101.888 4.14545 101.835 4.02909 101.784 3.92727C101.73 3.81091 101.675 3.70727 101.621 3.61636C101.566 3.52545 101.517 3.44909 101.473 3.38727C101.43 3.32182 101.395 3.27091 101.37 3.23455L101.326 3.18ZM99.8587 3.74727L100.399 3.29455C100.41 3.30545 100.461 3.37455 100.551 3.50182C100.642 3.62545 100.741 3.79636 100.846 4.01455C100.951 4.23273 101.048 4.48909 101.135 4.78364C101.222 5.07455 101.266 5.39455 101.266 5.74364C101.266 6.08909 101.222 6.40909 101.135 6.70364C101.048 6.99818 100.951 7.25273 100.846 7.46727C100.741 7.68182 100.642 7.85273 100.551 7.98C100.461 8.10364 100.41 8.17273 100.399 8.18727L99.8587 7.73455C99.8587 7.72727 99.8951 7.67455 99.9678 7.57636C100.044 7.47455 100.126 7.33636 100.213 7.16182C100.301 6.98364 100.379 6.77455 100.448 6.53455C100.521 6.29091 100.557 6.02727 100.557 5.74364C100.557 5.46364 100.521 5.20364 100.448 4.96364C100.379 4.72 100.301 4.50909 100.213 4.33091C100.126 4.14909 100.044 4.00727 99.9678 3.90545L99.8587 3.74727ZM111.544 12.0218C110.981 12.0218 110.47 11.8982 110.011 11.6509C109.553 11.4073 109.182 11.0582 108.899 10.6036C108.702 10.2945 108.562 9.95091 108.479 9.57273C108.41 9.28182 108.375 8.97636 108.375 8.65636C108.375 8.56182 108.382 8.38364 108.397 8.12182C108.415 7.85636 108.491 7.48909 108.626 7.02C108.761 6.54727 108.948 6.06 109.188 5.55818L110.115 6C109.911 6.42182 109.75 6.82727 109.63 7.21636C109.513 7.60182 109.441 7.96727 109.411 8.31273C109.401 8.42909 109.395 8.54182 109.395 8.65091C109.395 8.86909 109.419 9.1 109.466 9.34364C109.517 9.59091 109.617 9.83091 109.766 10.0636C109.955 10.3582 110.202 10.5855 110.508 10.7455C110.813 10.9091 111.159 10.9909 111.544 10.9909H112.826C113.244 10.9909 113.584 10.9455 113.846 10.8545C114.111 10.7673 114.317 10.6436 114.462 10.4836C114.611 10.3236 114.711 10.1291 114.762 9.9C114.817 9.67455 114.844 9.42364 114.844 9.14727V5.31273H115.875V9.14727C115.875 10.1073 115.621 10.8255 115.111 11.3018C114.602 11.7818 113.841 12.0218 112.826 12.0218H111.544ZM111.588 4.88182L112.515 3.94364L113.464 4.89273L112.526 5.83091L111.588 4.88182ZM120.024 9C119.642 8.99636 119.326 8.97091 119.075 8.92364C118.827 8.87273 118.617 8.80182 118.442 8.71091C118.271 8.61636 118.133 8.5 118.027 8.36182C117.926 8.22 117.846 8.05636 117.787 7.87091C117.729 7.68182 117.691 7.47091 117.673 7.23818C117.655 7.00545 117.646 6.74727 117.646 6.46364V1.21636H118.677V6.46364C118.677 6.78 118.686 7.03636 118.704 7.23273C118.726 7.42909 118.778 7.58182 118.862 7.69091C118.949 7.79636 119.078 7.86909 119.249 7.90909C119.424 7.94545 119.682 7.96545 120.024 7.96909V9ZM125.765 7.96909V9H124.811C124.48 9 124.187 8.95273 123.933 8.85818C123.682 8.76364 123.48 8.62182 123.327 8.43273C122.949 8.81091 122.389 9 121.647 9H119.793V7.96909H121.647C121.909 7.96909 122.116 7.94364 122.269 7.89273C122.422 7.83818 122.536 7.77273 122.613 7.69636C122.693 7.61636 122.743 7.52909 122.765 7.43455C122.791 7.33636 122.803 7.24364 122.803 7.15636V5.31273H123.829V7.11818C123.829 7.25273 123.849 7.36727 123.889 7.46182C123.933 7.55636 123.985 7.63636 124.047 7.70182C124.109 7.76364 124.178 7.81273 124.254 7.84909C124.334 7.88545 124.411 7.91273 124.483 7.93091C124.556 7.94909 124.622 7.96 124.68 7.96364C124.738 7.96727 124.782 7.96909 124.811 7.96909H125.765ZM124.26 11.1109L123.376 11.9945L122.525 11.1109L123.387 10.2382L124.26 11.1109ZM122.171 11.1218L121.287 12.0055L120.436 11.1218L121.298 10.2491L122.171 11.1218ZM130.164 7.96909V9H129.739C129.408 9 129.115 8.95273 128.86 8.85818C128.609 8.76364 128.408 8.62182 128.255 8.43273C127.877 8.81091 127.317 9 126.575 9H125.528V7.96909H126.575C126.837 7.96909 127.044 7.94364 127.197 7.89273C127.349 7.83818 127.464 7.77273 127.54 7.69636C127.62 7.61636 127.671 7.52909 127.693 7.43455C127.719 7.33636 127.731 7.24364 127.731 7.15636V5.31273H128.757V7.11818C128.757 7.25273 128.777 7.36727 128.817 7.46182C128.857 7.55636 128.908 7.63636 128.969 7.70182C129.035 7.76364 129.106 7.81273 129.182 7.84909C129.262 7.88545 129.339 7.91273 129.411 7.93091C129.484 7.94909 129.549 7.96 129.608 7.96364C129.666 7.96727 129.709 7.96909 129.739 7.96909H130.164ZM126.919 2.79818L127.846 1.86L128.795 2.80909L127.857 3.74727L126.919 2.79818ZM132.88 4.56C132.887 4.58182 132.902 4.64 132.924 4.73455C132.946 4.82909 132.969 4.94727 132.995 5.08909C133.024 5.22727 133.055 5.38182 133.087 5.55273C133.12 5.72 133.149 5.89091 133.175 6.06545C133.2 6.23636 133.222 6.40182 133.24 6.56182C133.258 6.72182 133.267 6.86182 133.267 6.98182C133.267 7.33091 133.209 7.63273 133.093 7.88727C132.98 8.13818 132.831 8.34727 132.646 8.51455C132.464 8.67818 132.258 8.8 132.029 8.88C131.8 8.96 131.569 9 131.337 9H129.946V7.96909H131.337C131.391 7.96909 131.467 7.96182 131.566 7.94727C131.667 7.92909 131.767 7.88727 131.866 7.82182C131.967 7.75636 132.055 7.65818 132.127 7.52727C132.204 7.39636 132.242 7.21455 132.242 6.98182C132.242 6.90182 132.235 6.80182 132.22 6.68182C132.209 6.55818 132.193 6.42727 132.171 6.28909C132.153 6.14727 132.131 6.00364 132.106 5.85818C132.08 5.70909 132.055 5.56909 132.029 5.43818C132.004 5.30727 131.98 5.19091 131.958 5.08909C131.937 4.98727 131.918 4.91091 131.904 4.86L132.88 4.56ZM130.993 10.98L131.92 10.0418L132.869 10.9909L131.931 11.9291L130.993 10.98ZM149.293 9C148.933 9 148.615 8.94727 148.338 8.84182C148.066 8.73636 147.838 8.58364 147.657 8.38364L147.526 8.50909C147.344 8.66182 147.135 8.78182 146.898 8.86909C146.662 8.95636 146.42 9 146.173 9C145.817 9 145.504 8.94727 145.235 8.84182C144.966 8.73636 144.74 8.58364 144.558 8.38364L144.427 8.50909C144.246 8.66182 144.037 8.78182 143.8 8.86909C143.564 8.95636 143.322 9 143.075 9C142.62 9 142.228 8.89818 141.897 8.69455V9.15273C141.897 10.1055 141.642 10.82 141.133 11.2964C140.624 11.7727 139.862 12.0109 138.848 12.0109H137.566C137.002 12.0109 136.491 11.8891 136.033 11.6455C135.575 11.4018 135.204 11.0545 134.92 10.6036C134.724 10.2945 134.584 9.95091 134.5 9.57273C134.435 9.27818 134.402 8.96909 134.402 8.64545C134.402 8.55091 134.409 8.37091 134.424 8.10545C134.438 7.84 134.513 7.46909 134.647 6.99273C134.782 6.51636 134.969 6.02545 135.209 5.52L136.137 5.97273C135.933 6.39455 135.771 6.8 135.651 7.18909C135.535 7.57818 135.462 7.94545 135.433 8.29091C135.426 8.40727 135.422 8.52 135.422 8.62909C135.422 8.85091 135.446 9.08545 135.493 9.33273C135.54 9.58 135.638 9.82 135.787 10.0527C135.977 10.3473 136.224 10.5745 136.529 10.7345C136.835 10.8982 137.18 10.98 137.566 10.98H138.848C139.266 10.98 139.606 10.9364 139.867 10.8491C140.133 10.7618 140.338 10.6382 140.484 10.4782C140.633 10.3182 140.733 10.1255 140.784 9.9C140.838 9.67818 140.866 9.42909 140.866 9.15273V5.31818H141.897V6.37636C141.897 6.72545 141.929 7.00545 141.995 7.21636C142.064 7.42364 142.153 7.58364 142.262 7.69636C142.375 7.80909 142.5 7.88364 142.638 7.92C142.78 7.95636 142.926 7.97455 143.075 7.97455C143.166 7.97455 143.269 7.95818 143.386 7.92545C143.502 7.89273 143.611 7.83818 143.713 7.76182C143.815 7.68182 143.9 7.57636 143.969 7.44545C144.042 7.31455 144.078 7.15091 144.078 6.95455V5.31818H145.104V7.00909C145.111 7.34 145.198 7.58364 145.366 7.74C145.537 7.89636 145.809 7.97455 146.184 7.97455C146.275 7.97455 146.377 7.95818 146.489 7.92545C146.606 7.89273 146.715 7.83818 146.817 7.76182C146.918 7.68182 147.004 7.57636 147.073 7.44545C147.142 7.31455 147.177 7.15091 147.177 6.95455V5.31818H148.202V7.00909C148.209 7.34 148.298 7.58364 148.469 7.74C148.644 7.89273 148.918 7.96909 149.293 7.96909H149.724V9H149.293ZM145.344 1.55455L144.569 2.31273L143.806 1.55455L144.591 0.774545L145.344 1.55455ZM145.611 4.02L144.749 3.14727L145.6 2.26364L146.484 3.14727L145.611 4.02ZM143.522 4.00909L142.66 3.13636L143.511 2.25273L144.395 3.13636L143.522 4.00909ZM152.45 4.56C152.458 4.58182 152.472 4.64 152.494 4.73455C152.516 4.82909 152.54 4.94727 152.565 5.08909C152.594 5.22727 152.625 5.38182 152.658 5.55273C152.69 5.72 152.72 5.89091 152.745 6.06545C152.77 6.23636 152.792 6.40182 152.81 6.56182C152.829 6.72182 152.838 6.86182 152.838 6.98182C152.838 7.33091 152.78 7.63273 152.663 7.88727C152.55 8.13818 152.401 8.34727 152.216 8.51455C152.034 8.67818 151.829 8.8 151.6 8.88C151.37 8.96 151.14 9 150.907 9H149.516V7.96909H150.907C150.961 7.96909 151.038 7.96182 151.136 7.94727C151.238 7.92909 151.338 7.88727 151.436 7.82182C151.538 7.75636 151.625 7.65818 151.698 7.52727C151.774 7.39636 151.812 7.21455 151.812 6.98182C151.812 6.90182 151.805 6.80182 151.79 6.68182C151.78 6.55818 151.763 6.42727 151.741 6.28909C151.723 6.14727 151.701 6.00364 151.676 5.85818C151.65 5.70909 151.625 5.56909 151.6 5.43818C151.574 5.30727 151.55 5.19091 151.529 5.08909C151.507 4.98727 151.489 4.91091 151.474 4.86L152.45 4.56ZM150.65 2.30727L151.578 1.36909L152.527 2.31818L151.589 3.25636L150.65 2.30727ZM155.38 8.99455H154.349V1.21636H155.38V8.99455ZM159.431 9.08182C159.245 9.08182 159.058 9.07273 158.869 9.05455C158.68 9.04 158.494 9.01636 158.312 8.98364C158.134 8.94727 157.961 8.90182 157.794 8.84727C157.631 8.78909 157.481 8.72 157.347 8.64L156.894 8.38364L157.407 7.48364L157.86 7.74C157.987 7.81273 158.143 7.87273 158.329 7.92C158.514 7.96364 158.711 7.99455 158.918 8.01273C159.096 8.03091 159.274 8.04 159.452 8.04C159.485 8.04 159.561 8.04 159.681 8.04C159.801 8.03636 159.951 8.02182 160.129 7.99636C160.34 7.96364 160.512 7.91818 160.647 7.86C160.785 7.79818 160.872 7.72909 160.909 7.65273C160.923 7.61636 160.931 7.57636 160.931 7.53273C160.931 7.47091 160.912 7.38545 160.876 7.27636C160.84 7.16364 160.763 7.02 160.647 6.84545L158.672 3.86182L159.545 3.29455C159.592 3.36727 159.641 3.44364 159.692 3.52364C159.743 3.6 159.803 3.69091 159.872 3.79636C159.941 3.89818 160.021 4.02 160.112 4.16182C160.203 4.3 160.314 4.46727 160.445 4.66364C160.576 4.86 160.729 5.08909 160.903 5.35091C161.078 5.61273 161.281 5.91818 161.514 6.26727C161.605 6.40545 161.687 6.55091 161.76 6.70364C161.832 6.85273 161.887 7.00364 161.923 7.15636C161.956 7.29455 161.972 7.43273 161.972 7.57091C161.972 7.58545 161.971 7.63636 161.967 7.72364C161.963 7.80727 161.927 7.92364 161.858 8.07273C161.629 8.58545 161.101 8.90182 160.276 9.02182C160.149 9.04 160.014 9.05455 159.872 9.06545C159.731 9.07636 159.583 9.08182 159.431 9.08182ZM178.427 7.96909V8.99455H178.264C177.998 8.99455 177.747 8.95636 177.511 8.88C177.275 8.8 177.064 8.68545 176.878 8.53636C176.857 8.51818 176.835 8.5 176.813 8.48182C176.791 8.46 176.769 8.43818 176.747 8.41636C176.362 8.79818 175.804 8.99091 175.073 8.99455H168.882C168.624 8.99455 168.38 8.95091 168.151 8.86364C167.926 8.77636 167.726 8.65091 167.551 8.48727C167.478 8.42182 167.406 8.34182 167.333 8.24727C167.26 8.15273 167.193 8.04182 167.131 7.91455C167.073 7.78727 167.024 7.64364 166.984 7.48364C166.947 7.32 166.929 7.13636 166.929 6.93273C166.929 6.75091 166.947 6.55091 166.984 6.33273C167.024 6.11455 167.066 5.90727 167.109 5.71091C167.157 5.51455 167.2 5.34545 167.24 5.20364C167.284 5.06182 167.311 4.97455 167.322 4.94182L168.304 5.25273C168.278 5.32909 168.246 5.43818 168.206 5.58C168.169 5.71818 168.131 5.86727 168.091 6.02727C168.055 6.18727 168.022 6.34909 167.993 6.51273C167.967 6.67273 167.955 6.81273 167.955 6.93273C167.955 7.17273 167.993 7.36182 168.069 7.5C168.146 7.63818 168.235 7.74182 168.337 7.81091C168.442 7.88 168.547 7.92364 168.653 7.94182C168.758 7.96 168.838 7.96909 168.893 7.96909H175.035C175.3 7.96909 175.511 7.94182 175.667 7.88727C175.827 7.83273 175.947 7.76364 176.027 7.68C176.111 7.59636 176.164 7.50545 176.186 7.40727C176.211 7.30545 176.224 7.20909 176.224 7.11818V5.22545H177.255V7.09091C177.255 7.29818 177.298 7.46182 177.386 7.58182C177.477 7.69818 177.58 7.78545 177.697 7.84364C177.813 7.90182 177.926 7.93818 178.035 7.95273C178.144 7.96364 178.22 7.96909 178.264 7.96909H178.427ZM173.071 4.82182L172.209 3.94909L173.06 3.06545L173.944 3.94909L173.071 4.82182ZM170.982 4.81091L170.12 3.93818L170.971 3.05455L171.855 3.93818L170.982 4.81091ZM178.14 9V7.96909H181.337C181.598 7.96909 181.815 7.94 181.986 7.88182C182.16 7.82 182.273 7.73636 182.324 7.63091C182.349 7.57636 182.362 7.51455 182.362 7.44545C182.362 7.38364 182.344 7.29636 182.307 7.18364C182.275 7.06727 182.202 6.91636 182.089 6.73091C181.977 6.54182 181.838 6.34364 181.675 6.13636C181.511 5.92909 181.335 5.72182 181.146 5.51455C180.957 5.30727 180.762 5.10545 180.562 4.90909C180.362 4.70909 180.169 4.52545 179.984 4.35818C179.798 4.18727 179.629 4.03818 179.477 3.91091C179.324 3.78 179.198 3.68 179.1 3.61091L179.204 2.44909L184.195 0.256363L184.609 1.19455L180.24 3.10364C180.349 3.21273 180.489 3.35091 180.66 3.51818C180.831 3.68182 181.017 3.86545 181.217 4.06909C181.417 4.26909 181.62 4.48364 181.827 4.71273C182.035 4.93818 182.231 5.16545 182.417 5.39455C182.602 5.62364 182.766 5.84909 182.907 6.07091C183.053 6.28909 183.16 6.49091 183.229 6.67636C183.291 6.83636 183.335 6.98545 183.36 7.12364C183.378 7.24364 183.387 7.35273 183.387 7.45091C183.387 7.46909 183.386 7.51091 183.382 7.57636C183.382 7.64182 183.369 7.72 183.344 7.81091C183.322 7.90182 183.297 7.98 183.267 8.04545C183.227 8.13636 183.166 8.23818 183.082 8.35091C182.998 8.46 182.88 8.56364 182.727 8.66182C182.578 8.75636 182.391 8.83636 182.166 8.90182C181.94 8.96727 181.664 9 181.337 9H178.14ZM188.412 9H188.177C187.828 9 187.506 8.93091 187.212 8.79273C187.212 9.30182 187.141 9.75636 186.999 10.1564C186.857 10.5564 186.65 10.8945 186.377 11.1709C186.104 11.4509 185.768 11.6636 185.368 11.8091C184.972 11.9545 184.515 12.0273 183.999 12.0273H183.246V10.9964H183.999C184.373 10.9964 184.697 10.9509 184.97 10.86C185.246 10.7727 185.473 10.6364 185.652 10.4509C185.833 10.2655 185.966 10.0291 186.05 9.74182C186.137 9.45455 186.181 9.11273 186.181 8.71636V5.31273H187.212V7.11818C187.212 7.32182 187.253 7.48182 187.337 7.59818C187.424 7.71091 187.524 7.79455 187.637 7.84909C187.75 7.90364 187.857 7.93818 187.959 7.95273C188.064 7.96364 188.137 7.96909 188.177 7.96909H188.412V9ZM192.442 8.98909C192.101 8.98909 191.797 8.94 191.531 8.84182C191.266 8.74 191.042 8.59455 190.861 8.40545C190.671 8.60909 190.451 8.76 190.201 8.85818C189.95 8.95273 189.697 9 189.442 9H188.188V7.96909H189.442C189.497 7.96909 189.575 7.96182 189.677 7.94727C189.779 7.92909 189.879 7.88727 189.977 7.82182C190.075 7.75273 190.161 7.65091 190.233 7.51636C190.31 7.38182 190.348 7.19818 190.348 6.96545V5.31273H191.379V6.94364C191.379 7.29636 191.461 7.55455 191.624 7.71818C191.791 7.88182 192.064 7.96364 192.442 7.96364C192.497 7.96364 192.573 7.95455 192.671 7.93636C192.773 7.91455 192.873 7.86909 192.971 7.8C193.073 7.73091 193.161 7.62909 193.233 7.49455C193.31 7.36 193.348 7.17636 193.348 6.94364V5.31273H194.373V6.94364C194.373 7.29636 194.459 7.55636 194.63 7.72364C194.801 7.89091 195.075 7.97455 195.453 7.97455C195.511 7.97455 195.59 7.96364 195.688 7.94182C195.786 7.91636 195.882 7.86727 195.977 7.79455C196.075 7.72182 196.159 7.61818 196.228 7.48364C196.297 7.34909 196.331 7.16909 196.331 6.94364C196.331 6.86364 196.324 6.76364 196.31 6.64364C196.299 6.52364 196.282 6.39455 196.261 6.25636C196.242 6.11818 196.221 5.97818 196.195 5.83636C196.17 5.69091 196.144 5.55636 196.119 5.43273C196.093 5.30545 196.07 5.19273 196.048 5.09455C196.026 4.99273 196.008 4.91818 195.993 4.87091L196.97 4.56C196.977 4.58182 196.991 4.64 197.013 4.73455C197.035 4.82545 197.061 4.94 197.09 5.07818C197.119 5.21273 197.148 5.36364 197.177 5.53091C197.21 5.69818 197.239 5.86727 197.264 6.03818C197.293 6.20545 197.317 6.36909 197.335 6.52909C197.353 6.68545 197.362 6.82364 197.362 6.94364C197.362 7.28909 197.306 7.59091 197.193 7.84909C197.081 8.10364 196.933 8.31636 196.751 8.48727C196.573 8.65455 196.37 8.78182 196.141 8.86909C195.911 8.95273 195.682 8.99636 195.453 9C195.104 9 194.795 8.94909 194.526 8.84727C194.261 8.74182 194.035 8.59091 193.85 8.39455C193.661 8.59455 193.441 8.74364 193.19 8.84182C192.942 8.94 192.693 8.98909 192.442 8.98909ZM194.684 1.35818L193.91 2.11636L193.146 1.35818L193.931 0.578182L194.684 1.35818ZM194.951 3.82364L194.09 2.95091L194.941 2.06727L195.824 2.95091L194.951 3.82364ZM192.862 3.81273L192.001 2.94L192.851 2.05636L193.735 2.94L192.862 3.81273Z" fill="white"/>
</svg>
